<?xml version="1.0" encoding="utf-8" standalone="no"?>
<!DOCTYPE svg PUBLIC "-//W3C//DTD SVG 1.1//EN"
  "http://www.w3.org/Graphics/SVG/1.1/DTD/svg11.dtd">
<!-- Created with matplotlib (https://matplotlib.org/) -->
<svg height="568.066556pt" version="1.1" viewBox="0 0 709.171325 568.066556" width="709.171325pt" xmlns="http://www.w3.org/2000/svg" xmlns:xlink="http://www.w3.org/1999/xlink">
 <defs>
  <style type="text/css">
*{stroke-linecap:butt;stroke-linejoin:round;}
  </style>
 </defs>
 <g id="figure_1">
  <g id="patch_1">
   <path d="M 0 568.066556 
L 709.171325 568.066556 
L 709.171325 0 
L 0 0 
z
" style="fill:#ffffff;"/>
  </g>
  <g id="axes_1">
   <g id="patch_2">
    <path d="M 67.183825 507.589794 
L 679.066325 507.589794 
L 679.066325 14.038594 
L 67.183825 14.038594 
z
" style="fill:#ffffff;"/>
   </g>
   <g id="matplotlib.axis_1">
    <g id="xtick_1">
     <g id="line2d_1">
      <defs>
       <path d="M 0 0 
L 0 6 
" id="m7f352f5ccb" style="stroke:#555555;"/>
      </defs>
      <g>
       <use style="fill:#555555;stroke:#555555;" x="67.183825" xlink:href="#m7f352f5ccb" y="512.525306"/>
      </g>
     </g>
     <g id="text_1">
      <!-- 0 -->
      <defs>
       <path d="M 31.78125 66.40625 
Q 24.171875 66.40625 20.328125 58.90625 
Q 16.5 51.421875 16.5 36.375 
Q 16.5 21.390625 20.328125 13.890625 
Q 24.171875 6.390625 31.78125 6.390625 
Q 39.453125 6.390625 43.28125 13.890625 
Q 47.125 21.390625 47.125 36.375 
Q 47.125 51.421875 43.28125 58.90625 
Q 39.453125 66.40625 31.78125 66.40625 
z
M 31.78125 74.21875 
Q 44.046875 74.21875 50.515625 64.515625 
Q 56.984375 54.828125 56.984375 36.375 
Q 56.984375 17.96875 50.515625 8.265625 
Q 44.046875 -1.421875 31.78125 -1.421875 
Q 19.53125 -1.421875 13.0625 8.265625 
Q 6.59375 17.96875 6.59375 36.375 
Q 6.59375 54.828125 13.0625 64.515625 
Q 19.53125 74.21875 31.78125 74.21875 
z
" id="DejaVuSans-48"/>
      </defs>
      <g style="fill:#555555;" transform="translate(61.457575 535.702493)scale(0.18 -0.18)">
       <use xlink:href="#DejaVuSans-48"/>
      </g>
     </g>
    </g>
    <g id="xtick_2">
     <g id="line2d_2">
      <g>
       <use style="fill:#555555;stroke:#555555;" x="169.164242" xlink:href="#m7f352f5ccb" y="512.525306"/>
      </g>
     </g>
     <g id="text_2">
      <!-- 1000 -->
      <defs>
       <path d="M 12.40625 8.296875 
L 28.515625 8.296875 
L 28.515625 63.921875 
L 10.984375 60.40625 
L 10.984375 69.390625 
L 28.421875 72.90625 
L 38.28125 72.90625 
L 38.28125 8.296875 
L 54.390625 8.296875 
L 54.390625 0 
L 12.40625 0 
z
" id="DejaVuSans-49"/>
      </defs>
      <g style="fill:#555555;" transform="translate(146.259242 535.702493)scale(0.18 -0.18)">
       <use xlink:href="#DejaVuSans-49"/>
       <use x="63.623047" xlink:href="#DejaVuSans-48"/>
       <use x="127.246094" xlink:href="#DejaVuSans-48"/>
       <use x="190.869141" xlink:href="#DejaVuSans-48"/>
      </g>
     </g>
    </g>
    <g id="xtick_3">
     <g id="line2d_3">
      <g>
       <use style="fill:#555555;stroke:#555555;" x="271.144658" xlink:href="#m7f352f5ccb" y="512.525306"/>
      </g>
     </g>
     <g id="text_3">
      <!-- 2000 -->
      <defs>
       <path d="M 19.1875 8.296875 
L 53.609375 8.296875 
L 53.609375 0 
L 7.328125 0 
L 7.328125 8.296875 
Q 12.9375 14.109375 22.625 23.890625 
Q 32.328125 33.6875 34.8125 36.53125 
Q 39.546875 41.84375 41.421875 45.53125 
Q 43.3125 49.21875 43.3125 52.78125 
Q 43.3125 58.59375 39.234375 62.25 
Q 35.15625 65.921875 28.609375 65.921875 
Q 23.96875 65.921875 18.8125 64.3125 
Q 13.671875 62.703125 7.8125 59.421875 
L 7.8125 69.390625 
Q 13.765625 71.78125 18.9375 73 
Q 24.125 74.21875 28.421875 74.21875 
Q 39.75 74.21875 46.484375 68.546875 
Q 53.21875 62.890625 53.21875 53.421875 
Q 53.21875 48.921875 51.53125 44.890625 
Q 49.859375 40.875 45.40625 35.40625 
Q 44.1875 33.984375 37.640625 27.21875 
Q 31.109375 20.453125 19.1875 8.296875 
z
" id="DejaVuSans-50"/>
      </defs>
      <g style="fill:#555555;" transform="translate(248.239658 535.702493)scale(0.18 -0.18)">
       <use xlink:href="#DejaVuSans-50"/>
       <use x="63.623047" xlink:href="#DejaVuSans-48"/>
       <use x="127.246094" xlink:href="#DejaVuSans-48"/>
       <use x="190.869141" xlink:href="#DejaVuSans-48"/>
      </g>
     </g>
    </g>
    <g id="xtick_4">
     <g id="line2d_4">
      <g>
       <use style="fill:#555555;stroke:#555555;" x="373.125075" xlink:href="#m7f352f5ccb" y="512.525306"/>
      </g>
     </g>
     <g id="text_4">
      <!-- 3000 -->
      <defs>
       <path d="M 40.578125 39.3125 
Q 47.65625 37.796875 51.625 33 
Q 55.609375 28.21875 55.609375 21.1875 
Q 55.609375 10.40625 48.1875 4.484375 
Q 40.765625 -1.421875 27.09375 -1.421875 
Q 22.515625 -1.421875 17.65625 -0.515625 
Q 12.796875 0.390625 7.625 2.203125 
L 7.625 11.71875 
Q 11.71875 9.328125 16.59375 8.109375 
Q 21.484375 6.890625 26.8125 6.890625 
Q 36.078125 6.890625 40.9375 10.546875 
Q 45.796875 14.203125 45.796875 21.1875 
Q 45.796875 27.640625 41.28125 31.265625 
Q 36.765625 34.90625 28.71875 34.90625 
L 20.21875 34.90625 
L 20.21875 43.015625 
L 29.109375 43.015625 
Q 36.375 43.015625 40.234375 45.921875 
Q 44.09375 48.828125 44.09375 54.296875 
Q 44.09375 59.90625 40.109375 62.90625 
Q 36.140625 65.921875 28.71875 65.921875 
Q 24.65625 65.921875 20.015625 65.03125 
Q 15.375 64.15625 9.8125 62.3125 
L 9.8125 71.09375 
Q 15.4375 72.65625 20.34375 73.4375 
Q 25.25 74.21875 29.59375 74.21875 
Q 40.828125 74.21875 47.359375 69.109375 
Q 53.90625 64.015625 53.90625 55.328125 
Q 53.90625 49.265625 50.4375 45.09375 
Q 46.96875 40.921875 40.578125 39.3125 
z
" id="DejaVuSans-51"/>
      </defs>
      <g style="fill:#555555;" transform="translate(350.220075 535.702493)scale(0.18 -0.18)">
       <use xlink:href="#DejaVuSans-51"/>
       <use x="63.623047" xlink:href="#DejaVuSans-48"/>
       <use x="127.246094" xlink:href="#DejaVuSans-48"/>
       <use x="190.869141" xlink:href="#DejaVuSans-48"/>
      </g>
     </g>
    </g>
    <g id="xtick_5">
     <g id="line2d_5">
      <g>
       <use style="fill:#555555;stroke:#555555;" x="475.105492" xlink:href="#m7f352f5ccb" y="512.525306"/>
      </g>
     </g>
     <g id="text_5">
      <!-- 4000 -->
      <defs>
       <path d="M 37.796875 64.3125 
L 12.890625 25.390625 
L 37.796875 25.390625 
z
M 35.203125 72.90625 
L 47.609375 72.90625 
L 47.609375 25.390625 
L 58.015625 25.390625 
L 58.015625 17.1875 
L 47.609375 17.1875 
L 47.609375 0 
L 37.796875 0 
L 37.796875 17.1875 
L 4.890625 17.1875 
L 4.890625 26.703125 
z
" id="DejaVuSans-52"/>
      </defs>
      <g style="fill:#555555;" transform="translate(452.200492 535.702493)scale(0.18 -0.18)">
       <use xlink:href="#DejaVuSans-52"/>
       <use x="63.623047" xlink:href="#DejaVuSans-48"/>
       <use x="127.246094" xlink:href="#DejaVuSans-48"/>
       <use x="190.869141" xlink:href="#DejaVuSans-48"/>
      </g>
     </g>
    </g>
    <g id="xtick_6">
     <g id="line2d_6">
      <g>
       <use style="fill:#555555;stroke:#555555;" x="577.085908" xlink:href="#m7f352f5ccb" y="512.525306"/>
      </g>
     </g>
     <g id="text_6">
      <!-- 5000 -->
      <defs>
       <path d="M 10.796875 72.90625 
L 49.515625 72.90625 
L 49.515625 64.59375 
L 19.828125 64.59375 
L 19.828125 46.734375 
Q 21.96875 47.46875 24.109375 47.828125 
Q 26.265625 48.1875 28.421875 48.1875 
Q 40.625 48.1875 47.75 41.5 
Q 54.890625 34.8125 54.890625 23.390625 
Q 54.890625 11.625 47.5625 5.09375 
Q 40.234375 -1.421875 26.90625 -1.421875 
Q 22.3125 -1.421875 17.546875 -0.640625 
Q 12.796875 0.140625 7.71875 1.703125 
L 7.71875 11.625 
Q 12.109375 9.234375 16.796875 8.0625 
Q 21.484375 6.890625 26.703125 6.890625 
Q 35.15625 6.890625 40.078125 11.328125 
Q 45.015625 15.765625 45.015625 23.390625 
Q 45.015625 31 40.078125 35.4375 
Q 35.15625 39.890625 26.703125 39.890625 
Q 22.75 39.890625 18.8125 39.015625 
Q 14.890625 38.140625 10.796875 36.28125 
z
" id="DejaVuSans-53"/>
      </defs>
      <g style="fill:#555555;" transform="translate(554.180908 535.702493)scale(0.18 -0.18)">
       <use xlink:href="#DejaVuSans-53"/>
       <use x="63.623047" xlink:href="#DejaVuSans-48"/>
       <use x="127.246094" xlink:href="#DejaVuSans-48"/>
       <use x="190.869141" xlink:href="#DejaVuSans-48"/>
      </g>
     </g>
    </g>
    <g id="xtick_7">
     <g id="line2d_7">
      <g>
       <use style="fill:#555555;stroke:#555555;" x="679.066325" xlink:href="#m7f352f5ccb" y="512.525306"/>
      </g>
     </g>
     <g id="text_7">
      <!-- 6000 -->
      <defs>
       <path d="M 33.015625 40.375 
Q 26.375 40.375 22.484375 35.828125 
Q 18.609375 31.296875 18.609375 23.390625 
Q 18.609375 15.53125 22.484375 10.953125 
Q 26.375 6.390625 33.015625 6.390625 
Q 39.65625 6.390625 43.53125 10.953125 
Q 47.40625 15.53125 47.40625 23.390625 
Q 47.40625 31.296875 43.53125 35.828125 
Q 39.65625 40.375 33.015625 40.375 
z
M 52.59375 71.296875 
L 52.59375 62.3125 
Q 48.875 64.0625 45.09375 64.984375 
Q 41.3125 65.921875 37.59375 65.921875 
Q 27.828125 65.921875 22.671875 59.328125 
Q 17.53125 52.734375 16.796875 39.40625 
Q 19.671875 43.65625 24.015625 45.921875 
Q 28.375 48.1875 33.59375 48.1875 
Q 44.578125 48.1875 50.953125 41.515625 
Q 57.328125 34.859375 57.328125 23.390625 
Q 57.328125 12.15625 50.6875 5.359375 
Q 44.046875 -1.421875 33.015625 -1.421875 
Q 20.359375 -1.421875 13.671875 8.265625 
Q 6.984375 17.96875 6.984375 36.375 
Q 6.984375 53.65625 15.1875 63.9375 
Q 23.390625 74.21875 37.203125 74.21875 
Q 40.921875 74.21875 44.703125 73.484375 
Q 48.484375 72.75 52.59375 71.296875 
z
" id="DejaVuSans-54"/>
      </defs>
      <g style="fill:#555555;" transform="translate(656.161325 535.702493)scale(0.18 -0.18)">
       <use xlink:href="#DejaVuSans-54"/>
       <use x="63.623047" xlink:href="#DejaVuSans-48"/>
       <use x="127.246094" xlink:href="#DejaVuSans-48"/>
       <use x="190.869141" xlink:href="#DejaVuSans-48"/>
      </g>
     </g>
    </g>
    <g id="text_8">
     <!-- Motor density -->
     <defs>
      <path d="M 9.8125 72.90625 
L 24.515625 72.90625 
L 43.109375 23.296875 
L 61.8125 72.90625 
L 76.515625 72.90625 
L 76.515625 0 
L 66.890625 0 
L 66.890625 64.015625 
L 48.09375 14.015625 
L 38.1875 14.015625 
L 19.390625 64.015625 
L 19.390625 0 
L 9.8125 0 
z
" id="DejaVuSans-77"/>
      <path d="M 30.609375 48.390625 
Q 23.390625 48.390625 19.1875 42.75 
Q 14.984375 37.109375 14.984375 27.296875 
Q 14.984375 17.484375 19.15625 11.84375 
Q 23.34375 6.203125 30.609375 6.203125 
Q 37.796875 6.203125 41.984375 11.859375 
Q 46.1875 17.53125 46.1875 27.296875 
Q 46.1875 37.015625 41.984375 42.703125 
Q 37.796875 48.390625 30.609375 48.390625 
z
M 30.609375 56 
Q 42.328125 56 49.015625 48.375 
Q 55.71875 40.765625 55.71875 27.296875 
Q 55.71875 13.875 49.015625 6.21875 
Q 42.328125 -1.421875 30.609375 -1.421875 
Q 18.84375 -1.421875 12.171875 6.21875 
Q 5.515625 13.875 5.515625 27.296875 
Q 5.515625 40.765625 12.171875 48.375 
Q 18.84375 56 30.609375 56 
z
" id="DejaVuSans-111"/>
      <path d="M 18.3125 70.21875 
L 18.3125 54.6875 
L 36.8125 54.6875 
L 36.8125 47.703125 
L 18.3125 47.703125 
L 18.3125 18.015625 
Q 18.3125 11.328125 20.140625 9.421875 
Q 21.96875 7.515625 27.59375 7.515625 
L 36.8125 7.515625 
L 36.8125 0 
L 27.59375 0 
Q 17.1875 0 13.234375 3.875 
Q 9.28125 7.765625 9.28125 18.015625 
L 9.28125 47.703125 
L 2.6875 47.703125 
L 2.6875 54.6875 
L 9.28125 54.6875 
L 9.28125 70.21875 
z
" id="DejaVuSans-116"/>
      <path d="M 41.109375 46.296875 
Q 39.59375 47.171875 37.8125 47.578125 
Q 36.03125 48 33.890625 48 
Q 26.265625 48 22.1875 43.046875 
Q 18.109375 38.09375 18.109375 28.8125 
L 18.109375 0 
L 9.078125 0 
L 9.078125 54.6875 
L 18.109375 54.6875 
L 18.109375 46.1875 
Q 20.953125 51.171875 25.484375 53.578125 
Q 30.03125 56 36.53125 56 
Q 37.453125 56 38.578125 55.875 
Q 39.703125 55.765625 41.0625 55.515625 
z
" id="DejaVuSans-114"/>
      <path id="DejaVuSans-32"/>
      <path d="M 45.40625 46.390625 
L 45.40625 75.984375 
L 54.390625 75.984375 
L 54.390625 0 
L 45.40625 0 
L 45.40625 8.203125 
Q 42.578125 3.328125 38.25 0.953125 
Q 33.9375 -1.421875 27.875 -1.421875 
Q 17.96875 -1.421875 11.734375 6.484375 
Q 5.515625 14.40625 5.515625 27.296875 
Q 5.515625 40.1875 11.734375 48.09375 
Q 17.96875 56 27.875 56 
Q 33.9375 56 38.25 53.625 
Q 42.578125 51.265625 45.40625 46.390625 
z
M 14.796875 27.296875 
Q 14.796875 17.390625 18.875 11.75 
Q 22.953125 6.109375 30.078125 6.109375 
Q 37.203125 6.109375 41.296875 11.75 
Q 45.40625 17.390625 45.40625 27.296875 
Q 45.40625 37.203125 41.296875 42.84375 
Q 37.203125 48.484375 30.078125 48.484375 
Q 22.953125 48.484375 18.875 42.84375 
Q 14.796875 37.203125 14.796875 27.296875 
z
" id="DejaVuSans-100"/>
      <path d="M 56.203125 29.59375 
L 56.203125 25.203125 
L 14.890625 25.203125 
Q 15.484375 15.921875 20.484375 11.0625 
Q 25.484375 6.203125 34.421875 6.203125 
Q 39.59375 6.203125 44.453125 7.46875 
Q 49.3125 8.734375 54.109375 11.28125 
L 54.109375 2.78125 
Q 49.265625 0.734375 44.1875 -0.34375 
Q 39.109375 -1.421875 33.890625 -1.421875 
Q 20.796875 -1.421875 13.15625 6.1875 
Q 5.515625 13.8125 5.515625 26.8125 
Q 5.515625 40.234375 12.765625 48.109375 
Q 20.015625 56 32.328125 56 
Q 43.359375 56 49.78125 48.890625 
Q 56.203125 41.796875 56.203125 29.59375 
z
M 47.21875 32.234375 
Q 47.125 39.59375 43.09375 43.984375 
Q 39.0625 48.390625 32.421875 48.390625 
Q 24.90625 48.390625 20.390625 44.140625 
Q 15.875 39.890625 15.1875 32.171875 
z
" id="DejaVuSans-101"/>
      <path d="M 54.890625 33.015625 
L 54.890625 0 
L 45.90625 0 
L 45.90625 32.71875 
Q 45.90625 40.484375 42.875 44.328125 
Q 39.84375 48.1875 33.796875 48.1875 
Q 26.515625 48.1875 22.3125 43.546875 
Q 18.109375 38.921875 18.109375 30.90625 
L 18.109375 0 
L 9.078125 0 
L 9.078125 54.6875 
L 18.109375 54.6875 
L 18.109375 46.1875 
Q 21.34375 51.125 25.703125 53.5625 
Q 30.078125 56 35.796875 56 
Q 45.21875 56 50.046875 50.171875 
Q 54.890625 44.34375 54.890625 33.015625 
z
" id="DejaVuSans-110"/>
      <path d="M 44.28125 53.078125 
L 44.28125 44.578125 
Q 40.484375 46.53125 36.375 47.5 
Q 32.28125 48.484375 27.875 48.484375 
Q 21.1875 48.484375 17.84375 46.4375 
Q 14.5 44.390625 14.5 40.28125 
Q 14.5 37.15625 16.890625 35.375 
Q 19.28125 33.59375 26.515625 31.984375 
L 29.59375 31.296875 
Q 39.15625 29.25 43.1875 25.515625 
Q 47.21875 21.78125 47.21875 15.09375 
Q 47.21875 7.46875 41.1875 3.015625 
Q 35.15625 -1.421875 24.609375 -1.421875 
Q 20.21875 -1.421875 15.453125 -0.5625 
Q 10.6875 0.296875 5.421875 2 
L 5.421875 11.28125 
Q 10.40625 8.6875 15.234375 7.390625 
Q 20.0625 6.109375 24.8125 6.109375 
Q 31.15625 6.109375 34.5625 8.28125 
Q 37.984375 10.453125 37.984375 14.40625 
Q 37.984375 18.0625 35.515625 20.015625 
Q 33.0625 21.96875 24.703125 23.78125 
L 21.578125 24.515625 
Q 13.234375 26.265625 9.515625 29.90625 
Q 5.8125 33.546875 5.8125 39.890625 
Q 5.8125 47.609375 11.28125 51.796875 
Q 16.75 56 26.8125 56 
Q 31.78125 56 36.171875 55.265625 
Q 40.578125 54.546875 44.28125 53.078125 
z
" id="DejaVuSans-115"/>
      <path d="M 9.421875 54.6875 
L 18.40625 54.6875 
L 18.40625 0 
L 9.421875 0 
z
M 9.421875 75.984375 
L 18.40625 75.984375 
L 18.40625 64.59375 
L 9.421875 64.59375 
z
" id="DejaVuSans-105"/>
      <path d="M 32.171875 -5.078125 
Q 28.375 -14.84375 24.75 -17.8125 
Q 21.140625 -20.796875 15.09375 -20.796875 
L 7.90625 -20.796875 
L 7.90625 -13.28125 
L 13.1875 -13.28125 
Q 16.890625 -13.28125 18.9375 -11.515625 
Q 21 -9.765625 23.484375 -3.21875 
L 25.09375 0.875 
L 2.984375 54.6875 
L 12.5 54.6875 
L 29.59375 11.921875 
L 46.6875 54.6875 
L 56.203125 54.6875 
z
" id="DejaVuSans-121"/>
     </defs>
     <g transform="translate(311.258512 557.123118)scale(0.18 -0.18)">
      <use xlink:href="#DejaVuSans-77"/>
      <use x="86.279297" xlink:href="#DejaVuSans-111"/>
      <use x="147.460938" xlink:href="#DejaVuSans-116"/>
      <use x="186.669922" xlink:href="#DejaVuSans-111"/>
      <use x="247.851562" xlink:href="#DejaVuSans-114"/>
      <use x="288.964844" xlink:href="#DejaVuSans-32"/>
      <use x="320.751953" xlink:href="#DejaVuSans-100"/>
      <use x="384.228516" xlink:href="#DejaVuSans-101"/>
      <use x="445.751953" xlink:href="#DejaVuSans-110"/>
      <use x="509.130859" xlink:href="#DejaVuSans-115"/>
      <use x="561.230469" xlink:href="#DejaVuSans-105"/>
      <use x="589.013672" xlink:href="#DejaVuSans-116"/>
      <use x="628.222656" xlink:href="#DejaVuSans-121"/>
     </g>
    </g>
   </g>
   <g id="matplotlib.axis_2">
    <g id="ytick_1">
     <g id="line2d_8">
      <defs>
       <path d="M 0 0 
L -6 0 
" id="m747ab3906e" style="stroke:#555555;"/>
      </defs>
      <g>
       <use style="fill:#555555;stroke:#555555;" x="61.065" xlink:href="#m747ab3906e" y="507.589794"/>
      </g>
     </g>
     <g id="text_9">
      <!-- 2 -->
      <g style="fill:#555555;" transform="translate(40.1125 514.428387)scale(0.18 -0.18)">
       <use xlink:href="#DejaVuSans-50"/>
      </g>
     </g>
    </g>
    <g id="ytick_2">
     <g id="line2d_9">
      <g>
       <use style="fill:#555555;stroke:#555555;" x="61.065" xlink:href="#m747ab3906e" y="408.879554"/>
      </g>
     </g>
     <g id="text_10">
      <!-- 4 -->
      <g style="fill:#555555;" transform="translate(40.1125 415.718147)scale(0.18 -0.18)">
       <use xlink:href="#DejaVuSans-52"/>
      </g>
     </g>
    </g>
    <g id="ytick_3">
     <g id="line2d_10">
      <g>
       <use style="fill:#555555;stroke:#555555;" x="61.065" xlink:href="#m747ab3906e" y="310.169314"/>
      </g>
     </g>
     <g id="text_11">
      <!-- 6 -->
      <g style="fill:#555555;" transform="translate(40.1125 317.007907)scale(0.18 -0.18)">
       <use xlink:href="#DejaVuSans-54"/>
      </g>
     </g>
    </g>
    <g id="ytick_4">
     <g id="line2d_11">
      <g>
       <use style="fill:#555555;stroke:#555555;" x="61.065" xlink:href="#m747ab3906e" y="211.459074"/>
      </g>
     </g>
     <g id="text_12">
      <!-- 8 -->
      <defs>
       <path d="M 31.78125 34.625 
Q 24.75 34.625 20.71875 30.859375 
Q 16.703125 27.09375 16.703125 20.515625 
Q 16.703125 13.921875 20.71875 10.15625 
Q 24.75 6.390625 31.78125 6.390625 
Q 38.8125 6.390625 42.859375 10.171875 
Q 46.921875 13.96875 46.921875 20.515625 
Q 46.921875 27.09375 42.890625 30.859375 
Q 38.875 34.625 31.78125 34.625 
z
M 21.921875 38.8125 
Q 15.578125 40.375 12.03125 44.71875 
Q 8.5 49.078125 8.5 55.328125 
Q 8.5 64.0625 14.71875 69.140625 
Q 20.953125 74.21875 31.78125 74.21875 
Q 42.671875 74.21875 48.875 69.140625 
Q 55.078125 64.0625 55.078125 55.328125 
Q 55.078125 49.078125 51.53125 44.71875 
Q 48 40.375 41.703125 38.8125 
Q 48.828125 37.15625 52.796875 32.3125 
Q 56.78125 27.484375 56.78125 20.515625 
Q 56.78125 9.90625 50.3125 4.234375 
Q 43.84375 -1.421875 31.78125 -1.421875 
Q 19.734375 -1.421875 13.25 4.234375 
Q 6.78125 9.90625 6.78125 20.515625 
Q 6.78125 27.484375 10.78125 32.3125 
Q 14.796875 37.15625 21.921875 38.8125 
z
M 18.3125 54.390625 
Q 18.3125 48.734375 21.84375 45.5625 
Q 25.390625 42.390625 31.78125 42.390625 
Q 38.140625 42.390625 41.71875 45.5625 
Q 45.3125 48.734375 45.3125 54.390625 
Q 45.3125 60.0625 41.71875 63.234375 
Q 38.140625 66.40625 31.78125 66.40625 
Q 25.390625 66.40625 21.84375 63.234375 
Q 18.3125 60.0625 18.3125 54.390625 
z
" id="DejaVuSans-56"/>
      </defs>
      <g style="fill:#555555;" transform="translate(40.1125 218.297667)scale(0.18 -0.18)">
       <use xlink:href="#DejaVuSans-56"/>
      </g>
     </g>
    </g>
    <g id="ytick_5">
     <g id="line2d_12">
      <g>
       <use style="fill:#555555;stroke:#555555;" x="61.065" xlink:href="#m747ab3906e" y="112.748834"/>
      </g>
     </g>
     <g id="text_13">
      <!-- 10 -->
      <g style="fill:#555555;" transform="translate(28.66 119.587427)scale(0.18 -0.18)">
       <use xlink:href="#DejaVuSans-49"/>
       <use x="63.623047" xlink:href="#DejaVuSans-48"/>
      </g>
     </g>
    </g>
    <g id="ytick_6">
     <g id="line2d_13">
      <g>
       <use style="fill:#555555;stroke:#555555;" x="61.065" xlink:href="#m747ab3906e" y="14.038594"/>
      </g>
     </g>
     <g id="text_14">
      <!-- 12 -->
      <g style="fill:#555555;" transform="translate(28.66 20.877187)scale(0.18 -0.18)">
       <use xlink:href="#DejaVuSans-49"/>
       <use x="63.623047" xlink:href="#DejaVuSans-50"/>
      </g>
     </g>
    </g>
    <g id="text_15">
     <!-- Speed ($\mu m/s$) -->
     <defs>
      <path d="M 53.515625 70.515625 
L 53.515625 60.890625 
Q 47.90625 63.578125 42.921875 64.890625 
Q 37.9375 66.21875 33.296875 66.21875 
Q 25.25 66.21875 20.875 63.09375 
Q 16.5 59.96875 16.5 54.203125 
Q 16.5 49.359375 19.40625 46.890625 
Q 22.3125 44.4375 30.421875 42.921875 
L 36.375 41.703125 
Q 47.40625 39.59375 52.65625 34.296875 
Q 57.90625 29 57.90625 20.125 
Q 57.90625 9.515625 50.796875 4.046875 
Q 43.703125 -1.421875 29.984375 -1.421875 
Q 24.8125 -1.421875 18.96875 -0.25 
Q 13.140625 0.921875 6.890625 3.21875 
L 6.890625 13.375 
Q 12.890625 10.015625 18.65625 8.296875 
Q 24.421875 6.59375 29.984375 6.59375 
Q 38.421875 6.59375 43.015625 9.90625 
Q 47.609375 13.234375 47.609375 19.390625 
Q 47.609375 24.75 44.3125 27.78125 
Q 41.015625 30.8125 33.5 32.328125 
L 27.484375 33.5 
Q 16.453125 35.6875 11.515625 40.375 
Q 6.59375 45.0625 6.59375 53.421875 
Q 6.59375 63.09375 13.40625 68.65625 
Q 20.21875 74.21875 32.171875 74.21875 
Q 37.3125 74.21875 42.625 73.28125 
Q 47.953125 72.359375 53.515625 70.515625 
z
" id="DejaVuSans-83"/>
      <path d="M 18.109375 8.203125 
L 18.109375 -20.796875 
L 9.078125 -20.796875 
L 9.078125 54.6875 
L 18.109375 54.6875 
L 18.109375 46.390625 
Q 20.953125 51.265625 25.265625 53.625 
Q 29.59375 56 35.59375 56 
Q 45.5625 56 51.78125 48.09375 
Q 58.015625 40.1875 58.015625 27.296875 
Q 58.015625 14.40625 51.78125 6.484375 
Q 45.5625 -1.421875 35.59375 -1.421875 
Q 29.59375 -1.421875 25.265625 0.953125 
Q 20.953125 3.328125 18.109375 8.203125 
z
M 48.6875 27.296875 
Q 48.6875 37.203125 44.609375 42.84375 
Q 40.53125 48.484375 33.40625 48.484375 
Q 26.265625 48.484375 22.1875 42.84375 
Q 18.109375 37.203125 18.109375 27.296875 
Q 18.109375 17.390625 22.1875 11.75 
Q 26.265625 6.109375 33.40625 6.109375 
Q 40.53125 6.109375 44.609375 11.75 
Q 48.6875 17.390625 48.6875 27.296875 
z
" id="DejaVuSans-112"/>
      <path d="M 31 75.875 
Q 24.46875 64.65625 21.28125 53.65625 
Q 18.109375 42.671875 18.109375 31.390625 
Q 18.109375 20.125 21.3125 9.0625 
Q 24.515625 -2 31 -13.1875 
L 23.1875 -13.1875 
Q 15.875 -1.703125 12.234375 9.375 
Q 8.59375 20.453125 8.59375 31.390625 
Q 8.59375 42.28125 12.203125 53.3125 
Q 15.828125 64.359375 23.1875 75.875 
z
" id="DejaVuSans-40"/>
      <path d="M -1.3125 -20.796875 
L 13.375 54.6875 
L 22.40625 54.6875 
L 15.765625 20.65625 
Q 15.578125 19.625 15.421875 18.359375 
Q 15.28125 17.09375 15.28125 15.828125 
Q 15.28125 11.28125 18.140625 8.828125 
Q 21 6.390625 26.3125 6.390625 
Q 33.546875 6.390625 37.984375 10.484375 
Q 42.4375 14.59375 44 22.796875 
L 50.203125 54.6875 
L 59.1875 54.6875 
L 51.03125 12.640625 
Q 50.828125 11.71875 50.75 11.03125 
Q 50.6875 10.359375 50.6875 9.8125 
Q 50.6875 8.296875 51.296875 7.59375 
Q 51.90625 6.890625 53.21875 6.890625 
Q 53.71875 6.890625 54.5625 7.125 
Q 55.421875 7.375 56.984375 8.015625 
L 55.609375 0.78125 
Q 53.46875 -0.296875 51.515625 -0.859375 
Q 49.5625 -1.421875 47.703125 -1.421875 
Q 44.484375 -1.421875 42.65625 0.625 
Q 40.828125 2.6875 40.828125 6.296875 
Q 38.09375 2.390625 34.296875 0.484375 
Q 30.515625 -1.421875 25.390625 -1.421875 
Q 20.84375 -1.421875 17.453125 0.671875 
Q 14.0625 2.78125 12.984375 6.203125 
L 7.71875 -20.796875 
z
" id="DejaVuSans-Oblique-956"/>
      <path d="M 89.796875 33.015625 
L 83.40625 0 
L 74.421875 0 
L 80.71875 32.71875 
Q 81.109375 34.8125 81.296875 36.328125 
Q 81.5 37.84375 81.5 38.921875 
Q 81.5 43.3125 79.046875 45.75 
Q 76.609375 48.1875 72.21875 48.1875 
Q 65.671875 48.1875 60.546875 43.28125 
Q 55.421875 38.375 53.90625 30.515625 
L 47.90625 0 
L 38.921875 0 
L 45.3125 32.71875 
Q 45.703125 34.515625 45.890625 36.046875 
Q 46.09375 37.59375 46.09375 38.8125 
Q 46.09375 43.265625 43.65625 45.71875 
Q 41.21875 48.1875 36.921875 48.1875 
Q 30.28125 48.1875 25.140625 43.28125 
Q 20.015625 38.375 18.5 30.515625 
L 12.5 0 
L 3.515625 0 
L 14.203125 54.6875 
L 23.1875 54.6875 
L 21.484375 46.1875 
Q 25.140625 50.984375 30.046875 53.484375 
Q 34.96875 56 40.578125 56 
Q 46.53125 56 50.359375 52.875 
Q 54.203125 49.75 54.984375 44.1875 
Q 59.078125 49.953125 64.46875 52.96875 
Q 69.875 56 75.875 56 
Q 82.90625 56 86.734375 51.953125 
Q 90.578125 47.90625 90.578125 40.484375 
Q 90.578125 38.875 90.375 36.9375 
Q 90.1875 35.015625 89.796875 33.015625 
z
" id="DejaVuSans-Oblique-109"/>
      <path d="M 25.390625 72.90625 
L 33.6875 72.90625 
L 8.296875 -9.28125 
L 0 -9.28125 
z
" id="DejaVuSans-47"/>
      <path d="M 50 53.078125 
L 48.296875 44.578125 
Q 44.734375 46.53125 40.765625 47.5 
Q 36.8125 48.484375 32.625 48.484375 
Q 25.53125 48.484375 21.453125 46.0625 
Q 17.390625 43.65625 17.390625 39.5 
Q 17.390625 34.671875 26.859375 32.078125 
Q 27.59375 31.890625 27.9375 31.78125 
L 30.8125 30.90625 
Q 39.796875 28.421875 42.796875 25.6875 
Q 45.796875 22.953125 45.796875 18.21875 
Q 45.796875 9.515625 38.890625 4.046875 
Q 31.984375 -1.421875 20.796875 -1.421875 
Q 16.453125 -1.421875 11.671875 -0.578125 
Q 6.890625 0.25 1.125 2 
L 2.875 11.28125 
Q 7.8125 8.734375 12.59375 7.421875 
Q 17.390625 6.109375 21.78125 6.109375 
Q 28.375 6.109375 32.5 8.9375 
Q 36.625 11.765625 36.625 16.109375 
Q 36.625 20.796875 25.78125 23.6875 
L 24.859375 23.921875 
L 21.78125 24.703125 
Q 14.9375 26.515625 11.765625 29.46875 
Q 8.59375 32.421875 8.59375 37.015625 
Q 8.59375 45.75 15.15625 50.875 
Q 21.734375 56 33.015625 56 
Q 37.453125 56 41.671875 55.265625 
Q 45.90625 54.546875 50 53.078125 
z
" id="DejaVuSans-Oblique-115"/>
      <path d="M 8.015625 75.875 
L 15.828125 75.875 
Q 23.140625 64.359375 26.78125 53.3125 
Q 30.421875 42.28125 30.421875 31.390625 
Q 30.421875 20.453125 26.78125 9.375 
Q 23.140625 -1.703125 15.828125 -13.1875 
L 8.015625 -13.1875 
Q 14.5 -2 17.703125 9.0625 
Q 20.90625 20.125 20.90625 31.390625 
Q 20.90625 42.671875 17.703125 53.65625 
Q 14.5 64.65625 8.015625 75.875 
z
" id="DejaVuSans-41"/>
     </defs>
     <g transform="translate(20.88 321.204194)rotate(-90)scale(0.18 -0.18)">
      <use transform="translate(0 0.015625)" xlink:href="#DejaVuSans-83"/>
      <use transform="translate(63.476562 0.015625)" xlink:href="#DejaVuSans-112"/>
      <use transform="translate(126.953125 0.015625)" xlink:href="#DejaVuSans-101"/>
      <use transform="translate(188.476562 0.015625)" xlink:href="#DejaVuSans-101"/>
      <use transform="translate(250 0.015625)" xlink:href="#DejaVuSans-100"/>
      <use transform="translate(313.476562 0.015625)" xlink:href="#DejaVuSans-32"/>
      <use transform="translate(345.263672 0.015625)" xlink:href="#DejaVuSans-40"/>
      <use transform="translate(384.277344 0.015625)" xlink:href="#DejaVuSans-Oblique-956"/>
      <use transform="translate(447.900391 0.015625)" xlink:href="#DejaVuSans-Oblique-109"/>
      <use transform="translate(545.3125 0.015625)" xlink:href="#DejaVuSans-47"/>
      <use transform="translate(579.003906 0.015625)" xlink:href="#DejaVuSans-Oblique-115"/>
      <use transform="translate(631.103516 0.015625)" xlink:href="#DejaVuSans-41"/>
     </g>
    </g>
   </g>
   <g id="LineCollection_1">
    <path clip-path="url(#pa9118c53a0)" d="M 118.174033 485.915851 
L 118.174033 87.983741 
" style="fill:none;stroke:#d3d3d3;stroke-width:3;"/>
    <path clip-path="url(#pa9118c53a0)" d="M 169.164242 463.381291 
L 169.164242 163.527335 
" style="fill:none;stroke:#d3d3d3;stroke-width:3;"/>
    <path clip-path="url(#pa9118c53a0)" d="M 220.15445 439.010271 
L 220.15445 153.991209 
" style="fill:none;stroke:#d3d3d3;stroke-width:3;"/>
    <path clip-path="url(#pa9118c53a0)" d="M 271.144658 292.493608 
L 271.144658 200.06276 
" style="fill:none;stroke:#d3d3d3;stroke-width:3;"/>
    <path clip-path="url(#pa9118c53a0)" d="M 322.134867 283.277782 
L 322.134867 208.166321 
" style="fill:none;stroke:#d3d3d3;stroke-width:3;"/>
    <path clip-path="url(#pa9118c53a0)" d="M 373.125075 290.455228 
L 373.125075 204.452071 
" style="fill:none;stroke:#d3d3d3;stroke-width:3;"/>
    <path clip-path="url(#pa9118c53a0)" d="M 424.115283 279.970195 
L 424.115283 224.582068 
" style="fill:none;stroke:#d3d3d3;stroke-width:3;"/>
    <path clip-path="url(#pa9118c53a0)" d="M 475.105492 279.389405 
L 475.105492 237.274824 
" style="fill:none;stroke:#d3d3d3;stroke-width:3;"/>
    <path clip-path="url(#pa9118c53a0)" d="M 526.0957 284.508916 
L 526.0957 231.713308 
" style="fill:none;stroke:#d3d3d3;stroke-width:3;"/>
    <path clip-path="url(#pa9118c53a0)" d="M 577.085908 278.551524 
L 577.085908 227.762635 
" style="fill:none;stroke:#d3d3d3;stroke-width:3;"/>
   </g>
   <g id="LineCollection_2">
    <path clip-path="url(#pa9118c53a0)" d="M 118.174033 474.905915 
L 118.174033 133.032991 
" style="fill:none;stroke:#d3d3d3;stroke-width:3;"/>
    <path clip-path="url(#pa9118c53a0)" d="M 169.164242 478.596708 
L 169.164242 129.775017 
" style="fill:none;stroke:#d3d3d3;stroke-width:3;"/>
    <path clip-path="url(#pa9118c53a0)" d="M 220.15445 445.283903 
L 220.15445 82.091356 
" style="fill:none;stroke:#d3d3d3;stroke-width:3;"/>
    <path clip-path="url(#pa9118c53a0)" d="M 271.144658 294.452908 
L 271.144658 169.479224 
" style="fill:none;stroke:#d3d3d3;stroke-width:3;"/>
    <path clip-path="url(#pa9118c53a0)" d="M 322.134867 297.403808 
L 322.134867 209.097093 
" style="fill:none;stroke:#d3d3d3;stroke-width:3;"/>
    <path clip-path="url(#pa9118c53a0)" d="M 373.125075 284.882529 
L 373.125075 238.176377 
" style="fill:none;stroke:#d3d3d3;stroke-width:3;"/>
    <path clip-path="url(#pa9118c53a0)" d="M 475.105492 280.266835 
L 475.105492 238.208402 
" style="fill:none;stroke:#d3d3d3;stroke-width:3;"/>
    <path clip-path="url(#pa9118c53a0)" d="M 577.085908 279.173581 
L 577.085908 234.087604 
" style="fill:none;stroke:#d3d3d3;stroke-width:3;"/>
   </g>
   <g id="LineCollection_3">
    <path clip-path="url(#pa9118c53a0)" d="M 118.174033 464.282193 
L 118.174033 57.596754 
" style="fill:none;stroke:#d3d3d3;stroke-width:3;"/>
    <path clip-path="url(#pa9118c53a0)" d="M 169.164242 472.711553 
L 169.164242 156.372529 
" style="fill:none;stroke:#d3d3d3;stroke-width:3;"/>
    <path clip-path="url(#pa9118c53a0)" d="M 220.15445 451.961456 
L 220.15445 98.2074 
" style="fill:none;stroke:#d3d3d3;stroke-width:3;"/>
    <path clip-path="url(#pa9118c53a0)" d="M 271.144658 305.918247 
L 271.144658 186.518175 
" style="fill:none;stroke:#d3d3d3;stroke-width:3;"/>
    <path clip-path="url(#pa9118c53a0)" d="M 322.134867 285.512007 
L 322.134867 224.408234 
" style="fill:none;stroke:#d3d3d3;stroke-width:3;"/>
    <path clip-path="url(#pa9118c53a0)" d="M 373.125075 286.280467 
L 373.125075 225.004739 
" style="fill:none;stroke:#d3d3d3;stroke-width:3;"/>
    <path clip-path="url(#pa9118c53a0)" d="M 424.115283 289.180809 
L 424.115283 224.539457 
" style="fill:none;stroke:#d3d3d3;stroke-width:3;"/>
    <path clip-path="url(#pa9118c53a0)" d="M 475.105492 292.331394 
L 475.105492 228.969182 
" style="fill:none;stroke:#d3d3d3;stroke-width:3;"/>
    <path clip-path="url(#pa9118c53a0)" d="M 526.0957 276.784116 
L 526.0957 241.924577 
" style="fill:none;stroke:#d3d3d3;stroke-width:3;"/>
    <path clip-path="url(#pa9118c53a0)" d="M 577.085908 277.690358 
L 577.085908 236.772111 
" style="fill:none;stroke:#d3d3d3;stroke-width:3;"/>
   </g>
   <g id="line2d_14">
    <defs>
     <path d="M 3 0 
L -3 -0 
" id="mbd578421f6" style="stroke:#d3d3d3;"/>
    </defs>
    <g clip-path="url(#pa9118c53a0)">
     <use style="fill:#d3d3d3;stroke:#d3d3d3;" x="118.174033" xlink:href="#mbd578421f6" y="485.915851"/>
     <use style="fill:#d3d3d3;stroke:#d3d3d3;" x="169.164242" xlink:href="#mbd578421f6" y="463.381291"/>
     <use style="fill:#d3d3d3;stroke:#d3d3d3;" x="220.15445" xlink:href="#mbd578421f6" y="439.010271"/>
     <use style="fill:#d3d3d3;stroke:#d3d3d3;" x="271.144658" xlink:href="#mbd578421f6" y="292.493608"/>
     <use style="fill:#d3d3d3;stroke:#d3d3d3;" x="322.134867" xlink:href="#mbd578421f6" y="283.277782"/>
     <use style="fill:#d3d3d3;stroke:#d3d3d3;" x="373.125075" xlink:href="#mbd578421f6" y="290.455228"/>
     <use style="fill:#d3d3d3;stroke:#d3d3d3;" x="424.115283" xlink:href="#mbd578421f6" y="279.970195"/>
     <use style="fill:#d3d3d3;stroke:#d3d3d3;" x="475.105492" xlink:href="#mbd578421f6" y="279.389405"/>
     <use style="fill:#d3d3d3;stroke:#d3d3d3;" x="526.0957" xlink:href="#mbd578421f6" y="284.508916"/>
     <use style="fill:#d3d3d3;stroke:#d3d3d3;" x="577.085908" xlink:href="#mbd578421f6" y="278.551524"/>
    </g>
   </g>
   <g id="line2d_15">
    <g clip-path="url(#pa9118c53a0)">
     <use style="fill:#d3d3d3;stroke:#d3d3d3;" x="118.174033" xlink:href="#mbd578421f6" y="87.983741"/>
     <use style="fill:#d3d3d3;stroke:#d3d3d3;" x="169.164242" xlink:href="#mbd578421f6" y="163.527335"/>
     <use style="fill:#d3d3d3;stroke:#d3d3d3;" x="220.15445" xlink:href="#mbd578421f6" y="153.991209"/>
     <use style="fill:#d3d3d3;stroke:#d3d3d3;" x="271.144658" xlink:href="#mbd578421f6" y="200.06276"/>
     <use style="fill:#d3d3d3;stroke:#d3d3d3;" x="322.134867" xlink:href="#mbd578421f6" y="208.166321"/>
     <use style="fill:#d3d3d3;stroke:#d3d3d3;" x="373.125075" xlink:href="#mbd578421f6" y="204.452071"/>
     <use style="fill:#d3d3d3;stroke:#d3d3d3;" x="424.115283" xlink:href="#mbd578421f6" y="224.582068"/>
     <use style="fill:#d3d3d3;stroke:#d3d3d3;" x="475.105492" xlink:href="#mbd578421f6" y="237.274824"/>
     <use style="fill:#d3d3d3;stroke:#d3d3d3;" x="526.0957" xlink:href="#mbd578421f6" y="231.713308"/>
     <use style="fill:#d3d3d3;stroke:#d3d3d3;" x="577.085908" xlink:href="#mbd578421f6" y="227.762635"/>
    </g>
   </g>
   <g id="line2d_16">
    <g clip-path="url(#pa9118c53a0)">
     <use style="fill:#d3d3d3;stroke:#d3d3d3;" x="118.174033" xlink:href="#mbd578421f6" y="474.905915"/>
     <use style="fill:#d3d3d3;stroke:#d3d3d3;" x="169.164242" xlink:href="#mbd578421f6" y="478.596708"/>
     <use style="fill:#d3d3d3;stroke:#d3d3d3;" x="220.15445" xlink:href="#mbd578421f6" y="445.283903"/>
     <use style="fill:#d3d3d3;stroke:#d3d3d3;" x="271.144658" xlink:href="#mbd578421f6" y="294.452908"/>
     <use style="fill:#d3d3d3;stroke:#d3d3d3;" x="322.134867" xlink:href="#mbd578421f6" y="297.403808"/>
     <use style="fill:#d3d3d3;stroke:#d3d3d3;" x="373.125075" xlink:href="#mbd578421f6" y="284.882529"/>
     <use style="fill:#d3d3d3;stroke:#d3d3d3;" x="475.105492" xlink:href="#mbd578421f6" y="280.266835"/>
     <use style="fill:#d3d3d3;stroke:#d3d3d3;" x="577.085908" xlink:href="#mbd578421f6" y="279.173581"/>
    </g>
   </g>
   <g id="line2d_17">
    <g clip-path="url(#pa9118c53a0)">
     <use style="fill:#d3d3d3;stroke:#d3d3d3;" x="118.174033" xlink:href="#mbd578421f6" y="133.032991"/>
     <use style="fill:#d3d3d3;stroke:#d3d3d3;" x="169.164242" xlink:href="#mbd578421f6" y="129.775017"/>
     <use style="fill:#d3d3d3;stroke:#d3d3d3;" x="220.15445" xlink:href="#mbd578421f6" y="82.091356"/>
     <use style="fill:#d3d3d3;stroke:#d3d3d3;" x="271.144658" xlink:href="#mbd578421f6" y="169.479224"/>
     <use style="fill:#d3d3d3;stroke:#d3d3d3;" x="322.134867" xlink:href="#mbd578421f6" y="209.097093"/>
     <use style="fill:#d3d3d3;stroke:#d3d3d3;" x="373.125075" xlink:href="#mbd578421f6" y="238.176377"/>
     <use style="fill:#d3d3d3;stroke:#d3d3d3;" x="475.105492" xlink:href="#mbd578421f6" y="238.208402"/>
     <use style="fill:#d3d3d3;stroke:#d3d3d3;" x="577.085908" xlink:href="#mbd578421f6" y="234.087604"/>
    </g>
   </g>
   <g id="line2d_18">
    <g clip-path="url(#pa9118c53a0)">
     <use style="fill:#d3d3d3;stroke:#d3d3d3;" x="118.174033" xlink:href="#mbd578421f6" y="464.282193"/>
     <use style="fill:#d3d3d3;stroke:#d3d3d3;" x="169.164242" xlink:href="#mbd578421f6" y="472.711553"/>
     <use style="fill:#d3d3d3;stroke:#d3d3d3;" x="220.15445" xlink:href="#mbd578421f6" y="451.961456"/>
     <use style="fill:#d3d3d3;stroke:#d3d3d3;" x="271.144658" xlink:href="#mbd578421f6" y="305.918247"/>
     <use style="fill:#d3d3d3;stroke:#d3d3d3;" x="322.134867" xlink:href="#mbd578421f6" y="285.512007"/>
     <use style="fill:#d3d3d3;stroke:#d3d3d3;" x="373.125075" xlink:href="#mbd578421f6" y="286.280467"/>
     <use style="fill:#d3d3d3;stroke:#d3d3d3;" x="424.115283" xlink:href="#mbd578421f6" y="289.180809"/>
     <use style="fill:#d3d3d3;stroke:#d3d3d3;" x="475.105492" xlink:href="#mbd578421f6" y="292.331394"/>
     <use style="fill:#d3d3d3;stroke:#d3d3d3;" x="526.0957" xlink:href="#mbd578421f6" y="276.784116"/>
     <use style="fill:#d3d3d3;stroke:#d3d3d3;" x="577.085908" xlink:href="#mbd578421f6" y="277.690358"/>
    </g>
   </g>
   <g id="line2d_19">
    <g clip-path="url(#pa9118c53a0)">
     <use style="fill:#d3d3d3;stroke:#d3d3d3;" x="118.174033" xlink:href="#mbd578421f6" y="57.596754"/>
     <use style="fill:#d3d3d3;stroke:#d3d3d3;" x="169.164242" xlink:href="#mbd578421f6" y="156.372529"/>
     <use style="fill:#d3d3d3;stroke:#d3d3d3;" x="220.15445" xlink:href="#mbd578421f6" y="98.2074"/>
     <use style="fill:#d3d3d3;stroke:#d3d3d3;" x="271.144658" xlink:href="#mbd578421f6" y="186.518175"/>
     <use style="fill:#d3d3d3;stroke:#d3d3d3;" x="322.134867" xlink:href="#mbd578421f6" y="224.408234"/>
     <use style="fill:#d3d3d3;stroke:#d3d3d3;" x="373.125075" xlink:href="#mbd578421f6" y="225.004739"/>
     <use style="fill:#d3d3d3;stroke:#d3d3d3;" x="424.115283" xlink:href="#mbd578421f6" y="224.539457"/>
     <use style="fill:#d3d3d3;stroke:#d3d3d3;" x="475.105492" xlink:href="#mbd578421f6" y="228.969182"/>
     <use style="fill:#d3d3d3;stroke:#d3d3d3;" x="526.0957" xlink:href="#mbd578421f6" y="241.924577"/>
     <use style="fill:#d3d3d3;stroke:#d3d3d3;" x="577.085908" xlink:href="#mbd578421f6" y="236.772111"/>
    </g>
   </g>
   <g id="line2d_20">
    <path clip-path="url(#pa9118c53a0)" d="M 118.174033 286.949796 
L 169.164242 313.454313 
L 220.15445 296.50074 
L 271.144658 246.278184 
L 322.134867 245.722052 
L 373.125075 247.453649 
L 424.115283 252.276132 
L 475.105492 258.332115 
L 526.0957 258.111112 
L 577.085908 253.157079 
" style="fill:none;stroke:#0000ff;stroke-dasharray:5.55,2.4;stroke-dashoffset:0;stroke-width:1.5;"/>
    <defs>
     <path d="M 0 3 
C 0.795609 3 1.55874 2.683901 2.12132 2.12132 
C 2.683901 1.55874 3 0.795609 3 0 
C 3 -0.795609 2.683901 -1.55874 2.12132 -2.12132 
C 1.55874 -2.683901 0.795609 -3 0 -3 
C -0.795609 -3 -1.55874 -2.683901 -2.12132 -2.12132 
C -2.683901 -1.55874 -3 -0.795609 -3 0 
C -3 0.795609 -2.683901 1.55874 -2.12132 2.12132 
C -1.55874 2.683901 -0.795609 3 0 3 
z
" id="m3af79e0fd1" style="stroke:#000000;"/>
    </defs>
    <g clip-path="url(#pa9118c53a0)">
     <use style="fill:#0000ff;stroke:#000000;" x="118.174033" xlink:href="#m3af79e0fd1" y="286.949796"/>
     <use style="fill:#0000ff;stroke:#000000;" x="169.164242" xlink:href="#m3af79e0fd1" y="313.454313"/>
     <use style="fill:#0000ff;stroke:#000000;" x="220.15445" xlink:href="#m3af79e0fd1" y="296.50074"/>
     <use style="fill:#0000ff;stroke:#000000;" x="271.144658" xlink:href="#m3af79e0fd1" y="246.278184"/>
     <use style="fill:#0000ff;stroke:#000000;" x="322.134867" xlink:href="#m3af79e0fd1" y="245.722052"/>
     <use style="fill:#0000ff;stroke:#000000;" x="373.125075" xlink:href="#m3af79e0fd1" y="247.453649"/>
     <use style="fill:#0000ff;stroke:#000000;" x="424.115283" xlink:href="#m3af79e0fd1" y="252.276132"/>
     <use style="fill:#0000ff;stroke:#000000;" x="475.105492" xlink:href="#m3af79e0fd1" y="258.332115"/>
     <use style="fill:#0000ff;stroke:#000000;" x="526.0957" xlink:href="#m3af79e0fd1" y="258.111112"/>
     <use style="fill:#0000ff;stroke:#000000;" x="577.085908" xlink:href="#m3af79e0fd1" y="253.157079"/>
    </g>
   </g>
   <g id="line2d_21">
    <path clip-path="url(#pa9118c53a0)" d="M 118.174033 303.969453 
L 169.164242 304.185862 
L 220.15445 263.68763 
L 271.144658 231.966066 
L 322.134867 253.250451 
L 373.125075 261.529453 
L 475.105492 259.237618 
L 577.085908 256.630593 
" style="fill:none;stroke:#ff0000;stroke-dasharray:5.55,2.4;stroke-dashoffset:0;stroke-width:1.5;"/>
    <defs>
     <path d="M 0 3 
C 0.795609 3 1.55874 2.683901 2.12132 2.12132 
C 2.683901 1.55874 3 0.795609 3 0 
C 3 -0.795609 2.683901 -1.55874 2.12132 -2.12132 
C 1.55874 -2.683901 0.795609 -3 0 -3 
C -0.795609 -3 -1.55874 -2.683901 -2.12132 -2.12132 
C -2.683901 -1.55874 -3 -0.795609 -3 0 
C -3 0.795609 -2.683901 1.55874 -2.12132 2.12132 
C -1.55874 2.683901 -0.795609 3 0 3 
z
" id="m8f1972e306" style="stroke:#000000;"/>
    </defs>
    <g clip-path="url(#pa9118c53a0)">
     <use style="fill:#ff0000;stroke:#000000;" x="118.174033" xlink:href="#m8f1972e306" y="303.969453"/>
     <use style="fill:#ff0000;stroke:#000000;" x="169.164242" xlink:href="#m8f1972e306" y="304.185862"/>
     <use style="fill:#ff0000;stroke:#000000;" x="220.15445" xlink:href="#m8f1972e306" y="263.68763"/>
     <use style="fill:#ff0000;stroke:#000000;" x="271.144658" xlink:href="#m8f1972e306" y="231.966066"/>
     <use style="fill:#ff0000;stroke:#000000;" x="322.134867" xlink:href="#m8f1972e306" y="253.250451"/>
     <use style="fill:#ff0000;stroke:#000000;" x="373.125075" xlink:href="#m8f1972e306" y="261.529453"/>
     <use style="fill:#ff0000;stroke:#000000;" x="475.105492" xlink:href="#m8f1972e306" y="259.237618"/>
     <use style="fill:#ff0000;stroke:#000000;" x="577.085908" xlink:href="#m8f1972e306" y="256.630593"/>
    </g>
   </g>
   <g id="line2d_22">
    <path clip-path="url(#pa9118c53a0)" d="M 118.174033 260.939473 
L 169.164242 314.542041 
L 220.15445 275.084428 
L 271.144658 246.218211 
L 322.134867 254.960121 
L 373.125075 255.642603 
L 424.115283 256.860133 
L 475.105492 260.650288 
L 526.0957 259.354346 
L 577.085908 257.231234 
" style="fill:none;stroke:#008000;stroke-dasharray:5.55,2.4;stroke-dashoffset:0;stroke-width:1.5;"/>
    <defs>
     <path d="M 0 3 
C 0.795609 3 1.55874 2.683901 2.12132 2.12132 
C 2.683901 1.55874 3 0.795609 3 0 
C 3 -0.795609 2.683901 -1.55874 2.12132 -2.12132 
C 1.55874 -2.683901 0.795609 -3 0 -3 
C -0.795609 -3 -1.55874 -2.683901 -2.12132 -2.12132 
C -2.683901 -1.55874 -3 -0.795609 -3 0 
C -3 0.795609 -2.683901 1.55874 -2.12132 2.12132 
C -1.55874 2.683901 -0.795609 3 0 3 
z
" id="m15a1e76485" style="stroke:#000000;"/>
    </defs>
    <g clip-path="url(#pa9118c53a0)">
     <use style="fill:#008000;stroke:#000000;" x="118.174033" xlink:href="#m15a1e76485" y="260.939473"/>
     <use style="fill:#008000;stroke:#000000;" x="169.164242" xlink:href="#m15a1e76485" y="314.542041"/>
     <use style="fill:#008000;stroke:#000000;" x="220.15445" xlink:href="#m15a1e76485" y="275.084428"/>
     <use style="fill:#008000;stroke:#000000;" x="271.144658" xlink:href="#m15a1e76485" y="246.218211"/>
     <use style="fill:#008000;stroke:#000000;" x="322.134867" xlink:href="#m15a1e76485" y="254.960121"/>
     <use style="fill:#008000;stroke:#000000;" x="373.125075" xlink:href="#m15a1e76485" y="255.642603"/>
     <use style="fill:#008000;stroke:#000000;" x="424.115283" xlink:href="#m15a1e76485" y="256.860133"/>
     <use style="fill:#008000;stroke:#000000;" x="475.105492" xlink:href="#m15a1e76485" y="260.650288"/>
     <use style="fill:#008000;stroke:#000000;" x="526.0957" xlink:href="#m15a1e76485" y="259.354346"/>
     <use style="fill:#008000;stroke:#000000;" x="577.085908" xlink:href="#m15a1e76485" y="257.231234"/>
    </g>
   </g>
   <g id="patch_3">
    <path d="M 61.065 507.589794 
L 61.065 14.038594 
" style="fill:none;stroke:#000000;stroke-linecap:square;stroke-linejoin:miter;"/>
   </g>
   <g id="patch_4">
    <path d="M 67.183825 512.525306 
L 679.066325 512.525306 
" style="fill:none;stroke:#000000;stroke-linecap:square;stroke-linejoin:miter;"/>
   </g>
   <g id="legend_1">
    <g id="patch_5">
     <path d="M 586.949138 502.589794 
L 672.066325 502.589794 
Q 674.066325 502.589794 674.066325 500.589794 
L 674.066325 457.555419 
Q 674.066325 455.555419 672.066325 455.555419 
L 586.949138 455.555419 
Q 584.949138 455.555419 584.949138 457.555419 
L 584.949138 500.589794 
Q 584.949138 502.589794 586.949138 502.589794 
z
" style="fill:#e5e5e5;opacity:0.8;stroke:#cccccc;stroke-linejoin:miter;stroke-width:0.5;"/>
    </g>
    <g id="LineCollection_4">
     <path d="M 598.949138 468.653856 
L 598.949138 458.653856 
" style="fill:none;stroke:#d3d3d3;stroke-width:3;"/>
    </g>
    <g id="line2d_23">
     <g>
      <use style="fill:#d3d3d3;stroke:#d3d3d3;" x="598.949138" xlink:href="#mbd578421f6" y="468.653856"/>
     </g>
    </g>
    <g id="line2d_24">
     <g>
      <use style="fill:#d3d3d3;stroke:#d3d3d3;" x="598.949138" xlink:href="#mbd578421f6" y="458.653856"/>
     </g>
    </g>
    <g id="line2d_25">
     <path d="M 588.949138 463.653856 
L 608.949138 463.653856 
" style="fill:none;stroke:#0000ff;stroke-dasharray:5.55,2.4;stroke-dashoffset:0;stroke-width:1.5;"/>
    </g>
    <g id="line2d_26">
     <g>
      <use style="fill:#0000ff;stroke:#000000;" x="598.949138" xlink:href="#m3af79e0fd1" y="463.653856"/>
     </g>
    </g>
    <g id="text_16">
     <!-- Filament 1 -->
     <defs>
      <path d="M 9.8125 72.90625 
L 51.703125 72.90625 
L 51.703125 64.59375 
L 19.671875 64.59375 
L 19.671875 43.109375 
L 48.578125 43.109375 
L 48.578125 34.8125 
L 19.671875 34.8125 
L 19.671875 0 
L 9.8125 0 
z
" id="DejaVuSans-70"/>
      <path d="M 9.421875 75.984375 
L 18.40625 75.984375 
L 18.40625 0 
L 9.421875 0 
z
" id="DejaVuSans-108"/>
      <path d="M 34.28125 27.484375 
Q 23.390625 27.484375 19.1875 25 
Q 14.984375 22.515625 14.984375 16.5 
Q 14.984375 11.71875 18.140625 8.90625 
Q 21.296875 6.109375 26.703125 6.109375 
Q 34.1875 6.109375 38.703125 11.40625 
Q 43.21875 16.703125 43.21875 25.484375 
L 43.21875 27.484375 
z
M 52.203125 31.203125 
L 52.203125 0 
L 43.21875 0 
L 43.21875 8.296875 
Q 40.140625 3.328125 35.546875 0.953125 
Q 30.953125 -1.421875 24.3125 -1.421875 
Q 15.921875 -1.421875 10.953125 3.296875 
Q 6 8.015625 6 15.921875 
Q 6 25.140625 12.171875 29.828125 
Q 18.359375 34.515625 30.609375 34.515625 
L 43.21875 34.515625 
L 43.21875 35.40625 
Q 43.21875 41.609375 39.140625 45 
Q 35.0625 48.390625 27.6875 48.390625 
Q 23 48.390625 18.546875 47.265625 
Q 14.109375 46.140625 10.015625 43.890625 
L 10.015625 52.203125 
Q 14.9375 54.109375 19.578125 55.046875 
Q 24.21875 56 28.609375 56 
Q 40.484375 56 46.34375 49.84375 
Q 52.203125 43.703125 52.203125 31.203125 
z
" id="DejaVuSans-97"/>
      <path d="M 52 44.1875 
Q 55.375 50.25 60.0625 53.125 
Q 64.75 56 71.09375 56 
Q 79.640625 56 84.28125 50.015625 
Q 88.921875 44.046875 88.921875 33.015625 
L 88.921875 0 
L 79.890625 0 
L 79.890625 32.71875 
Q 79.890625 40.578125 77.09375 44.375 
Q 74.3125 48.1875 68.609375 48.1875 
Q 61.625 48.1875 57.5625 43.546875 
Q 53.515625 38.921875 53.515625 30.90625 
L 53.515625 0 
L 44.484375 0 
L 44.484375 32.71875 
Q 44.484375 40.625 41.703125 44.40625 
Q 38.921875 48.1875 33.109375 48.1875 
Q 26.21875 48.1875 22.15625 43.53125 
Q 18.109375 38.875 18.109375 30.90625 
L 18.109375 0 
L 9.078125 0 
L 9.078125 54.6875 
L 18.109375 54.6875 
L 18.109375 46.1875 
Q 21.1875 51.21875 25.484375 53.609375 
Q 29.78125 56 35.6875 56 
Q 41.65625 56 45.828125 52.96875 
Q 50 49.953125 52 44.1875 
z
" id="DejaVuSans-109"/>
     </defs>
     <g transform="translate(616.949138 467.153856)scale(0.1 -0.1)">
      <use xlink:href="#DejaVuSans-70"/>
      <use x="57.410156" xlink:href="#DejaVuSans-105"/>
      <use x="85.193359" xlink:href="#DejaVuSans-108"/>
      <use x="112.976562" xlink:href="#DejaVuSans-97"/>
      <use x="174.255859" xlink:href="#DejaVuSans-109"/>
      <use x="271.667969" xlink:href="#DejaVuSans-101"/>
      <use x="333.191406" xlink:href="#DejaVuSans-110"/>
      <use x="396.570312" xlink:href="#DejaVuSans-116"/>
      <use x="435.779297" xlink:href="#DejaVuSans-32"/>
      <use x="467.566406" xlink:href="#DejaVuSans-49"/>
     </g>
    </g>
    <g id="LineCollection_5">
     <path d="M 598.949138 483.331981 
L 598.949138 473.331981 
" style="fill:none;stroke:#d3d3d3;stroke-width:3;"/>
    </g>
    <g id="line2d_27">
     <g>
      <use style="fill:#d3d3d3;stroke:#d3d3d3;" x="598.949138" xlink:href="#mbd578421f6" y="483.331981"/>
     </g>
    </g>
    <g id="line2d_28">
     <g>
      <use style="fill:#d3d3d3;stroke:#d3d3d3;" x="598.949138" xlink:href="#mbd578421f6" y="473.331981"/>
     </g>
    </g>
    <g id="line2d_29">
     <path d="M 588.949138 478.331981 
L 608.949138 478.331981 
" style="fill:none;stroke:#ff0000;stroke-dasharray:5.55,2.4;stroke-dashoffset:0;stroke-width:1.5;"/>
    </g>
    <g id="line2d_30">
     <g>
      <use style="fill:#ff0000;stroke:#000000;" x="598.949138" xlink:href="#m8f1972e306" y="478.331981"/>
     </g>
    </g>
    <g id="text_17">
     <!-- Filament 2 -->
     <g transform="translate(616.949138 481.831981)scale(0.1 -0.1)">
      <use xlink:href="#DejaVuSans-70"/>
      <use x="57.410156" xlink:href="#DejaVuSans-105"/>
      <use x="85.193359" xlink:href="#DejaVuSans-108"/>
      <use x="112.976562" xlink:href="#DejaVuSans-97"/>
      <use x="174.255859" xlink:href="#DejaVuSans-109"/>
      <use x="271.667969" xlink:href="#DejaVuSans-101"/>
      <use x="333.191406" xlink:href="#DejaVuSans-110"/>
      <use x="396.570312" xlink:href="#DejaVuSans-116"/>
      <use x="435.779297" xlink:href="#DejaVuSans-32"/>
      <use x="467.566406" xlink:href="#DejaVuSans-50"/>
     </g>
    </g>
    <g id="LineCollection_6">
     <path d="M 598.949138 498.010106 
L 598.949138 488.010106 
" style="fill:none;stroke:#d3d3d3;stroke-width:3;"/>
    </g>
    <g id="line2d_31">
     <g>
      <use style="fill:#d3d3d3;stroke:#d3d3d3;" x="598.949138" xlink:href="#mbd578421f6" y="498.010106"/>
     </g>
    </g>
    <g id="line2d_32">
     <g>
      <use style="fill:#d3d3d3;stroke:#d3d3d3;" x="598.949138" xlink:href="#mbd578421f6" y="488.010106"/>
     </g>
    </g>
    <g id="line2d_33">
     <path d="M 588.949138 493.010106 
L 608.949138 493.010106 
" style="fill:none;stroke:#008000;stroke-dasharray:5.55,2.4;stroke-dashoffset:0;stroke-width:1.5;"/>
    </g>
    <g id="line2d_34">
     <g>
      <use style="fill:#008000;stroke:#000000;" x="598.949138" xlink:href="#m15a1e76485" y="493.010106"/>
     </g>
    </g>
    <g id="text_18">
     <!-- Filament 3 -->
     <g transform="translate(616.949138 496.510106)scale(0.1 -0.1)">
      <use xlink:href="#DejaVuSans-70"/>
      <use x="57.410156" xlink:href="#DejaVuSans-105"/>
      <use x="85.193359" xlink:href="#DejaVuSans-108"/>
      <use x="112.976562" xlink:href="#DejaVuSans-97"/>
      <use x="174.255859" xlink:href="#DejaVuSans-109"/>
      <use x="271.667969" xlink:href="#DejaVuSans-101"/>
      <use x="333.191406" xlink:href="#DejaVuSans-110"/>
      <use x="396.570312" xlink:href="#DejaVuSans-116"/>
      <use x="435.779297" xlink:href="#DejaVuSans-32"/>
      <use x="467.566406" xlink:href="#DejaVuSans-51"/>
     </g>
    </g>
   </g>
  </g>
 </g>
 <defs>
  <clipPath id="pa9118c53a0">
   <rect height="493.5512" width="611.8825" x="67.183825" y="14.038594"/>
  </clipPath>
 </defs>
</svg>
