<?xml version="1.0" encoding="utf-8" standalone="no"?>
<!DOCTYPE svg PUBLIC "-//W3C//DTD SVG 1.1//EN"
  "http://www.w3.org/Graphics/SVG/1.1/DTD/svg11.dtd">
<!-- Created with matplotlib (https://matplotlib.org/) -->
<svg height="508.848019pt" version="1.1" viewBox="0 0 646.928437 508.848019" width="646.928437pt" xmlns="http://www.w3.org/2000/svg" xmlns:xlink="http://www.w3.org/1999/xlink">
 <defs>
  <style type="text/css">
*{stroke-linecap:butt;stroke-linejoin:round;}
  </style>
 </defs>
 <g id="figure_1">
  <g id="patch_1">
   <path d="M 0 508.848019 
L 646.928437 508.848019 
L 646.928437 0 
L 0 0 
z
" style="fill:#ffffff;"/>
  </g>
  <g id="axes_1">
   <g id="patch_2">
    <path d="M 70.275938 448.918594 
L 628.275938 448.918594 
L 628.275938 14.038594 
L 70.275938 14.038594 
z
" style="fill:#ffffff;"/>
   </g>
   <g id="matplotlib.axis_1">
    <g id="xtick_1">
     <g id="line2d_1">
      <defs>
       <path d="M 0 0 
L 0 6 
" id="m0d2c17f37e" style="stroke:#555555;"/>
      </defs>
      <g>
       <use style="fill:#555555;stroke:#555555;" x="70.275938" xlink:href="#m0d2c17f37e" y="453.267394"/>
      </g>
     </g>
     <g id="text_1">
      <!-- 4 -->
      <defs>
       <path d="M 37.796875 64.3125 
L 12.890625 25.390625 
L 37.796875 25.390625 
z
M 35.203125 72.90625 
L 47.609375 72.90625 
L 47.609375 25.390625 
L 58.015625 25.390625 
L 58.015625 17.1875 
L 47.609375 17.1875 
L 47.609375 0 
L 37.796875 0 
L 37.796875 17.1875 
L 4.890625 17.1875 
L 4.890625 26.703125 
z
" id="DejaVuSans-52"/>
      </defs>
      <g style="fill:#555555;" transform="translate(64.549688 476.444581)scale(0.18 -0.18)">
       <use xlink:href="#DejaVuSans-52"/>
      </g>
     </g>
    </g>
    <g id="xtick_2">
     <g id="line2d_2">
      <g>
       <use style="fill:#555555;stroke:#555555;" x="163.275937" xlink:href="#m0d2c17f37e" y="453.267394"/>
      </g>
     </g>
     <g id="text_2">
      <!-- 6 -->
      <defs>
       <path d="M 33.015625 40.375 
Q 26.375 40.375 22.484375 35.828125 
Q 18.609375 31.296875 18.609375 23.390625 
Q 18.609375 15.53125 22.484375 10.953125 
Q 26.375 6.390625 33.015625 6.390625 
Q 39.65625 6.390625 43.53125 10.953125 
Q 47.40625 15.53125 47.40625 23.390625 
Q 47.40625 31.296875 43.53125 35.828125 
Q 39.65625 40.375 33.015625 40.375 
z
M 52.59375 71.296875 
L 52.59375 62.3125 
Q 48.875 64.0625 45.09375 64.984375 
Q 41.3125 65.921875 37.59375 65.921875 
Q 27.828125 65.921875 22.671875 59.328125 
Q 17.53125 52.734375 16.796875 39.40625 
Q 19.671875 43.65625 24.015625 45.921875 
Q 28.375 48.1875 33.59375 48.1875 
Q 44.578125 48.1875 50.953125 41.515625 
Q 57.328125 34.859375 57.328125 23.390625 
Q 57.328125 12.15625 50.6875 5.359375 
Q 44.046875 -1.421875 33.015625 -1.421875 
Q 20.359375 -1.421875 13.671875 8.265625 
Q 6.984375 17.96875 6.984375 36.375 
Q 6.984375 53.65625 15.1875 63.9375 
Q 23.390625 74.21875 37.203125 74.21875 
Q 40.921875 74.21875 44.703125 73.484375 
Q 48.484375 72.75 52.59375 71.296875 
z
" id="DejaVuSans-54"/>
      </defs>
      <g style="fill:#555555;" transform="translate(157.549688 476.444581)scale(0.18 -0.18)">
       <use xlink:href="#DejaVuSans-54"/>
      </g>
     </g>
    </g>
    <g id="xtick_3">
     <g id="line2d_3">
      <g>
       <use style="fill:#555555;stroke:#555555;" x="256.275937" xlink:href="#m0d2c17f37e" y="453.267394"/>
      </g>
     </g>
     <g id="text_3">
      <!-- 8 -->
      <defs>
       <path d="M 31.78125 34.625 
Q 24.75 34.625 20.71875 30.859375 
Q 16.703125 27.09375 16.703125 20.515625 
Q 16.703125 13.921875 20.71875 10.15625 
Q 24.75 6.390625 31.78125 6.390625 
Q 38.8125 6.390625 42.859375 10.171875 
Q 46.921875 13.96875 46.921875 20.515625 
Q 46.921875 27.09375 42.890625 30.859375 
Q 38.875 34.625 31.78125 34.625 
z
M 21.921875 38.8125 
Q 15.578125 40.375 12.03125 44.71875 
Q 8.5 49.078125 8.5 55.328125 
Q 8.5 64.0625 14.71875 69.140625 
Q 20.953125 74.21875 31.78125 74.21875 
Q 42.671875 74.21875 48.875 69.140625 
Q 55.078125 64.0625 55.078125 55.328125 
Q 55.078125 49.078125 51.53125 44.71875 
Q 48 40.375 41.703125 38.8125 
Q 48.828125 37.15625 52.796875 32.3125 
Q 56.78125 27.484375 56.78125 20.515625 
Q 56.78125 9.90625 50.3125 4.234375 
Q 43.84375 -1.421875 31.78125 -1.421875 
Q 19.734375 -1.421875 13.25 4.234375 
Q 6.78125 9.90625 6.78125 20.515625 
Q 6.78125 27.484375 10.78125 32.3125 
Q 14.796875 37.15625 21.921875 38.8125 
z
M 18.3125 54.390625 
Q 18.3125 48.734375 21.84375 45.5625 
Q 25.390625 42.390625 31.78125 42.390625 
Q 38.140625 42.390625 41.71875 45.5625 
Q 45.3125 48.734375 45.3125 54.390625 
Q 45.3125 60.0625 41.71875 63.234375 
Q 38.140625 66.40625 31.78125 66.40625 
Q 25.390625 66.40625 21.84375 63.234375 
Q 18.3125 60.0625 18.3125 54.390625 
z
" id="DejaVuSans-56"/>
      </defs>
      <g style="fill:#555555;" transform="translate(250.549688 476.444581)scale(0.18 -0.18)">
       <use xlink:href="#DejaVuSans-56"/>
      </g>
     </g>
    </g>
    <g id="xtick_4">
     <g id="line2d_4">
      <g>
       <use style="fill:#555555;stroke:#555555;" x="349.275937" xlink:href="#m0d2c17f37e" y="453.267394"/>
      </g>
     </g>
     <g id="text_4">
      <!-- 10 -->
      <defs>
       <path d="M 12.40625 8.296875 
L 28.515625 8.296875 
L 28.515625 63.921875 
L 10.984375 60.40625 
L 10.984375 69.390625 
L 28.421875 72.90625 
L 38.28125 72.90625 
L 38.28125 8.296875 
L 54.390625 8.296875 
L 54.390625 0 
L 12.40625 0 
z
" id="DejaVuSans-49"/>
       <path d="M 31.78125 66.40625 
Q 24.171875 66.40625 20.328125 58.90625 
Q 16.5 51.421875 16.5 36.375 
Q 16.5 21.390625 20.328125 13.890625 
Q 24.171875 6.390625 31.78125 6.390625 
Q 39.453125 6.390625 43.28125 13.890625 
Q 47.125 21.390625 47.125 36.375 
Q 47.125 51.421875 43.28125 58.90625 
Q 39.453125 66.40625 31.78125 66.40625 
z
M 31.78125 74.21875 
Q 44.046875 74.21875 50.515625 64.515625 
Q 56.984375 54.828125 56.984375 36.375 
Q 56.984375 17.96875 50.515625 8.265625 
Q 44.046875 -1.421875 31.78125 -1.421875 
Q 19.53125 -1.421875 13.0625 8.265625 
Q 6.59375 17.96875 6.59375 36.375 
Q 6.59375 54.828125 13.0625 64.515625 
Q 19.53125 74.21875 31.78125 74.21875 
z
" id="DejaVuSans-48"/>
      </defs>
      <g style="fill:#555555;" transform="translate(337.823438 476.444581)scale(0.18 -0.18)">
       <use xlink:href="#DejaVuSans-49"/>
       <use x="63.623047" xlink:href="#DejaVuSans-48"/>
      </g>
     </g>
    </g>
    <g id="xtick_5">
     <g id="line2d_5">
      <g>
       <use style="fill:#555555;stroke:#555555;" x="442.275937" xlink:href="#m0d2c17f37e" y="453.267394"/>
      </g>
     </g>
     <g id="text_5">
      <!-- 12 -->
      <defs>
       <path d="M 19.1875 8.296875 
L 53.609375 8.296875 
L 53.609375 0 
L 7.328125 0 
L 7.328125 8.296875 
Q 12.9375 14.109375 22.625 23.890625 
Q 32.328125 33.6875 34.8125 36.53125 
Q 39.546875 41.84375 41.421875 45.53125 
Q 43.3125 49.21875 43.3125 52.78125 
Q 43.3125 58.59375 39.234375 62.25 
Q 35.15625 65.921875 28.609375 65.921875 
Q 23.96875 65.921875 18.8125 64.3125 
Q 13.671875 62.703125 7.8125 59.421875 
L 7.8125 69.390625 
Q 13.765625 71.78125 18.9375 73 
Q 24.125 74.21875 28.421875 74.21875 
Q 39.75 74.21875 46.484375 68.546875 
Q 53.21875 62.890625 53.21875 53.421875 
Q 53.21875 48.921875 51.53125 44.890625 
Q 49.859375 40.875 45.40625 35.40625 
Q 44.1875 33.984375 37.640625 27.21875 
Q 31.109375 20.453125 19.1875 8.296875 
z
" id="DejaVuSans-50"/>
      </defs>
      <g style="fill:#555555;" transform="translate(430.823438 476.444581)scale(0.18 -0.18)">
       <use xlink:href="#DejaVuSans-49"/>
       <use x="63.623047" xlink:href="#DejaVuSans-50"/>
      </g>
     </g>
    </g>
    <g id="xtick_6">
     <g id="line2d_6">
      <g>
       <use style="fill:#555555;stroke:#555555;" x="535.275938" xlink:href="#m0d2c17f37e" y="453.267394"/>
      </g>
     </g>
     <g id="text_6">
      <!-- 14 -->
      <g style="fill:#555555;" transform="translate(523.823438 476.444581)scale(0.18 -0.18)">
       <use xlink:href="#DejaVuSans-49"/>
       <use x="63.623047" xlink:href="#DejaVuSans-52"/>
      </g>
     </g>
    </g>
    <g id="xtick_7">
     <g id="line2d_7">
      <g>
       <use style="fill:#555555;stroke:#555555;" x="628.275938" xlink:href="#m0d2c17f37e" y="453.267394"/>
      </g>
     </g>
     <g id="text_7">
      <!-- 16 -->
      <g style="fill:#555555;" transform="translate(616.823438 476.444581)scale(0.18 -0.18)">
       <use xlink:href="#DejaVuSans-49"/>
       <use x="63.623047" xlink:href="#DejaVuSans-54"/>
      </g>
     </g>
    </g>
    <g id="text_8">
     <!-- X ($\mu m$) -->
     <defs>
      <path d="M 6.296875 72.90625 
L 16.890625 72.90625 
L 35.015625 45.796875 
L 53.21875 72.90625 
L 63.8125 72.90625 
L 40.375 37.890625 
L 65.375 0 
L 54.78125 0 
L 34.28125 31 
L 13.625 0 
L 2.984375 0 
L 29 38.921875 
z
" id="DejaVuSans-88"/>
      <path id="DejaVuSans-32"/>
      <path d="M 31 75.875 
Q 24.46875 64.65625 21.28125 53.65625 
Q 18.109375 42.671875 18.109375 31.390625 
Q 18.109375 20.125 21.3125 9.0625 
Q 24.515625 -2 31 -13.1875 
L 23.1875 -13.1875 
Q 15.875 -1.703125 12.234375 9.375 
Q 8.59375 20.453125 8.59375 31.390625 
Q 8.59375 42.28125 12.203125 53.3125 
Q 15.828125 64.359375 23.1875 75.875 
z
" id="DejaVuSans-40"/>
      <path d="M -1.3125 -20.796875 
L 13.375 54.6875 
L 22.40625 54.6875 
L 15.765625 20.65625 
Q 15.578125 19.625 15.421875 18.359375 
Q 15.28125 17.09375 15.28125 15.828125 
Q 15.28125 11.28125 18.140625 8.828125 
Q 21 6.390625 26.3125 6.390625 
Q 33.546875 6.390625 37.984375 10.484375 
Q 42.4375 14.59375 44 22.796875 
L 50.203125 54.6875 
L 59.1875 54.6875 
L 51.03125 12.640625 
Q 50.828125 11.71875 50.75 11.03125 
Q 50.6875 10.359375 50.6875 9.8125 
Q 50.6875 8.296875 51.296875 7.59375 
Q 51.90625 6.890625 53.21875 6.890625 
Q 53.71875 6.890625 54.5625 7.125 
Q 55.421875 7.375 56.984375 8.015625 
L 55.609375 0.78125 
Q 53.46875 -0.296875 51.515625 -0.859375 
Q 49.5625 -1.421875 47.703125 -1.421875 
Q 44.484375 -1.421875 42.65625 0.625 
Q 40.828125 2.6875 40.828125 6.296875 
Q 38.09375 2.390625 34.296875 0.484375 
Q 30.515625 -1.421875 25.390625 -1.421875 
Q 20.84375 -1.421875 17.453125 0.671875 
Q 14.0625 2.78125 12.984375 6.203125 
L 7.71875 -20.796875 
z
" id="DejaVuSans-Oblique-956"/>
      <path d="M 89.796875 33.015625 
L 83.40625 0 
L 74.421875 0 
L 80.71875 32.71875 
Q 81.109375 34.8125 81.296875 36.328125 
Q 81.5 37.84375 81.5 38.921875 
Q 81.5 43.3125 79.046875 45.75 
Q 76.609375 48.1875 72.21875 48.1875 
Q 65.671875 48.1875 60.546875 43.28125 
Q 55.421875 38.375 53.90625 30.515625 
L 47.90625 0 
L 38.921875 0 
L 45.3125 32.71875 
Q 45.703125 34.515625 45.890625 36.046875 
Q 46.09375 37.59375 46.09375 38.8125 
Q 46.09375 43.265625 43.65625 45.71875 
Q 41.21875 48.1875 36.921875 48.1875 
Q 30.28125 48.1875 25.140625 43.28125 
Q 20.015625 38.375 18.5 30.515625 
L 12.5 0 
L 3.515625 0 
L 14.203125 54.6875 
L 23.1875 54.6875 
L 21.484375 46.1875 
Q 25.140625 50.984375 30.046875 53.484375 
Q 34.96875 56 40.578125 56 
Q 46.53125 56 50.359375 52.875 
Q 54.203125 49.75 54.984375 44.1875 
Q 59.078125 49.953125 64.46875 52.96875 
Q 69.875 56 75.875 56 
Q 82.90625 56 86.734375 51.953125 
Q 90.578125 47.90625 90.578125 40.484375 
Q 90.578125 38.875 90.375 36.9375 
Q 90.1875 35.015625 89.796875 33.015625 
z
" id="DejaVuSans-Oblique-109"/>
      <path d="M 8.015625 75.875 
L 15.828125 75.875 
Q 23.140625 64.359375 26.78125 53.3125 
Q 30.421875 42.28125 30.421875 31.390625 
Q 30.421875 20.453125 26.78125 9.375 
Q 23.140625 -1.703125 15.828125 -13.1875 
L 8.015625 -13.1875 
Q 14.5 -2 17.703125 9.0625 
Q 20.90625 20.125 20.90625 31.390625 
Q 20.90625 42.671875 17.703125 53.65625 
Q 14.5 64.65625 8.015625 75.875 
z
" id="DejaVuSans-41"/>
     </defs>
     <g transform="translate(318.675937 497.868019)scale(0.18 -0.18)">
      <use transform="translate(0 0.125)" xlink:href="#DejaVuSans-88"/>
      <use transform="translate(68.505859 0.125)" xlink:href="#DejaVuSans-32"/>
      <use transform="translate(100.292969 0.125)" xlink:href="#DejaVuSans-40"/>
      <use transform="translate(139.306641 0.125)" xlink:href="#DejaVuSans-Oblique-956"/>
      <use transform="translate(202.929688 0.125)" xlink:href="#DejaVuSans-Oblique-109"/>
      <use transform="translate(300.341797 0.125)" xlink:href="#DejaVuSans-41"/>
     </g>
    </g>
   </g>
   <g id="matplotlib.axis_2">
    <g id="ytick_1">
     <g id="line2d_8">
      <defs>
       <path d="M 0 0 
L -6 0 
" id="m363d68195b" style="stroke:#555555;"/>
      </defs>
      <g>
       <use style="fill:#555555;stroke:#555555;" x="64.695938" xlink:href="#m363d68195b" y="416.100162"/>
      </g>
     </g>
     <g id="text_9">
      <!-- −1 -->
      <defs>
       <path d="M 10.59375 35.5 
L 73.1875 35.5 
L 73.1875 27.203125 
L 10.59375 27.203125 
z
" id="DejaVuSans-8722"/>
      </defs>
      <g style="fill:#555555;" transform="translate(28.66 422.938756)scale(0.18 -0.18)">
       <use xlink:href="#DejaVuSans-8722"/>
       <use x="83.789062" xlink:href="#DejaVuSans-49"/>
      </g>
     </g>
    </g>
    <g id="ytick_2">
     <g id="line2d_9">
      <g>
       <use style="fill:#555555;stroke:#555555;" x="64.695938" xlink:href="#m363d68195b" y="358.662795"/>
      </g>
     </g>
     <g id="text_10">
      <!-- 0 -->
      <g style="fill:#555555;" transform="translate(43.743438 365.501389)scale(0.18 -0.18)">
       <use xlink:href="#DejaVuSans-48"/>
      </g>
     </g>
    </g>
    <g id="ytick_3">
     <g id="line2d_10">
      <g>
       <use style="fill:#555555;stroke:#555555;" x="64.695938" xlink:href="#m363d68195b" y="301.225428"/>
      </g>
     </g>
     <g id="text_11">
      <!-- 1 -->
      <g style="fill:#555555;" transform="translate(43.743438 308.064022)scale(0.18 -0.18)">
       <use xlink:href="#DejaVuSans-49"/>
      </g>
     </g>
    </g>
    <g id="ytick_4">
     <g id="line2d_11">
      <g>
       <use style="fill:#555555;stroke:#555555;" x="64.695938" xlink:href="#m363d68195b" y="243.788061"/>
      </g>
     </g>
     <g id="text_12">
      <!-- 2 -->
      <g style="fill:#555555;" transform="translate(43.743438 250.626655)scale(0.18 -0.18)">
       <use xlink:href="#DejaVuSans-50"/>
      </g>
     </g>
    </g>
    <g id="ytick_5">
     <g id="line2d_12">
      <g>
       <use style="fill:#555555;stroke:#555555;" x="64.695938" xlink:href="#m363d68195b" y="186.350694"/>
      </g>
     </g>
     <g id="text_13">
      <!-- 3 -->
      <defs>
       <path d="M 40.578125 39.3125 
Q 47.65625 37.796875 51.625 33 
Q 55.609375 28.21875 55.609375 21.1875 
Q 55.609375 10.40625 48.1875 4.484375 
Q 40.765625 -1.421875 27.09375 -1.421875 
Q 22.515625 -1.421875 17.65625 -0.515625 
Q 12.796875 0.390625 7.625 2.203125 
L 7.625 11.71875 
Q 11.71875 9.328125 16.59375 8.109375 
Q 21.484375 6.890625 26.8125 6.890625 
Q 36.078125 6.890625 40.9375 10.546875 
Q 45.796875 14.203125 45.796875 21.1875 
Q 45.796875 27.640625 41.28125 31.265625 
Q 36.765625 34.90625 28.71875 34.90625 
L 20.21875 34.90625 
L 20.21875 43.015625 
L 29.109375 43.015625 
Q 36.375 43.015625 40.234375 45.921875 
Q 44.09375 48.828125 44.09375 54.296875 
Q 44.09375 59.90625 40.109375 62.90625 
Q 36.140625 65.921875 28.71875 65.921875 
Q 24.65625 65.921875 20.015625 65.03125 
Q 15.375 64.15625 9.8125 62.3125 
L 9.8125 71.09375 
Q 15.4375 72.65625 20.34375 73.4375 
Q 25.25 74.21875 29.59375 74.21875 
Q 40.828125 74.21875 47.359375 69.109375 
Q 53.90625 64.015625 53.90625 55.328125 
Q 53.90625 49.265625 50.4375 45.09375 
Q 46.96875 40.921875 40.578125 39.3125 
z
" id="DejaVuSans-51"/>
      </defs>
      <g style="fill:#555555;" transform="translate(43.743438 193.189288)scale(0.18 -0.18)">
       <use xlink:href="#DejaVuSans-51"/>
      </g>
     </g>
    </g>
    <g id="ytick_6">
     <g id="line2d_13">
      <g>
       <use style="fill:#555555;stroke:#555555;" x="64.695938" xlink:href="#m363d68195b" y="128.913327"/>
      </g>
     </g>
     <g id="text_14">
      <!-- 4 -->
      <g style="fill:#555555;" transform="translate(43.743438 135.751921)scale(0.18 -0.18)">
       <use xlink:href="#DejaVuSans-52"/>
      </g>
     </g>
    </g>
    <g id="ytick_7">
     <g id="line2d_14">
      <g>
       <use style="fill:#555555;stroke:#555555;" x="64.695938" xlink:href="#m363d68195b" y="71.475961"/>
      </g>
     </g>
     <g id="text_15">
      <!-- 5 -->
      <defs>
       <path d="M 10.796875 72.90625 
L 49.515625 72.90625 
L 49.515625 64.59375 
L 19.828125 64.59375 
L 19.828125 46.734375 
Q 21.96875 47.46875 24.109375 47.828125 
Q 26.265625 48.1875 28.421875 48.1875 
Q 40.625 48.1875 47.75 41.5 
Q 54.890625 34.8125 54.890625 23.390625 
Q 54.890625 11.625 47.5625 5.09375 
Q 40.234375 -1.421875 26.90625 -1.421875 
Q 22.3125 -1.421875 17.546875 -0.640625 
Q 12.796875 0.140625 7.71875 1.703125 
L 7.71875 11.625 
Q 12.109375 9.234375 16.796875 8.0625 
Q 21.484375 6.890625 26.703125 6.890625 
Q 35.15625 6.890625 40.078125 11.328125 
Q 45.015625 15.765625 45.015625 23.390625 
Q 45.015625 31 40.078125 35.4375 
Q 35.15625 39.890625 26.703125 39.890625 
Q 22.75 39.890625 18.8125 39.015625 
Q 14.890625 38.140625 10.796875 36.28125 
z
" id="DejaVuSans-53"/>
      </defs>
      <g style="fill:#555555;" transform="translate(43.743438 78.314554)scale(0.18 -0.18)">
       <use xlink:href="#DejaVuSans-53"/>
      </g>
     </g>
    </g>
    <g id="ytick_8">
     <g id="line2d_15">
      <g>
       <use style="fill:#555555;stroke:#555555;" x="64.695938" xlink:href="#m363d68195b" y="14.038594"/>
      </g>
     </g>
     <g id="text_16">
      <!-- 6 -->
      <g style="fill:#555555;" transform="translate(43.743438 20.877187)scale(0.18 -0.18)">
       <use xlink:href="#DejaVuSans-54"/>
      </g>
     </g>
    </g>
    <g id="text_17">
     <!-- Y ($\mu m$) -->
     <defs>
      <path d="M -0.203125 72.90625 
L 10.40625 72.90625 
L 30.609375 42.921875 
L 50.6875 72.90625 
L 61.28125 72.90625 
L 35.5 34.71875 
L 35.5 0 
L 25.59375 0 
L 25.59375 34.71875 
z
" id="DejaVuSans-89"/>
     </defs>
     <g transform="translate(20.88 261.358594)rotate(-90)scale(0.18 -0.18)">
      <use transform="translate(0 0.125)" xlink:href="#DejaVuSans-89"/>
      <use transform="translate(61.083984 0.125)" xlink:href="#DejaVuSans-32"/>
      <use transform="translate(92.871094 0.125)" xlink:href="#DejaVuSans-40"/>
      <use transform="translate(131.884766 0.125)" xlink:href="#DejaVuSans-Oblique-956"/>
      <use transform="translate(195.507812 0.125)" xlink:href="#DejaVuSans-Oblique-109"/>
      <use transform="translate(292.919922 0.125)" xlink:href="#DejaVuSans-41"/>
     </g>
    </g>
   </g>
   <g id="line2d_16">
    <path clip-path="url(#p2ce05dc9dd)" d="M 70.275938 358.662795 
L 72.089386 355.15195 
L 76.263979 364.885848 
L 78.710349 367.244362 
L 81.103556 367.974102 
L 83.286226 369.377539 
L 89.000029 354.506495 
L 91.533971 354.092073 
L 94.50429 350.536201 
L 97.315791 348.832522 
L 98.871607 363.294466 
L 103.171555 359.417042 
L 105.249842 364.754439 
L 107.486275 368.070744 
L 111.093302 366.038694 
L 113.294336 370.868354 
L 116.17553 370.33058 
L 117.579758 377.313521 
L 119.808669 379.950485 
L 124.259392 378.283076 
L 125.378394 385.237801 
L 128.837068 386.458871 
L 130.586554 389.312726 
L 133.731981 390.704795 
L 135.52386 396.664416 
L 141.539927 390.252384 
L 143.503177 395.325815 
L 144.31273 399.119895 
L 146.772607 400.510871 
L 150.122303 400.613078 
L 152.179658 404.69128 
L 154.69065 407.964999 
L 158.436378 405.230076 
L 159.520219 413.863274 
L 163.042394 413.055455 
L 165.391603 414.581362 
L 166.765485 421.742822 
L 170.155334 420.893477 
L 173.023898 419.927209 
L 176.049295 419.941676 
L 179.041812 421.042802 
L 182.556681 423.034833 
L 185.748083 419.543836 
L 186.771466 412.073546 
L 188.59995 406.371903 
L 194.481568 407.852687 
L 198.776463 409.98812 
L 199.074518 404.106503 
L 204.979332 409.175123 
L 206.146866 401.208708 
L 206.611807 395.298808 
L 211.529638 398.806038 
L 212.018853 390.264997 
L 217.544804 394.895987 
L 220.822734 396.229864 
L 224.304664 397.162239 
L 227.635801 397.799944 
L 230.972262 400.811694 
L 233.564951 399.549893 
L 238.019496 399.595405 
L 240.345511 400.039234 
L 244.441277 400.285221 
L 248.507449 390.295237 
L 252.565449 388.801222 
L 256.736743 390.070784 
L 258.009948 384.520579 
L 261.61407 384.020986 
L 265.537826 393.872224 
L 269.435461 390.214916 
L 267.899669 372.516037 
L 266.843691 364.455329 
L 269.705756 362.26148 
L 275.010312 363.337546 
L 275.239711 358.108546 
L 270.746098 350.592609 
L 277.160979 349.804999 
L 275.850892 344.768293 
L 276.969994 342.38326 
L 284.779949 343.197183 
L 286.636254 341.134016 
L 288.313484 338.331519 
L 289.201647 332.684867 
L 290.036542 329.811142 
L 290.787608 326.296517 
L 287.173946 321.490339 
L 287.887642 317.702507 
L 287.611426 313.439462 
L 287.708349 310.350025 
L 288.279684 307.50123 
L 287.017831 302.628404 
L 290.92265 298.727556 
L 296.282531 296.008098 
L 298.210218 293.343909 
L 293.371294 287.882503 
L 292.759696 283.57096 
L 293.201844 280.258219 
L 305.389544 279.062871 
L 304.787765 274.557711 
L 311.002776 274.046966 
L 309.414788 267.450087 
L 312.972643 265.203227 
L 321.461373 271.545582 
L 323.075075 264.320732 
L 326.490808 265.994712 
L 330.007943 266.773569 
L 332.646726 264.946753 
L 336.867212 266.795145 
L 339.978862 266.309323 
L 341.793032 261.769081 
L 346.454145 267.720464 
L 348.533664 269.847282 
L 351.29163 269.970477 
L 355.090804 271.048782 
L 356.583936 276.838762 
L 357.239439 280.441177 
L 361.140867 279.83953 
L 361.087065 286.466518 
L 365.8159 284.38874 
L 368.27828 285.122836 
L 372.944858 279.972089 
L 376.731643 260.088082 
L 381.740173 265.057751 
L 385.099039 268.179682 
L 388.374936 268.14309 
L 391.839616 266.090422 
L 393.904703 261.910302 
L 396.516481 262.801172 
L 398.640444 257.879399 
L 402.748489 262.227092 
L 404.772021 256.231286 
L 406.818392 253.930265 
L 411.728514 257.286319 
L 413.16973 251.2485 
L 415.565706 249.05158 
L 417.644611 247.693589 
L 423.856299 256.024915 
L 426.398004 254.631922 
L 430.675645 253.003908 
L 433.321564 250.456011 
L 435.542606 247.172387 
L 439.44667 249.567688 
L 443.395715 250.22289 
L 447.111203 251.530566 
L 448.134252 244.703599 
L 450.804301 243.35843 
L 453.461726 241.065781 
L 456.371278 242.608477 
L 459.443387 239.232702 
L 462.163884 238.741098 
L 460.795705 228.994461 
L 464.161512 227.588159 
L 467.625898 228.199395 
L 469.283631 225.187205 
L 469.331406 218.496085 
L 474.670015 221.336552 
L 478.896177 222.565097 
L 483.988141 225.060763 
L 486.508519 219.682073 
L 486.519261 211.049992 
L 493.586649 222.343281 
L 495.814163 227.969236 
L 498.117602 230.020421 
L 498.538083 204.846838 
L 495.14825 192.284498 
L 499.85404 193.37597 
L 497.604547 183.93225 
L 497.734637 180.179004 
L 500.047819 177.136064 
L 498.340057 171.534591 
L 501.547249 168.949927 
L 504.316395 165.638417 
L 498.952159 158.939855 
L 502.737855 156.15168 
L 504.53911 152.398288 
L 504.307209 148.012542 
L 513.410436 148.679989 
L 512.127905 143.186448 
L 517.793388 142.760231 
L 514.095884 135.670145 
L 523.678306 138.455908 
L 519.444041 130.153807 
L 522.171144 127.04647 
L 521.621281 122.938168 
L 514.260127 116.504839 
L 515.235166 112.135454 
L 513.528158 108.185051 
L 514.613334 103.908257 
L 516.634736 100.204991 
L 516.770293 96.825117 
L 515.608107 93.324846 
L 518.987919 90.093593 
L 536.754592 94.683304 
L 538.822183 91.809929 
L 543.279617 90.612849 
L 542.656524 86.94138 
L 546.308758 85.188575 
L 554.605186 89.687146 
L 551.968814 83.372417 
L 556.680629 81.379367 
L 558.783693 78.26605 
L 562.045883 76.92416 
L 556.561209 68.316057 
L 552.906893 63.060718 
L 550.338052 57.423531 
L 544.650139 50.77735 
L 546.205627 45.794618 
L 543.851182 42.854578 
L 549.21102 37.491063 
L 544.36941 33.854611 
L 544.491991 31.051866 
L 539.6271 28.566434 
L 553.228667 24.875079 
L 564.509689 22.520402 
L 575.501027 22.703769 
L 579.128048 20.077136 
L 577.140234 15.228655 
L 581.352961 11.683907 
L 586.00328 10.517776 
L 582.834471 3.964803 
L 588.865371 4.432727 
L 589.113037 1.07157 
L 590.269894 -1 
L 590.269894 -1 
" style="fill:none;stroke:#0000ff;stroke-linecap:square;stroke-width:1.5;"/>
   </g>
   <g id="line2d_17">
    <path clip-path="url(#p2ce05dc9dd)" d="M 70.275938 358.662795 
L 98.871607 363.294466 
L 125.378394 385.237801 
L 152.179658 404.69128 
L 179.041812 421.042802 
L 206.611807 395.298808 
L 240.345511 400.039234 
L 267.899669 372.516037 
L 286.636254 341.134016 
L 287.017831 302.628404 
L 309.414788 267.450087 
L 346.454145 267.720464 
L 372.944858 279.972089 
L 404.772021 256.231286 
L 435.542606 247.172387 
L 460.795705 228.994461 
L 493.586649 222.343281 
L 501.547249 168.949927 
L 523.678306 138.455908 
L 515.608107 93.324846 
L 558.783693 78.26605 
L 544.36941 33.854611 
L 582.834471 3.964803 
L 583.272988 -1 
" style="fill:none;stroke:#008000;stroke-linecap:square;stroke-width:1.5;"/>
    <defs>
     <path d="M 0 3 
C 0.795609 3 1.55874 2.683901 2.12132 2.12132 
C 2.683901 1.55874 3 0.795609 3 0 
C 3 -0.795609 2.683901 -1.55874 2.12132 -2.12132 
C 1.55874 -2.683901 0.795609 -3 0 -3 
C -0.795609 -3 -1.55874 -2.683901 -2.12132 -2.12132 
C -2.683901 -1.55874 -3 -0.795609 -3 0 
C -3 0.795609 -2.683901 1.55874 -2.12132 2.12132 
C -1.55874 2.683901 -0.795609 3 0 3 
z
" id="m7b05193fc8" style="stroke:#008000;"/>
    </defs>
    <g clip-path="url(#p2ce05dc9dd)">
     <use style="fill:#008000;stroke:#008000;" x="70.275938" xlink:href="#m7b05193fc8" y="358.662795"/>
     <use style="fill:#008000;stroke:#008000;" x="98.871607" xlink:href="#m7b05193fc8" y="363.294466"/>
     <use style="fill:#008000;stroke:#008000;" x="125.378394" xlink:href="#m7b05193fc8" y="385.237801"/>
     <use style="fill:#008000;stroke:#008000;" x="152.179658" xlink:href="#m7b05193fc8" y="404.69128"/>
     <use style="fill:#008000;stroke:#008000;" x="179.041812" xlink:href="#m7b05193fc8" y="421.042802"/>
     <use style="fill:#008000;stroke:#008000;" x="206.611807" xlink:href="#m7b05193fc8" y="395.298808"/>
     <use style="fill:#008000;stroke:#008000;" x="240.345511" xlink:href="#m7b05193fc8" y="400.039234"/>
     <use style="fill:#008000;stroke:#008000;" x="267.899669" xlink:href="#m7b05193fc8" y="372.516037"/>
     <use style="fill:#008000;stroke:#008000;" x="286.636254" xlink:href="#m7b05193fc8" y="341.134016"/>
     <use style="fill:#008000;stroke:#008000;" x="287.017831" xlink:href="#m7b05193fc8" y="302.628404"/>
     <use style="fill:#008000;stroke:#008000;" x="309.414788" xlink:href="#m7b05193fc8" y="267.450087"/>
     <use style="fill:#008000;stroke:#008000;" x="346.454145" xlink:href="#m7b05193fc8" y="267.720464"/>
     <use style="fill:#008000;stroke:#008000;" x="372.944858" xlink:href="#m7b05193fc8" y="279.972089"/>
     <use style="fill:#008000;stroke:#008000;" x="404.772021" xlink:href="#m7b05193fc8" y="256.231286"/>
     <use style="fill:#008000;stroke:#008000;" x="435.542606" xlink:href="#m7b05193fc8" y="247.172387"/>
     <use style="fill:#008000;stroke:#008000;" x="460.795705" xlink:href="#m7b05193fc8" y="228.994461"/>
     <use style="fill:#008000;stroke:#008000;" x="493.586649" xlink:href="#m7b05193fc8" y="222.343281"/>
     <use style="fill:#008000;stroke:#008000;" x="501.547249" xlink:href="#m7b05193fc8" y="168.949927"/>
     <use style="fill:#008000;stroke:#008000;" x="523.678306" xlink:href="#m7b05193fc8" y="138.455908"/>
     <use style="fill:#008000;stroke:#008000;" x="515.608107" xlink:href="#m7b05193fc8" y="93.324846"/>
     <use style="fill:#008000;stroke:#008000;" x="558.783693" xlink:href="#m7b05193fc8" y="78.26605"/>
     <use style="fill:#008000;stroke:#008000;" x="544.36941" xlink:href="#m7b05193fc8" y="33.854611"/>
     <use style="fill:#008000;stroke:#008000;" x="582.834471" xlink:href="#m7b05193fc8" y="3.964803"/>
     <use style="fill:#008000;stroke:#008000;" x="583.272988" xlink:href="#m7b05193fc8" y="-1"/>
     <use style="fill:#008000;stroke:#008000;" x="866.354696" xlink:href="#m7b05193fc8" y="-1"/>
     <use style="fill:#008000;stroke:#008000;" x="868.890528" xlink:href="#m7b05193fc8" y="0.335226"/>
     <use style="fill:#008000;stroke:#008000;" x="877.792747" xlink:href="#m7b05193fc8" y="-1"/>
     <use style="fill:#008000;stroke:#008000;" x="905.969594" xlink:href="#m7b05193fc8" y="-1"/>
     <use style="fill:#008000;stroke:#008000;" x="929.111369" xlink:href="#m7b05193fc8" y="36.109361"/>
     <use style="fill:#008000;stroke:#008000;" x="955.122772" xlink:href="#m7b05193fc8" y="64.45358"/>
     <use style="fill:#008000;stroke:#008000;" x="986.422776" xlink:href="#m7b05193fc8" y="72.865131"/>
     <use style="fill:#008000;stroke:#008000;" x="1016.213072" xlink:href="#m7b05193fc8" y="73.709507"/>
     <use style="fill:#008000;stroke:#008000;" x="1043.977264" xlink:href="#m7b05193fc8" y="104.439986"/>
     <use style="fill:#008000;stroke:#008000;" x="1072.879786" xlink:href="#m7b05193fc8" y="121.911237"/>
     <use style="fill:#008000;stroke:#008000;" x="1105.018571" xlink:href="#m7b05193fc8" y="115.311986"/>
     <use style="fill:#008000;stroke:#008000;" x="1133.942261" xlink:href="#m7b05193fc8" y="98.892857"/>
     <use style="fill:#008000;stroke:#008000;" x="1165.931692" xlink:href="#m7b05193fc8" y="86.324437"/>
     <use style="fill:#008000;stroke:#008000;" x="1194.110524" xlink:href="#m7b05193fc8" y="103.676489"/>
     <use style="fill:#008000;stroke:#008000;" x="1226.086848" xlink:href="#m7b05193fc8" y="107.438553"/>
     <use style="fill:#008000;stroke:#008000;" x="1258.840161" xlink:href="#m7b05193fc8" y="84.306822"/>
     <use style="fill:#008000;stroke:#008000;" x="1286.974657" xlink:href="#m7b05193fc8" y="70.645387"/>
     <use style="fill:#008000;stroke:#008000;" x="1307.959249" xlink:href="#m7b05193fc8" y="42.452313"/>
     <use style="fill:#008000;stroke:#008000;" x="1321.643958" xlink:href="#m7b05193fc8" y="4.346905"/>
     <use style="fill:#008000;stroke:#008000;" x="1323.231755" xlink:href="#m7b05193fc8" y="-1"/>
    </g>
   </g>
   <g id="line2d_18">
    <path clip-path="url(#p2ce05dc9dd)" d="M 70.275938 358.662795 
L 206.611807 395.298808 
L 309.414788 267.450087 
L 460.795705 228.994461 
L 558.783693 78.26605 
L 593.038056 -1 
" style="fill:none;stroke:#ff0000;stroke-linecap:square;stroke-width:1.5;"/>
    <defs>
     <path d="M 0 3 
C 0.795609 3 1.55874 2.683901 2.12132 2.12132 
C 2.683901 1.55874 3 0.795609 3 0 
C 3 -0.795609 2.683901 -1.55874 2.12132 -2.12132 
C 1.55874 -2.683901 0.795609 -3 0 -3 
C -0.795609 -3 -1.55874 -2.683901 -2.12132 -2.12132 
C -2.683901 -1.55874 -3 -0.795609 -3 0 
C -3 0.795609 -2.683901 1.55874 -2.12132 2.12132 
C -1.55874 2.683901 -0.795609 3 0 3 
z
" id="m2dbac665fb" style="stroke:#ff0000;"/>
    </defs>
    <g clip-path="url(#p2ce05dc9dd)">
     <use style="fill:#ff0000;stroke:#ff0000;" x="70.275938" xlink:href="#m2dbac665fb" y="358.662795"/>
     <use style="fill:#ff0000;stroke:#ff0000;" x="206.611807" xlink:href="#m2dbac665fb" y="395.298808"/>
     <use style="fill:#ff0000;stroke:#ff0000;" x="309.414788" xlink:href="#m2dbac665fb" y="267.450087"/>
     <use style="fill:#ff0000;stroke:#ff0000;" x="460.795705" xlink:href="#m2dbac665fb" y="228.994461"/>
     <use style="fill:#ff0000;stroke:#ff0000;" x="558.783693" xlink:href="#m2dbac665fb" y="78.26605"/>
     <use style="fill:#ff0000;stroke:#ff0000;" x="593.038056" xlink:href="#m2dbac665fb" y="-1"/>
     <use style="fill:#ff0000;stroke:#ff0000;" x="861.431995" xlink:href="#m2dbac665fb" y="-1"/>
     <use style="fill:#ff0000;stroke:#ff0000;" x="929.111369" xlink:href="#m2dbac665fb" y="36.109361"/>
     <use style="fill:#ff0000;stroke:#ff0000;" x="1072.879786" xlink:href="#m2dbac665fb" y="121.911237"/>
     <use style="fill:#ff0000;stroke:#ff0000;" x="1226.086848" xlink:href="#m2dbac665fb" y="107.438553"/>
     <use style="fill:#ff0000;stroke:#ff0000;" x="1308.636459" xlink:href="#m2dbac665fb" y="-1"/>
    </g>
   </g>
   <g id="patch_3">
    <path d="M 64.695938 448.918594 
L 64.695938 14.038594 
" style="fill:none;stroke:#000000;stroke-linecap:square;stroke-linejoin:miter;stroke-width:0.8;"/>
   </g>
   <g id="patch_4">
    <path d="M 70.275938 453.267394 
L 628.275938 453.267394 
" style="fill:none;stroke:#000000;stroke-linecap:square;stroke-linejoin:miter;stroke-width:0.8;"/>
   </g>
   <g id="legend_1">
    <g id="patch_5">
     <path d="M 77.275938 66.072969 
L 154.675938 66.072969 
Q 156.675938 66.072969 156.675938 64.072969 
L 156.675938 21.038594 
Q 156.675938 19.038594 154.675938 19.038594 
L 77.275938 19.038594 
Q 75.275938 19.038594 75.275938 21.038594 
L 75.275938 64.072969 
Q 75.275938 66.072969 77.275938 66.072969 
z
" style="fill:#e5e5e5;opacity:0.8;stroke:#cccccc;stroke-linejoin:miter;stroke-width:0.5;"/>
    </g>
    <g id="line2d_19">
     <path d="M 79.275938 27.137031 
L 99.275938 27.137031 
" style="fill:none;stroke:#0000ff;stroke-linecap:square;stroke-width:1.5;"/>
    </g>
    <g id="line2d_20"/>
    <g id="text_18">
     <!-- $\Delta t = 0.01$ -->
     <defs>
      <path d="M 34.1875 63.1875 
L 14.15625 8.203125 
L 54.25 8.203125 
z
M 0.78125 0 
L 28.609375 72.90625 
L 39.796875 72.90625 
L 67.578125 0 
z
" id="DejaVuSans-916"/>
      <path d="M 42.28125 54.6875 
L 40.921875 47.703125 
L 23 47.703125 
L 17.1875 18.015625 
Q 16.890625 16.359375 16.75 15.234375 
Q 16.609375 14.109375 16.609375 13.484375 
Q 16.609375 10.359375 18.484375 8.9375 
Q 20.359375 7.515625 24.515625 7.515625 
L 33.59375 7.515625 
L 32.078125 0 
L 23.484375 0 
Q 15.484375 0 11.546875 3.125 
Q 7.625 6.25 7.625 12.59375 
Q 7.625 13.71875 7.765625 15.0625 
Q 7.90625 16.40625 8.203125 18.015625 
L 14.015625 47.703125 
L 6.390625 47.703125 
L 7.8125 54.6875 
L 15.28125 54.6875 
L 18.3125 70.21875 
L 27.296875 70.21875 
L 24.3125 54.6875 
z
" id="DejaVuSans-Oblique-116"/>
      <path d="M 10.59375 45.40625 
L 73.1875 45.40625 
L 73.1875 37.203125 
L 10.59375 37.203125 
z
M 10.59375 25.484375 
L 73.1875 25.484375 
L 73.1875 17.1875 
L 10.59375 17.1875 
z
" id="DejaVuSans-61"/>
      <path d="M 10.6875 12.40625 
L 21 12.40625 
L 21 0 
L 10.6875 0 
z
" id="DejaVuSans-46"/>
     </defs>
     <g transform="translate(107.275938 30.637031)scale(0.1 -0.1)">
      <use transform="translate(0 0.78125)" xlink:href="#DejaVuSans-916"/>
      <use transform="translate(68.408203 0.78125)" xlink:href="#DejaVuSans-Oblique-116"/>
      <use transform="translate(127.099609 0.78125)" xlink:href="#DejaVuSans-61"/>
      <use transform="translate(230.371094 0.78125)" xlink:href="#DejaVuSans-48"/>
      <use transform="translate(293.994141 0.78125)" xlink:href="#DejaVuSans-46"/>
      <use transform="translate(325.78125 0.78125)" xlink:href="#DejaVuSans-48"/>
      <use transform="translate(389.404297 0.78125)" xlink:href="#DejaVuSans-49"/>
     </g>
    </g>
    <g id="line2d_21">
     <path d="M 79.275938 41.815156 
L 99.275938 41.815156 
" style="fill:none;stroke:#008000;stroke-linecap:square;stroke-width:1.5;"/>
    </g>
    <g id="line2d_22">
     <g>
      <use style="fill:#008000;stroke:#008000;" x="89.275938" xlink:href="#m7b05193fc8" y="41.815156"/>
     </g>
    </g>
    <g id="text_19">
     <!-- $\Delta t = 0.1$ -->
     <g transform="translate(107.275938 45.315156)scale(0.1 -0.1)">
      <use transform="translate(0 0.78125)" xlink:href="#DejaVuSans-916"/>
      <use transform="translate(68.408203 0.78125)" xlink:href="#DejaVuSans-Oblique-116"/>
      <use transform="translate(127.099609 0.78125)" xlink:href="#DejaVuSans-61"/>
      <use transform="translate(230.371094 0.78125)" xlink:href="#DejaVuSans-48"/>
      <use transform="translate(293.994141 0.78125)" xlink:href="#DejaVuSans-46"/>
      <use transform="translate(325.78125 0.78125)" xlink:href="#DejaVuSans-49"/>
     </g>
    </g>
    <g id="line2d_23">
     <path d="M 79.275938 56.493281 
L 99.275938 56.493281 
" style="fill:none;stroke:#ff0000;stroke-linecap:square;stroke-width:1.5;"/>
    </g>
    <g id="line2d_24">
     <g>
      <use style="fill:#ff0000;stroke:#ff0000;" x="89.275938" xlink:href="#m2dbac665fb" y="56.493281"/>
     </g>
    </g>
    <g id="text_20">
     <!-- $\Delta t = 0.5$ -->
     <g transform="translate(107.275938 59.993281)scale(0.1 -0.1)">
      <use transform="translate(0 0.78125)" xlink:href="#DejaVuSans-916"/>
      <use transform="translate(68.408203 0.78125)" xlink:href="#DejaVuSans-Oblique-116"/>
      <use transform="translate(127.099609 0.78125)" xlink:href="#DejaVuSans-61"/>
      <use transform="translate(230.371094 0.78125)" xlink:href="#DejaVuSans-48"/>
      <use transform="translate(293.994141 0.78125)" xlink:href="#DejaVuSans-46"/>
      <use transform="translate(325.78125 0.78125)" xlink:href="#DejaVuSans-53"/>
     </g>
    </g>
   </g>
  </g>
 </g>
 <defs>
  <clipPath id="p2ce05dc9dd">
   <rect height="434.88" width="558" x="70.275938" y="14.038594"/>
  </clipPath>
 </defs>
</svg>
