<?xml version="1.0" encoding="utf-8" standalone="no"?>
<!DOCTYPE svg PUBLIC "-//W3C//DTD SVG 1.1//EN"
  "http://www.w3.org/Graphics/SVG/1.1/DTD/svg11.dtd">
<!-- Created with matplotlib (https://matplotlib.org/) -->
<svg height="507.541875pt" version="1.1" viewBox="0 0 634.515 507.541875" width="634.515pt" xmlns="http://www.w3.org/2000/svg" xmlns:xlink="http://www.w3.org/1999/xlink">
 <defs>
  <style type="text/css">
*{stroke-linecap:butt;stroke-linejoin:round;}
  </style>
 </defs>
 <g id="figure_1">
  <g id="patch_1">
   <path d="M 0 507.541875 
L 634.515 507.541875 
L 634.515 0 
L 0 0 
z
" style="fill:#ffffff;"/>
  </g>
  <g id="axes_1">
   <g id="patch_2">
    <path d="M 69.315 460.3075 
L 627.315 460.3075 
L 627.315 25.4275 
L 69.315 25.4275 
z
" style="fill:#ffffff;"/>
   </g>
   <g id="patch_3">
    <path clip-path="url(#pe59a367caa)" d="M 94.678636 460.3075 
L 97.496818 460.3075 
L 97.496818 417.68926 
L 94.678636 417.68926 
z
" style="fill:#0000ff;opacity:0.7;stroke:#000000;stroke-linejoin:miter;"/>
   </g>
   <g id="patch_4">
    <path clip-path="url(#pe59a367caa)" d="M 97.496818 460.3075 
L 100.315 460.3075 
L 100.315 409.86142 
L 97.496818 409.86142 
z
" style="fill:#0000ff;opacity:0.7;stroke:#000000;stroke-linejoin:miter;"/>
   </g>
   <g id="patch_5">
    <path clip-path="url(#pe59a367caa)" d="M 100.315 460.3075 
L 103.133182 460.3075 
L 103.133182 387.89998 
L 100.315 387.89998 
z
" style="fill:#0000ff;opacity:0.7;stroke:#000000;stroke-linejoin:miter;"/>
   </g>
   <g id="patch_6">
    <path clip-path="url(#pe59a367caa)" d="M 103.133182 460.3075 
L 105.951364 460.3075 
L 105.951364 370.72222 
L 103.133182 370.72222 
z
" style="fill:#0000ff;opacity:0.7;stroke:#000000;stroke-linejoin:miter;"/>
   </g>
   <g id="patch_7">
    <path clip-path="url(#pe59a367caa)" d="M 105.951364 460.3075 
L 108.769545 460.3075 
L 108.769545 401.5987 
L 105.951364 401.5987 
z
" style="fill:#0000ff;opacity:0.7;stroke:#000000;stroke-linejoin:miter;"/>
   </g>
   <g id="patch_8">
    <path clip-path="url(#pe59a367caa)" d="M 108.769545 460.3075 
L 111.587727 460.3075 
L 111.587727 379.41982 
L 108.769545 379.41982 
z
" style="fill:#0000ff;opacity:0.7;stroke:#000000;stroke-linejoin:miter;"/>
   </g>
   <g id="patch_9">
    <path clip-path="url(#pe59a367caa)" d="M 111.587727 460.3075 
L 114.405909 460.3075 
L 114.405909 370.50478 
L 111.587727 370.50478 
z
" style="fill:#0000ff;opacity:0.7;stroke:#000000;stroke-linejoin:miter;"/>
   </g>
   <g id="patch_10">
    <path clip-path="url(#pe59a367caa)" d="M 114.405909 460.3075 
L 117.224091 460.3075 
L 117.224091 373.3315 
L 114.405909 373.3315 
z
" style="fill:#0000ff;opacity:0.7;stroke:#000000;stroke-linejoin:miter;"/>
   </g>
   <g id="patch_11">
    <path clip-path="url(#pe59a367caa)" d="M 117.224091 460.3075 
L 120.042273 460.3075 
L 120.042273 415.29742 
L 117.224091 415.29742 
z
" style="fill:#0000ff;opacity:0.7;stroke:#000000;stroke-linejoin:miter;"/>
   </g>
   <g id="patch_12">
    <path clip-path="url(#pe59a367caa)" d="M 120.042273 460.3075 
L 122.860455 460.3075 
L 122.860455 377.6803 
L 120.042273 377.6803 
z
" style="fill:#0000ff;opacity:0.7;stroke:#000000;stroke-linejoin:miter;"/>
   </g>
   <g id="patch_13">
    <path clip-path="url(#pe59a367caa)" d="M 122.860455 460.3075 
L 125.678636 460.3075 
L 125.678636 400.5115 
L 122.860455 400.5115 
z
" style="fill:#0000ff;opacity:0.7;stroke:#000000;stroke-linejoin:miter;"/>
   </g>
   <g id="patch_14">
    <path clip-path="url(#pe59a367caa)" d="M 125.678636 460.3075 
L 128.496818 460.3075 
L 128.496818 392.46622 
L 125.678636 392.46622 
z
" style="fill:#0000ff;opacity:0.7;stroke:#000000;stroke-linejoin:miter;"/>
   </g>
   <g id="patch_15">
    <path clip-path="url(#pe59a367caa)" d="M 128.496818 460.3075 
L 131.315 460.3075 
L 131.315 412.25326 
L 128.496818 412.25326 
z
" style="fill:#0000ff;opacity:0.7;stroke:#000000;stroke-linejoin:miter;"/>
   </g>
   <g id="patch_16">
    <path clip-path="url(#pe59a367caa)" d="M 131.315 460.3075 
L 134.133182 460.3075 
L 134.133182 390.29182 
L 131.315 390.29182 
z
" style="fill:#0000ff;opacity:0.7;stroke:#000000;stroke-linejoin:miter;"/>
   </g>
   <g id="patch_17">
    <path clip-path="url(#pe59a367caa)" d="M 134.133182 460.3075 
L 136.951364 460.3075 
L 136.951364 372.2443 
L 134.133182 372.2443 
z
" style="fill:#0000ff;opacity:0.7;stroke:#000000;stroke-linejoin:miter;"/>
   </g>
   <g id="patch_18">
    <path clip-path="url(#pe59a367caa)" d="M 136.951364 460.3075 
L 139.769545 460.3075 
L 139.769545 390.7267 
L 136.951364 390.7267 
z
" style="fill:#0000ff;opacity:0.7;stroke:#000000;stroke-linejoin:miter;"/>
   </g>
   <g id="patch_19">
    <path clip-path="url(#pe59a367caa)" d="M 139.769545 460.3075 
L 142.587727 460.3075 
L 142.587727 397.46734 
L 139.769545 397.46734 
z
" style="fill:#0000ff;opacity:0.7;stroke:#000000;stroke-linejoin:miter;"/>
   </g>
   <g id="patch_20">
    <path clip-path="url(#pe59a367caa)" d="M 142.587727 460.3075 
L 145.405909 460.3075 
L 145.405909 401.5987 
L 142.587727 401.5987 
z
" style="fill:#0000ff;opacity:0.7;stroke:#000000;stroke-linejoin:miter;"/>
   </g>
   <g id="patch_21">
    <path clip-path="url(#pe59a367caa)" d="M 145.405909 460.3075 
L 148.224091 460.3075 
L 148.224091 410.73118 
L 145.405909 410.73118 
z
" style="fill:#0000ff;opacity:0.7;stroke:#000000;stroke-linejoin:miter;"/>
   </g>
   <g id="patch_22">
    <path clip-path="url(#pe59a367caa)" d="M 148.224091 460.3075 
L 151.042273 460.3075 
L 151.042273 425.5171 
L 148.224091 425.5171 
z
" style="fill:#0000ff;opacity:0.7;stroke:#000000;stroke-linejoin:miter;"/>
   </g>
   <g id="patch_23">
    <path clip-path="url(#pe59a367caa)" d="M 151.042273 460.3075 
L 153.860455 460.3075 
L 153.860455 419.21134 
L 151.042273 419.21134 
z
" style="fill:#0000ff;opacity:0.7;stroke:#000000;stroke-linejoin:miter;"/>
   </g>
   <g id="patch_24">
    <path clip-path="url(#pe59a367caa)" d="M 153.860455 460.3075 
L 156.678636 460.3075 
L 156.678636 422.03806 
L 153.860455 422.03806 
z
" style="fill:#0000ff;opacity:0.7;stroke:#000000;stroke-linejoin:miter;"/>
   </g>
   <g id="patch_25">
    <path clip-path="url(#pe59a367caa)" d="M 156.678636 460.3075 
L 159.496818 460.3075 
L 159.496818 420.29854 
L 156.678636 420.29854 
z
" style="fill:#0000ff;opacity:0.7;stroke:#000000;stroke-linejoin:miter;"/>
   </g>
   <g id="patch_26">
    <path clip-path="url(#pe59a367caa)" d="M 159.496818 460.3075 
L 162.315 460.3075 
L 162.315 434.2147 
L 159.496818 434.2147 
z
" style="fill:#0000ff;opacity:0.7;stroke:#000000;stroke-linejoin:miter;"/>
   </g>
   <g id="patch_27">
    <path clip-path="url(#pe59a367caa)" d="M 162.315 460.3075 
L 165.133182 460.3075 
L 165.133182 427.6915 
L 162.315 427.6915 
z
" style="fill:#0000ff;opacity:0.7;stroke:#000000;stroke-linejoin:miter;"/>
   </g>
   <g id="patch_28">
    <path clip-path="url(#pe59a367caa)" d="M 165.133182 460.3075 
L 167.951364 460.3075 
L 167.951364 443.34718 
L 165.133182 443.34718 
z
" style="fill:#0000ff;opacity:0.7;stroke:#000000;stroke-linejoin:miter;"/>
   </g>
   <g id="patch_29">
    <path clip-path="url(#pe59a367caa)" d="M 167.951364 460.3075 
L 170.769545 460.3075 
L 170.769545 436.82398 
L 167.951364 436.82398 
z
" style="fill:#0000ff;opacity:0.7;stroke:#000000;stroke-linejoin:miter;"/>
   </g>
   <g id="patch_30">
    <path clip-path="url(#pe59a367caa)" d="M 170.769545 460.3075 
L 173.587727 460.3075 
L 173.587727 423.77758 
L 170.769545 423.77758 
z
" style="fill:#0000ff;opacity:0.7;stroke:#000000;stroke-linejoin:miter;"/>
   </g>
   <g id="patch_31">
    <path clip-path="url(#pe59a367caa)" d="M 173.587727 460.3075 
L 176.405909 460.3075 
L 176.405909 435.08446 
L 173.587727 435.08446 
z
" style="fill:#0000ff;opacity:0.7;stroke:#000000;stroke-linejoin:miter;"/>
   </g>
   <g id="patch_32">
    <path clip-path="url(#pe59a367caa)" d="M 176.405909 460.3075 
L 179.224091 460.3075 
L 179.224091 440.7379 
L 176.405909 440.7379 
z
" style="fill:#0000ff;opacity:0.7;stroke:#000000;stroke-linejoin:miter;"/>
   </g>
   <g id="patch_33">
    <path clip-path="url(#pe59a367caa)" d="M 179.224091 460.3075 
L 182.042273 460.3075 
L 182.042273 406.38238 
L 179.224091 406.38238 
z
" style="fill:#0000ff;opacity:0.7;stroke:#000000;stroke-linejoin:miter;"/>
   </g>
   <g id="patch_34">
    <path clip-path="url(#pe59a367caa)" d="M 182.042273 460.3075 
L 184.860455 460.3075 
L 184.860455 425.5171 
L 182.042273 425.5171 
z
" style="fill:#0000ff;opacity:0.7;stroke:#000000;stroke-linejoin:miter;"/>
   </g>
   <g id="patch_35">
    <path clip-path="url(#pe59a367caa)" d="M 184.860455 460.3075 
L 187.678636 460.3075 
L 187.678636 402.90334 
L 184.860455 402.90334 
z
" style="fill:#0000ff;opacity:0.7;stroke:#000000;stroke-linejoin:miter;"/>
   </g>
   <g id="patch_36">
    <path clip-path="url(#pe59a367caa)" d="M 187.678636 460.3075 
L 190.496818 460.3075 
L 190.496818 401.16382 
L 187.678636 401.16382 
z
" style="fill:#0000ff;opacity:0.7;stroke:#000000;stroke-linejoin:miter;"/>
   </g>
   <g id="patch_37">
    <path clip-path="url(#pe59a367caa)" d="M 190.496818 460.3075 
L 193.315 460.3075 
L 193.315 429.8659 
L 190.496818 429.8659 
z
" style="fill:#0000ff;opacity:0.7;stroke:#000000;stroke-linejoin:miter;"/>
   </g>
   <g id="patch_38">
    <path clip-path="url(#pe59a367caa)" d="M 193.315 460.3075 
L 196.133182 460.3075 
L 196.133182 413.34046 
L 193.315 413.34046 
z
" style="fill:#0000ff;opacity:0.7;stroke:#000000;stroke-linejoin:miter;"/>
   </g>
   <g id="patch_39">
    <path clip-path="url(#pe59a367caa)" d="M 196.133182 460.3075 
L 198.951364 460.3075 
L 198.951364 379.8547 
L 196.133182 379.8547 
z
" style="fill:#0000ff;opacity:0.7;stroke:#000000;stroke-linejoin:miter;"/>
   </g>
   <g id="patch_40">
    <path clip-path="url(#pe59a367caa)" d="M 198.951364 460.3075 
L 201.769545 460.3075 
L 201.769545 418.9939 
L 198.951364 418.9939 
z
" style="fill:#0000ff;opacity:0.7;stroke:#000000;stroke-linejoin:miter;"/>
   </g>
   <g id="patch_41">
    <path clip-path="url(#pe59a367caa)" d="M 201.769545 460.3075 
L 204.587727 460.3075 
L 204.587727 409.42654 
L 201.769545 409.42654 
z
" style="fill:#0000ff;opacity:0.7;stroke:#000000;stroke-linejoin:miter;"/>
   </g>
   <g id="patch_42">
    <path clip-path="url(#pe59a367caa)" d="M 204.587727 460.3075 
L 207.405909 460.3075 
L 207.405909 425.5171 
L 204.587727 425.5171 
z
" style="fill:#0000ff;opacity:0.7;stroke:#000000;stroke-linejoin:miter;"/>
   </g>
   <g id="patch_43">
    <path clip-path="url(#pe59a367caa)" d="M 207.405909 460.3075 
L 210.224091 460.3075 
L 210.224091 388.98718 
L 207.405909 388.98718 
z
" style="fill:#0000ff;opacity:0.7;stroke:#000000;stroke-linejoin:miter;"/>
   </g>
   <g id="patch_44">
    <path clip-path="url(#pe59a367caa)" d="M 210.224091 460.3075 
L 213.042273 460.3075 
L 213.042273 414.6451 
L 210.224091 414.6451 
z
" style="fill:#0000ff;opacity:0.7;stroke:#000000;stroke-linejoin:miter;"/>
   </g>
   <g id="patch_45">
    <path clip-path="url(#pe59a367caa)" d="M 213.042273 460.3075 
L 215.860455 460.3075 
L 215.860455 422.90782 
L 213.042273 422.90782 
z
" style="fill:#0000ff;opacity:0.7;stroke:#000000;stroke-linejoin:miter;"/>
   </g>
   <g id="patch_46">
    <path clip-path="url(#pe59a367caa)" d="M 215.860455 460.3075 
L 218.678636 460.3075 
L 218.678636 441.17278 
L 215.860455 441.17278 
z
" style="fill:#0000ff;opacity:0.7;stroke:#000000;stroke-linejoin:miter;"/>
   </g>
   <g id="patch_47">
    <path clip-path="url(#pe59a367caa)" d="M 218.678636 460.3075 
L 221.496818 460.3075 
L 221.496818 421.1683 
L 218.678636 421.1683 
z
" style="fill:#0000ff;opacity:0.7;stroke:#000000;stroke-linejoin:miter;"/>
   </g>
   <g id="patch_48">
    <path clip-path="url(#pe59a367caa)" d="M 221.496818 460.3075 
L 224.315 460.3075 
L 224.315 430.30078 
L 221.496818 430.30078 
z
" style="fill:#0000ff;opacity:0.7;stroke:#000000;stroke-linejoin:miter;"/>
   </g>
   <g id="patch_49">
    <path clip-path="url(#pe59a367caa)" d="M 224.315 460.3075 
L 227.133182 460.3075 
L 227.133182 439.86814 
L 224.315 439.86814 
z
" style="fill:#0000ff;opacity:0.7;stroke:#000000;stroke-linejoin:miter;"/>
   </g>
   <g id="patch_50">
    <path clip-path="url(#pe59a367caa)" d="M 227.133182 460.3075 
L 229.951364 460.3075 
L 229.951364 449.87038 
L 227.133182 449.87038 
z
" style="fill:#0000ff;opacity:0.7;stroke:#000000;stroke-linejoin:miter;"/>
   </g>
   <g id="patch_51">
    <path clip-path="url(#pe59a367caa)" d="M 229.951364 460.3075 
L 232.769545 460.3075 
L 232.769545 438.99838 
L 229.951364 438.99838 
z
" style="fill:#0000ff;opacity:0.7;stroke:#000000;stroke-linejoin:miter;"/>
   </g>
   <g id="patch_52">
    <path clip-path="url(#pe59a367caa)" d="M 232.769545 460.3075 
L 235.587727 460.3075 
L 235.587727 438.5635 
L 232.769545 438.5635 
z
" style="fill:#0000ff;opacity:0.7;stroke:#000000;stroke-linejoin:miter;"/>
   </g>
   <g id="patch_53">
    <path clip-path="url(#pe59a367caa)" d="M 235.587727 460.3075 
L 238.405909 460.3075 
L 238.405909 415.94974 
L 235.587727 415.94974 
z
" style="fill:#0000ff;opacity:0.7;stroke:#000000;stroke-linejoin:miter;"/>
   </g>
   <g id="patch_54">
    <path clip-path="url(#pe59a367caa)" d="M 238.405909 460.3075 
L 241.224091 460.3075 
L 241.224091 460.3075 
L 238.405909 460.3075 
z
" style="fill:#0000ff;opacity:0.7;stroke:#000000;stroke-linejoin:miter;"/>
   </g>
   <g id="patch_55">
    <path clip-path="url(#pe59a367caa)" d="M 241.224091 460.3075 
L 244.042273 460.3075 
L 244.042273 437.25886 
L 241.224091 437.25886 
z
" style="fill:#0000ff;opacity:0.7;stroke:#000000;stroke-linejoin:miter;"/>
   </g>
   <g id="patch_56">
    <path clip-path="url(#pe59a367caa)" d="M 244.042273 460.3075 
L 246.860455 460.3075 
L 246.860455 401.5987 
L 244.042273 401.5987 
z
" style="fill:#0000ff;opacity:0.7;stroke:#000000;stroke-linejoin:miter;"/>
   </g>
   <g id="patch_57">
    <path clip-path="url(#pe59a367caa)" d="M 246.860455 460.3075 
L 249.678636 460.3075 
L 249.678636 352.6747 
L 246.860455 352.6747 
z
" style="fill:#0000ff;opacity:0.7;stroke:#000000;stroke-linejoin:miter;"/>
   </g>
   <g id="patch_58">
    <path clip-path="url(#pe59a367caa)" d="M 249.678636 460.3075 
L 252.496818 460.3075 
L 252.496818 362.89438 
L 249.678636 362.89438 
z
" style="fill:#0000ff;opacity:0.7;stroke:#000000;stroke-linejoin:miter;"/>
   </g>
   <g id="patch_59">
    <path clip-path="url(#pe59a367caa)" d="M 252.496818 460.3075 
L 255.315 460.3075 
L 255.315 385.94302 
L 252.496818 385.94302 
z
" style="fill:#0000ff;opacity:0.7;stroke:#000000;stroke-linejoin:miter;"/>
   </g>
   <g id="patch_60">
    <path clip-path="url(#pe59a367caa)" d="M 255.315 460.3075 
L 258.133182 460.3075 
L 258.133182 384.63838 
L 255.315 384.63838 
z
" style="fill:#0000ff;opacity:0.7;stroke:#000000;stroke-linejoin:miter;"/>
   </g>
   <g id="patch_61">
    <path clip-path="url(#pe59a367caa)" d="M 258.133182 460.3075 
L 260.951364 460.3075 
L 260.951364 434.64958 
L 258.133182 434.64958 
z
" style="fill:#0000ff;opacity:0.7;stroke:#000000;stroke-linejoin:miter;"/>
   </g>
   <g id="patch_62">
    <path clip-path="url(#pe59a367caa)" d="M 260.951364 460.3075 
L 263.769545 460.3075 
L 263.769545 447.2611 
L 260.951364 447.2611 
z
" style="fill:#0000ff;opacity:0.7;stroke:#000000;stroke-linejoin:miter;"/>
   </g>
   <g id="patch_63">
    <path clip-path="url(#pe59a367caa)" d="M 263.769545 460.3075 
L 266.587727 460.3075 
L 266.587727 460.3075 
L 263.769545 460.3075 
z
" style="fill:#0000ff;opacity:0.7;stroke:#000000;stroke-linejoin:miter;"/>
   </g>
   <g id="patch_64">
    <path clip-path="url(#pe59a367caa)" d="M 266.587727 460.3075 
L 269.405909 460.3075 
L 269.405909 446.82622 
L 266.587727 446.82622 
z
" style="fill:#0000ff;opacity:0.7;stroke:#000000;stroke-linejoin:miter;"/>
   </g>
   <g id="patch_65">
    <path clip-path="url(#pe59a367caa)" d="M 269.405909 460.3075 
L 272.224091 460.3075 
L 272.224091 460.3075 
L 269.405909 460.3075 
z
" style="fill:#0000ff;opacity:0.7;stroke:#000000;stroke-linejoin:miter;"/>
   </g>
   <g id="patch_66">
    <path clip-path="url(#pe59a367caa)" d="M 272.224091 460.3075 
L 275.042273 460.3075 
L 275.042273 418.55902 
L 272.224091 418.55902 
z
" style="fill:#0000ff;opacity:0.7;stroke:#000000;stroke-linejoin:miter;"/>
   </g>
   <g id="patch_67">
    <path clip-path="url(#pe59a367caa)" d="M 275.042273 460.3075 
L 277.860455 460.3075 
L 277.860455 446.1739 
L 275.042273 446.1739 
z
" style="fill:#0000ff;opacity:0.7;stroke:#000000;stroke-linejoin:miter;"/>
   </g>
   <g id="patch_68">
    <path clip-path="url(#pe59a367caa)" d="M 277.860455 460.3075 
L 280.678636 460.3075 
L 280.678636 445.95646 
L 277.860455 445.95646 
z
" style="fill:#0000ff;opacity:0.7;stroke:#000000;stroke-linejoin:miter;"/>
   </g>
   <g id="patch_69">
    <path clip-path="url(#pe59a367caa)" d="M 280.678636 460.3075 
L 283.496818 460.3075 
L 283.496818 431.17054 
L 280.678636 431.17054 
z
" style="fill:#0000ff;opacity:0.7;stroke:#000000;stroke-linejoin:miter;"/>
   </g>
   <g id="patch_70">
    <path clip-path="url(#pe59a367caa)" d="M 283.496818 460.3075 
L 286.315 460.3075 
L 286.315 445.52158 
L 283.496818 445.52158 
z
" style="fill:#0000ff;opacity:0.7;stroke:#000000;stroke-linejoin:miter;"/>
   </g>
   <g id="patch_71">
    <path clip-path="url(#pe59a367caa)" d="M 286.315 460.3075 
L 289.133182 460.3075 
L 289.133182 460.3075 
L 286.315 460.3075 
z
" style="fill:#0000ff;opacity:0.7;stroke:#000000;stroke-linejoin:miter;"/>
   </g>
   <g id="patch_72">
    <path clip-path="url(#pe59a367caa)" d="M 289.133182 460.3075 
L 291.951364 460.3075 
L 291.951364 429.8659 
L 289.133182 429.8659 
z
" style="fill:#0000ff;opacity:0.7;stroke:#000000;stroke-linejoin:miter;"/>
   </g>
   <g id="patch_73">
    <path clip-path="url(#pe59a367caa)" d="M 291.951364 460.3075 
L 294.769545 460.3075 
L 294.769545 413.99278 
L 291.951364 413.99278 
z
" style="fill:#0000ff;opacity:0.7;stroke:#000000;stroke-linejoin:miter;"/>
   </g>
   <g id="patch_74">
    <path clip-path="url(#pe59a367caa)" d="M 294.769545 460.3075 
L 297.587727 460.3075 
L 297.587727 444.65182 
L 294.769545 444.65182 
z
" style="fill:#0000ff;opacity:0.7;stroke:#000000;stroke-linejoin:miter;"/>
   </g>
   <g id="patch_75">
    <path clip-path="url(#pe59a367caa)" d="M 297.587727 460.3075 
L 300.405909 460.3075 
L 300.405909 460.3075 
L 297.587727 460.3075 
z
" style="fill:#0000ff;opacity:0.7;stroke:#000000;stroke-linejoin:miter;"/>
   </g>
   <g id="patch_76">
    <path clip-path="url(#pe59a367caa)" d="M 300.405909 460.3075 
L 303.224091 460.3075 
L 303.224091 460.3075 
L 300.405909 460.3075 
z
" style="fill:#0000ff;opacity:0.7;stroke:#000000;stroke-linejoin:miter;"/>
   </g>
   <g id="patch_77">
    <path clip-path="url(#pe59a367caa)" d="M 303.224091 460.3075 
L 306.042273 460.3075 
L 306.042273 460.3075 
L 303.224091 460.3075 
z
" style="fill:#0000ff;opacity:0.7;stroke:#000000;stroke-linejoin:miter;"/>
   </g>
   <g id="patch_78">
    <path clip-path="url(#pe59a367caa)" d="M 306.042273 460.3075 
L 308.860455 460.3075 
L 308.860455 460.3075 
L 306.042273 460.3075 
z
" style="fill:#0000ff;opacity:0.7;stroke:#000000;stroke-linejoin:miter;"/>
   </g>
   <g id="patch_79">
    <path clip-path="url(#pe59a367caa)" d="M 308.860455 460.3075 
L 311.678636 460.3075 
L 311.678636 460.3075 
L 308.860455 460.3075 
z
" style="fill:#0000ff;opacity:0.7;stroke:#000000;stroke-linejoin:miter;"/>
   </g>
   <g id="patch_80">
    <path clip-path="url(#pe59a367caa)" d="M 311.678636 460.3075 
L 314.496818 460.3075 
L 314.496818 460.3075 
L 311.678636 460.3075 
z
" style="fill:#0000ff;opacity:0.7;stroke:#000000;stroke-linejoin:miter;"/>
   </g>
   <g id="patch_81">
    <path clip-path="url(#pe59a367caa)" d="M 314.496818 460.3075 
L 317.315 460.3075 
L 317.315 460.3075 
L 314.496818 460.3075 
z
" style="fill:#0000ff;opacity:0.7;stroke:#000000;stroke-linejoin:miter;"/>
   </g>
   <g id="patch_82">
    <path clip-path="url(#pe59a367caa)" d="M 317.315 460.3075 
L 320.133182 460.3075 
L 320.133182 442.9123 
L 317.315 442.9123 
z
" style="fill:#0000ff;opacity:0.7;stroke:#000000;stroke-linejoin:miter;"/>
   </g>
   <g id="patch_83">
    <path clip-path="url(#pe59a367caa)" d="M 320.133182 460.3075 
L 322.951364 460.3075 
L 322.951364 442.69486 
L 320.133182 442.69486 
z
" style="fill:#0000ff;opacity:0.7;stroke:#000000;stroke-linejoin:miter;"/>
   </g>
   <g id="patch_84">
    <path clip-path="url(#pe59a367caa)" d="M 322.951364 460.3075 
L 325.769545 460.3075 
L 325.769545 460.3075 
L 322.951364 460.3075 
z
" style="fill:#0000ff;opacity:0.7;stroke:#000000;stroke-linejoin:miter;"/>
   </g>
   <g id="patch_85">
    <path clip-path="url(#pe59a367caa)" d="M 325.769545 460.3075 
L 328.587727 460.3075 
L 328.587727 460.3075 
L 325.769545 460.3075 
z
" style="fill:#0000ff;opacity:0.7;stroke:#000000;stroke-linejoin:miter;"/>
   </g>
   <g id="patch_86">
    <path clip-path="url(#pe59a367caa)" d="M 328.587727 460.3075 
L 331.405909 460.3075 
L 331.405909 442.04254 
L 328.587727 442.04254 
z
" style="fill:#0000ff;opacity:0.7;stroke:#000000;stroke-linejoin:miter;"/>
   </g>
   <g id="patch_87">
    <path clip-path="url(#pe59a367caa)" d="M 331.405909 460.3075 
L 334.224091 460.3075 
L 334.224091 441.8251 
L 331.405909 441.8251 
z
" style="fill:#0000ff;opacity:0.7;stroke:#000000;stroke-linejoin:miter;"/>
   </g>
   <g id="patch_88">
    <path clip-path="url(#pe59a367caa)" d="M 334.224091 460.3075 
L 337.042273 460.3075 
L 337.042273 460.3075 
L 334.224091 460.3075 
z
" style="fill:#0000ff;opacity:0.7;stroke:#000000;stroke-linejoin:miter;"/>
   </g>
   <g id="patch_89">
    <path clip-path="url(#pe59a367caa)" d="M 337.042273 460.3075 
L 339.860455 460.3075 
L 339.860455 441.39022 
L 337.042273 441.39022 
z
" style="fill:#0000ff;opacity:0.7;stroke:#000000;stroke-linejoin:miter;"/>
   </g>
   <g id="patch_90">
    <path clip-path="url(#pe59a367caa)" d="M 339.860455 460.3075 
L 342.678636 460.3075 
L 342.678636 441.17278 
L 339.860455 441.17278 
z
" style="fill:#0000ff;opacity:0.7;stroke:#000000;stroke-linejoin:miter;"/>
   </g>
   <g id="patch_91">
    <path clip-path="url(#pe59a367caa)" d="M 342.678636 460.3075 
L 345.496818 460.3075 
L 345.496818 460.3075 
L 342.678636 460.3075 
z
" style="fill:#0000ff;opacity:0.7;stroke:#000000;stroke-linejoin:miter;"/>
   </g>
   <g id="patch_92">
    <path clip-path="url(#pe59a367caa)" d="M 345.496818 460.3075 
L 348.315 460.3075 
L 348.315 421.1683 
L 345.496818 421.1683 
z
" style="fill:#0000ff;opacity:0.7;stroke:#000000;stroke-linejoin:miter;"/>
   </g>
   <g id="patch_93">
    <path clip-path="url(#pe59a367caa)" d="M 348.315 460.3075 
L 351.133182 460.3075 
L 351.133182 440.52046 
L 348.315 440.52046 
z
" style="fill:#0000ff;opacity:0.7;stroke:#000000;stroke-linejoin:miter;"/>
   </g>
   <g id="patch_94">
    <path clip-path="url(#pe59a367caa)" d="M 351.133182 460.3075 
L 353.951364 460.3075 
L 353.951364 460.3075 
L 351.133182 460.3075 
z
" style="fill:#0000ff;opacity:0.7;stroke:#000000;stroke-linejoin:miter;"/>
   </g>
   <g id="patch_95">
    <path clip-path="url(#pe59a367caa)" d="M 353.951364 460.3075 
L 356.769545 460.3075 
L 356.769545 460.3075 
L 353.951364 460.3075 
z
" style="fill:#0000ff;opacity:0.7;stroke:#000000;stroke-linejoin:miter;"/>
   </g>
   <g id="patch_96">
    <path clip-path="url(#pe59a367caa)" d="M 356.769545 460.3075 
L 359.587727 460.3075 
L 359.587727 460.3075 
L 356.769545 460.3075 
z
" style="fill:#0000ff;opacity:0.7;stroke:#000000;stroke-linejoin:miter;"/>
   </g>
   <g id="patch_97">
    <path clip-path="url(#pe59a367caa)" d="M 359.587727 460.3075 
L 362.405909 460.3075 
L 362.405909 460.3075 
L 359.587727 460.3075 
z
" style="fill:#0000ff;opacity:0.7;stroke:#000000;stroke-linejoin:miter;"/>
   </g>
   <g id="patch_98">
    <path clip-path="url(#pe59a367caa)" d="M 362.405909 460.3075 
L 365.224091 460.3075 
L 365.224091 460.3075 
L 362.405909 460.3075 
z
" style="fill:#0000ff;opacity:0.7;stroke:#000000;stroke-linejoin:miter;"/>
   </g>
   <g id="patch_99">
    <path clip-path="url(#pe59a367caa)" d="M 365.224091 460.3075 
L 368.042273 460.3075 
L 368.042273 460.3075 
L 365.224091 460.3075 
z
" style="fill:#0000ff;opacity:0.7;stroke:#000000;stroke-linejoin:miter;"/>
   </g>
   <g id="patch_100">
    <path clip-path="url(#pe59a367caa)" d="M 368.042273 460.3075 
L 370.860455 460.3075 
L 370.860455 460.3075 
L 368.042273 460.3075 
z
" style="fill:#0000ff;opacity:0.7;stroke:#000000;stroke-linejoin:miter;"/>
   </g>
   <g id="patch_101">
    <path clip-path="url(#pe59a367caa)" d="M 370.860455 460.3075 
L 373.678636 460.3075 
L 373.678636 460.3075 
L 370.860455 460.3075 
z
" style="fill:#0000ff;opacity:0.7;stroke:#000000;stroke-linejoin:miter;"/>
   </g>
   <g id="patch_102">
    <path clip-path="url(#pe59a367caa)" d="M 373.678636 460.3075 
L 376.496818 460.3075 
L 376.496818 460.3075 
L 373.678636 460.3075 
z
" style="fill:#0000ff;opacity:0.7;stroke:#000000;stroke-linejoin:miter;"/>
   </g>
   <g id="patch_103">
    <path clip-path="url(#pe59a367caa)" d="M 376.496818 460.3075 
L 379.315 460.3075 
L 379.315 372.46174 
L 376.496818 372.46174 
z
" style="fill:#0000ff;opacity:0.7;stroke:#000000;stroke-linejoin:miter;"/>
   </g>
   <g id="patch_104">
    <path clip-path="url(#pe59a367caa)" d="M 379.315 460.3075 
L 382.133182 460.3075 
L 382.133182 460.3075 
L 379.315 460.3075 
z
" style="fill:#0000ff;opacity:0.7;stroke:#000000;stroke-linejoin:miter;"/>
   </g>
   <g id="patch_105">
    <path clip-path="url(#pe59a367caa)" d="M 382.133182 460.3075 
L 384.951364 460.3075 
L 384.951364 437.91118 
L 382.133182 437.91118 
z
" style="fill:#0000ff;opacity:0.7;stroke:#000000;stroke-linejoin:miter;"/>
   </g>
   <g id="patch_106">
    <path clip-path="url(#pe59a367caa)" d="M 384.951364 460.3075 
L 387.769545 460.3075 
L 387.769545 460.3075 
L 384.951364 460.3075 
z
" style="fill:#0000ff;opacity:0.7;stroke:#000000;stroke-linejoin:miter;"/>
   </g>
   <g id="patch_107">
    <path clip-path="url(#pe59a367caa)" d="M 387.769545 460.3075 
L 390.587727 460.3075 
L 390.587727 460.3075 
L 387.769545 460.3075 
z
" style="fill:#0000ff;opacity:0.7;stroke:#000000;stroke-linejoin:miter;"/>
   </g>
   <g id="patch_108">
    <path clip-path="url(#pe59a367caa)" d="M 390.587727 460.3075 
L 393.405909 460.3075 
L 393.405909 437.25886 
L 390.587727 437.25886 
z
" style="fill:#0000ff;opacity:0.7;stroke:#000000;stroke-linejoin:miter;"/>
   </g>
   <g id="patch_109">
    <path clip-path="url(#pe59a367caa)" d="M 393.405909 460.3075 
L 396.224091 460.3075 
L 396.224091 460.3075 
L 393.405909 460.3075 
z
" style="fill:#0000ff;opacity:0.7;stroke:#000000;stroke-linejoin:miter;"/>
   </g>
   <g id="patch_110">
    <path clip-path="url(#pe59a367caa)" d="M 396.224091 460.3075 
L 399.042273 460.3075 
L 399.042273 460.3075 
L 396.224091 460.3075 
z
" style="fill:#0000ff;opacity:0.7;stroke:#000000;stroke-linejoin:miter;"/>
   </g>
   <g id="patch_111">
    <path clip-path="url(#pe59a367caa)" d="M 399.042273 460.3075 
L 401.860455 460.3075 
L 401.860455 436.60654 
L 399.042273 436.60654 
z
" style="fill:#0000ff;opacity:0.7;stroke:#000000;stroke-linejoin:miter;"/>
   </g>
   <g id="patch_112">
    <path clip-path="url(#pe59a367caa)" d="M 401.860455 460.3075 
L 404.678636 460.3075 
L 404.678636 460.3075 
L 401.860455 460.3075 
z
" style="fill:#0000ff;opacity:0.7;stroke:#000000;stroke-linejoin:miter;"/>
   </g>
   <g id="patch_113">
    <path clip-path="url(#pe59a367caa)" d="M 404.678636 460.3075 
L 407.496818 460.3075 
L 407.496818 460.3075 
L 404.678636 460.3075 
z
" style="fill:#0000ff;opacity:0.7;stroke:#000000;stroke-linejoin:miter;"/>
   </g>
   <g id="patch_114">
    <path clip-path="url(#pe59a367caa)" d="M 407.496818 460.3075 
L 410.315 460.3075 
L 410.315 411.60094 
L 407.496818 411.60094 
z
" style="fill:#0000ff;opacity:0.7;stroke:#000000;stroke-linejoin:miter;"/>
   </g>
   <g id="patch_115">
    <path clip-path="url(#pe59a367caa)" d="M 410.315 460.3075 
L 413.133182 460.3075 
L 413.133182 435.73678 
L 410.315 435.73678 
z
" style="fill:#0000ff;opacity:0.7;stroke:#000000;stroke-linejoin:miter;"/>
   </g>
   <g id="patch_116">
    <path clip-path="url(#pe59a367caa)" d="M 413.133182 460.3075 
L 415.951364 460.3075 
L 415.951364 460.3075 
L 413.133182 460.3075 
z
" style="fill:#0000ff;opacity:0.7;stroke:#000000;stroke-linejoin:miter;"/>
   </g>
   <g id="patch_117">
    <path clip-path="url(#pe59a367caa)" d="M 415.951364 460.3075 
L 418.769545 460.3075 
L 418.769545 435.3019 
L 415.951364 435.3019 
z
" style="fill:#0000ff;opacity:0.7;stroke:#000000;stroke-linejoin:miter;"/>
   </g>
   <g id="patch_118">
    <path clip-path="url(#pe59a367caa)" d="M 418.769545 460.3075 
L 421.587727 460.3075 
L 421.587727 435.08446 
L 418.769545 435.08446 
z
" style="fill:#0000ff;opacity:0.7;stroke:#000000;stroke-linejoin:miter;"/>
   </g>
   <g id="patch_119">
    <path clip-path="url(#pe59a367caa)" d="M 421.587727 460.3075 
L 424.405909 460.3075 
L 424.405909 383.98606 
L 421.587727 383.98606 
z
" style="fill:#0000ff;opacity:0.7;stroke:#000000;stroke-linejoin:miter;"/>
   </g>
   <g id="patch_120">
    <path clip-path="url(#pe59a367caa)" d="M 424.405909 460.3075 
L 427.224091 460.3075 
L 427.224091 434.64958 
L 424.405909 434.64958 
z
" style="fill:#0000ff;opacity:0.7;stroke:#000000;stroke-linejoin:miter;"/>
   </g>
   <g id="patch_121">
    <path clip-path="url(#pe59a367caa)" d="M 427.224091 460.3075 
L 430.042273 460.3075 
L 430.042273 408.55678 
L 427.224091 408.55678 
z
" style="fill:#0000ff;opacity:0.7;stroke:#000000;stroke-linejoin:miter;"/>
   </g>
   <g id="patch_122">
    <path clip-path="url(#pe59a367caa)" d="M 430.042273 460.3075 
L 432.860455 460.3075 
L 432.860455 460.3075 
L 430.042273 460.3075 
z
" style="fill:#0000ff;opacity:0.7;stroke:#000000;stroke-linejoin:miter;"/>
   </g>
   <g id="patch_123">
    <path clip-path="url(#pe59a367caa)" d="M 432.860455 460.3075 
L 435.678636 460.3075 
L 435.678636 381.37678 
L 432.860455 381.37678 
z
" style="fill:#0000ff;opacity:0.7;stroke:#000000;stroke-linejoin:miter;"/>
   </g>
   <g id="patch_124">
    <path clip-path="url(#pe59a367caa)" d="M 435.678636 460.3075 
L 438.496818 460.3075 
L 438.496818 407.25214 
L 435.678636 407.25214 
z
" style="fill:#0000ff;opacity:0.7;stroke:#000000;stroke-linejoin:miter;"/>
   </g>
   <g id="patch_125">
    <path clip-path="url(#pe59a367caa)" d="M 438.496818 460.3075 
L 441.315 460.3075 
L 441.315 433.56238 
L 438.496818 433.56238 
z
" style="fill:#0000ff;opacity:0.7;stroke:#000000;stroke-linejoin:miter;"/>
   </g>
   <g id="patch_126">
    <path clip-path="url(#pe59a367caa)" d="M 441.315 460.3075 
L 444.133182 460.3075 
L 444.133182 379.41982 
L 441.315 379.41982 
z
" style="fill:#0000ff;opacity:0.7;stroke:#000000;stroke-linejoin:miter;"/>
   </g>
   <g id="patch_127">
    <path clip-path="url(#pe59a367caa)" d="M 444.133182 460.3075 
L 446.951364 460.3075 
L 446.951364 351.5875 
L 444.133182 351.5875 
z
" style="fill:#0000ff;opacity:0.7;stroke:#000000;stroke-linejoin:miter;"/>
   </g>
   <g id="patch_128">
    <path clip-path="url(#pe59a367caa)" d="M 446.951364 460.3075 
L 449.769545 460.3075 
L 449.769545 432.91006 
L 446.951364 432.91006 
z
" style="fill:#0000ff;opacity:0.7;stroke:#000000;stroke-linejoin:miter;"/>
   </g>
   <g id="patch_129">
    <path clip-path="url(#pe59a367caa)" d="M 449.769545 460.3075 
L 452.587727 460.3075 
L 452.587727 432.69262 
L 449.769545 432.69262 
z
" style="fill:#0000ff;opacity:0.7;stroke:#000000;stroke-linejoin:miter;"/>
   </g>
   <g id="patch_130">
    <path clip-path="url(#pe59a367caa)" d="M 452.587727 460.3075 
L 455.405909 460.3075 
L 455.405909 460.3075 
L 452.587727 460.3075 
z
" style="fill:#0000ff;opacity:0.7;stroke:#000000;stroke-linejoin:miter;"/>
   </g>
   <g id="patch_131">
    <path clip-path="url(#pe59a367caa)" d="M 455.405909 460.3075 
L 458.224091 460.3075 
L 458.224091 376.15822 
L 455.405909 376.15822 
z
" style="fill:#0000ff;opacity:0.7;stroke:#000000;stroke-linejoin:miter;"/>
   </g>
   <g id="patch_132">
    <path clip-path="url(#pe59a367caa)" d="M 458.224091 460.3075 
L 461.042273 460.3075 
L 461.042273 432.0403 
L 458.224091 432.0403 
z
" style="fill:#0000ff;opacity:0.7;stroke:#000000;stroke-linejoin:miter;"/>
   </g>
   <g id="patch_133">
    <path clip-path="url(#pe59a367caa)" d="M 461.042273 460.3075 
L 463.860455 460.3075 
L 463.860455 460.3075 
L 461.042273 460.3075 
z
" style="fill:#0000ff;opacity:0.7;stroke:#000000;stroke-linejoin:miter;"/>
   </g>
   <g id="patch_134">
    <path clip-path="url(#pe59a367caa)" d="M 463.860455 460.3075 
L 466.678636 460.3075 
L 466.678636 460.3075 
L 463.860455 460.3075 
z
" style="fill:#0000ff;opacity:0.7;stroke:#000000;stroke-linejoin:miter;"/>
   </g>
   <g id="patch_135">
    <path clip-path="url(#pe59a367caa)" d="M 466.678636 460.3075 
L 469.496818 460.3075 
L 469.496818 460.3075 
L 466.678636 460.3075 
z
" style="fill:#0000ff;opacity:0.7;stroke:#000000;stroke-linejoin:miter;"/>
   </g>
   <g id="patch_136">
    <path clip-path="url(#pe59a367caa)" d="M 469.496818 460.3075 
L 472.315 460.3075 
L 472.315 431.17054 
L 469.496818 431.17054 
z
" style="fill:#0000ff;opacity:0.7;stroke:#000000;stroke-linejoin:miter;"/>
   </g>
   <g id="patch_137">
    <path clip-path="url(#pe59a367caa)" d="M 472.315 460.3075 
L 475.133182 460.3075 
L 475.133182 460.3075 
L 472.315 460.3075 
z
" style="fill:#0000ff;opacity:0.7;stroke:#000000;stroke-linejoin:miter;"/>
   </g>
   <g id="patch_138">
    <path clip-path="url(#pe59a367caa)" d="M 475.133182 460.3075 
L 477.951364 460.3075 
L 477.951364 430.73566 
L 475.133182 430.73566 
z
" style="fill:#0000ff;opacity:0.7;stroke:#000000;stroke-linejoin:miter;"/>
   </g>
   <g id="patch_139">
    <path clip-path="url(#pe59a367caa)" d="M 477.951364 460.3075 
L 480.769545 460.3075 
L 480.769545 430.51822 
L 477.951364 430.51822 
z
" style="fill:#0000ff;opacity:0.7;stroke:#000000;stroke-linejoin:miter;"/>
   </g>
   <g id="patch_140">
    <path clip-path="url(#pe59a367caa)" d="M 480.769545 460.3075 
L 483.587727 460.3075 
L 483.587727 460.3075 
L 480.769545 460.3075 
z
" style="fill:#0000ff;opacity:0.7;stroke:#000000;stroke-linejoin:miter;"/>
   </g>
   <g id="patch_141">
    <path clip-path="url(#pe59a367caa)" d="M 483.587727 460.3075 
L 486.405909 460.3075 
L 486.405909 460.3075 
L 483.587727 460.3075 
z
" style="fill:#0000ff;opacity:0.7;stroke:#000000;stroke-linejoin:miter;"/>
   </g>
   <g id="patch_142">
    <path clip-path="url(#pe59a367caa)" d="M 486.405909 460.3075 
L 489.224091 460.3075 
L 489.224091 460.3075 
L 486.405909 460.3075 
z
" style="fill:#0000ff;opacity:0.7;stroke:#000000;stroke-linejoin:miter;"/>
   </g>
   <g id="patch_143">
    <path clip-path="url(#pe59a367caa)" d="M 489.224091 460.3075 
L 492.042273 460.3075 
L 492.042273 460.3075 
L 489.224091 460.3075 
z
" style="fill:#0000ff;opacity:0.7;stroke:#000000;stroke-linejoin:miter;"/>
   </g>
   <g id="patch_144">
    <path clip-path="url(#pe59a367caa)" d="M 492.042273 460.3075 
L 494.860455 460.3075 
L 494.860455 460.3075 
L 492.042273 460.3075 
z
" style="fill:#0000ff;opacity:0.7;stroke:#000000;stroke-linejoin:miter;"/>
   </g>
   <g id="patch_145">
    <path clip-path="url(#pe59a367caa)" d="M 494.860455 460.3075 
L 497.678636 460.3075 
L 497.678636 429.21358 
L 494.860455 429.21358 
z
" style="fill:#0000ff;opacity:0.7;stroke:#000000;stroke-linejoin:miter;"/>
   </g>
   <g id="patch_146">
    <path clip-path="url(#pe59a367caa)" d="M 497.678636 460.3075 
L 500.496818 460.3075 
L 500.496818 460.3075 
L 497.678636 460.3075 
z
" style="fill:#0000ff;opacity:0.7;stroke:#000000;stroke-linejoin:miter;"/>
   </g>
   <g id="patch_147">
    <path clip-path="url(#pe59a367caa)" d="M 500.496818 460.3075 
L 503.315 460.3075 
L 503.315 460.3075 
L 500.496818 460.3075 
z
" style="fill:#0000ff;opacity:0.7;stroke:#000000;stroke-linejoin:miter;"/>
   </g>
   <g id="patch_148">
    <path clip-path="url(#pe59a367caa)" d="M 503.315 460.3075 
L 506.133182 460.3075 
L 506.133182 460.3075 
L 503.315 460.3075 
z
" style="fill:#0000ff;opacity:0.7;stroke:#000000;stroke-linejoin:miter;"/>
   </g>
   <g id="patch_149">
    <path clip-path="url(#pe59a367caa)" d="M 506.133182 460.3075 
L 508.951364 460.3075 
L 508.951364 460.3075 
L 506.133182 460.3075 
z
" style="fill:#0000ff;opacity:0.7;stroke:#000000;stroke-linejoin:miter;"/>
   </g>
   <g id="patch_150">
    <path clip-path="url(#pe59a367caa)" d="M 508.951364 460.3075 
L 511.769545 460.3075 
L 511.769545 460.3075 
L 508.951364 460.3075 
z
" style="fill:#0000ff;opacity:0.7;stroke:#000000;stroke-linejoin:miter;"/>
   </g>
   <g id="patch_151">
    <path clip-path="url(#pe59a367caa)" d="M 511.769545 460.3075 
L 514.587727 460.3075 
L 514.587727 460.3075 
L 511.769545 460.3075 
z
" style="fill:#0000ff;opacity:0.7;stroke:#000000;stroke-linejoin:miter;"/>
   </g>
   <g id="patch_152">
    <path clip-path="url(#pe59a367caa)" d="M 514.587727 460.3075 
L 517.405909 460.3075 
L 517.405909 460.3075 
L 514.587727 460.3075 
z
" style="fill:#0000ff;opacity:0.7;stroke:#000000;stroke-linejoin:miter;"/>
   </g>
   <g id="patch_153">
    <path clip-path="url(#pe59a367caa)" d="M 517.405909 460.3075 
L 520.224091 460.3075 
L 520.224091 460.3075 
L 517.405909 460.3075 
z
" style="fill:#0000ff;opacity:0.7;stroke:#000000;stroke-linejoin:miter;"/>
   </g>
   <g id="patch_154">
    <path clip-path="url(#pe59a367caa)" d="M 520.224091 460.3075 
L 523.042273 460.3075 
L 523.042273 460.3075 
L 520.224091 460.3075 
z
" style="fill:#0000ff;opacity:0.7;stroke:#000000;stroke-linejoin:miter;"/>
   </g>
   <g id="patch_155">
    <path clip-path="url(#pe59a367caa)" d="M 523.042273 460.3075 
L 525.860455 460.3075 
L 525.860455 460.3075 
L 523.042273 460.3075 
z
" style="fill:#0000ff;opacity:0.7;stroke:#000000;stroke-linejoin:miter;"/>
   </g>
   <g id="patch_156">
    <path clip-path="url(#pe59a367caa)" d="M 525.860455 460.3075 
L 528.678636 460.3075 
L 528.678636 460.3075 
L 525.860455 460.3075 
z
" style="fill:#0000ff;opacity:0.7;stroke:#000000;stroke-linejoin:miter;"/>
   </g>
   <g id="patch_157">
    <path clip-path="url(#pe59a367caa)" d="M 528.678636 460.3075 
L 531.496818 460.3075 
L 531.496818 460.3075 
L 528.678636 460.3075 
z
" style="fill:#0000ff;opacity:0.7;stroke:#000000;stroke-linejoin:miter;"/>
   </g>
   <g id="patch_158">
    <path clip-path="url(#pe59a367caa)" d="M 531.496818 460.3075 
L 534.315 460.3075 
L 534.315 460.3075 
L 531.496818 460.3075 
z
" style="fill:#0000ff;opacity:0.7;stroke:#000000;stroke-linejoin:miter;"/>
   </g>
   <g id="patch_159">
    <path clip-path="url(#pe59a367caa)" d="M 534.315 460.3075 
L 537.133182 460.3075 
L 537.133182 460.3075 
L 534.315 460.3075 
z
" style="fill:#0000ff;opacity:0.7;stroke:#000000;stroke-linejoin:miter;"/>
   </g>
   <g id="patch_160">
    <path clip-path="url(#pe59a367caa)" d="M 537.133182 460.3075 
L 539.951364 460.3075 
L 539.951364 460.3075 
L 537.133182 460.3075 
z
" style="fill:#0000ff;opacity:0.7;stroke:#000000;stroke-linejoin:miter;"/>
   </g>
   <g id="patch_161">
    <path clip-path="url(#pe59a367caa)" d="M 539.951364 460.3075 
L 542.769545 460.3075 
L 542.769545 460.3075 
L 539.951364 460.3075 
z
" style="fill:#0000ff;opacity:0.7;stroke:#000000;stroke-linejoin:miter;"/>
   </g>
   <g id="patch_162">
    <path clip-path="url(#pe59a367caa)" d="M 542.769545 460.3075 
L 545.587727 460.3075 
L 545.587727 460.3075 
L 542.769545 460.3075 
z
" style="fill:#0000ff;opacity:0.7;stroke:#000000;stroke-linejoin:miter;"/>
   </g>
   <g id="patch_163">
    <path clip-path="url(#pe59a367caa)" d="M 545.587727 460.3075 
L 548.405909 460.3075 
L 548.405909 460.3075 
L 545.587727 460.3075 
z
" style="fill:#0000ff;opacity:0.7;stroke:#000000;stroke-linejoin:miter;"/>
   </g>
   <g id="patch_164">
    <path clip-path="url(#pe59a367caa)" d="M 548.405909 460.3075 
L 551.224091 460.3075 
L 551.224091 460.3075 
L 548.405909 460.3075 
z
" style="fill:#0000ff;opacity:0.7;stroke:#000000;stroke-linejoin:miter;"/>
   </g>
   <g id="patch_165">
    <path clip-path="url(#pe59a367caa)" d="M 551.224091 460.3075 
L 554.042273 460.3075 
L 554.042273 460.3075 
L 551.224091 460.3075 
z
" style="fill:#0000ff;opacity:0.7;stroke:#000000;stroke-linejoin:miter;"/>
   </g>
   <g id="patch_166">
    <path clip-path="url(#pe59a367caa)" d="M 554.042273 460.3075 
L 556.860455 460.3075 
L 556.860455 460.3075 
L 554.042273 460.3075 
z
" style="fill:#0000ff;opacity:0.7;stroke:#000000;stroke-linejoin:miter;"/>
   </g>
   <g id="patch_167">
    <path clip-path="url(#pe59a367caa)" d="M 556.860455 460.3075 
L 559.678636 460.3075 
L 559.678636 424.4299 
L 556.860455 424.4299 
z
" style="fill:#0000ff;opacity:0.7;stroke:#000000;stroke-linejoin:miter;"/>
   </g>
   <g id="patch_168">
    <path clip-path="url(#pe59a367caa)" d="M 559.678636 460.3075 
L 562.496818 460.3075 
L 562.496818 460.3075 
L 559.678636 460.3075 
z
" style="fill:#0000ff;opacity:0.7;stroke:#000000;stroke-linejoin:miter;"/>
   </g>
   <g id="patch_169">
    <path clip-path="url(#pe59a367caa)" d="M 562.496818 460.3075 
L 565.315 460.3075 
L 565.315 460.3075 
L 562.496818 460.3075 
z
" style="fill:#0000ff;opacity:0.7;stroke:#000000;stroke-linejoin:miter;"/>
   </g>
   <g id="patch_170">
    <path clip-path="url(#pe59a367caa)" d="M 565.315 460.3075 
L 568.133182 460.3075 
L 568.133182 460.3075 
L 565.315 460.3075 
z
" style="fill:#0000ff;opacity:0.7;stroke:#000000;stroke-linejoin:miter;"/>
   </g>
   <g id="patch_171">
    <path clip-path="url(#pe59a367caa)" d="M 568.133182 460.3075 
L 570.951364 460.3075 
L 570.951364 460.3075 
L 568.133182 460.3075 
z
" style="fill:#0000ff;opacity:0.7;stroke:#000000;stroke-linejoin:miter;"/>
   </g>
   <g id="patch_172">
    <path clip-path="url(#pe59a367caa)" d="M 570.951364 460.3075 
L 573.769545 460.3075 
L 573.769545 460.3075 
L 570.951364 460.3075 
z
" style="fill:#0000ff;opacity:0.7;stroke:#000000;stroke-linejoin:miter;"/>
   </g>
   <g id="patch_173">
    <path clip-path="url(#pe59a367caa)" d="M 573.769545 460.3075 
L 576.587727 460.3075 
L 576.587727 460.3075 
L 573.769545 460.3075 
z
" style="fill:#0000ff;opacity:0.7;stroke:#000000;stroke-linejoin:miter;"/>
   </g>
   <g id="patch_174">
    <path clip-path="url(#pe59a367caa)" d="M 576.587727 460.3075 
L 579.405909 460.3075 
L 579.405909 460.3075 
L 576.587727 460.3075 
z
" style="fill:#0000ff;opacity:0.7;stroke:#000000;stroke-linejoin:miter;"/>
   </g>
   <g id="patch_175">
    <path clip-path="url(#pe59a367caa)" d="M 579.405909 460.3075 
L 582.224091 460.3075 
L 582.224091 460.3075 
L 579.405909 460.3075 
z
" style="fill:#0000ff;opacity:0.7;stroke:#000000;stroke-linejoin:miter;"/>
   </g>
   <g id="patch_176">
    <path clip-path="url(#pe59a367caa)" d="M 582.224091 460.3075 
L 585.042273 460.3075 
L 585.042273 460.3075 
L 582.224091 460.3075 
z
" style="fill:#0000ff;opacity:0.7;stroke:#000000;stroke-linejoin:miter;"/>
   </g>
   <g id="patch_177">
    <path clip-path="url(#pe59a367caa)" d="M 585.042273 460.3075 
L 587.860455 460.3075 
L 587.860455 460.3075 
L 585.042273 460.3075 
z
" style="fill:#0000ff;opacity:0.7;stroke:#000000;stroke-linejoin:miter;"/>
   </g>
   <g id="patch_178">
    <path clip-path="url(#pe59a367caa)" d="M 587.860455 460.3075 
L 590.678636 460.3075 
L 590.678636 460.3075 
L 587.860455 460.3075 
z
" style="fill:#0000ff;opacity:0.7;stroke:#000000;stroke-linejoin:miter;"/>
   </g>
   <g id="patch_179">
    <path clip-path="url(#pe59a367caa)" d="M 590.678636 460.3075 
L 593.496818 460.3075 
L 593.496818 460.3075 
L 590.678636 460.3075 
z
" style="fill:#0000ff;opacity:0.7;stroke:#000000;stroke-linejoin:miter;"/>
   </g>
   <g id="patch_180">
    <path clip-path="url(#pe59a367caa)" d="M 593.496818 460.3075 
L 596.315 460.3075 
L 596.315 460.3075 
L 593.496818 460.3075 
z
" style="fill:#0000ff;opacity:0.7;stroke:#000000;stroke-linejoin:miter;"/>
   </g>
   <g id="patch_181">
    <path clip-path="url(#pe59a367caa)" d="M 596.315 460.3075 
L 599.133182 460.3075 
L 599.133182 460.3075 
L 596.315 460.3075 
z
" style="fill:#0000ff;opacity:0.7;stroke:#000000;stroke-linejoin:miter;"/>
   </g>
   <g id="patch_182">
    <path clip-path="url(#pe59a367caa)" d="M 599.133182 460.3075 
L 601.951364 460.3075 
L 601.951364 460.3075 
L 599.133182 460.3075 
z
" style="fill:#0000ff;opacity:0.7;stroke:#000000;stroke-linejoin:miter;"/>
   </g>
   <g id="matplotlib.axis_1">
    <g id="xtick_1">
     <g id="line2d_1">
      <defs>
       <path d="M 0 0 
L 0 3.5 
" id="m7396e52da1" style="stroke:#000000;stroke-width:0.8;"/>
      </defs>
      <g>
       <use style="stroke:#000000;stroke-width:0.8;" x="94.678636" xlink:href="#m7396e52da1" y="460.3075"/>
      </g>
     </g>
     <g id="text_1">
      <!-- 0.0 -->
      <defs>
       <path d="M 31.78125 66.40625 
Q 24.171875 66.40625 20.328125 58.90625 
Q 16.5 51.421875 16.5 36.375 
Q 16.5 21.390625 20.328125 13.890625 
Q 24.171875 6.390625 31.78125 6.390625 
Q 39.453125 6.390625 43.28125 13.890625 
Q 47.125 21.390625 47.125 36.375 
Q 47.125 51.421875 43.28125 58.90625 
Q 39.453125 66.40625 31.78125 66.40625 
z
M 31.78125 74.21875 
Q 44.046875 74.21875 50.515625 64.515625 
Q 56.984375 54.828125 56.984375 36.375 
Q 56.984375 17.96875 50.515625 8.265625 
Q 44.046875 -1.421875 31.78125 -1.421875 
Q 19.53125 -1.421875 13.0625 8.265625 
Q 6.59375 17.96875 6.59375 36.375 
Q 6.59375 54.828125 13.0625 64.515625 
Q 19.53125 74.21875 31.78125 74.21875 
z
" id="DejaVuSans-48"/>
       <path d="M 10.6875 12.40625 
L 21 12.40625 
L 21 0 
L 10.6875 0 
z
" id="DejaVuSans-46"/>
      </defs>
      <g transform="translate(83.546449 477.945312)scale(0.14 -0.14)">
       <use xlink:href="#DejaVuSans-48"/>
       <use x="63.623047" xlink:href="#DejaVuSans-46"/>
       <use x="95.410156" xlink:href="#DejaVuSans-48"/>
      </g>
     </g>
    </g>
    <g id="xtick_2">
     <g id="line2d_2">
      <g>
       <use style="stroke:#000000;stroke-width:0.8;" x="122.860455" xlink:href="#m7396e52da1" y="460.3075"/>
      </g>
     </g>
     <g id="text_2">
      <!-- 0.1 -->
      <defs>
       <path d="M 12.40625 8.296875 
L 28.515625 8.296875 
L 28.515625 63.921875 
L 10.984375 60.40625 
L 10.984375 69.390625 
L 28.421875 72.90625 
L 38.28125 72.90625 
L 38.28125 8.296875 
L 54.390625 8.296875 
L 54.390625 0 
L 12.40625 0 
z
" id="DejaVuSans-49"/>
      </defs>
      <g transform="translate(111.728267 477.945312)scale(0.14 -0.14)">
       <use xlink:href="#DejaVuSans-48"/>
       <use x="63.623047" xlink:href="#DejaVuSans-46"/>
       <use x="95.410156" xlink:href="#DejaVuSans-49"/>
      </g>
     </g>
    </g>
    <g id="xtick_3">
     <g id="line2d_3">
      <g>
       <use style="stroke:#000000;stroke-width:0.8;" x="151.042273" xlink:href="#m7396e52da1" y="460.3075"/>
      </g>
     </g>
     <g id="text_3">
      <!-- 0.2 -->
      <defs>
       <path d="M 19.1875 8.296875 
L 53.609375 8.296875 
L 53.609375 0 
L 7.328125 0 
L 7.328125 8.296875 
Q 12.9375 14.109375 22.625 23.890625 
Q 32.328125 33.6875 34.8125 36.53125 
Q 39.546875 41.84375 41.421875 45.53125 
Q 43.3125 49.21875 43.3125 52.78125 
Q 43.3125 58.59375 39.234375 62.25 
Q 35.15625 65.921875 28.609375 65.921875 
Q 23.96875 65.921875 18.8125 64.3125 
Q 13.671875 62.703125 7.8125 59.421875 
L 7.8125 69.390625 
Q 13.765625 71.78125 18.9375 73 
Q 24.125 74.21875 28.421875 74.21875 
Q 39.75 74.21875 46.484375 68.546875 
Q 53.21875 62.890625 53.21875 53.421875 
Q 53.21875 48.921875 51.53125 44.890625 
Q 49.859375 40.875 45.40625 35.40625 
Q 44.1875 33.984375 37.640625 27.21875 
Q 31.109375 20.453125 19.1875 8.296875 
z
" id="DejaVuSans-50"/>
      </defs>
      <g transform="translate(139.910085 477.945312)scale(0.14 -0.14)">
       <use xlink:href="#DejaVuSans-48"/>
       <use x="63.623047" xlink:href="#DejaVuSans-46"/>
       <use x="95.410156" xlink:href="#DejaVuSans-50"/>
      </g>
     </g>
    </g>
    <g id="xtick_4">
     <g id="line2d_4">
      <g>
       <use style="stroke:#000000;stroke-width:0.8;" x="179.224091" xlink:href="#m7396e52da1" y="460.3075"/>
      </g>
     </g>
     <g id="text_4">
      <!-- 0.3 -->
      <defs>
       <path d="M 40.578125 39.3125 
Q 47.65625 37.796875 51.625 33 
Q 55.609375 28.21875 55.609375 21.1875 
Q 55.609375 10.40625 48.1875 4.484375 
Q 40.765625 -1.421875 27.09375 -1.421875 
Q 22.515625 -1.421875 17.65625 -0.515625 
Q 12.796875 0.390625 7.625 2.203125 
L 7.625 11.71875 
Q 11.71875 9.328125 16.59375 8.109375 
Q 21.484375 6.890625 26.8125 6.890625 
Q 36.078125 6.890625 40.9375 10.546875 
Q 45.796875 14.203125 45.796875 21.1875 
Q 45.796875 27.640625 41.28125 31.265625 
Q 36.765625 34.90625 28.71875 34.90625 
L 20.21875 34.90625 
L 20.21875 43.015625 
L 29.109375 43.015625 
Q 36.375 43.015625 40.234375 45.921875 
Q 44.09375 48.828125 44.09375 54.296875 
Q 44.09375 59.90625 40.109375 62.90625 
Q 36.140625 65.921875 28.71875 65.921875 
Q 24.65625 65.921875 20.015625 65.03125 
Q 15.375 64.15625 9.8125 62.3125 
L 9.8125 71.09375 
Q 15.4375 72.65625 20.34375 73.4375 
Q 25.25 74.21875 29.59375 74.21875 
Q 40.828125 74.21875 47.359375 69.109375 
Q 53.90625 64.015625 53.90625 55.328125 
Q 53.90625 49.265625 50.4375 45.09375 
Q 46.96875 40.921875 40.578125 39.3125 
z
" id="DejaVuSans-51"/>
      </defs>
      <g transform="translate(168.091903 477.945312)scale(0.14 -0.14)">
       <use xlink:href="#DejaVuSans-48"/>
       <use x="63.623047" xlink:href="#DejaVuSans-46"/>
       <use x="95.410156" xlink:href="#DejaVuSans-51"/>
      </g>
     </g>
    </g>
    <g id="xtick_5">
     <g id="line2d_5">
      <g>
       <use style="stroke:#000000;stroke-width:0.8;" x="207.405909" xlink:href="#m7396e52da1" y="460.3075"/>
      </g>
     </g>
     <g id="text_5">
      <!-- 0.4 -->
      <defs>
       <path d="M 37.796875 64.3125 
L 12.890625 25.390625 
L 37.796875 25.390625 
z
M 35.203125 72.90625 
L 47.609375 72.90625 
L 47.609375 25.390625 
L 58.015625 25.390625 
L 58.015625 17.1875 
L 47.609375 17.1875 
L 47.609375 0 
L 37.796875 0 
L 37.796875 17.1875 
L 4.890625 17.1875 
L 4.890625 26.703125 
z
" id="DejaVuSans-52"/>
      </defs>
      <g transform="translate(196.273722 477.945312)scale(0.14 -0.14)">
       <use xlink:href="#DejaVuSans-48"/>
       <use x="63.623047" xlink:href="#DejaVuSans-46"/>
       <use x="95.410156" xlink:href="#DejaVuSans-52"/>
      </g>
     </g>
    </g>
    <g id="xtick_6">
     <g id="line2d_6">
      <g>
       <use style="stroke:#000000;stroke-width:0.8;" x="235.587727" xlink:href="#m7396e52da1" y="460.3075"/>
      </g>
     </g>
     <g id="text_6">
      <!-- 0.5 -->
      <defs>
       <path d="M 10.796875 72.90625 
L 49.515625 72.90625 
L 49.515625 64.59375 
L 19.828125 64.59375 
L 19.828125 46.734375 
Q 21.96875 47.46875 24.109375 47.828125 
Q 26.265625 48.1875 28.421875 48.1875 
Q 40.625 48.1875 47.75 41.5 
Q 54.890625 34.8125 54.890625 23.390625 
Q 54.890625 11.625 47.5625 5.09375 
Q 40.234375 -1.421875 26.90625 -1.421875 
Q 22.3125 -1.421875 17.546875 -0.640625 
Q 12.796875 0.140625 7.71875 1.703125 
L 7.71875 11.625 
Q 12.109375 9.234375 16.796875 8.0625 
Q 21.484375 6.890625 26.703125 6.890625 
Q 35.15625 6.890625 40.078125 11.328125 
Q 45.015625 15.765625 45.015625 23.390625 
Q 45.015625 31 40.078125 35.4375 
Q 35.15625 39.890625 26.703125 39.890625 
Q 22.75 39.890625 18.8125 39.015625 
Q 14.890625 38.140625 10.796875 36.28125 
z
" id="DejaVuSans-53"/>
      </defs>
      <g transform="translate(224.45554 477.945312)scale(0.14 -0.14)">
       <use xlink:href="#DejaVuSans-48"/>
       <use x="63.623047" xlink:href="#DejaVuSans-46"/>
       <use x="95.410156" xlink:href="#DejaVuSans-53"/>
      </g>
     </g>
    </g>
    <g id="xtick_7">
     <g id="line2d_7">
      <g>
       <use style="stroke:#000000;stroke-width:0.8;" x="263.769545" xlink:href="#m7396e52da1" y="460.3075"/>
      </g>
     </g>
     <g id="text_7">
      <!-- 0.6 -->
      <defs>
       <path d="M 33.015625 40.375 
Q 26.375 40.375 22.484375 35.828125 
Q 18.609375 31.296875 18.609375 23.390625 
Q 18.609375 15.53125 22.484375 10.953125 
Q 26.375 6.390625 33.015625 6.390625 
Q 39.65625 6.390625 43.53125 10.953125 
Q 47.40625 15.53125 47.40625 23.390625 
Q 47.40625 31.296875 43.53125 35.828125 
Q 39.65625 40.375 33.015625 40.375 
z
M 52.59375 71.296875 
L 52.59375 62.3125 
Q 48.875 64.0625 45.09375 64.984375 
Q 41.3125 65.921875 37.59375 65.921875 
Q 27.828125 65.921875 22.671875 59.328125 
Q 17.53125 52.734375 16.796875 39.40625 
Q 19.671875 43.65625 24.015625 45.921875 
Q 28.375 48.1875 33.59375 48.1875 
Q 44.578125 48.1875 50.953125 41.515625 
Q 57.328125 34.859375 57.328125 23.390625 
Q 57.328125 12.15625 50.6875 5.359375 
Q 44.046875 -1.421875 33.015625 -1.421875 
Q 20.359375 -1.421875 13.671875 8.265625 
Q 6.984375 17.96875 6.984375 36.375 
Q 6.984375 53.65625 15.1875 63.9375 
Q 23.390625 74.21875 37.203125 74.21875 
Q 40.921875 74.21875 44.703125 73.484375 
Q 48.484375 72.75 52.59375 71.296875 
z
" id="DejaVuSans-54"/>
      </defs>
      <g transform="translate(252.637358 477.945312)scale(0.14 -0.14)">
       <use xlink:href="#DejaVuSans-48"/>
       <use x="63.623047" xlink:href="#DejaVuSans-46"/>
       <use x="95.410156" xlink:href="#DejaVuSans-54"/>
      </g>
     </g>
    </g>
    <g id="xtick_8">
     <g id="line2d_8">
      <g>
       <use style="stroke:#000000;stroke-width:0.8;" x="291.951364" xlink:href="#m7396e52da1" y="460.3075"/>
      </g>
     </g>
     <g id="text_8">
      <!-- 0.7 -->
      <defs>
       <path d="M 8.203125 72.90625 
L 55.078125 72.90625 
L 55.078125 68.703125 
L 28.609375 0 
L 18.3125 0 
L 43.21875 64.59375 
L 8.203125 64.59375 
z
" id="DejaVuSans-55"/>
      </defs>
      <g transform="translate(280.819176 477.945312)scale(0.14 -0.14)">
       <use xlink:href="#DejaVuSans-48"/>
       <use x="63.623047" xlink:href="#DejaVuSans-46"/>
       <use x="95.410156" xlink:href="#DejaVuSans-55"/>
      </g>
     </g>
    </g>
    <g id="xtick_9">
     <g id="line2d_9">
      <g>
       <use style="stroke:#000000;stroke-width:0.8;" x="320.133182" xlink:href="#m7396e52da1" y="460.3075"/>
      </g>
     </g>
     <g id="text_9">
      <!-- 0.8 -->
      <defs>
       <path d="M 31.78125 34.625 
Q 24.75 34.625 20.71875 30.859375 
Q 16.703125 27.09375 16.703125 20.515625 
Q 16.703125 13.921875 20.71875 10.15625 
Q 24.75 6.390625 31.78125 6.390625 
Q 38.8125 6.390625 42.859375 10.171875 
Q 46.921875 13.96875 46.921875 20.515625 
Q 46.921875 27.09375 42.890625 30.859375 
Q 38.875 34.625 31.78125 34.625 
z
M 21.921875 38.8125 
Q 15.578125 40.375 12.03125 44.71875 
Q 8.5 49.078125 8.5 55.328125 
Q 8.5 64.0625 14.71875 69.140625 
Q 20.953125 74.21875 31.78125 74.21875 
Q 42.671875 74.21875 48.875 69.140625 
Q 55.078125 64.0625 55.078125 55.328125 
Q 55.078125 49.078125 51.53125 44.71875 
Q 48 40.375 41.703125 38.8125 
Q 48.828125 37.15625 52.796875 32.3125 
Q 56.78125 27.484375 56.78125 20.515625 
Q 56.78125 9.90625 50.3125 4.234375 
Q 43.84375 -1.421875 31.78125 -1.421875 
Q 19.734375 -1.421875 13.25 4.234375 
Q 6.78125 9.90625 6.78125 20.515625 
Q 6.78125 27.484375 10.78125 32.3125 
Q 14.796875 37.15625 21.921875 38.8125 
z
M 18.3125 54.390625 
Q 18.3125 48.734375 21.84375 45.5625 
Q 25.390625 42.390625 31.78125 42.390625 
Q 38.140625 42.390625 41.71875 45.5625 
Q 45.3125 48.734375 45.3125 54.390625 
Q 45.3125 60.0625 41.71875 63.234375 
Q 38.140625 66.40625 31.78125 66.40625 
Q 25.390625 66.40625 21.84375 63.234375 
Q 18.3125 60.0625 18.3125 54.390625 
z
" id="DejaVuSans-56"/>
      </defs>
      <g transform="translate(309.000994 477.945312)scale(0.14 -0.14)">
       <use xlink:href="#DejaVuSans-48"/>
       <use x="63.623047" xlink:href="#DejaVuSans-46"/>
       <use x="95.410156" xlink:href="#DejaVuSans-56"/>
      </g>
     </g>
    </g>
    <g id="xtick_10">
     <g id="line2d_10">
      <g>
       <use style="stroke:#000000;stroke-width:0.8;" x="348.315" xlink:href="#m7396e52da1" y="460.3075"/>
      </g>
     </g>
     <g id="text_10">
      <!-- 0.9 -->
      <defs>
       <path d="M 10.984375 1.515625 
L 10.984375 10.5 
Q 14.703125 8.734375 18.5 7.8125 
Q 22.3125 6.890625 25.984375 6.890625 
Q 35.75 6.890625 40.890625 13.453125 
Q 46.046875 20.015625 46.78125 33.40625 
Q 43.953125 29.203125 39.59375 26.953125 
Q 35.25 24.703125 29.984375 24.703125 
Q 19.046875 24.703125 12.671875 31.3125 
Q 6.296875 37.9375 6.296875 49.421875 
Q 6.296875 60.640625 12.9375 67.421875 
Q 19.578125 74.21875 30.609375 74.21875 
Q 43.265625 74.21875 49.921875 64.515625 
Q 56.59375 54.828125 56.59375 36.375 
Q 56.59375 19.140625 48.40625 8.859375 
Q 40.234375 -1.421875 26.421875 -1.421875 
Q 22.703125 -1.421875 18.890625 -0.6875 
Q 15.09375 0.046875 10.984375 1.515625 
z
M 30.609375 32.421875 
Q 37.25 32.421875 41.125 36.953125 
Q 45.015625 41.5 45.015625 49.421875 
Q 45.015625 57.28125 41.125 61.84375 
Q 37.25 66.40625 30.609375 66.40625 
Q 23.96875 66.40625 20.09375 61.84375 
Q 16.21875 57.28125 16.21875 49.421875 
Q 16.21875 41.5 20.09375 36.953125 
Q 23.96875 32.421875 30.609375 32.421875 
z
" id="DejaVuSans-57"/>
      </defs>
      <g transform="translate(337.182812 477.945312)scale(0.14 -0.14)">
       <use xlink:href="#DejaVuSans-48"/>
       <use x="63.623047" xlink:href="#DejaVuSans-46"/>
       <use x="95.410156" xlink:href="#DejaVuSans-57"/>
      </g>
     </g>
    </g>
    <g id="xtick_11">
     <g id="line2d_11">
      <g>
       <use style="stroke:#000000;stroke-width:0.8;" x="376.496818" xlink:href="#m7396e52da1" y="460.3075"/>
      </g>
     </g>
     <g id="text_11">
      <!-- 1.0 -->
      <g transform="translate(365.364631 477.945312)scale(0.14 -0.14)">
       <use xlink:href="#DejaVuSans-49"/>
       <use x="63.623047" xlink:href="#DejaVuSans-46"/>
       <use x="95.410156" xlink:href="#DejaVuSans-48"/>
      </g>
     </g>
    </g>
    <g id="xtick_12">
     <g id="line2d_12">
      <g>
       <use style="stroke:#000000;stroke-width:0.8;" x="404.678636" xlink:href="#m7396e52da1" y="460.3075"/>
      </g>
     </g>
     <g id="text_12">
      <!-- 1.1 -->
      <g transform="translate(393.546449 477.945312)scale(0.14 -0.14)">
       <use xlink:href="#DejaVuSans-49"/>
       <use x="63.623047" xlink:href="#DejaVuSans-46"/>
       <use x="95.410156" xlink:href="#DejaVuSans-49"/>
      </g>
     </g>
    </g>
    <g id="xtick_13">
     <g id="line2d_13">
      <g>
       <use style="stroke:#000000;stroke-width:0.8;" x="432.860455" xlink:href="#m7396e52da1" y="460.3075"/>
      </g>
     </g>
     <g id="text_13">
      <!-- 1.2 -->
      <g transform="translate(421.728267 477.945312)scale(0.14 -0.14)">
       <use xlink:href="#DejaVuSans-49"/>
       <use x="63.623047" xlink:href="#DejaVuSans-46"/>
       <use x="95.410156" xlink:href="#DejaVuSans-50"/>
      </g>
     </g>
    </g>
    <g id="xtick_14">
     <g id="line2d_14">
      <g>
       <use style="stroke:#000000;stroke-width:0.8;" x="461.042273" xlink:href="#m7396e52da1" y="460.3075"/>
      </g>
     </g>
     <g id="text_14">
      <!-- 1.3 -->
      <g transform="translate(449.910085 477.945312)scale(0.14 -0.14)">
       <use xlink:href="#DejaVuSans-49"/>
       <use x="63.623047" xlink:href="#DejaVuSans-46"/>
       <use x="95.410156" xlink:href="#DejaVuSans-51"/>
      </g>
     </g>
    </g>
    <g id="xtick_15">
     <g id="line2d_15">
      <g>
       <use style="stroke:#000000;stroke-width:0.8;" x="489.224091" xlink:href="#m7396e52da1" y="460.3075"/>
      </g>
     </g>
     <g id="text_15">
      <!-- 1.4 -->
      <g transform="translate(478.091903 477.945312)scale(0.14 -0.14)">
       <use xlink:href="#DejaVuSans-49"/>
       <use x="63.623047" xlink:href="#DejaVuSans-46"/>
       <use x="95.410156" xlink:href="#DejaVuSans-52"/>
      </g>
     </g>
    </g>
    <g id="xtick_16">
     <g id="line2d_16">
      <g>
       <use style="stroke:#000000;stroke-width:0.8;" x="517.405909" xlink:href="#m7396e52da1" y="460.3075"/>
      </g>
     </g>
     <g id="text_16">
      <!-- 1.5 -->
      <g transform="translate(506.273722 477.945312)scale(0.14 -0.14)">
       <use xlink:href="#DejaVuSans-49"/>
       <use x="63.623047" xlink:href="#DejaVuSans-46"/>
       <use x="95.410156" xlink:href="#DejaVuSans-53"/>
      </g>
     </g>
    </g>
    <g id="xtick_17">
     <g id="line2d_17">
      <g>
       <use style="stroke:#000000;stroke-width:0.8;" x="545.587727" xlink:href="#m7396e52da1" y="460.3075"/>
      </g>
     </g>
     <g id="text_17">
      <!-- 1.6 -->
      <g transform="translate(534.45554 477.945312)scale(0.14 -0.14)">
       <use xlink:href="#DejaVuSans-49"/>
       <use x="63.623047" xlink:href="#DejaVuSans-46"/>
       <use x="95.410156" xlink:href="#DejaVuSans-54"/>
      </g>
     </g>
    </g>
    <g id="xtick_18">
     <g id="line2d_18">
      <g>
       <use style="stroke:#000000;stroke-width:0.8;" x="573.769545" xlink:href="#m7396e52da1" y="460.3075"/>
      </g>
     </g>
     <g id="text_18">
      <!-- 1.7 -->
      <g transform="translate(562.637358 477.945312)scale(0.14 -0.14)">
       <use xlink:href="#DejaVuSans-49"/>
       <use x="63.623047" xlink:href="#DejaVuSans-46"/>
       <use x="95.410156" xlink:href="#DejaVuSans-55"/>
      </g>
     </g>
    </g>
    <g id="xtick_19">
     <g id="line2d_19">
      <g>
       <use style="stroke:#000000;stroke-width:0.8;" x="601.951364" xlink:href="#m7396e52da1" y="460.3075"/>
      </g>
     </g>
     <g id="text_19">
      <!-- 1.8 -->
      <g transform="translate(590.819176 477.945312)scale(0.14 -0.14)">
       <use xlink:href="#DejaVuSans-49"/>
       <use x="63.623047" xlink:href="#DejaVuSans-46"/>
       <use x="95.410156" xlink:href="#DejaVuSans-56"/>
      </g>
     </g>
    </g>
    <g id="text_20">
     <!-- Lifetime (sec) -->
     <defs>
      <path d="M 9.8125 72.90625 
L 19.671875 72.90625 
L 19.671875 8.296875 
L 55.171875 8.296875 
L 55.171875 0 
L 9.8125 0 
z
" id="DejaVuSans-76"/>
      <path d="M 9.421875 54.6875 
L 18.40625 54.6875 
L 18.40625 0 
L 9.421875 0 
z
M 9.421875 75.984375 
L 18.40625 75.984375 
L 18.40625 64.59375 
L 9.421875 64.59375 
z
" id="DejaVuSans-105"/>
      <path d="M 37.109375 75.984375 
L 37.109375 68.5 
L 28.515625 68.5 
Q 23.6875 68.5 21.796875 66.546875 
Q 19.921875 64.59375 19.921875 59.515625 
L 19.921875 54.6875 
L 34.71875 54.6875 
L 34.71875 47.703125 
L 19.921875 47.703125 
L 19.921875 0 
L 10.890625 0 
L 10.890625 47.703125 
L 2.296875 47.703125 
L 2.296875 54.6875 
L 10.890625 54.6875 
L 10.890625 58.5 
Q 10.890625 67.625 15.140625 71.796875 
Q 19.390625 75.984375 28.609375 75.984375 
z
" id="DejaVuSans-102"/>
      <path d="M 56.203125 29.59375 
L 56.203125 25.203125 
L 14.890625 25.203125 
Q 15.484375 15.921875 20.484375 11.0625 
Q 25.484375 6.203125 34.421875 6.203125 
Q 39.59375 6.203125 44.453125 7.46875 
Q 49.3125 8.734375 54.109375 11.28125 
L 54.109375 2.78125 
Q 49.265625 0.734375 44.1875 -0.34375 
Q 39.109375 -1.421875 33.890625 -1.421875 
Q 20.796875 -1.421875 13.15625 6.1875 
Q 5.515625 13.8125 5.515625 26.8125 
Q 5.515625 40.234375 12.765625 48.109375 
Q 20.015625 56 32.328125 56 
Q 43.359375 56 49.78125 48.890625 
Q 56.203125 41.796875 56.203125 29.59375 
z
M 47.21875 32.234375 
Q 47.125 39.59375 43.09375 43.984375 
Q 39.0625 48.390625 32.421875 48.390625 
Q 24.90625 48.390625 20.390625 44.140625 
Q 15.875 39.890625 15.1875 32.171875 
z
" id="DejaVuSans-101"/>
      <path d="M 18.3125 70.21875 
L 18.3125 54.6875 
L 36.8125 54.6875 
L 36.8125 47.703125 
L 18.3125 47.703125 
L 18.3125 18.015625 
Q 18.3125 11.328125 20.140625 9.421875 
Q 21.96875 7.515625 27.59375 7.515625 
L 36.8125 7.515625 
L 36.8125 0 
L 27.59375 0 
Q 17.1875 0 13.234375 3.875 
Q 9.28125 7.765625 9.28125 18.015625 
L 9.28125 47.703125 
L 2.6875 47.703125 
L 2.6875 54.6875 
L 9.28125 54.6875 
L 9.28125 70.21875 
z
" id="DejaVuSans-116"/>
      <path d="M 52 44.1875 
Q 55.375 50.25 60.0625 53.125 
Q 64.75 56 71.09375 56 
Q 79.640625 56 84.28125 50.015625 
Q 88.921875 44.046875 88.921875 33.015625 
L 88.921875 0 
L 79.890625 0 
L 79.890625 32.71875 
Q 79.890625 40.578125 77.09375 44.375 
Q 74.3125 48.1875 68.609375 48.1875 
Q 61.625 48.1875 57.5625 43.546875 
Q 53.515625 38.921875 53.515625 30.90625 
L 53.515625 0 
L 44.484375 0 
L 44.484375 32.71875 
Q 44.484375 40.625 41.703125 44.40625 
Q 38.921875 48.1875 33.109375 48.1875 
Q 26.21875 48.1875 22.15625 43.53125 
Q 18.109375 38.875 18.109375 30.90625 
L 18.109375 0 
L 9.078125 0 
L 9.078125 54.6875 
L 18.109375 54.6875 
L 18.109375 46.1875 
Q 21.1875 51.21875 25.484375 53.609375 
Q 29.78125 56 35.6875 56 
Q 41.65625 56 45.828125 52.96875 
Q 50 49.953125 52 44.1875 
z
" id="DejaVuSans-109"/>
      <path id="DejaVuSans-32"/>
      <path d="M 31 75.875 
Q 24.46875 64.65625 21.28125 53.65625 
Q 18.109375 42.671875 18.109375 31.390625 
Q 18.109375 20.125 21.3125 9.0625 
Q 24.515625 -2 31 -13.1875 
L 23.1875 -13.1875 
Q 15.875 -1.703125 12.234375 9.375 
Q 8.59375 20.453125 8.59375 31.390625 
Q 8.59375 42.28125 12.203125 53.3125 
Q 15.828125 64.359375 23.1875 75.875 
z
" id="DejaVuSans-40"/>
      <path d="M 44.28125 53.078125 
L 44.28125 44.578125 
Q 40.484375 46.53125 36.375 47.5 
Q 32.28125 48.484375 27.875 48.484375 
Q 21.1875 48.484375 17.84375 46.4375 
Q 14.5 44.390625 14.5 40.28125 
Q 14.5 37.15625 16.890625 35.375 
Q 19.28125 33.59375 26.515625 31.984375 
L 29.59375 31.296875 
Q 39.15625 29.25 43.1875 25.515625 
Q 47.21875 21.78125 47.21875 15.09375 
Q 47.21875 7.46875 41.1875 3.015625 
Q 35.15625 -1.421875 24.609375 -1.421875 
Q 20.21875 -1.421875 15.453125 -0.5625 
Q 10.6875 0.296875 5.421875 2 
L 5.421875 11.28125 
Q 10.40625 8.6875 15.234375 7.390625 
Q 20.0625 6.109375 24.8125 6.109375 
Q 31.15625 6.109375 34.5625 8.28125 
Q 37.984375 10.453125 37.984375 14.40625 
Q 37.984375 18.0625 35.515625 20.015625 
Q 33.0625 21.96875 24.703125 23.78125 
L 21.578125 24.515625 
Q 13.234375 26.265625 9.515625 29.90625 
Q 5.8125 33.546875 5.8125 39.890625 
Q 5.8125 47.609375 11.28125 51.796875 
Q 16.75 56 26.8125 56 
Q 31.78125 56 36.171875 55.265625 
Q 40.578125 54.546875 44.28125 53.078125 
z
" id="DejaVuSans-115"/>
      <path d="M 48.78125 52.59375 
L 48.78125 44.1875 
Q 44.96875 46.296875 41.140625 47.34375 
Q 37.3125 48.390625 33.40625 48.390625 
Q 24.65625 48.390625 19.8125 42.84375 
Q 14.984375 37.3125 14.984375 27.296875 
Q 14.984375 17.28125 19.8125 11.734375 
Q 24.65625 6.203125 33.40625 6.203125 
Q 37.3125 6.203125 41.140625 7.25 
Q 44.96875 8.296875 48.78125 10.40625 
L 48.78125 2.09375 
Q 45.015625 0.34375 40.984375 -0.53125 
Q 36.96875 -1.421875 32.421875 -1.421875 
Q 20.0625 -1.421875 12.78125 6.34375 
Q 5.515625 14.109375 5.515625 27.296875 
Q 5.515625 40.671875 12.859375 48.328125 
Q 20.21875 56 33.015625 56 
Q 37.15625 56 41.109375 55.140625 
Q 45.0625 54.296875 48.78125 52.59375 
z
" id="DejaVuSans-99"/>
      <path d="M 8.015625 75.875 
L 15.828125 75.875 
Q 23.140625 64.359375 26.78125 53.3125 
Q 30.421875 42.28125 30.421875 31.390625 
Q 30.421875 20.453125 26.78125 9.375 
Q 23.140625 -1.703125 15.828125 -13.1875 
L 8.015625 -13.1875 
Q 14.5 -2 17.703125 9.0625 
Q 20.90625 20.125 20.90625 31.390625 
Q 20.90625 42.671875 17.703125 53.65625 
Q 14.5 64.65625 8.015625 75.875 
z
" id="DejaVuSans-41"/>
     </defs>
     <g transform="translate(293.54875 497.014375)scale(0.16 -0.16)">
      <use xlink:href="#DejaVuSans-76"/>
      <use x="55.712891" xlink:href="#DejaVuSans-105"/>
      <use x="83.496094" xlink:href="#DejaVuSans-102"/>
      <use x="118.701172" xlink:href="#DejaVuSans-101"/>
      <use x="180.224609" xlink:href="#DejaVuSans-116"/>
      <use x="219.433594" xlink:href="#DejaVuSans-105"/>
      <use x="247.216797" xlink:href="#DejaVuSans-109"/>
      <use x="344.628906" xlink:href="#DejaVuSans-101"/>
      <use x="406.152344" xlink:href="#DejaVuSans-32"/>
      <use x="437.939453" xlink:href="#DejaVuSans-40"/>
      <use x="476.953125" xlink:href="#DejaVuSans-115"/>
      <use x="529.052734" xlink:href="#DejaVuSans-101"/>
      <use x="590.576172" xlink:href="#DejaVuSans-99"/>
      <use x="645.556641" xlink:href="#DejaVuSans-41"/>
     </g>
    </g>
   </g>
   <g id="matplotlib.axis_2">
    <g id="ytick_1">
     <g id="line2d_20">
      <defs>
       <path d="M 0 0 
L -3.5 0 
" id="mf1ba46c18d" style="stroke:#000000;stroke-width:0.8;"/>
      </defs>
      <g>
       <use style="stroke:#000000;stroke-width:0.8;" x="69.315" xlink:href="#mf1ba46c18d" y="460.3075"/>
      </g>
     </g>
     <g id="text_21">
      <!-- 0 -->
      <g transform="translate(53.4075 465.626406)scale(0.14 -0.14)">
       <use xlink:href="#DejaVuSans-48"/>
      </g>
     </g>
    </g>
    <g id="ytick_2">
     <g id="line2d_21">
      <g>
       <use style="stroke:#000000;stroke-width:0.8;" x="69.315" xlink:href="#mf1ba46c18d" y="416.8195"/>
      </g>
     </g>
     <g id="text_22">
      <!-- 200 -->
      <g transform="translate(35.5925 422.138406)scale(0.14 -0.14)">
       <use xlink:href="#DejaVuSans-50"/>
       <use x="63.623047" xlink:href="#DejaVuSans-48"/>
       <use x="127.246094" xlink:href="#DejaVuSans-48"/>
      </g>
     </g>
    </g>
    <g id="ytick_3">
     <g id="line2d_22">
      <g>
       <use style="stroke:#000000;stroke-width:0.8;" x="69.315" xlink:href="#mf1ba46c18d" y="373.3315"/>
      </g>
     </g>
     <g id="text_23">
      <!-- 400 -->
      <g transform="translate(35.5925 378.650406)scale(0.14 -0.14)">
       <use xlink:href="#DejaVuSans-52"/>
       <use x="63.623047" xlink:href="#DejaVuSans-48"/>
       <use x="127.246094" xlink:href="#DejaVuSans-48"/>
      </g>
     </g>
    </g>
    <g id="ytick_4">
     <g id="line2d_23">
      <g>
       <use style="stroke:#000000;stroke-width:0.8;" x="69.315" xlink:href="#mf1ba46c18d" y="329.8435"/>
      </g>
     </g>
     <g id="text_24">
      <!-- 600 -->
      <g transform="translate(35.5925 335.162406)scale(0.14 -0.14)">
       <use xlink:href="#DejaVuSans-54"/>
       <use x="63.623047" xlink:href="#DejaVuSans-48"/>
       <use x="127.246094" xlink:href="#DejaVuSans-48"/>
      </g>
     </g>
    </g>
    <g id="ytick_5">
     <g id="line2d_24">
      <g>
       <use style="stroke:#000000;stroke-width:0.8;" x="69.315" xlink:href="#mf1ba46c18d" y="286.3555"/>
      </g>
     </g>
     <g id="text_25">
      <!-- 800 -->
      <g transform="translate(35.5925 291.674406)scale(0.14 -0.14)">
       <use xlink:href="#DejaVuSans-56"/>
       <use x="63.623047" xlink:href="#DejaVuSans-48"/>
       <use x="127.246094" xlink:href="#DejaVuSans-48"/>
      </g>
     </g>
    </g>
    <g id="ytick_6">
     <g id="line2d_25">
      <g>
       <use style="stroke:#000000;stroke-width:0.8;" x="69.315" xlink:href="#mf1ba46c18d" y="242.8675"/>
      </g>
     </g>
     <g id="text_26">
      <!-- 1000 -->
      <g transform="translate(26.685 248.186406)scale(0.14 -0.14)">
       <use xlink:href="#DejaVuSans-49"/>
       <use x="63.623047" xlink:href="#DejaVuSans-48"/>
       <use x="127.246094" xlink:href="#DejaVuSans-48"/>
       <use x="190.869141" xlink:href="#DejaVuSans-48"/>
      </g>
     </g>
    </g>
    <g id="ytick_7">
     <g id="line2d_26">
      <g>
       <use style="stroke:#000000;stroke-width:0.8;" x="69.315" xlink:href="#mf1ba46c18d" y="199.3795"/>
      </g>
     </g>
     <g id="text_27">
      <!-- 1200 -->
      <g transform="translate(26.685 204.698406)scale(0.14 -0.14)">
       <use xlink:href="#DejaVuSans-49"/>
       <use x="63.623047" xlink:href="#DejaVuSans-50"/>
       <use x="127.246094" xlink:href="#DejaVuSans-48"/>
       <use x="190.869141" xlink:href="#DejaVuSans-48"/>
      </g>
     </g>
    </g>
    <g id="ytick_8">
     <g id="line2d_27">
      <g>
       <use style="stroke:#000000;stroke-width:0.8;" x="69.315" xlink:href="#mf1ba46c18d" y="155.8915"/>
      </g>
     </g>
     <g id="text_28">
      <!-- 1400 -->
      <g transform="translate(26.685 161.210406)scale(0.14 -0.14)">
       <use xlink:href="#DejaVuSans-49"/>
       <use x="63.623047" xlink:href="#DejaVuSans-52"/>
       <use x="127.246094" xlink:href="#DejaVuSans-48"/>
       <use x="190.869141" xlink:href="#DejaVuSans-48"/>
      </g>
     </g>
    </g>
    <g id="ytick_9">
     <g id="line2d_28">
      <g>
       <use style="stroke:#000000;stroke-width:0.8;" x="69.315" xlink:href="#mf1ba46c18d" y="112.4035"/>
      </g>
     </g>
     <g id="text_29">
      <!-- 1600 -->
      <g transform="translate(26.685 117.722406)scale(0.14 -0.14)">
       <use xlink:href="#DejaVuSans-49"/>
       <use x="63.623047" xlink:href="#DejaVuSans-54"/>
       <use x="127.246094" xlink:href="#DejaVuSans-48"/>
       <use x="190.869141" xlink:href="#DejaVuSans-48"/>
      </g>
     </g>
    </g>
    <g id="ytick_10">
     <g id="line2d_29">
      <g>
       <use style="stroke:#000000;stroke-width:0.8;" x="69.315" xlink:href="#mf1ba46c18d" y="68.9155"/>
      </g>
     </g>
     <g id="text_30">
      <!-- 1800 -->
      <g transform="translate(26.685 74.234406)scale(0.14 -0.14)">
       <use xlink:href="#DejaVuSans-49"/>
       <use x="63.623047" xlink:href="#DejaVuSans-56"/>
       <use x="127.246094" xlink:href="#DejaVuSans-48"/>
       <use x="190.869141" xlink:href="#DejaVuSans-48"/>
      </g>
     </g>
    </g>
    <g id="ytick_11">
     <g id="line2d_30">
      <g>
       <use style="stroke:#000000;stroke-width:0.8;" x="69.315" xlink:href="#mf1ba46c18d" y="25.4275"/>
      </g>
     </g>
     <g id="text_31">
      <!-- 2000 -->
      <g transform="translate(26.685 30.746406)scale(0.14 -0.14)">
       <use xlink:href="#DejaVuSans-50"/>
       <use x="63.623047" xlink:href="#DejaVuSans-48"/>
       <use x="127.246094" xlink:href="#DejaVuSans-48"/>
       <use x="190.869141" xlink:href="#DejaVuSans-48"/>
      </g>
     </g>
    </g>
    <g id="text_32">
     <!-- Number of occurrences -->
     <defs>
      <path d="M 9.8125 72.90625 
L 23.09375 72.90625 
L 55.421875 11.921875 
L 55.421875 72.90625 
L 64.984375 72.90625 
L 64.984375 0 
L 51.703125 0 
L 19.390625 60.984375 
L 19.390625 0 
L 9.8125 0 
z
" id="DejaVuSans-78"/>
      <path d="M 8.5 21.578125 
L 8.5 54.6875 
L 17.484375 54.6875 
L 17.484375 21.921875 
Q 17.484375 14.15625 20.5 10.265625 
Q 23.53125 6.390625 29.59375 6.390625 
Q 36.859375 6.390625 41.078125 11.03125 
Q 45.3125 15.671875 45.3125 23.6875 
L 45.3125 54.6875 
L 54.296875 54.6875 
L 54.296875 0 
L 45.3125 0 
L 45.3125 8.40625 
Q 42.046875 3.421875 37.71875 1 
Q 33.40625 -1.421875 27.6875 -1.421875 
Q 18.265625 -1.421875 13.375 4.4375 
Q 8.5 10.296875 8.5 21.578125 
z
M 31.109375 56 
z
" id="DejaVuSans-117"/>
      <path d="M 48.6875 27.296875 
Q 48.6875 37.203125 44.609375 42.84375 
Q 40.53125 48.484375 33.40625 48.484375 
Q 26.265625 48.484375 22.1875 42.84375 
Q 18.109375 37.203125 18.109375 27.296875 
Q 18.109375 17.390625 22.1875 11.75 
Q 26.265625 6.109375 33.40625 6.109375 
Q 40.53125 6.109375 44.609375 11.75 
Q 48.6875 17.390625 48.6875 27.296875 
z
M 18.109375 46.390625 
Q 20.953125 51.265625 25.265625 53.625 
Q 29.59375 56 35.59375 56 
Q 45.5625 56 51.78125 48.09375 
Q 58.015625 40.1875 58.015625 27.296875 
Q 58.015625 14.40625 51.78125 6.484375 
Q 45.5625 -1.421875 35.59375 -1.421875 
Q 29.59375 -1.421875 25.265625 0.953125 
Q 20.953125 3.328125 18.109375 8.203125 
L 18.109375 0 
L 9.078125 0 
L 9.078125 75.984375 
L 18.109375 75.984375 
z
" id="DejaVuSans-98"/>
      <path d="M 41.109375 46.296875 
Q 39.59375 47.171875 37.8125 47.578125 
Q 36.03125 48 33.890625 48 
Q 26.265625 48 22.1875 43.046875 
Q 18.109375 38.09375 18.109375 28.8125 
L 18.109375 0 
L 9.078125 0 
L 9.078125 54.6875 
L 18.109375 54.6875 
L 18.109375 46.1875 
Q 20.953125 51.171875 25.484375 53.578125 
Q 30.03125 56 36.53125 56 
Q 37.453125 56 38.578125 55.875 
Q 39.703125 55.765625 41.0625 55.515625 
z
" id="DejaVuSans-114"/>
      <path d="M 30.609375 48.390625 
Q 23.390625 48.390625 19.1875 42.75 
Q 14.984375 37.109375 14.984375 27.296875 
Q 14.984375 17.484375 19.15625 11.84375 
Q 23.34375 6.203125 30.609375 6.203125 
Q 37.796875 6.203125 41.984375 11.859375 
Q 46.1875 17.53125 46.1875 27.296875 
Q 46.1875 37.015625 41.984375 42.703125 
Q 37.796875 48.390625 30.609375 48.390625 
z
M 30.609375 56 
Q 42.328125 56 49.015625 48.375 
Q 55.71875 40.765625 55.71875 27.296875 
Q 55.71875 13.875 49.015625 6.21875 
Q 42.328125 -1.421875 30.609375 -1.421875 
Q 18.84375 -1.421875 12.171875 6.21875 
Q 5.515625 13.875 5.515625 27.296875 
Q 5.515625 40.765625 12.171875 48.375 
Q 18.84375 56 30.609375 56 
z
" id="DejaVuSans-111"/>
      <path d="M 54.890625 33.015625 
L 54.890625 0 
L 45.90625 0 
L 45.90625 32.71875 
Q 45.90625 40.484375 42.875 44.328125 
Q 39.84375 48.1875 33.796875 48.1875 
Q 26.515625 48.1875 22.3125 43.546875 
Q 18.109375 38.921875 18.109375 30.90625 
L 18.109375 0 
L 9.078125 0 
L 9.078125 54.6875 
L 18.109375 54.6875 
L 18.109375 46.1875 
Q 21.34375 51.125 25.703125 53.5625 
Q 30.078125 56 35.796875 56 
Q 45.21875 56 50.046875 50.171875 
Q 54.890625 44.34375 54.890625 33.015625 
z
" id="DejaVuSans-110"/>
     </defs>
     <g transform="translate(19.3575 336.61875)rotate(-90)scale(0.16 -0.16)">
      <use xlink:href="#DejaVuSans-78"/>
      <use x="74.804688" xlink:href="#DejaVuSans-117"/>
      <use x="138.183594" xlink:href="#DejaVuSans-109"/>
      <use x="235.595703" xlink:href="#DejaVuSans-98"/>
      <use x="299.072266" xlink:href="#DejaVuSans-101"/>
      <use x="360.595703" xlink:href="#DejaVuSans-114"/>
      <use x="401.708984" xlink:href="#DejaVuSans-32"/>
      <use x="433.496094" xlink:href="#DejaVuSans-111"/>
      <use x="494.677734" xlink:href="#DejaVuSans-102"/>
      <use x="529.882812" xlink:href="#DejaVuSans-32"/>
      <use x="561.669922" xlink:href="#DejaVuSans-111"/>
      <use x="622.851562" xlink:href="#DejaVuSans-99"/>
      <use x="677.832031" xlink:href="#DejaVuSans-99"/>
      <use x="732.8125" xlink:href="#DejaVuSans-117"/>
      <use x="796.191406" xlink:href="#DejaVuSans-114"/>
      <use x="837.289062" xlink:href="#DejaVuSans-114"/>
      <use x="878.371094" xlink:href="#DejaVuSans-101"/>
      <use x="939.894531" xlink:href="#DejaVuSans-110"/>
      <use x="1003.273438" xlink:href="#DejaVuSans-99"/>
      <use x="1058.253906" xlink:href="#DejaVuSans-101"/>
      <use x="1119.777344" xlink:href="#DejaVuSans-115"/>
     </g>
    </g>
   </g>
   <g id="patch_183">
    <path d="M 69.315 460.3075 
L 69.315 25.4275 
" style="fill:none;stroke:#000000;stroke-linecap:square;stroke-linejoin:miter;stroke-width:0.8;"/>
   </g>
   <g id="patch_184">
    <path d="M 94.678636 460.3075 
L 601.951364 460.3075 
" style="fill:none;stroke:#000000;stroke-linecap:square;stroke-linejoin:miter;stroke-width:0.8;"/>
   </g>
   <g id="text_33">
    <!-- R = 0.6 | Mean lifetime = 0.54 -->
    <defs>
     <path d="M 44.390625 34.1875 
Q 47.5625 33.109375 50.5625 29.59375 
Q 53.5625 26.078125 56.59375 19.921875 
L 66.609375 0 
L 56 0 
L 46.6875 18.703125 
Q 43.0625 26.03125 39.671875 28.421875 
Q 36.28125 30.8125 30.421875 30.8125 
L 19.671875 30.8125 
L 19.671875 0 
L 9.8125 0 
L 9.8125 72.90625 
L 32.078125 72.90625 
Q 44.578125 72.90625 50.734375 67.671875 
Q 56.890625 62.453125 56.890625 51.90625 
Q 56.890625 45.015625 53.6875 40.46875 
Q 50.484375 35.9375 44.390625 34.1875 
z
M 19.671875 64.796875 
L 19.671875 38.921875 
L 32.078125 38.921875 
Q 39.203125 38.921875 42.84375 42.21875 
Q 46.484375 45.515625 46.484375 51.90625 
Q 46.484375 58.296875 42.84375 61.546875 
Q 39.203125 64.796875 32.078125 64.796875 
z
" id="DejaVuSans-82"/>
     <path d="M 10.59375 45.40625 
L 73.1875 45.40625 
L 73.1875 37.203125 
L 10.59375 37.203125 
z
M 10.59375 25.484375 
L 73.1875 25.484375 
L 73.1875 17.1875 
L 10.59375 17.1875 
z
" id="DejaVuSans-61"/>
     <path d="M 21 76.421875 
L 21 -23.578125 
L 12.703125 -23.578125 
L 12.703125 76.421875 
z
" id="DejaVuSans-124"/>
     <path d="M 9.8125 72.90625 
L 24.515625 72.90625 
L 43.109375 23.296875 
L 61.8125 72.90625 
L 76.515625 72.90625 
L 76.515625 0 
L 66.890625 0 
L 66.890625 64.015625 
L 48.09375 14.015625 
L 38.1875 14.015625 
L 19.390625 64.015625 
L 19.390625 0 
L 9.8125 0 
z
" id="DejaVuSans-77"/>
     <path d="M 34.28125 27.484375 
Q 23.390625 27.484375 19.1875 25 
Q 14.984375 22.515625 14.984375 16.5 
Q 14.984375 11.71875 18.140625 8.90625 
Q 21.296875 6.109375 26.703125 6.109375 
Q 34.1875 6.109375 38.703125 11.40625 
Q 43.21875 16.703125 43.21875 25.484375 
L 43.21875 27.484375 
z
M 52.203125 31.203125 
L 52.203125 0 
L 43.21875 0 
L 43.21875 8.296875 
Q 40.140625 3.328125 35.546875 0.953125 
Q 30.953125 -1.421875 24.3125 -1.421875 
Q 15.921875 -1.421875 10.953125 3.296875 
Q 6 8.015625 6 15.921875 
Q 6 25.140625 12.171875 29.828125 
Q 18.359375 34.515625 30.609375 34.515625 
L 43.21875 34.515625 
L 43.21875 35.40625 
Q 43.21875 41.609375 39.140625 45 
Q 35.0625 48.390625 27.6875 48.390625 
Q 23 48.390625 18.546875 47.265625 
Q 14.109375 46.140625 10.015625 43.890625 
L 10.015625 52.203125 
Q 14.9375 54.109375 19.578125 55.046875 
Q 24.21875 56 28.609375 56 
Q 40.484375 56 46.34375 49.84375 
Q 52.203125 43.703125 52.203125 31.203125 
z
" id="DejaVuSans-97"/>
     <path d="M 9.421875 75.984375 
L 18.40625 75.984375 
L 18.40625 0 
L 9.421875 0 
z
" id="DejaVuSans-108"/>
    </defs>
    <g transform="translate(226.26625 19.4275)scale(0.16 -0.16)">
     <use xlink:href="#DejaVuSans-82"/>
     <use x="69.482422" xlink:href="#DejaVuSans-32"/>
     <use x="101.269531" xlink:href="#DejaVuSans-61"/>
     <use x="185.058594" xlink:href="#DejaVuSans-32"/>
     <use x="216.845703" xlink:href="#DejaVuSans-48"/>
     <use x="280.46875" xlink:href="#DejaVuSans-46"/>
     <use x="312.255859" xlink:href="#DejaVuSans-54"/>
     <use x="375.878906" xlink:href="#DejaVuSans-32"/>
     <use x="407.666016" xlink:href="#DejaVuSans-124"/>
     <use x="441.357422" xlink:href="#DejaVuSans-32"/>
     <use x="473.144531" xlink:href="#DejaVuSans-77"/>
     <use x="559.423828" xlink:href="#DejaVuSans-101"/>
     <use x="620.947266" xlink:href="#DejaVuSans-97"/>
     <use x="682.226562" xlink:href="#DejaVuSans-110"/>
     <use x="745.605469" xlink:href="#DejaVuSans-32"/>
     <use x="777.392578" xlink:href="#DejaVuSans-108"/>
     <use x="805.175781" xlink:href="#DejaVuSans-105"/>
     <use x="832.958984" xlink:href="#DejaVuSans-102"/>
     <use x="868.164062" xlink:href="#DejaVuSans-101"/>
     <use x="929.6875" xlink:href="#DejaVuSans-116"/>
     <use x="968.896484" xlink:href="#DejaVuSans-105"/>
     <use x="996.679688" xlink:href="#DejaVuSans-109"/>
     <use x="1094.091797" xlink:href="#DejaVuSans-101"/>
     <use x="1155.615234" xlink:href="#DejaVuSans-32"/>
     <use x="1187.402344" xlink:href="#DejaVuSans-61"/>
     <use x="1271.191406" xlink:href="#DejaVuSans-32"/>
     <use x="1302.978516" xlink:href="#DejaVuSans-48"/>
     <use x="1366.601562" xlink:href="#DejaVuSans-46"/>
     <use x="1398.388672" xlink:href="#DejaVuSans-53"/>
     <use x="1462.011719" xlink:href="#DejaVuSans-52"/>
    </g>
   </g>
   <g id="legend_1">
    <g id="patch_185">
     <path d="M 76.315 48.105625 
L 156.110313 48.105625 
Q 158.110313 48.105625 158.110313 46.105625 
L 158.110313 32.4275 
Q 158.110313 30.4275 156.110313 30.4275 
L 76.315 30.4275 
Q 74.315 30.4275 74.315 32.4275 
L 74.315 46.105625 
Q 74.315 48.105625 76.315 48.105625 
z
" style="fill:#ffffff;opacity:0.8;stroke:#cccccc;stroke-linejoin:miter;"/>
    </g>
    <g id="patch_186">
     <path d="M 78.315 42.025937 
L 98.315 42.025937 
L 98.315 35.025937 
L 78.315 35.025937 
z
" style="fill:#0000ff;opacity:0.7;stroke:#000000;stroke-linejoin:miter;"/>
    </g>
    <g id="text_34">
     <!-- Defective -->
     <defs>
      <path d="M 19.671875 64.796875 
L 19.671875 8.109375 
L 31.59375 8.109375 
Q 46.6875 8.109375 53.6875 14.9375 
Q 60.6875 21.78125 60.6875 36.53125 
Q 60.6875 51.171875 53.6875 57.984375 
Q 46.6875 64.796875 31.59375 64.796875 
z
M 9.8125 72.90625 
L 30.078125 72.90625 
Q 51.265625 72.90625 61.171875 64.09375 
Q 71.09375 55.28125 71.09375 36.53125 
Q 71.09375 17.671875 61.125 8.828125 
Q 51.171875 0 30.078125 0 
L 9.8125 0 
z
" id="DejaVuSans-68"/>
      <path d="M 2.984375 54.6875 
L 12.5 54.6875 
L 29.59375 8.796875 
L 46.6875 54.6875 
L 56.203125 54.6875 
L 35.6875 0 
L 23.484375 0 
z
" id="DejaVuSans-118"/>
     </defs>
     <g transform="translate(106.315 42.025937)scale(0.1 -0.1)">
      <use xlink:href="#DejaVuSans-68"/>
      <use x="77.001953" xlink:href="#DejaVuSans-101"/>
      <use x="138.525391" xlink:href="#DejaVuSans-102"/>
      <use x="173.730469" xlink:href="#DejaVuSans-101"/>
      <use x="235.253906" xlink:href="#DejaVuSans-99"/>
      <use x="290.234375" xlink:href="#DejaVuSans-116"/>
      <use x="329.443359" xlink:href="#DejaVuSans-105"/>
      <use x="357.226562" xlink:href="#DejaVuSans-118"/>
      <use x="416.40625" xlink:href="#DejaVuSans-101"/>
     </g>
    </g>
   </g>
  </g>
 </g>
 <defs>
  <clipPath id="pe59a367caa">
   <rect height="434.88" width="558" x="69.315" y="25.4275"/>
  </clipPath>
 </defs>
</svg>
