<?xml version="1.0" encoding="utf-8" standalone="no"?>
<!DOCTYPE svg PUBLIC "-//W3C//DTD SVG 1.1//EN"
  "http://www.w3.org/Graphics/SVG/1.1/DTD/svg11.dtd">
<!-- Created with matplotlib (https://matplotlib.org/) -->
<svg height="568.066556pt" version="1.1" viewBox="0 0 713.002263 568.066556" width="713.002263pt" xmlns="http://www.w3.org/2000/svg" xmlns:xlink="http://www.w3.org/1999/xlink">
 <defs>
  <style type="text/css">
*{stroke-linecap:butt;stroke-linejoin:round;}
  </style>
 </defs>
 <g id="figure_1">
  <g id="patch_1">
   <path d="M 0 568.066556 
L 713.002263 568.066556 
L 713.002263 0 
L 0 0 
z
" style="fill:#ffffff;"/>
  </g>
  <g id="axes_1">
   <g id="patch_2">
    <path d="M 78.60695 507.589794 
L 691.48945 507.589794 
L 691.48945 14.038594 
L 78.60695 14.038594 
z
" style="fill:#ffffff;"/>
   </g>
   <g id="matplotlib.axis_1">
    <g id="xtick_1">
     <g id="line2d_1">
      <defs>
       <path d="M 0 0 
L 0 6 
" id="m790809bb78" style="stroke:#555555;"/>
      </defs>
      <g>
       <use style="fill:#555555;stroke:#555555;" x="78.60695" xlink:href="#m790809bb78" y="512.525306"/>
      </g>
     </g>
     <g id="text_1">
      <!-- 0.0 -->
      <defs>
       <path d="M 31.78125 66.40625 
Q 24.171875 66.40625 20.328125 58.90625 
Q 16.5 51.421875 16.5 36.375 
Q 16.5 21.390625 20.328125 13.890625 
Q 24.171875 6.390625 31.78125 6.390625 
Q 39.453125 6.390625 43.28125 13.890625 
Q 47.125 21.390625 47.125 36.375 
Q 47.125 51.421875 43.28125 58.90625 
Q 39.453125 66.40625 31.78125 66.40625 
z
M 31.78125 74.21875 
Q 44.046875 74.21875 50.515625 64.515625 
Q 56.984375 54.828125 56.984375 36.375 
Q 56.984375 17.96875 50.515625 8.265625 
Q 44.046875 -1.421875 31.78125 -1.421875 
Q 19.53125 -1.421875 13.0625 8.265625 
Q 6.59375 17.96875 6.59375 36.375 
Q 6.59375 54.828125 13.0625 64.515625 
Q 19.53125 74.21875 31.78125 74.21875 
z
" id="DejaVuSans-48"/>
       <path d="M 10.6875 12.40625 
L 21 12.40625 
L 21 0 
L 10.6875 0 
z
" id="DejaVuSans-46"/>
      </defs>
      <g style="fill:#555555;" transform="translate(64.294138 535.702493)scale(0.18 -0.18)">
       <use xlink:href="#DejaVuSans-48"/>
       <use x="63.623047" xlink:href="#DejaVuSans-46"/>
       <use x="95.410156" xlink:href="#DejaVuSans-48"/>
      </g>
     </g>
    </g>
    <g id="xtick_2">
     <g id="line2d_2">
      <g>
       <use style="fill:#555555;stroke:#555555;" x="180.754033" xlink:href="#m790809bb78" y="512.525306"/>
      </g>
     </g>
     <g id="text_2">
      <!-- 0.2 -->
      <defs>
       <path d="M 19.1875 8.296875 
L 53.609375 8.296875 
L 53.609375 0 
L 7.328125 0 
L 7.328125 8.296875 
Q 12.9375 14.109375 22.625 23.890625 
Q 32.328125 33.6875 34.8125 36.53125 
Q 39.546875 41.84375 41.421875 45.53125 
Q 43.3125 49.21875 43.3125 52.78125 
Q 43.3125 58.59375 39.234375 62.25 
Q 35.15625 65.921875 28.609375 65.921875 
Q 23.96875 65.921875 18.8125 64.3125 
Q 13.671875 62.703125 7.8125 59.421875 
L 7.8125 69.390625 
Q 13.765625 71.78125 18.9375 73 
Q 24.125 74.21875 28.421875 74.21875 
Q 39.75 74.21875 46.484375 68.546875 
Q 53.21875 62.890625 53.21875 53.421875 
Q 53.21875 48.921875 51.53125 44.890625 
Q 49.859375 40.875 45.40625 35.40625 
Q 44.1875 33.984375 37.640625 27.21875 
Q 31.109375 20.453125 19.1875 8.296875 
z
" id="DejaVuSans-50"/>
      </defs>
      <g style="fill:#555555;" transform="translate(166.441221 535.702493)scale(0.18 -0.18)">
       <use xlink:href="#DejaVuSans-48"/>
       <use x="63.623047" xlink:href="#DejaVuSans-46"/>
       <use x="95.410156" xlink:href="#DejaVuSans-50"/>
      </g>
     </g>
    </g>
    <g id="xtick_3">
     <g id="line2d_3">
      <g>
       <use style="fill:#555555;stroke:#555555;" x="282.901117" xlink:href="#m790809bb78" y="512.525306"/>
      </g>
     </g>
     <g id="text_3">
      <!-- 0.4 -->
      <defs>
       <path d="M 37.796875 64.3125 
L 12.890625 25.390625 
L 37.796875 25.390625 
z
M 35.203125 72.90625 
L 47.609375 72.90625 
L 47.609375 25.390625 
L 58.015625 25.390625 
L 58.015625 17.1875 
L 47.609375 17.1875 
L 47.609375 0 
L 37.796875 0 
L 37.796875 17.1875 
L 4.890625 17.1875 
L 4.890625 26.703125 
z
" id="DejaVuSans-52"/>
      </defs>
      <g style="fill:#555555;" transform="translate(268.588304 535.702493)scale(0.18 -0.18)">
       <use xlink:href="#DejaVuSans-48"/>
       <use x="63.623047" xlink:href="#DejaVuSans-46"/>
       <use x="95.410156" xlink:href="#DejaVuSans-52"/>
      </g>
     </g>
    </g>
    <g id="xtick_4">
     <g id="line2d_4">
      <g>
       <use style="fill:#555555;stroke:#555555;" x="385.0482" xlink:href="#m790809bb78" y="512.525306"/>
      </g>
     </g>
     <g id="text_4">
      <!-- 0.6 -->
      <defs>
       <path d="M 33.015625 40.375 
Q 26.375 40.375 22.484375 35.828125 
Q 18.609375 31.296875 18.609375 23.390625 
Q 18.609375 15.53125 22.484375 10.953125 
Q 26.375 6.390625 33.015625 6.390625 
Q 39.65625 6.390625 43.53125 10.953125 
Q 47.40625 15.53125 47.40625 23.390625 
Q 47.40625 31.296875 43.53125 35.828125 
Q 39.65625 40.375 33.015625 40.375 
z
M 52.59375 71.296875 
L 52.59375 62.3125 
Q 48.875 64.0625 45.09375 64.984375 
Q 41.3125 65.921875 37.59375 65.921875 
Q 27.828125 65.921875 22.671875 59.328125 
Q 17.53125 52.734375 16.796875 39.40625 
Q 19.671875 43.65625 24.015625 45.921875 
Q 28.375 48.1875 33.59375 48.1875 
Q 44.578125 48.1875 50.953125 41.515625 
Q 57.328125 34.859375 57.328125 23.390625 
Q 57.328125 12.15625 50.6875 5.359375 
Q 44.046875 -1.421875 33.015625 -1.421875 
Q 20.359375 -1.421875 13.671875 8.265625 
Q 6.984375 17.96875 6.984375 36.375 
Q 6.984375 53.65625 15.1875 63.9375 
Q 23.390625 74.21875 37.203125 74.21875 
Q 40.921875 74.21875 44.703125 73.484375 
Q 48.484375 72.75 52.59375 71.296875 
z
" id="DejaVuSans-54"/>
      </defs>
      <g style="fill:#555555;" transform="translate(370.735388 535.702493)scale(0.18 -0.18)">
       <use xlink:href="#DejaVuSans-48"/>
       <use x="63.623047" xlink:href="#DejaVuSans-46"/>
       <use x="95.410156" xlink:href="#DejaVuSans-54"/>
      </g>
     </g>
    </g>
    <g id="xtick_5">
     <g id="line2d_5">
      <g>
       <use style="fill:#555555;stroke:#555555;" x="487.195283" xlink:href="#m790809bb78" y="512.525306"/>
      </g>
     </g>
     <g id="text_5">
      <!-- 0.8 -->
      <defs>
       <path d="M 31.78125 34.625 
Q 24.75 34.625 20.71875 30.859375 
Q 16.703125 27.09375 16.703125 20.515625 
Q 16.703125 13.921875 20.71875 10.15625 
Q 24.75 6.390625 31.78125 6.390625 
Q 38.8125 6.390625 42.859375 10.171875 
Q 46.921875 13.96875 46.921875 20.515625 
Q 46.921875 27.09375 42.890625 30.859375 
Q 38.875 34.625 31.78125 34.625 
z
M 21.921875 38.8125 
Q 15.578125 40.375 12.03125 44.71875 
Q 8.5 49.078125 8.5 55.328125 
Q 8.5 64.0625 14.71875 69.140625 
Q 20.953125 74.21875 31.78125 74.21875 
Q 42.671875 74.21875 48.875 69.140625 
Q 55.078125 64.0625 55.078125 55.328125 
Q 55.078125 49.078125 51.53125 44.71875 
Q 48 40.375 41.703125 38.8125 
Q 48.828125 37.15625 52.796875 32.3125 
Q 56.78125 27.484375 56.78125 20.515625 
Q 56.78125 9.90625 50.3125 4.234375 
Q 43.84375 -1.421875 31.78125 -1.421875 
Q 19.734375 -1.421875 13.25 4.234375 
Q 6.78125 9.90625 6.78125 20.515625 
Q 6.78125 27.484375 10.78125 32.3125 
Q 14.796875 37.15625 21.921875 38.8125 
z
M 18.3125 54.390625 
Q 18.3125 48.734375 21.84375 45.5625 
Q 25.390625 42.390625 31.78125 42.390625 
Q 38.140625 42.390625 41.71875 45.5625 
Q 45.3125 48.734375 45.3125 54.390625 
Q 45.3125 60.0625 41.71875 63.234375 
Q 38.140625 66.40625 31.78125 66.40625 
Q 25.390625 66.40625 21.84375 63.234375 
Q 18.3125 60.0625 18.3125 54.390625 
z
" id="DejaVuSans-56"/>
      </defs>
      <g style="fill:#555555;" transform="translate(472.882471 535.702493)scale(0.18 -0.18)">
       <use xlink:href="#DejaVuSans-48"/>
       <use x="63.623047" xlink:href="#DejaVuSans-46"/>
       <use x="95.410156" xlink:href="#DejaVuSans-56"/>
      </g>
     </g>
    </g>
    <g id="xtick_6">
     <g id="line2d_6">
      <g>
       <use style="fill:#555555;stroke:#555555;" x="589.342367" xlink:href="#m790809bb78" y="512.525306"/>
      </g>
     </g>
     <g id="text_6">
      <!-- 1.0 -->
      <defs>
       <path d="M 12.40625 8.296875 
L 28.515625 8.296875 
L 28.515625 63.921875 
L 10.984375 60.40625 
L 10.984375 69.390625 
L 28.421875 72.90625 
L 38.28125 72.90625 
L 38.28125 8.296875 
L 54.390625 8.296875 
L 54.390625 0 
L 12.40625 0 
z
" id="DejaVuSans-49"/>
      </defs>
      <g style="fill:#555555;" transform="translate(575.029554 535.702493)scale(0.18 -0.18)">
       <use xlink:href="#DejaVuSans-49"/>
       <use x="63.623047" xlink:href="#DejaVuSans-46"/>
       <use x="95.410156" xlink:href="#DejaVuSans-48"/>
      </g>
     </g>
    </g>
    <g id="xtick_7">
     <g id="line2d_7">
      <g>
       <use style="fill:#555555;stroke:#555555;" x="691.48945" xlink:href="#m790809bb78" y="512.525306"/>
      </g>
     </g>
     <g id="text_7">
      <!-- 1.2 -->
      <g style="fill:#555555;" transform="translate(677.176638 535.702493)scale(0.18 -0.18)">
       <use xlink:href="#DejaVuSans-49"/>
       <use x="63.623047" xlink:href="#DejaVuSans-46"/>
       <use x="95.410156" xlink:href="#DejaVuSans-50"/>
      </g>
     </g>
    </g>
    <g id="text_8">
     <!-- Motor ratio -->
     <defs>
      <path d="M 9.8125 72.90625 
L 24.515625 72.90625 
L 43.109375 23.296875 
L 61.8125 72.90625 
L 76.515625 72.90625 
L 76.515625 0 
L 66.890625 0 
L 66.890625 64.015625 
L 48.09375 14.015625 
L 38.1875 14.015625 
L 19.390625 64.015625 
L 19.390625 0 
L 9.8125 0 
z
" id="DejaVuSans-77"/>
      <path d="M 30.609375 48.390625 
Q 23.390625 48.390625 19.1875 42.75 
Q 14.984375 37.109375 14.984375 27.296875 
Q 14.984375 17.484375 19.15625 11.84375 
Q 23.34375 6.203125 30.609375 6.203125 
Q 37.796875 6.203125 41.984375 11.859375 
Q 46.1875 17.53125 46.1875 27.296875 
Q 46.1875 37.015625 41.984375 42.703125 
Q 37.796875 48.390625 30.609375 48.390625 
z
M 30.609375 56 
Q 42.328125 56 49.015625 48.375 
Q 55.71875 40.765625 55.71875 27.296875 
Q 55.71875 13.875 49.015625 6.21875 
Q 42.328125 -1.421875 30.609375 -1.421875 
Q 18.84375 -1.421875 12.171875 6.21875 
Q 5.515625 13.875 5.515625 27.296875 
Q 5.515625 40.765625 12.171875 48.375 
Q 18.84375 56 30.609375 56 
z
" id="DejaVuSans-111"/>
      <path d="M 18.3125 70.21875 
L 18.3125 54.6875 
L 36.8125 54.6875 
L 36.8125 47.703125 
L 18.3125 47.703125 
L 18.3125 18.015625 
Q 18.3125 11.328125 20.140625 9.421875 
Q 21.96875 7.515625 27.59375 7.515625 
L 36.8125 7.515625 
L 36.8125 0 
L 27.59375 0 
Q 17.1875 0 13.234375 3.875 
Q 9.28125 7.765625 9.28125 18.015625 
L 9.28125 47.703125 
L 2.6875 47.703125 
L 2.6875 54.6875 
L 9.28125 54.6875 
L 9.28125 70.21875 
z
" id="DejaVuSans-116"/>
      <path d="M 41.109375 46.296875 
Q 39.59375 47.171875 37.8125 47.578125 
Q 36.03125 48 33.890625 48 
Q 26.265625 48 22.1875 43.046875 
Q 18.109375 38.09375 18.109375 28.8125 
L 18.109375 0 
L 9.078125 0 
L 9.078125 54.6875 
L 18.109375 54.6875 
L 18.109375 46.1875 
Q 20.953125 51.171875 25.484375 53.578125 
Q 30.03125 56 36.53125 56 
Q 37.453125 56 38.578125 55.875 
Q 39.703125 55.765625 41.0625 55.515625 
z
" id="DejaVuSans-114"/>
      <path id="DejaVuSans-32"/>
      <path d="M 34.28125 27.484375 
Q 23.390625 27.484375 19.1875 25 
Q 14.984375 22.515625 14.984375 16.5 
Q 14.984375 11.71875 18.140625 8.90625 
Q 21.296875 6.109375 26.703125 6.109375 
Q 34.1875 6.109375 38.703125 11.40625 
Q 43.21875 16.703125 43.21875 25.484375 
L 43.21875 27.484375 
z
M 52.203125 31.203125 
L 52.203125 0 
L 43.21875 0 
L 43.21875 8.296875 
Q 40.140625 3.328125 35.546875 0.953125 
Q 30.953125 -1.421875 24.3125 -1.421875 
Q 15.921875 -1.421875 10.953125 3.296875 
Q 6 8.015625 6 15.921875 
Q 6 25.140625 12.171875 29.828125 
Q 18.359375 34.515625 30.609375 34.515625 
L 43.21875 34.515625 
L 43.21875 35.40625 
Q 43.21875 41.609375 39.140625 45 
Q 35.0625 48.390625 27.6875 48.390625 
Q 23 48.390625 18.546875 47.265625 
Q 14.109375 46.140625 10.015625 43.890625 
L 10.015625 52.203125 
Q 14.9375 54.109375 19.578125 55.046875 
Q 24.21875 56 28.609375 56 
Q 40.484375 56 46.34375 49.84375 
Q 52.203125 43.703125 52.203125 31.203125 
z
" id="DejaVuSans-97"/>
      <path d="M 9.421875 54.6875 
L 18.40625 54.6875 
L 18.40625 0 
L 9.421875 0 
z
M 9.421875 75.984375 
L 18.40625 75.984375 
L 18.40625 64.59375 
L 9.421875 64.59375 
z
" id="DejaVuSans-105"/>
     </defs>
     <g transform="translate(335.430075 557.123118)scale(0.18 -0.18)">
      <use xlink:href="#DejaVuSans-77"/>
      <use x="86.279297" xlink:href="#DejaVuSans-111"/>
      <use x="147.460938" xlink:href="#DejaVuSans-116"/>
      <use x="186.669922" xlink:href="#DejaVuSans-111"/>
      <use x="247.851562" xlink:href="#DejaVuSans-114"/>
      <use x="288.964844" xlink:href="#DejaVuSans-32"/>
      <use x="320.751953" xlink:href="#DejaVuSans-114"/>
      <use x="361.865234" xlink:href="#DejaVuSans-97"/>
      <use x="423.144531" xlink:href="#DejaVuSans-116"/>
      <use x="462.353516" xlink:href="#DejaVuSans-105"/>
      <use x="490.136719" xlink:href="#DejaVuSans-111"/>
     </g>
    </g>
   </g>
   <g id="matplotlib.axis_2">
    <g id="ytick_1">
     <g id="line2d_8">
      <defs>
       <path d="M 0 0 
L -6 0 
" id="m0bd504968e" style="stroke:#555555;"/>
      </defs>
      <g>
       <use style="fill:#555555;stroke:#555555;" x="72.478125" xlink:href="#m0bd504968e" y="488.440134"/>
      </g>
     </g>
     <g id="text_9">
      <!-- 0 -->
      <g style="fill:#555555;" transform="translate(51.525625 495.278728)scale(0.18 -0.18)">
       <use xlink:href="#DejaVuSans-48"/>
      </g>
     </g>
    </g>
    <g id="ytick_2">
     <g id="line2d_9">
      <g>
       <use style="fill:#555555;stroke:#555555;" x="72.478125" xlink:href="#m0bd504968e" y="409.373211"/>
      </g>
     </g>
     <g id="text_10">
      <!-- 20 -->
      <g style="fill:#555555;" transform="translate(40.073125 416.211804)scale(0.18 -0.18)">
       <use xlink:href="#DejaVuSans-50"/>
       <use x="63.623047" xlink:href="#DejaVuSans-48"/>
      </g>
     </g>
    </g>
    <g id="ytick_3">
     <g id="line2d_10">
      <g>
       <use style="fill:#555555;stroke:#555555;" x="72.478125" xlink:href="#m0bd504968e" y="330.306287"/>
      </g>
     </g>
     <g id="text_11">
      <!-- 40 -->
      <g style="fill:#555555;" transform="translate(40.073125 337.144881)scale(0.18 -0.18)">
       <use xlink:href="#DejaVuSans-52"/>
       <use x="63.623047" xlink:href="#DejaVuSans-48"/>
      </g>
     </g>
    </g>
    <g id="ytick_4">
     <g id="line2d_11">
      <g>
       <use style="fill:#555555;stroke:#555555;" x="72.478125" xlink:href="#m0bd504968e" y="251.239364"/>
      </g>
     </g>
     <g id="text_12">
      <!-- 60 -->
      <g style="fill:#555555;" transform="translate(40.073125 258.077958)scale(0.18 -0.18)">
       <use xlink:href="#DejaVuSans-54"/>
       <use x="63.623047" xlink:href="#DejaVuSans-48"/>
      </g>
     </g>
    </g>
    <g id="ytick_5">
     <g id="line2d_12">
      <g>
       <use style="fill:#555555;stroke:#555555;" x="72.478125" xlink:href="#m0bd504968e" y="172.17244"/>
      </g>
     </g>
     <g id="text_13">
      <!-- 80 -->
      <g style="fill:#555555;" transform="translate(40.073125 179.011034)scale(0.18 -0.18)">
       <use xlink:href="#DejaVuSans-56"/>
       <use x="63.623047" xlink:href="#DejaVuSans-48"/>
      </g>
     </g>
    </g>
    <g id="ytick_6">
     <g id="line2d_13">
      <g>
       <use style="fill:#555555;stroke:#555555;" x="72.478125" xlink:href="#m0bd504968e" y="93.105517"/>
      </g>
     </g>
     <g id="text_14">
      <!-- 100 -->
      <g style="fill:#555555;" transform="translate(28.620625 99.944111)scale(0.18 -0.18)">
       <use xlink:href="#DejaVuSans-49"/>
       <use x="63.623047" xlink:href="#DejaVuSans-48"/>
       <use x="127.246094" xlink:href="#DejaVuSans-48"/>
      </g>
     </g>
    </g>
    <g id="ytick_7">
     <g id="line2d_14">
      <g>
       <use style="fill:#555555;stroke:#555555;" x="72.478125" xlink:href="#m0bd504968e" y="14.038594"/>
      </g>
     </g>
     <g id="text_15">
      <!-- 120 -->
      <g style="fill:#555555;" transform="translate(28.620625 20.877188)scale(0.18 -0.18)">
       <use xlink:href="#DejaVuSans-49"/>
       <use x="63.623047" xlink:href="#DejaVuSans-50"/>
       <use x="127.246094" xlink:href="#DejaVuSans-48"/>
      </g>
     </g>
    </g>
    <g id="text_16">
     <!-- Mean binding motors -->
     <defs>
      <path d="M 56.203125 29.59375 
L 56.203125 25.203125 
L 14.890625 25.203125 
Q 15.484375 15.921875 20.484375 11.0625 
Q 25.484375 6.203125 34.421875 6.203125 
Q 39.59375 6.203125 44.453125 7.46875 
Q 49.3125 8.734375 54.109375 11.28125 
L 54.109375 2.78125 
Q 49.265625 0.734375 44.1875 -0.34375 
Q 39.109375 -1.421875 33.890625 -1.421875 
Q 20.796875 -1.421875 13.15625 6.1875 
Q 5.515625 13.8125 5.515625 26.8125 
Q 5.515625 40.234375 12.765625 48.109375 
Q 20.015625 56 32.328125 56 
Q 43.359375 56 49.78125 48.890625 
Q 56.203125 41.796875 56.203125 29.59375 
z
M 47.21875 32.234375 
Q 47.125 39.59375 43.09375 43.984375 
Q 39.0625 48.390625 32.421875 48.390625 
Q 24.90625 48.390625 20.390625 44.140625 
Q 15.875 39.890625 15.1875 32.171875 
z
" id="DejaVuSans-101"/>
      <path d="M 54.890625 33.015625 
L 54.890625 0 
L 45.90625 0 
L 45.90625 32.71875 
Q 45.90625 40.484375 42.875 44.328125 
Q 39.84375 48.1875 33.796875 48.1875 
Q 26.515625 48.1875 22.3125 43.546875 
Q 18.109375 38.921875 18.109375 30.90625 
L 18.109375 0 
L 9.078125 0 
L 9.078125 54.6875 
L 18.109375 54.6875 
L 18.109375 46.1875 
Q 21.34375 51.125 25.703125 53.5625 
Q 30.078125 56 35.796875 56 
Q 45.21875 56 50.046875 50.171875 
Q 54.890625 44.34375 54.890625 33.015625 
z
" id="DejaVuSans-110"/>
      <path d="M 48.6875 27.296875 
Q 48.6875 37.203125 44.609375 42.84375 
Q 40.53125 48.484375 33.40625 48.484375 
Q 26.265625 48.484375 22.1875 42.84375 
Q 18.109375 37.203125 18.109375 27.296875 
Q 18.109375 17.390625 22.1875 11.75 
Q 26.265625 6.109375 33.40625 6.109375 
Q 40.53125 6.109375 44.609375 11.75 
Q 48.6875 17.390625 48.6875 27.296875 
z
M 18.109375 46.390625 
Q 20.953125 51.265625 25.265625 53.625 
Q 29.59375 56 35.59375 56 
Q 45.5625 56 51.78125 48.09375 
Q 58.015625 40.1875 58.015625 27.296875 
Q 58.015625 14.40625 51.78125 6.484375 
Q 45.5625 -1.421875 35.59375 -1.421875 
Q 29.59375 -1.421875 25.265625 0.953125 
Q 20.953125 3.328125 18.109375 8.203125 
L 18.109375 0 
L 9.078125 0 
L 9.078125 75.984375 
L 18.109375 75.984375 
z
" id="DejaVuSans-98"/>
      <path d="M 45.40625 46.390625 
L 45.40625 75.984375 
L 54.390625 75.984375 
L 54.390625 0 
L 45.40625 0 
L 45.40625 8.203125 
Q 42.578125 3.328125 38.25 0.953125 
Q 33.9375 -1.421875 27.875 -1.421875 
Q 17.96875 -1.421875 11.734375 6.484375 
Q 5.515625 14.40625 5.515625 27.296875 
Q 5.515625 40.1875 11.734375 48.09375 
Q 17.96875 56 27.875 56 
Q 33.9375 56 38.25 53.625 
Q 42.578125 51.265625 45.40625 46.390625 
z
M 14.796875 27.296875 
Q 14.796875 17.390625 18.875 11.75 
Q 22.953125 6.109375 30.078125 6.109375 
Q 37.203125 6.109375 41.296875 11.75 
Q 45.40625 17.390625 45.40625 27.296875 
Q 45.40625 37.203125 41.296875 42.84375 
Q 37.203125 48.484375 30.078125 48.484375 
Q 22.953125 48.484375 18.875 42.84375 
Q 14.796875 37.203125 14.796875 27.296875 
z
" id="DejaVuSans-100"/>
      <path d="M 45.40625 27.984375 
Q 45.40625 37.75 41.375 43.109375 
Q 37.359375 48.484375 30.078125 48.484375 
Q 22.859375 48.484375 18.828125 43.109375 
Q 14.796875 37.75 14.796875 27.984375 
Q 14.796875 18.265625 18.828125 12.890625 
Q 22.859375 7.515625 30.078125 7.515625 
Q 37.359375 7.515625 41.375 12.890625 
Q 45.40625 18.265625 45.40625 27.984375 
z
M 54.390625 6.78125 
Q 54.390625 -7.171875 48.1875 -13.984375 
Q 42 -20.796875 29.203125 -20.796875 
Q 24.46875 -20.796875 20.265625 -20.09375 
Q 16.0625 -19.390625 12.109375 -17.921875 
L 12.109375 -9.1875 
Q 16.0625 -11.328125 19.921875 -12.34375 
Q 23.78125 -13.375 27.78125 -13.375 
Q 36.625 -13.375 41.015625 -8.765625 
Q 45.40625 -4.15625 45.40625 5.171875 
L 45.40625 9.625 
Q 42.625 4.78125 38.28125 2.390625 
Q 33.9375 0 27.875 0 
Q 17.828125 0 11.671875 7.65625 
Q 5.515625 15.328125 5.515625 27.984375 
Q 5.515625 40.671875 11.671875 48.328125 
Q 17.828125 56 27.875 56 
Q 33.9375 56 38.28125 53.609375 
Q 42.625 51.21875 45.40625 46.390625 
L 45.40625 54.6875 
L 54.390625 54.6875 
z
" id="DejaVuSans-103"/>
      <path d="M 52 44.1875 
Q 55.375 50.25 60.0625 53.125 
Q 64.75 56 71.09375 56 
Q 79.640625 56 84.28125 50.015625 
Q 88.921875 44.046875 88.921875 33.015625 
L 88.921875 0 
L 79.890625 0 
L 79.890625 32.71875 
Q 79.890625 40.578125 77.09375 44.375 
Q 74.3125 48.1875 68.609375 48.1875 
Q 61.625 48.1875 57.5625 43.546875 
Q 53.515625 38.921875 53.515625 30.90625 
L 53.515625 0 
L 44.484375 0 
L 44.484375 32.71875 
Q 44.484375 40.625 41.703125 44.40625 
Q 38.921875 48.1875 33.109375 48.1875 
Q 26.21875 48.1875 22.15625 43.53125 
Q 18.109375 38.875 18.109375 30.90625 
L 18.109375 0 
L 9.078125 0 
L 9.078125 54.6875 
L 18.109375 54.6875 
L 18.109375 46.1875 
Q 21.1875 51.21875 25.484375 53.609375 
Q 29.78125 56 35.6875 56 
Q 41.65625 56 45.828125 52.96875 
Q 50 49.953125 52 44.1875 
z
" id="DejaVuSans-109"/>
      <path d="M 44.28125 53.078125 
L 44.28125 44.578125 
Q 40.484375 46.53125 36.375 47.5 
Q 32.28125 48.484375 27.875 48.484375 
Q 21.1875 48.484375 17.84375 46.4375 
Q 14.5 44.390625 14.5 40.28125 
Q 14.5 37.15625 16.890625 35.375 
Q 19.28125 33.59375 26.515625 31.984375 
L 29.59375 31.296875 
Q 39.15625 29.25 43.1875 25.515625 
Q 47.21875 21.78125 47.21875 15.09375 
Q 47.21875 7.46875 41.1875 3.015625 
Q 35.15625 -1.421875 24.609375 -1.421875 
Q 20.21875 -1.421875 15.453125 -0.5625 
Q 10.6875 0.296875 5.421875 2 
L 5.421875 11.28125 
Q 10.40625 8.6875 15.234375 7.390625 
Q 20.0625 6.109375 24.8125 6.109375 
Q 31.15625 6.109375 34.5625 8.28125 
Q 37.984375 10.453125 37.984375 14.40625 
Q 37.984375 18.0625 35.515625 20.015625 
Q 33.0625 21.96875 24.703125 23.78125 
L 21.578125 24.515625 
Q 13.234375 26.265625 9.515625 29.90625 
Q 5.8125 33.546875 5.8125 39.890625 
Q 5.8125 47.609375 11.28125 51.796875 
Q 16.75 56 26.8125 56 
Q 31.78125 56 36.171875 55.265625 
Q 40.578125 54.546875 44.28125 53.078125 
z
" id="DejaVuSans-115"/>
     </defs>
     <g transform="translate(20.877187 356.302788)rotate(-90)scale(0.18 -0.18)">
      <use xlink:href="#DejaVuSans-77"/>
      <use x="86.279297" xlink:href="#DejaVuSans-101"/>
      <use x="147.802734" xlink:href="#DejaVuSans-97"/>
      <use x="209.082031" xlink:href="#DejaVuSans-110"/>
      <use x="272.460938" xlink:href="#DejaVuSans-32"/>
      <use x="304.248047" xlink:href="#DejaVuSans-98"/>
      <use x="367.724609" xlink:href="#DejaVuSans-105"/>
      <use x="395.507812" xlink:href="#DejaVuSans-110"/>
      <use x="458.886719" xlink:href="#DejaVuSans-100"/>
      <use x="522.363281" xlink:href="#DejaVuSans-105"/>
      <use x="550.146484" xlink:href="#DejaVuSans-110"/>
      <use x="613.525391" xlink:href="#DejaVuSans-103"/>
      <use x="677.001953" xlink:href="#DejaVuSans-32"/>
      <use x="708.789062" xlink:href="#DejaVuSans-109"/>
      <use x="806.201172" xlink:href="#DejaVuSans-111"/>
      <use x="867.382812" xlink:href="#DejaVuSans-116"/>
      <use x="906.591797" xlink:href="#DejaVuSans-111"/>
      <use x="967.773438" xlink:href="#DejaVuSans-114"/>
      <use x="1008.886719" xlink:href="#DejaVuSans-115"/>
     </g>
    </g>
   </g>
   <g id="LineCollection_1">
    <path clip-path="url(#pc4f87d5cbc)" d="M 129.680492 468.694185 
L 129.680492 451.702945 
" style="fill:none;stroke:#008000;stroke-width:1.5;"/>
    <path clip-path="url(#pc4f87d5cbc)" d="M 180.754033 443.471294 
L 180.754033 419.827208 
" style="fill:none;stroke:#008000;stroke-width:1.5;"/>
    <path clip-path="url(#pc4f87d5cbc)" d="M 231.827575 425.061641 
L 231.827575 398.97169 
" style="fill:none;stroke:#008000;stroke-width:1.5;"/>
    <path clip-path="url(#pc4f87d5cbc)" d="M 282.901117 390.757151 
L 282.901117 358.549257 
" style="fill:none;stroke:#008000;stroke-width:1.5;"/>
    <path clip-path="url(#pc4f87d5cbc)" d="M 333.974658 374.498518 
L 333.974658 334.201265 
" style="fill:none;stroke:#008000;stroke-width:1.5;"/>
    <path clip-path="url(#pc4f87d5cbc)" d="M 385.0482 363.147894 
L 385.0482 315.045629 
" style="fill:none;stroke:#008000;stroke-width:1.5;"/>
    <path clip-path="url(#pc4f87d5cbc)" d="M 436.121742 360.074452 
L 436.121742 303.505105 
" style="fill:none;stroke:#008000;stroke-width:1.5;"/>
    <path clip-path="url(#pc4f87d5cbc)" d="M 487.195283 378.561139 
L 487.195283 322.894788 
" style="fill:none;stroke:#008000;stroke-width:1.5;"/>
    <path clip-path="url(#pc4f87d5cbc)" d="M 538.268825 400.055865 
L 538.268825 355.468581 
" style="fill:none;stroke:#008000;stroke-width:1.5;"/>
    <path clip-path="url(#pc4f87d5cbc)" d="M 589.342367 409.750076 
L 589.342367 370.709647 
" style="fill:none;stroke:#008000;stroke-width:1.5;"/>
   </g>
   <g id="LineCollection_2">
    <path clip-path="url(#pc4f87d5cbc)" d="M 129.680492 157.670485 
L 129.680492 127.35053 
" style="fill:none;stroke:#0000ff;stroke-width:1.5;"/>
    <path clip-path="url(#pc4f87d5cbc)" d="M 180.754033 191.541812 
L 180.754033 156.464451 
" style="fill:none;stroke:#0000ff;stroke-width:1.5;"/>
    <path clip-path="url(#pc4f87d5cbc)" d="M 231.827575 209.347067 
L 231.827575 177.719203 
" style="fill:none;stroke:#0000ff;stroke-width:1.5;"/>
    <path clip-path="url(#pc4f87d5cbc)" d="M 282.901117 270.248556 
L 282.901117 226.943262 
" style="fill:none;stroke:#0000ff;stroke-width:1.5;"/>
    <path clip-path="url(#pc4f87d5cbc)" d="M 333.974658 303.084455 
L 333.974658 244.498717 
" style="fill:none;stroke:#0000ff;stroke-width:1.5;"/>
    <path clip-path="url(#pc4f87d5cbc)" d="M 385.0482 371.280027 
L 385.0482 291.573566 
" style="fill:none;stroke:#0000ff;stroke-width:1.5;"/>
    <path clip-path="url(#pc4f87d5cbc)" d="M 436.121742 407.062335 
L 436.121742 327.519634 
" style="fill:none;stroke:#0000ff;stroke-width:1.5;"/>
    <path clip-path="url(#pc4f87d5cbc)" d="M 487.195283 457.810194 
L 487.195283 400.548597 
" style="fill:none;stroke:#0000ff;stroke-width:1.5;"/>
    <path clip-path="url(#pc4f87d5cbc)" d="M 538.268825 484.546359 
L 538.268825 461.243721 
" style="fill:none;stroke:#0000ff;stroke-width:1.5;"/>
    <path clip-path="url(#pc4f87d5cbc)" d="M 589.342367 488.440134 
L 589.342367 488.440134 
" style="fill:none;stroke:#0000ff;stroke-width:1.5;"/>
   </g>
   <g id="LineCollection_3">
    <path clip-path="url(#pc4f87d5cbc)" d="M 129.680492 475.024819 
L 129.680492 460.570205 
" style="fill:none;stroke:#008000;stroke-width:1.5;"/>
    <path clip-path="url(#pc4f87d5cbc)" d="M 180.754033 441.254506 
L 180.754033 416.646613 
" style="fill:none;stroke:#008000;stroke-width:1.5;"/>
    <path clip-path="url(#pc4f87d5cbc)" d="M 231.827575 403.536589 
L 231.827575 376.465461 
" style="fill:none;stroke:#008000;stroke-width:1.5;"/>
    <path clip-path="url(#pc4f87d5cbc)" d="M 282.901117 394.761475 
L 282.901117 360.620935 
" style="fill:none;stroke:#008000;stroke-width:1.5;"/>
    <path clip-path="url(#pc4f87d5cbc)" d="M 333.974658 363.433627 
L 333.974658 319.178806 
" style="fill:none;stroke:#008000;stroke-width:1.5;"/>
    <path clip-path="url(#pc4f87d5cbc)" d="M 385.0482 365.469405 
L 385.0482 315.186082 
" style="fill:none;stroke:#008000;stroke-width:1.5;"/>
    <path clip-path="url(#pc4f87d5cbc)" d="M 436.121742 365.726852 
L 436.121742 314.250016 
" style="fill:none;stroke:#008000;stroke-width:1.5;"/>
    <path clip-path="url(#pc4f87d5cbc)" d="M 487.195283 375.464323 
L 487.195283 318.889785 
" style="fill:none;stroke:#008000;stroke-width:1.5;"/>
    <path clip-path="url(#pc4f87d5cbc)" d="M 538.268825 402.651143 
L 538.268825 354.009594 
" style="fill:none;stroke:#008000;stroke-width:1.5;"/>
    <path clip-path="url(#pc4f87d5cbc)" d="M 589.342367 411.102601 
L 589.342367 373.712905 
" style="fill:none;stroke:#008000;stroke-width:1.5;"/>
   </g>
   <g id="LineCollection_4">
    <path clip-path="url(#pc4f87d5cbc)" d="M 129.680492 133.380689 
L 129.680492 105.446937 
" style="fill:none;stroke:#0000ff;stroke-width:1.5;"/>
    <path clip-path="url(#pc4f87d5cbc)" d="M 180.754033 191.454658 
L 180.754033 155.28906 
" style="fill:none;stroke:#0000ff;stroke-width:1.5;"/>
    <path clip-path="url(#pc4f87d5cbc)" d="M 231.827575 236.225275 
L 231.827575 205.982678 
" style="fill:none;stroke:#0000ff;stroke-width:1.5;"/>
    <path clip-path="url(#pc4f87d5cbc)" d="M 282.901117 267.096503 
L 282.901117 222.930367 
" style="fill:none;stroke:#0000ff;stroke-width:1.5;"/>
    <path clip-path="url(#pc4f87d5cbc)" d="M 333.974658 333.274451 
L 333.974658 265.504948 
" style="fill:none;stroke:#0000ff;stroke-width:1.5;"/>
    <path clip-path="url(#pc4f87d5cbc)" d="M 385.0482 353.795612 
L 385.0482 282.686558 
" style="fill:none;stroke:#0000ff;stroke-width:1.5;"/>
    <path clip-path="url(#pc4f87d5cbc)" d="M 436.121742 415.917877 
L 436.121742 336.813187 
" style="fill:none;stroke:#0000ff;stroke-width:1.5;"/>
    <path clip-path="url(#pc4f87d5cbc)" d="M 487.195283 454.957434 
L 487.195283 392.811756 
" style="fill:none;stroke:#0000ff;stroke-width:1.5;"/>
    <path clip-path="url(#pc4f87d5cbc)" d="M 538.268825 483.679649 
L 538.268825 456.55523 
" style="fill:none;stroke:#0000ff;stroke-width:1.5;"/>
    <path clip-path="url(#pc4f87d5cbc)" d="M 589.342367 488.440134 
L 589.342367 488.440134 
" style="fill:none;stroke:#0000ff;stroke-width:1.5;"/>
   </g>
   <g id="line2d_15">
    <defs>
     <path d="M 3 0 
L -3 -0 
" id="m02ef5266a4" style="stroke:#008000;"/>
    </defs>
    <g clip-path="url(#pc4f87d5cbc)">
     <use style="fill:#008000;stroke:#008000;" x="129.680492" xlink:href="#m02ef5266a4" y="468.694185"/>
     <use style="fill:#008000;stroke:#008000;" x="180.754033" xlink:href="#m02ef5266a4" y="443.471294"/>
     <use style="fill:#008000;stroke:#008000;" x="231.827575" xlink:href="#m02ef5266a4" y="425.061641"/>
     <use style="fill:#008000;stroke:#008000;" x="282.901117" xlink:href="#m02ef5266a4" y="390.757151"/>
     <use style="fill:#008000;stroke:#008000;" x="333.974658" xlink:href="#m02ef5266a4" y="374.498518"/>
     <use style="fill:#008000;stroke:#008000;" x="385.0482" xlink:href="#m02ef5266a4" y="363.147894"/>
     <use style="fill:#008000;stroke:#008000;" x="436.121742" xlink:href="#m02ef5266a4" y="360.074452"/>
     <use style="fill:#008000;stroke:#008000;" x="487.195283" xlink:href="#m02ef5266a4" y="378.561139"/>
     <use style="fill:#008000;stroke:#008000;" x="538.268825" xlink:href="#m02ef5266a4" y="400.055865"/>
     <use style="fill:#008000;stroke:#008000;" x="589.342367" xlink:href="#m02ef5266a4" y="409.750076"/>
    </g>
   </g>
   <g id="line2d_16">
    <g clip-path="url(#pc4f87d5cbc)">
     <use style="fill:#008000;stroke:#008000;" x="129.680492" xlink:href="#m02ef5266a4" y="451.702945"/>
     <use style="fill:#008000;stroke:#008000;" x="180.754033" xlink:href="#m02ef5266a4" y="419.827208"/>
     <use style="fill:#008000;stroke:#008000;" x="231.827575" xlink:href="#m02ef5266a4" y="398.97169"/>
     <use style="fill:#008000;stroke:#008000;" x="282.901117" xlink:href="#m02ef5266a4" y="358.549257"/>
     <use style="fill:#008000;stroke:#008000;" x="333.974658" xlink:href="#m02ef5266a4" y="334.201265"/>
     <use style="fill:#008000;stroke:#008000;" x="385.0482" xlink:href="#m02ef5266a4" y="315.045629"/>
     <use style="fill:#008000;stroke:#008000;" x="436.121742" xlink:href="#m02ef5266a4" y="303.505105"/>
     <use style="fill:#008000;stroke:#008000;" x="487.195283" xlink:href="#m02ef5266a4" y="322.894788"/>
     <use style="fill:#008000;stroke:#008000;" x="538.268825" xlink:href="#m02ef5266a4" y="355.468581"/>
     <use style="fill:#008000;stroke:#008000;" x="589.342367" xlink:href="#m02ef5266a4" y="370.709647"/>
    </g>
   </g>
   <g id="line2d_17">
    <defs>
     <path d="M 3 0 
L -3 -0 
" id="m1c1f383d16" style="stroke:#0000ff;"/>
    </defs>
    <g clip-path="url(#pc4f87d5cbc)">
     <use style="fill:#0000ff;stroke:#0000ff;" x="129.680492" xlink:href="#m1c1f383d16" y="157.670485"/>
     <use style="fill:#0000ff;stroke:#0000ff;" x="180.754033" xlink:href="#m1c1f383d16" y="191.541812"/>
     <use style="fill:#0000ff;stroke:#0000ff;" x="231.827575" xlink:href="#m1c1f383d16" y="209.347067"/>
     <use style="fill:#0000ff;stroke:#0000ff;" x="282.901117" xlink:href="#m1c1f383d16" y="270.248556"/>
     <use style="fill:#0000ff;stroke:#0000ff;" x="333.974658" xlink:href="#m1c1f383d16" y="303.084455"/>
     <use style="fill:#0000ff;stroke:#0000ff;" x="385.0482" xlink:href="#m1c1f383d16" y="371.280027"/>
     <use style="fill:#0000ff;stroke:#0000ff;" x="436.121742" xlink:href="#m1c1f383d16" y="407.062335"/>
     <use style="fill:#0000ff;stroke:#0000ff;" x="487.195283" xlink:href="#m1c1f383d16" y="457.810194"/>
     <use style="fill:#0000ff;stroke:#0000ff;" x="538.268825" xlink:href="#m1c1f383d16" y="484.546359"/>
     <use style="fill:#0000ff;stroke:#0000ff;" x="589.342367" xlink:href="#m1c1f383d16" y="488.440134"/>
    </g>
   </g>
   <g id="line2d_18">
    <g clip-path="url(#pc4f87d5cbc)">
     <use style="fill:#0000ff;stroke:#0000ff;" x="129.680492" xlink:href="#m1c1f383d16" y="127.35053"/>
     <use style="fill:#0000ff;stroke:#0000ff;" x="180.754033" xlink:href="#m1c1f383d16" y="156.464451"/>
     <use style="fill:#0000ff;stroke:#0000ff;" x="231.827575" xlink:href="#m1c1f383d16" y="177.719203"/>
     <use style="fill:#0000ff;stroke:#0000ff;" x="282.901117" xlink:href="#m1c1f383d16" y="226.943262"/>
     <use style="fill:#0000ff;stroke:#0000ff;" x="333.974658" xlink:href="#m1c1f383d16" y="244.498717"/>
     <use style="fill:#0000ff;stroke:#0000ff;" x="385.0482" xlink:href="#m1c1f383d16" y="291.573566"/>
     <use style="fill:#0000ff;stroke:#0000ff;" x="436.121742" xlink:href="#m1c1f383d16" y="327.519634"/>
     <use style="fill:#0000ff;stroke:#0000ff;" x="487.195283" xlink:href="#m1c1f383d16" y="400.548597"/>
     <use style="fill:#0000ff;stroke:#0000ff;" x="538.268825" xlink:href="#m1c1f383d16" y="461.243721"/>
     <use style="fill:#0000ff;stroke:#0000ff;" x="589.342367" xlink:href="#m1c1f383d16" y="488.440134"/>
    </g>
   </g>
   <g id="line2d_19">
    <g clip-path="url(#pc4f87d5cbc)">
     <use style="fill:#008000;stroke:#008000;" x="129.680492" xlink:href="#m02ef5266a4" y="475.024819"/>
     <use style="fill:#008000;stroke:#008000;" x="180.754033" xlink:href="#m02ef5266a4" y="441.254506"/>
     <use style="fill:#008000;stroke:#008000;" x="231.827575" xlink:href="#m02ef5266a4" y="403.536589"/>
     <use style="fill:#008000;stroke:#008000;" x="282.901117" xlink:href="#m02ef5266a4" y="394.761475"/>
     <use style="fill:#008000;stroke:#008000;" x="333.974658" xlink:href="#m02ef5266a4" y="363.433627"/>
     <use style="fill:#008000;stroke:#008000;" x="385.0482" xlink:href="#m02ef5266a4" y="365.469405"/>
     <use style="fill:#008000;stroke:#008000;" x="436.121742" xlink:href="#m02ef5266a4" y="365.726852"/>
     <use style="fill:#008000;stroke:#008000;" x="487.195283" xlink:href="#m02ef5266a4" y="375.464323"/>
     <use style="fill:#008000;stroke:#008000;" x="538.268825" xlink:href="#m02ef5266a4" y="402.651143"/>
     <use style="fill:#008000;stroke:#008000;" x="589.342367" xlink:href="#m02ef5266a4" y="411.102601"/>
    </g>
   </g>
   <g id="line2d_20">
    <g clip-path="url(#pc4f87d5cbc)">
     <use style="fill:#008000;stroke:#008000;" x="129.680492" xlink:href="#m02ef5266a4" y="460.570205"/>
     <use style="fill:#008000;stroke:#008000;" x="180.754033" xlink:href="#m02ef5266a4" y="416.646613"/>
     <use style="fill:#008000;stroke:#008000;" x="231.827575" xlink:href="#m02ef5266a4" y="376.465461"/>
     <use style="fill:#008000;stroke:#008000;" x="282.901117" xlink:href="#m02ef5266a4" y="360.620935"/>
     <use style="fill:#008000;stroke:#008000;" x="333.974658" xlink:href="#m02ef5266a4" y="319.178806"/>
     <use style="fill:#008000;stroke:#008000;" x="385.0482" xlink:href="#m02ef5266a4" y="315.186082"/>
     <use style="fill:#008000;stroke:#008000;" x="436.121742" xlink:href="#m02ef5266a4" y="314.250016"/>
     <use style="fill:#008000;stroke:#008000;" x="487.195283" xlink:href="#m02ef5266a4" y="318.889785"/>
     <use style="fill:#008000;stroke:#008000;" x="538.268825" xlink:href="#m02ef5266a4" y="354.009594"/>
     <use style="fill:#008000;stroke:#008000;" x="589.342367" xlink:href="#m02ef5266a4" y="373.712905"/>
    </g>
   </g>
   <g id="line2d_21">
    <g clip-path="url(#pc4f87d5cbc)">
     <use style="fill:#0000ff;stroke:#0000ff;" x="129.680492" xlink:href="#m1c1f383d16" y="133.380689"/>
     <use style="fill:#0000ff;stroke:#0000ff;" x="180.754033" xlink:href="#m1c1f383d16" y="191.454658"/>
     <use style="fill:#0000ff;stroke:#0000ff;" x="231.827575" xlink:href="#m1c1f383d16" y="236.225275"/>
     <use style="fill:#0000ff;stroke:#0000ff;" x="282.901117" xlink:href="#m1c1f383d16" y="267.096503"/>
     <use style="fill:#0000ff;stroke:#0000ff;" x="333.974658" xlink:href="#m1c1f383d16" y="333.274451"/>
     <use style="fill:#0000ff;stroke:#0000ff;" x="385.0482" xlink:href="#m1c1f383d16" y="353.795612"/>
     <use style="fill:#0000ff;stroke:#0000ff;" x="436.121742" xlink:href="#m1c1f383d16" y="415.917877"/>
     <use style="fill:#0000ff;stroke:#0000ff;" x="487.195283" xlink:href="#m1c1f383d16" y="454.957434"/>
     <use style="fill:#0000ff;stroke:#0000ff;" x="538.268825" xlink:href="#m1c1f383d16" y="483.679649"/>
     <use style="fill:#0000ff;stroke:#0000ff;" x="589.342367" xlink:href="#m1c1f383d16" y="488.440134"/>
    </g>
   </g>
   <g id="line2d_22">
    <g clip-path="url(#pc4f87d5cbc)">
     <use style="fill:#0000ff;stroke:#0000ff;" x="129.680492" xlink:href="#m1c1f383d16" y="105.446937"/>
     <use style="fill:#0000ff;stroke:#0000ff;" x="180.754033" xlink:href="#m1c1f383d16" y="155.28906"/>
     <use style="fill:#0000ff;stroke:#0000ff;" x="231.827575" xlink:href="#m1c1f383d16" y="205.982678"/>
     <use style="fill:#0000ff;stroke:#0000ff;" x="282.901117" xlink:href="#m1c1f383d16" y="222.930367"/>
     <use style="fill:#0000ff;stroke:#0000ff;" x="333.974658" xlink:href="#m1c1f383d16" y="265.504948"/>
     <use style="fill:#0000ff;stroke:#0000ff;" x="385.0482" xlink:href="#m1c1f383d16" y="282.686558"/>
     <use style="fill:#0000ff;stroke:#0000ff;" x="436.121742" xlink:href="#m1c1f383d16" y="336.813187"/>
     <use style="fill:#0000ff;stroke:#0000ff;" x="487.195283" xlink:href="#m1c1f383d16" y="392.811756"/>
     <use style="fill:#0000ff;stroke:#0000ff;" x="538.268825" xlink:href="#m1c1f383d16" y="456.55523"/>
     <use style="fill:#0000ff;stroke:#0000ff;" x="589.342367" xlink:href="#m1c1f383d16" y="488.440134"/>
    </g>
   </g>
   <g id="line2d_23">
    <path clip-path="url(#pc4f87d5cbc)" d="M 129.680492 460.198565 
L 180.754033 431.649251 
L 231.827575 412.016666 
L 282.901117 374.653204 
L 333.974658 354.349892 
L 385.0482 339.096761 
L 436.121742 331.789778 
L 487.195283 350.727964 
L 538.268825 377.762223 
L 589.342367 390.229862 
" style="fill:none;stroke:#008000;stroke-dasharray:5.55,2.4;stroke-dashoffset:0;stroke-width:1.5;"/>
    <defs>
     <path d="M 0 3 
C 0.795609 3 1.55874 2.683901 2.12132 2.12132 
C 2.683901 1.55874 3 0.795609 3 0 
C 3 -0.795609 2.683901 -1.55874 2.12132 -2.12132 
C 1.55874 -2.683901 0.795609 -3 0 -3 
C -0.795609 -3 -1.55874 -2.683901 -2.12132 -2.12132 
C -2.683901 -1.55874 -3 -0.795609 -3 0 
C -3 0.795609 -2.683901 1.55874 -2.12132 2.12132 
C -1.55874 2.683901 -0.795609 3 0 3 
z
" id="m3fe3b558e2" style="stroke:#008000;"/>
    </defs>
    <g clip-path="url(#pc4f87d5cbc)">
     <use style="fill:#008000;stroke:#008000;" x="129.680492" xlink:href="#m3fe3b558e2" y="460.198565"/>
     <use style="fill:#008000;stroke:#008000;" x="180.754033" xlink:href="#m3fe3b558e2" y="431.649251"/>
     <use style="fill:#008000;stroke:#008000;" x="231.827575" xlink:href="#m3fe3b558e2" y="412.016666"/>
     <use style="fill:#008000;stroke:#008000;" x="282.901117" xlink:href="#m3fe3b558e2" y="374.653204"/>
     <use style="fill:#008000;stroke:#008000;" x="333.974658" xlink:href="#m3fe3b558e2" y="354.349892"/>
     <use style="fill:#008000;stroke:#008000;" x="385.0482" xlink:href="#m3fe3b558e2" y="339.096761"/>
     <use style="fill:#008000;stroke:#008000;" x="436.121742" xlink:href="#m3fe3b558e2" y="331.789778"/>
     <use style="fill:#008000;stroke:#008000;" x="487.195283" xlink:href="#m3fe3b558e2" y="350.727964"/>
     <use style="fill:#008000;stroke:#008000;" x="538.268825" xlink:href="#m3fe3b558e2" y="377.762223"/>
     <use style="fill:#008000;stroke:#008000;" x="589.342367" xlink:href="#m3fe3b558e2" y="390.229862"/>
    </g>
   </g>
   <g id="line2d_24">
    <path clip-path="url(#pc4f87d5cbc)" d="M 129.680492 142.510508 
L 180.754033 174.003132 
L 231.827575 193.533135 
L 282.901117 248.595909 
L 333.974658 273.791586 
L 385.0482 331.426796 
L 436.121742 367.290985 
L 487.195283 429.179396 
L 538.268825 472.89504 
L 589.342367 488.440134 
" style="fill:none;stroke:#0000ff;stroke-dasharray:5.55,2.4;stroke-dashoffset:0;stroke-width:1.5;"/>
    <defs>
     <path d="M 0 3 
C 0.795609 3 1.55874 2.683901 2.12132 2.12132 
C 2.683901 1.55874 3 0.795609 3 0 
C 3 -0.795609 2.683901 -1.55874 2.12132 -2.12132 
C 1.55874 -2.683901 0.795609 -3 0 -3 
C -0.795609 -3 -1.55874 -2.683901 -2.12132 -2.12132 
C -2.683901 -1.55874 -3 -0.795609 -3 0 
C -3 0.795609 -2.683901 1.55874 -2.12132 2.12132 
C -1.55874 2.683901 -0.795609 3 0 3 
z
" id="m0b4be38eaf" style="stroke:#0000ff;"/>
    </defs>
    <g clip-path="url(#pc4f87d5cbc)">
     <use style="fill:#0000ff;stroke:#0000ff;" x="129.680492" xlink:href="#m0b4be38eaf" y="142.510508"/>
     <use style="fill:#0000ff;stroke:#0000ff;" x="180.754033" xlink:href="#m0b4be38eaf" y="174.003132"/>
     <use style="fill:#0000ff;stroke:#0000ff;" x="231.827575" xlink:href="#m0b4be38eaf" y="193.533135"/>
     <use style="fill:#0000ff;stroke:#0000ff;" x="282.901117" xlink:href="#m0b4be38eaf" y="248.595909"/>
     <use style="fill:#0000ff;stroke:#0000ff;" x="333.974658" xlink:href="#m0b4be38eaf" y="273.791586"/>
     <use style="fill:#0000ff;stroke:#0000ff;" x="385.0482" xlink:href="#m0b4be38eaf" y="331.426796"/>
     <use style="fill:#0000ff;stroke:#0000ff;" x="436.121742" xlink:href="#m0b4be38eaf" y="367.290985"/>
     <use style="fill:#0000ff;stroke:#0000ff;" x="487.195283" xlink:href="#m0b4be38eaf" y="429.179396"/>
     <use style="fill:#0000ff;stroke:#0000ff;" x="538.268825" xlink:href="#m0b4be38eaf" y="472.89504"/>
     <use style="fill:#0000ff;stroke:#0000ff;" x="589.342367" xlink:href="#m0b4be38eaf" y="488.440134"/>
    </g>
   </g>
   <g id="line2d_25">
    <path clip-path="url(#pc4f87d5cbc)" d="M 129.680492 467.797512 
L 180.754033 428.95056 
L 231.827575 390.001025 
L 282.901117 377.691205 
L 333.974658 341.306216 
L 385.0482 340.327744 
L 436.121742 339.988434 
L 487.195283 347.177054 
L 538.268825 378.330369 
L 589.342367 392.407753 
" style="fill:none;stroke:#008000;stroke-dasharray:5.55,2.4;stroke-dashoffset:0;stroke-width:1.5;"/>
    <g clip-path="url(#pc4f87d5cbc)">
     <use style="fill:#008000;stroke:#008000;" x="129.680492" xlink:href="#m3fe3b558e2" y="467.797512"/>
     <use style="fill:#008000;stroke:#008000;" x="180.754033" xlink:href="#m3fe3b558e2" y="428.95056"/>
     <use style="fill:#008000;stroke:#008000;" x="231.827575" xlink:href="#m3fe3b558e2" y="390.001025"/>
     <use style="fill:#008000;stroke:#008000;" x="282.901117" xlink:href="#m3fe3b558e2" y="377.691205"/>
     <use style="fill:#008000;stroke:#008000;" x="333.974658" xlink:href="#m3fe3b558e2" y="341.306216"/>
     <use style="fill:#008000;stroke:#008000;" x="385.0482" xlink:href="#m3fe3b558e2" y="340.327744"/>
     <use style="fill:#008000;stroke:#008000;" x="436.121742" xlink:href="#m3fe3b558e2" y="339.988434"/>
     <use style="fill:#008000;stroke:#008000;" x="487.195283" xlink:href="#m3fe3b558e2" y="347.177054"/>
     <use style="fill:#008000;stroke:#008000;" x="538.268825" xlink:href="#m3fe3b558e2" y="378.330369"/>
     <use style="fill:#008000;stroke:#008000;" x="589.342367" xlink:href="#m3fe3b558e2" y="392.407753"/>
    </g>
   </g>
   <g id="line2d_26">
    <path clip-path="url(#pc4f87d5cbc)" d="M 129.680492 119.413813 
L 180.754033 173.371859 
L 231.827575 221.103977 
L 282.901117 245.013435 
L 333.974658 299.3897 
L 385.0482 318.241085 
L 436.121742 376.365532 
L 487.195283 423.884595 
L 538.268825 470.11744 
L 589.342367 488.440134 
" style="fill:none;stroke:#0000ff;stroke-dasharray:5.55,2.4;stroke-dashoffset:0;stroke-width:1.5;"/>
    <g clip-path="url(#pc4f87d5cbc)">
     <use style="fill:#0000ff;stroke:#0000ff;" x="129.680492" xlink:href="#m0b4be38eaf" y="119.413813"/>
     <use style="fill:#0000ff;stroke:#0000ff;" x="180.754033" xlink:href="#m0b4be38eaf" y="173.371859"/>
     <use style="fill:#0000ff;stroke:#0000ff;" x="231.827575" xlink:href="#m0b4be38eaf" y="221.103977"/>
     <use style="fill:#0000ff;stroke:#0000ff;" x="282.901117" xlink:href="#m0b4be38eaf" y="245.013435"/>
     <use style="fill:#0000ff;stroke:#0000ff;" x="333.974658" xlink:href="#m0b4be38eaf" y="299.3897"/>
     <use style="fill:#0000ff;stroke:#0000ff;" x="385.0482" xlink:href="#m0b4be38eaf" y="318.241085"/>
     <use style="fill:#0000ff;stroke:#0000ff;" x="436.121742" xlink:href="#m0b4be38eaf" y="376.365532"/>
     <use style="fill:#0000ff;stroke:#0000ff;" x="487.195283" xlink:href="#m0b4be38eaf" y="423.884595"/>
     <use style="fill:#0000ff;stroke:#0000ff;" x="538.268825" xlink:href="#m0b4be38eaf" y="470.11744"/>
     <use style="fill:#0000ff;stroke:#0000ff;" x="589.342367" xlink:href="#m0b4be38eaf" y="488.440134"/>
    </g>
   </g>
   <g id="patch_3">
    <path d="M 72.478125 507.589794 
L 72.478125 14.038594 
" style="fill:none;stroke:#000000;stroke-linecap:square;stroke-linejoin:miter;stroke-width:0.8;"/>
   </g>
   <g id="patch_4">
    <path d="M 78.60695 512.525306 
L 691.48945 512.525306 
" style="fill:none;stroke:#000000;stroke-linecap:square;stroke-linejoin:miter;stroke-width:0.8;"/>
   </g>
   <g id="legend_1">
    <g id="patch_5">
     <path d="M 85.60695 51.394844 
L 157.291325 51.394844 
Q 159.291325 51.394844 159.291325 49.394844 
L 159.291325 21.038594 
Q 159.291325 19.038594 157.291325 19.038594 
L 85.60695 19.038594 
Q 83.60695 19.038594 83.60695 21.038594 
L 83.60695 49.394844 
Q 83.60695 51.394844 85.60695 51.394844 
z
" style="fill:#e5e5e5;opacity:0.8;stroke:#cccccc;stroke-linejoin:miter;stroke-width:0.5;"/>
    </g>
    <g id="LineCollection_5">
     <path d="M 97.60695 32.137031 
L 97.60695 22.137031 
" style="fill:none;stroke:#008000;stroke-width:1.5;"/>
    </g>
    <g id="line2d_27">
     <g>
      <use style="fill:#008000;stroke:#008000;" x="97.60695" xlink:href="#m02ef5266a4" y="32.137031"/>
     </g>
    </g>
    <g id="line2d_28">
     <g>
      <use style="fill:#008000;stroke:#008000;" x="97.60695" xlink:href="#m02ef5266a4" y="22.137031"/>
     </g>
    </g>
    <g id="line2d_29">
     <path d="M 87.60695 27.137031 
L 107.60695 27.137031 
" style="fill:none;stroke:#008000;stroke-dasharray:5.55,2.4;stroke-dashoffset:0;stroke-width:1.5;"/>
    </g>
    <g id="line2d_30">
     <g>
      <use style="fill:#008000;stroke:#008000;" x="97.60695" xlink:href="#m3fe3b558e2" y="27.137031"/>
     </g>
    </g>
    <g id="text_17">
     <!-- Active -->
     <defs>
      <path d="M 34.1875 63.1875 
L 20.796875 26.90625 
L 47.609375 26.90625 
z
M 28.609375 72.90625 
L 39.796875 72.90625 
L 67.578125 0 
L 57.328125 0 
L 50.6875 18.703125 
L 17.828125 18.703125 
L 11.1875 0 
L 0.78125 0 
z
" id="DejaVuSans-65"/>
      <path d="M 48.78125 52.59375 
L 48.78125 44.1875 
Q 44.96875 46.296875 41.140625 47.34375 
Q 37.3125 48.390625 33.40625 48.390625 
Q 24.65625 48.390625 19.8125 42.84375 
Q 14.984375 37.3125 14.984375 27.296875 
Q 14.984375 17.28125 19.8125 11.734375 
Q 24.65625 6.203125 33.40625 6.203125 
Q 37.3125 6.203125 41.140625 7.25 
Q 44.96875 8.296875 48.78125 10.40625 
L 48.78125 2.09375 
Q 45.015625 0.34375 40.984375 -0.53125 
Q 36.96875 -1.421875 32.421875 -1.421875 
Q 20.0625 -1.421875 12.78125 6.34375 
Q 5.515625 14.109375 5.515625 27.296875 
Q 5.515625 40.671875 12.859375 48.328125 
Q 20.21875 56 33.015625 56 
Q 37.15625 56 41.109375 55.140625 
Q 45.0625 54.296875 48.78125 52.59375 
z
" id="DejaVuSans-99"/>
      <path d="M 2.984375 54.6875 
L 12.5 54.6875 
L 29.59375 8.796875 
L 46.6875 54.6875 
L 56.203125 54.6875 
L 35.6875 0 
L 23.484375 0 
z
" id="DejaVuSans-118"/>
     </defs>
     <g transform="translate(115.60695 30.637031)scale(0.1 -0.1)">
      <use xlink:href="#DejaVuSans-65"/>
      <use x="68.392578" xlink:href="#DejaVuSans-99"/>
      <use x="123.373047" xlink:href="#DejaVuSans-116"/>
      <use x="162.582031" xlink:href="#DejaVuSans-105"/>
      <use x="190.365234" xlink:href="#DejaVuSans-118"/>
      <use x="249.544922" xlink:href="#DejaVuSans-101"/>
     </g>
    </g>
    <g id="LineCollection_6">
     <path d="M 97.60695 46.815156 
L 97.60695 36.815156 
" style="fill:none;stroke:#0000ff;stroke-width:1.5;"/>
    </g>
    <g id="line2d_31">
     <g>
      <use style="fill:#0000ff;stroke:#0000ff;" x="97.60695" xlink:href="#m1c1f383d16" y="46.815156"/>
     </g>
    </g>
    <g id="line2d_32">
     <g>
      <use style="fill:#0000ff;stroke:#0000ff;" x="97.60695" xlink:href="#m1c1f383d16" y="36.815156"/>
     </g>
    </g>
    <g id="line2d_33">
     <path d="M 87.60695 41.815156 
L 107.60695 41.815156 
" style="fill:none;stroke:#0000ff;stroke-dasharray:5.55,2.4;stroke-dashoffset:0;stroke-width:1.5;"/>
    </g>
    <g id="line2d_34">
     <g>
      <use style="fill:#0000ff;stroke:#0000ff;" x="97.60695" xlink:href="#m0b4be38eaf" y="41.815156"/>
     </g>
    </g>
    <g id="text_18">
     <!-- Inactive -->
     <defs>
      <path d="M 9.8125 72.90625 
L 19.671875 72.90625 
L 19.671875 0 
L 9.8125 0 
z
" id="DejaVuSans-73"/>
     </defs>
     <g transform="translate(115.60695 45.315156)scale(0.1 -0.1)">
      <use xlink:href="#DejaVuSans-73"/>
      <use x="29.492188" xlink:href="#DejaVuSans-110"/>
      <use x="92.871094" xlink:href="#DejaVuSans-97"/>
      <use x="154.150391" xlink:href="#DejaVuSans-99"/>
      <use x="209.130859" xlink:href="#DejaVuSans-116"/>
      <use x="248.339844" xlink:href="#DejaVuSans-105"/>
      <use x="276.123047" xlink:href="#DejaVuSans-118"/>
      <use x="335.302734" xlink:href="#DejaVuSans-101"/>
     </g>
    </g>
   </g>
  </g>
 </g>
 <defs>
  <clipPath id="pc4f87d5cbc">
   <rect height="493.5512" width="612.8825" x="78.60695" y="14.038594"/>
  </clipPath>
 </defs>
</svg>
