<?xml version="1.0" encoding="utf-8" standalone="no"?>
<!DOCTYPE svg PUBLIC "-//W3C//DTD SVG 1.1//EN"
  "http://www.w3.org/Graphics/SVG/1.1/DTD/svg11.dtd">
<!-- Created with matplotlib (https://matplotlib.org/) -->
<svg height="445.233437pt" version="1.1" viewBox="0 0 728.604687 445.233437" width="728.604687pt" xmlns="http://www.w3.org/2000/svg" xmlns:xlink="http://www.w3.org/1999/xlink">
 <defs>
  <style type="text/css">
*{stroke-linecap:butt;stroke-linejoin:round;}
  </style>
 </defs>
 <g id="figure_1">
  <g id="patch_1">
   <path d="M 0 445.233437 
L 728.604687 445.233437 
L 728.604687 0 
L 0 0 
z
" style="fill:#ffffff;"/>
  </g>
  <g id="axes_1">
   <g id="patch_2">
    <path d="M 51.804688 180.868125 
L 228.015214 180.868125 
L 228.015214 22.318125 
L 51.804688 22.318125 
z
" style="fill:#ffffff;"/>
   </g>
   <g id="matplotlib.axis_1">
    <g id="xtick_1">
     <g id="line2d_1">
      <defs>
       <path d="M 0 0 
L 0 3.5 
" id="mf2d232909f" style="stroke:#000000;stroke-width:0.8;"/>
      </defs>
      <g>
       <use style="stroke:#000000;stroke-width:0.8;" x="59.814257" xlink:href="#mf2d232909f" y="180.868125"/>
      </g>
     </g>
     <g id="text_1">
      <!-- 0 -->
      <defs>
       <path d="M 31.78125 66.40625 
Q 24.171875 66.40625 20.328125 58.90625 
Q 16.5 51.421875 16.5 36.375 
Q 16.5 21.390625 20.328125 13.890625 
Q 24.171875 6.390625 31.78125 6.390625 
Q 39.453125 6.390625 43.28125 13.890625 
Q 47.125 21.390625 47.125 36.375 
Q 47.125 51.421875 43.28125 58.90625 
Q 39.453125 66.40625 31.78125 66.40625 
z
M 31.78125 74.21875 
Q 44.046875 74.21875 50.515625 64.515625 
Q 56.984375 54.828125 56.984375 36.375 
Q 56.984375 17.96875 50.515625 8.265625 
Q 44.046875 -1.421875 31.78125 -1.421875 
Q 19.53125 -1.421875 13.0625 8.265625 
Q 6.59375 17.96875 6.59375 36.375 
Q 6.59375 54.828125 13.0625 64.515625 
Q 19.53125 74.21875 31.78125 74.21875 
z
" id="DejaVuSans-48"/>
      </defs>
      <g transform="translate(56.633007 195.466562)scale(0.1 -0.1)">
       <use xlink:href="#DejaVuSans-48"/>
      </g>
     </g>
    </g>
    <g id="xtick_2">
     <g id="line2d_2">
      <g>
       <use style="stroke:#000000;stroke-width:0.8;" x="91.852534" xlink:href="#mf2d232909f" y="180.868125"/>
      </g>
     </g>
     <g id="text_2">
      <!-- 1 -->
      <defs>
       <path d="M 12.40625 8.296875 
L 28.515625 8.296875 
L 28.515625 63.921875 
L 10.984375 60.40625 
L 10.984375 69.390625 
L 28.421875 72.90625 
L 38.28125 72.90625 
L 38.28125 8.296875 
L 54.390625 8.296875 
L 54.390625 0 
L 12.40625 0 
z
" id="DejaVuSans-49"/>
      </defs>
      <g transform="translate(88.671284 195.466562)scale(0.1 -0.1)">
       <use xlink:href="#DejaVuSans-49"/>
      </g>
     </g>
    </g>
    <g id="xtick_3">
     <g id="line2d_3">
      <g>
       <use style="stroke:#000000;stroke-width:0.8;" x="123.890812" xlink:href="#mf2d232909f" y="180.868125"/>
      </g>
     </g>
     <g id="text_3">
      <!-- 2 -->
      <defs>
       <path d="M 19.1875 8.296875 
L 53.609375 8.296875 
L 53.609375 0 
L 7.328125 0 
L 7.328125 8.296875 
Q 12.9375 14.109375 22.625 23.890625 
Q 32.328125 33.6875 34.8125 36.53125 
Q 39.546875 41.84375 41.421875 45.53125 
Q 43.3125 49.21875 43.3125 52.78125 
Q 43.3125 58.59375 39.234375 62.25 
Q 35.15625 65.921875 28.609375 65.921875 
Q 23.96875 65.921875 18.8125 64.3125 
Q 13.671875 62.703125 7.8125 59.421875 
L 7.8125 69.390625 
Q 13.765625 71.78125 18.9375 73 
Q 24.125 74.21875 28.421875 74.21875 
Q 39.75 74.21875 46.484375 68.546875 
Q 53.21875 62.890625 53.21875 53.421875 
Q 53.21875 48.921875 51.53125 44.890625 
Q 49.859375 40.875 45.40625 35.40625 
Q 44.1875 33.984375 37.640625 27.21875 
Q 31.109375 20.453125 19.1875 8.296875 
z
" id="DejaVuSans-50"/>
      </defs>
      <g transform="translate(120.709562 195.466562)scale(0.1 -0.1)">
       <use xlink:href="#DejaVuSans-50"/>
      </g>
     </g>
    </g>
    <g id="xtick_4">
     <g id="line2d_4">
      <g>
       <use style="stroke:#000000;stroke-width:0.8;" x="155.929089" xlink:href="#mf2d232909f" y="180.868125"/>
      </g>
     </g>
     <g id="text_4">
      <!-- 3 -->
      <defs>
       <path d="M 40.578125 39.3125 
Q 47.65625 37.796875 51.625 33 
Q 55.609375 28.21875 55.609375 21.1875 
Q 55.609375 10.40625 48.1875 4.484375 
Q 40.765625 -1.421875 27.09375 -1.421875 
Q 22.515625 -1.421875 17.65625 -0.515625 
Q 12.796875 0.390625 7.625 2.203125 
L 7.625 11.71875 
Q 11.71875 9.328125 16.59375 8.109375 
Q 21.484375 6.890625 26.8125 6.890625 
Q 36.078125 6.890625 40.9375 10.546875 
Q 45.796875 14.203125 45.796875 21.1875 
Q 45.796875 27.640625 41.28125 31.265625 
Q 36.765625 34.90625 28.71875 34.90625 
L 20.21875 34.90625 
L 20.21875 43.015625 
L 29.109375 43.015625 
Q 36.375 43.015625 40.234375 45.921875 
Q 44.09375 48.828125 44.09375 54.296875 
Q 44.09375 59.90625 40.109375 62.90625 
Q 36.140625 65.921875 28.71875 65.921875 
Q 24.65625 65.921875 20.015625 65.03125 
Q 15.375 64.15625 9.8125 62.3125 
L 9.8125 71.09375 
Q 15.4375 72.65625 20.34375 73.4375 
Q 25.25 74.21875 29.59375 74.21875 
Q 40.828125 74.21875 47.359375 69.109375 
Q 53.90625 64.015625 53.90625 55.328125 
Q 53.90625 49.265625 50.4375 45.09375 
Q 46.96875 40.921875 40.578125 39.3125 
z
" id="DejaVuSans-51"/>
      </defs>
      <g transform="translate(152.747839 195.466562)scale(0.1 -0.1)">
       <use xlink:href="#DejaVuSans-51"/>
      </g>
     </g>
    </g>
    <g id="xtick_5">
     <g id="line2d_5">
      <g>
       <use style="stroke:#000000;stroke-width:0.8;" x="187.967367" xlink:href="#mf2d232909f" y="180.868125"/>
      </g>
     </g>
     <g id="text_5">
      <!-- 4 -->
      <defs>
       <path d="M 37.796875 64.3125 
L 12.890625 25.390625 
L 37.796875 25.390625 
z
M 35.203125 72.90625 
L 47.609375 72.90625 
L 47.609375 25.390625 
L 58.015625 25.390625 
L 58.015625 17.1875 
L 47.609375 17.1875 
L 47.609375 0 
L 37.796875 0 
L 37.796875 17.1875 
L 4.890625 17.1875 
L 4.890625 26.703125 
z
" id="DejaVuSans-52"/>
      </defs>
      <g transform="translate(184.786117 195.466562)scale(0.1 -0.1)">
       <use xlink:href="#DejaVuSans-52"/>
      </g>
     </g>
    </g>
    <g id="xtick_6">
     <g id="line2d_6">
      <g>
       <use style="stroke:#000000;stroke-width:0.8;" x="220.005644" xlink:href="#mf2d232909f" y="180.868125"/>
      </g>
     </g>
     <g id="text_6">
      <!-- 5 -->
      <defs>
       <path d="M 10.796875 72.90625 
L 49.515625 72.90625 
L 49.515625 64.59375 
L 19.828125 64.59375 
L 19.828125 46.734375 
Q 21.96875 47.46875 24.109375 47.828125 
Q 26.265625 48.1875 28.421875 48.1875 
Q 40.625 48.1875 47.75 41.5 
Q 54.890625 34.8125 54.890625 23.390625 
Q 54.890625 11.625 47.5625 5.09375 
Q 40.234375 -1.421875 26.90625 -1.421875 
Q 22.3125 -1.421875 17.546875 -0.640625 
Q 12.796875 0.140625 7.71875 1.703125 
L 7.71875 11.625 
Q 12.109375 9.234375 16.796875 8.0625 
Q 21.484375 6.890625 26.703125 6.890625 
Q 35.15625 6.890625 40.078125 11.328125 
Q 45.015625 15.765625 45.015625 23.390625 
Q 45.015625 31 40.078125 35.4375 
Q 35.15625 39.890625 26.703125 39.890625 
Q 22.75 39.890625 18.8125 39.015625 
Q 14.890625 38.140625 10.796875 36.28125 
z
" id="DejaVuSans-53"/>
      </defs>
      <g transform="translate(216.824394 195.466562)scale(0.1 -0.1)">
       <use xlink:href="#DejaVuSans-53"/>
      </g>
     </g>
    </g>
   </g>
   <g id="matplotlib.axis_2">
    <g id="ytick_1">
     <g id="line2d_7">
      <defs>
       <path d="M 0 0 
L -3.5 0 
" id="ma16c1e5f24" style="stroke:#000000;stroke-width:0.8;"/>
      </defs>
      <g>
       <use style="stroke:#000000;stroke-width:0.8;" x="51.804688" xlink:href="#ma16c1e5f24" y="179.605074"/>
      </g>
     </g>
     <g id="text_7">
      <!-- 0 -->
      <g transform="translate(38.442188 183.404293)scale(0.1 -0.1)">
       <use xlink:href="#DejaVuSans-48"/>
      </g>
     </g>
    </g>
    <g id="ytick_2">
     <g id="line2d_8">
      <g>
       <use style="stroke:#000000;stroke-width:0.8;" x="51.804688" xlink:href="#ma16c1e5f24" y="149.886237"/>
      </g>
     </g>
     <g id="text_8">
      <!-- 20 -->
      <g transform="translate(32.079688 153.685455)scale(0.1 -0.1)">
       <use xlink:href="#DejaVuSans-50"/>
       <use x="63.623047" xlink:href="#DejaVuSans-48"/>
      </g>
     </g>
    </g>
    <g id="ytick_3">
     <g id="line2d_9">
      <g>
       <use style="stroke:#000000;stroke-width:0.8;" x="51.804688" xlink:href="#ma16c1e5f24" y="120.167399"/>
      </g>
     </g>
     <g id="text_9">
      <!-- 40 -->
      <g transform="translate(32.079688 123.966617)scale(0.1 -0.1)">
       <use xlink:href="#DejaVuSans-52"/>
       <use x="63.623047" xlink:href="#DejaVuSans-48"/>
      </g>
     </g>
    </g>
    <g id="ytick_4">
     <g id="line2d_10">
      <g>
       <use style="stroke:#000000;stroke-width:0.8;" x="51.804688" xlink:href="#ma16c1e5f24" y="90.448561"/>
      </g>
     </g>
     <g id="text_10">
      <!-- 60 -->
      <defs>
       <path d="M 33.015625 40.375 
Q 26.375 40.375 22.484375 35.828125 
Q 18.609375 31.296875 18.609375 23.390625 
Q 18.609375 15.53125 22.484375 10.953125 
Q 26.375 6.390625 33.015625 6.390625 
Q 39.65625 6.390625 43.53125 10.953125 
Q 47.40625 15.53125 47.40625 23.390625 
Q 47.40625 31.296875 43.53125 35.828125 
Q 39.65625 40.375 33.015625 40.375 
z
M 52.59375 71.296875 
L 52.59375 62.3125 
Q 48.875 64.0625 45.09375 64.984375 
Q 41.3125 65.921875 37.59375 65.921875 
Q 27.828125 65.921875 22.671875 59.328125 
Q 17.53125 52.734375 16.796875 39.40625 
Q 19.671875 43.65625 24.015625 45.921875 
Q 28.375 48.1875 33.59375 48.1875 
Q 44.578125 48.1875 50.953125 41.515625 
Q 57.328125 34.859375 57.328125 23.390625 
Q 57.328125 12.15625 50.6875 5.359375 
Q 44.046875 -1.421875 33.015625 -1.421875 
Q 20.359375 -1.421875 13.671875 8.265625 
Q 6.984375 17.96875 6.984375 36.375 
Q 6.984375 53.65625 15.1875 63.9375 
Q 23.390625 74.21875 37.203125 74.21875 
Q 40.921875 74.21875 44.703125 73.484375 
Q 48.484375 72.75 52.59375 71.296875 
z
" id="DejaVuSans-54"/>
      </defs>
      <g transform="translate(32.079688 94.24778)scale(0.1 -0.1)">
       <use xlink:href="#DejaVuSans-54"/>
       <use x="63.623047" xlink:href="#DejaVuSans-48"/>
      </g>
     </g>
    </g>
    <g id="ytick_5">
     <g id="line2d_11">
      <g>
       <use style="stroke:#000000;stroke-width:0.8;" x="51.804688" xlink:href="#ma16c1e5f24" y="60.729723"/>
      </g>
     </g>
     <g id="text_11">
      <!-- 80 -->
      <defs>
       <path d="M 31.78125 34.625 
Q 24.75 34.625 20.71875 30.859375 
Q 16.703125 27.09375 16.703125 20.515625 
Q 16.703125 13.921875 20.71875 10.15625 
Q 24.75 6.390625 31.78125 6.390625 
Q 38.8125 6.390625 42.859375 10.171875 
Q 46.921875 13.96875 46.921875 20.515625 
Q 46.921875 27.09375 42.890625 30.859375 
Q 38.875 34.625 31.78125 34.625 
z
M 21.921875 38.8125 
Q 15.578125 40.375 12.03125 44.71875 
Q 8.5 49.078125 8.5 55.328125 
Q 8.5 64.0625 14.71875 69.140625 
Q 20.953125 74.21875 31.78125 74.21875 
Q 42.671875 74.21875 48.875 69.140625 
Q 55.078125 64.0625 55.078125 55.328125 
Q 55.078125 49.078125 51.53125 44.71875 
Q 48 40.375 41.703125 38.8125 
Q 48.828125 37.15625 52.796875 32.3125 
Q 56.78125 27.484375 56.78125 20.515625 
Q 56.78125 9.90625 50.3125 4.234375 
Q 43.84375 -1.421875 31.78125 -1.421875 
Q 19.734375 -1.421875 13.25 4.234375 
Q 6.78125 9.90625 6.78125 20.515625 
Q 6.78125 27.484375 10.78125 32.3125 
Q 14.796875 37.15625 21.921875 38.8125 
z
M 18.3125 54.390625 
Q 18.3125 48.734375 21.84375 45.5625 
Q 25.390625 42.390625 31.78125 42.390625 
Q 38.140625 42.390625 41.71875 45.5625 
Q 45.3125 48.734375 45.3125 54.390625 
Q 45.3125 60.0625 41.71875 63.234375 
Q 38.140625 66.40625 31.78125 66.40625 
Q 25.390625 66.40625 21.84375 63.234375 
Q 18.3125 60.0625 18.3125 54.390625 
z
" id="DejaVuSans-56"/>
      </defs>
      <g transform="translate(32.079688 64.528942)scale(0.1 -0.1)">
       <use xlink:href="#DejaVuSans-56"/>
       <use x="63.623047" xlink:href="#DejaVuSans-48"/>
      </g>
     </g>
    </g>
    <g id="ytick_6">
     <g id="line2d_12">
      <g>
       <use style="stroke:#000000;stroke-width:0.8;" x="51.804688" xlink:href="#ma16c1e5f24" y="31.010885"/>
      </g>
     </g>
     <g id="text_12">
      <!-- 100 -->
      <g transform="translate(25.717188 34.810104)scale(0.1 -0.1)">
       <use xlink:href="#DejaVuSans-49"/>
       <use x="63.623047" xlink:href="#DejaVuSans-48"/>
       <use x="127.246094" xlink:href="#DejaVuSans-48"/>
      </g>
     </g>
    </g>
    <g id="text_13">
     <!-- No. of binding motors -->
     <defs>
      <path d="M 9.8125 72.90625 
L 23.09375 72.90625 
L 55.421875 11.921875 
L 55.421875 72.90625 
L 64.984375 72.90625 
L 64.984375 0 
L 51.703125 0 
L 19.390625 60.984375 
L 19.390625 0 
L 9.8125 0 
z
" id="DejaVuSans-78"/>
      <path d="M 30.609375 48.390625 
Q 23.390625 48.390625 19.1875 42.75 
Q 14.984375 37.109375 14.984375 27.296875 
Q 14.984375 17.484375 19.15625 11.84375 
Q 23.34375 6.203125 30.609375 6.203125 
Q 37.796875 6.203125 41.984375 11.859375 
Q 46.1875 17.53125 46.1875 27.296875 
Q 46.1875 37.015625 41.984375 42.703125 
Q 37.796875 48.390625 30.609375 48.390625 
z
M 30.609375 56 
Q 42.328125 56 49.015625 48.375 
Q 55.71875 40.765625 55.71875 27.296875 
Q 55.71875 13.875 49.015625 6.21875 
Q 42.328125 -1.421875 30.609375 -1.421875 
Q 18.84375 -1.421875 12.171875 6.21875 
Q 5.515625 13.875 5.515625 27.296875 
Q 5.515625 40.765625 12.171875 48.375 
Q 18.84375 56 30.609375 56 
z
" id="DejaVuSans-111"/>
      <path d="M 10.6875 12.40625 
L 21 12.40625 
L 21 0 
L 10.6875 0 
z
" id="DejaVuSans-46"/>
      <path id="DejaVuSans-32"/>
      <path d="M 37.109375 75.984375 
L 37.109375 68.5 
L 28.515625 68.5 
Q 23.6875 68.5 21.796875 66.546875 
Q 19.921875 64.59375 19.921875 59.515625 
L 19.921875 54.6875 
L 34.71875 54.6875 
L 34.71875 47.703125 
L 19.921875 47.703125 
L 19.921875 0 
L 10.890625 0 
L 10.890625 47.703125 
L 2.296875 47.703125 
L 2.296875 54.6875 
L 10.890625 54.6875 
L 10.890625 58.5 
Q 10.890625 67.625 15.140625 71.796875 
Q 19.390625 75.984375 28.609375 75.984375 
z
" id="DejaVuSans-102"/>
      <path d="M 48.6875 27.296875 
Q 48.6875 37.203125 44.609375 42.84375 
Q 40.53125 48.484375 33.40625 48.484375 
Q 26.265625 48.484375 22.1875 42.84375 
Q 18.109375 37.203125 18.109375 27.296875 
Q 18.109375 17.390625 22.1875 11.75 
Q 26.265625 6.109375 33.40625 6.109375 
Q 40.53125 6.109375 44.609375 11.75 
Q 48.6875 17.390625 48.6875 27.296875 
z
M 18.109375 46.390625 
Q 20.953125 51.265625 25.265625 53.625 
Q 29.59375 56 35.59375 56 
Q 45.5625 56 51.78125 48.09375 
Q 58.015625 40.1875 58.015625 27.296875 
Q 58.015625 14.40625 51.78125 6.484375 
Q 45.5625 -1.421875 35.59375 -1.421875 
Q 29.59375 -1.421875 25.265625 0.953125 
Q 20.953125 3.328125 18.109375 8.203125 
L 18.109375 0 
L 9.078125 0 
L 9.078125 75.984375 
L 18.109375 75.984375 
z
" id="DejaVuSans-98"/>
      <path d="M 9.421875 54.6875 
L 18.40625 54.6875 
L 18.40625 0 
L 9.421875 0 
z
M 9.421875 75.984375 
L 18.40625 75.984375 
L 18.40625 64.59375 
L 9.421875 64.59375 
z
" id="DejaVuSans-105"/>
      <path d="M 54.890625 33.015625 
L 54.890625 0 
L 45.90625 0 
L 45.90625 32.71875 
Q 45.90625 40.484375 42.875 44.328125 
Q 39.84375 48.1875 33.796875 48.1875 
Q 26.515625 48.1875 22.3125 43.546875 
Q 18.109375 38.921875 18.109375 30.90625 
L 18.109375 0 
L 9.078125 0 
L 9.078125 54.6875 
L 18.109375 54.6875 
L 18.109375 46.1875 
Q 21.34375 51.125 25.703125 53.5625 
Q 30.078125 56 35.796875 56 
Q 45.21875 56 50.046875 50.171875 
Q 54.890625 44.34375 54.890625 33.015625 
z
" id="DejaVuSans-110"/>
      <path d="M 45.40625 46.390625 
L 45.40625 75.984375 
L 54.390625 75.984375 
L 54.390625 0 
L 45.40625 0 
L 45.40625 8.203125 
Q 42.578125 3.328125 38.25 0.953125 
Q 33.9375 -1.421875 27.875 -1.421875 
Q 17.96875 -1.421875 11.734375 6.484375 
Q 5.515625 14.40625 5.515625 27.296875 
Q 5.515625 40.1875 11.734375 48.09375 
Q 17.96875 56 27.875 56 
Q 33.9375 56 38.25 53.625 
Q 42.578125 51.265625 45.40625 46.390625 
z
M 14.796875 27.296875 
Q 14.796875 17.390625 18.875 11.75 
Q 22.953125 6.109375 30.078125 6.109375 
Q 37.203125 6.109375 41.296875 11.75 
Q 45.40625 17.390625 45.40625 27.296875 
Q 45.40625 37.203125 41.296875 42.84375 
Q 37.203125 48.484375 30.078125 48.484375 
Q 22.953125 48.484375 18.875 42.84375 
Q 14.796875 37.203125 14.796875 27.296875 
z
" id="DejaVuSans-100"/>
      <path d="M 45.40625 27.984375 
Q 45.40625 37.75 41.375 43.109375 
Q 37.359375 48.484375 30.078125 48.484375 
Q 22.859375 48.484375 18.828125 43.109375 
Q 14.796875 37.75 14.796875 27.984375 
Q 14.796875 18.265625 18.828125 12.890625 
Q 22.859375 7.515625 30.078125 7.515625 
Q 37.359375 7.515625 41.375 12.890625 
Q 45.40625 18.265625 45.40625 27.984375 
z
M 54.390625 6.78125 
Q 54.390625 -7.171875 48.1875 -13.984375 
Q 42 -20.796875 29.203125 -20.796875 
Q 24.46875 -20.796875 20.265625 -20.09375 
Q 16.0625 -19.390625 12.109375 -17.921875 
L 12.109375 -9.1875 
Q 16.0625 -11.328125 19.921875 -12.34375 
Q 23.78125 -13.375 27.78125 -13.375 
Q 36.625 -13.375 41.015625 -8.765625 
Q 45.40625 -4.15625 45.40625 5.171875 
L 45.40625 9.625 
Q 42.625 4.78125 38.28125 2.390625 
Q 33.9375 0 27.875 0 
Q 17.828125 0 11.671875 7.65625 
Q 5.515625 15.328125 5.515625 27.984375 
Q 5.515625 40.671875 11.671875 48.328125 
Q 17.828125 56 27.875 56 
Q 33.9375 56 38.28125 53.609375 
Q 42.625 51.21875 45.40625 46.390625 
L 45.40625 54.6875 
L 54.390625 54.6875 
z
" id="DejaVuSans-103"/>
      <path d="M 52 44.1875 
Q 55.375 50.25 60.0625 53.125 
Q 64.75 56 71.09375 56 
Q 79.640625 56 84.28125 50.015625 
Q 88.921875 44.046875 88.921875 33.015625 
L 88.921875 0 
L 79.890625 0 
L 79.890625 32.71875 
Q 79.890625 40.578125 77.09375 44.375 
Q 74.3125 48.1875 68.609375 48.1875 
Q 61.625 48.1875 57.5625 43.546875 
Q 53.515625 38.921875 53.515625 30.90625 
L 53.515625 0 
L 44.484375 0 
L 44.484375 32.71875 
Q 44.484375 40.625 41.703125 44.40625 
Q 38.921875 48.1875 33.109375 48.1875 
Q 26.21875 48.1875 22.15625 43.53125 
Q 18.109375 38.875 18.109375 30.90625 
L 18.109375 0 
L 9.078125 0 
L 9.078125 54.6875 
L 18.109375 54.6875 
L 18.109375 46.1875 
Q 21.1875 51.21875 25.484375 53.609375 
Q 29.78125 56 35.6875 56 
Q 41.65625 56 45.828125 52.96875 
Q 50 49.953125 52 44.1875 
z
" id="DejaVuSans-109"/>
      <path d="M 18.3125 70.21875 
L 18.3125 54.6875 
L 36.8125 54.6875 
L 36.8125 47.703125 
L 18.3125 47.703125 
L 18.3125 18.015625 
Q 18.3125 11.328125 20.140625 9.421875 
Q 21.96875 7.515625 27.59375 7.515625 
L 36.8125 7.515625 
L 36.8125 0 
L 27.59375 0 
Q 17.1875 0 13.234375 3.875 
Q 9.28125 7.765625 9.28125 18.015625 
L 9.28125 47.703125 
L 2.6875 47.703125 
L 2.6875 54.6875 
L 9.28125 54.6875 
L 9.28125 70.21875 
z
" id="DejaVuSans-116"/>
      <path d="M 41.109375 46.296875 
Q 39.59375 47.171875 37.8125 47.578125 
Q 36.03125 48 33.890625 48 
Q 26.265625 48 22.1875 43.046875 
Q 18.109375 38.09375 18.109375 28.8125 
L 18.109375 0 
L 9.078125 0 
L 9.078125 54.6875 
L 18.109375 54.6875 
L 18.109375 46.1875 
Q 20.953125 51.171875 25.484375 53.578125 
Q 30.03125 56 36.53125 56 
Q 37.453125 56 38.578125 55.875 
Q 39.703125 55.765625 41.0625 55.515625 
z
" id="DejaVuSans-114"/>
      <path d="M 44.28125 53.078125 
L 44.28125 44.578125 
Q 40.484375 46.53125 36.375 47.5 
Q 32.28125 48.484375 27.875 48.484375 
Q 21.1875 48.484375 17.84375 46.4375 
Q 14.5 44.390625 14.5 40.28125 
Q 14.5 37.15625 16.890625 35.375 
Q 19.28125 33.59375 26.515625 31.984375 
L 29.59375 31.296875 
Q 39.15625 29.25 43.1875 25.515625 
Q 47.21875 21.78125 47.21875 15.09375 
Q 47.21875 7.46875 41.1875 3.015625 
Q 35.15625 -1.421875 24.609375 -1.421875 
Q 20.21875 -1.421875 15.453125 -0.5625 
Q 10.6875 0.296875 5.421875 2 
L 5.421875 11.28125 
Q 10.40625 8.6875 15.234375 7.390625 
Q 20.0625 6.109375 24.8125 6.109375 
Q 31.15625 6.109375 34.5625 8.28125 
Q 37.984375 10.453125 37.984375 14.40625 
Q 37.984375 18.0625 35.515625 20.015625 
Q 33.0625 21.96875 24.703125 23.78125 
L 21.578125 24.515625 
Q 13.234375 26.265625 9.515625 29.90625 
Q 5.8125 33.546875 5.8125 39.890625 
Q 5.8125 47.609375 11.28125 51.796875 
Q 16.75 56 26.8125 56 
Q 31.78125 56 36.171875 55.265625 
Q 40.578125 54.546875 44.28125 53.078125 
z
" id="DejaVuSans-115"/>
     </defs>
     <g transform="translate(18.597656 182.927109)rotate(-90)scale(0.15 -0.15)">
      <use xlink:href="#DejaVuSans-78"/>
      <use x="74.804688" xlink:href="#DejaVuSans-111"/>
      <use x="135.970703" xlink:href="#DejaVuSans-46"/>
      <use x="167.757812" xlink:href="#DejaVuSans-32"/>
      <use x="199.544922" xlink:href="#DejaVuSans-111"/>
      <use x="260.726562" xlink:href="#DejaVuSans-102"/>
      <use x="295.931641" xlink:href="#DejaVuSans-32"/>
      <use x="327.71875" xlink:href="#DejaVuSans-98"/>
      <use x="391.195312" xlink:href="#DejaVuSans-105"/>
      <use x="418.978516" xlink:href="#DejaVuSans-110"/>
      <use x="482.357422" xlink:href="#DejaVuSans-100"/>
      <use x="545.833984" xlink:href="#DejaVuSans-105"/>
      <use x="573.617188" xlink:href="#DejaVuSans-110"/>
      <use x="636.996094" xlink:href="#DejaVuSans-103"/>
      <use x="700.472656" xlink:href="#DejaVuSans-32"/>
      <use x="732.259766" xlink:href="#DejaVuSans-109"/>
      <use x="829.671875" xlink:href="#DejaVuSans-111"/>
      <use x="890.853516" xlink:href="#DejaVuSans-116"/>
      <use x="930.0625" xlink:href="#DejaVuSans-111"/>
      <use x="991.244141" xlink:href="#DejaVuSans-114"/>
      <use x="1032.357422" xlink:href="#DejaVuSans-115"/>
     </g>
    </g>
   </g>
   <g id="line2d_13">
    <path clip-path="url(#pfaa9656432)" d="M 59.814257 167.717539 
L 61.416171 166.231597 
L 63.018085 163.259714 
L 64.619999 161.773772 
L 66.221912 157.315946 
L 67.823826 166.231597 
L 69.42574 164.745655 
L 71.027654 166.231597 
L 72.629568 160.28783 
L 74.231482 164.745655 
L 75.833396 167.717539 
L 77.43531 170.689423 
L 79.037223 161.773772 
L 80.639137 167.717539 
L 82.241051 169.203481 
L 83.842965 163.259714 
L 85.444879 167.717539 
L 87.046793 167.717539 
L 88.648707 164.745655 
L 90.250621 160.28783 
L 91.852534 161.773772 
L 93.454448 164.745655 
L 95.056362 169.203481 
L 96.658276 164.745655 
L 98.26019 155.830004 
L 99.862104 161.773772 
L 101.464018 164.745655 
L 103.065932 170.689423 
L 104.667845 161.773772 
L 106.269759 164.745655 
L 107.871673 161.773772 
L 109.473587 166.231597 
L 111.075501 166.231597 
L 112.677415 161.773772 
L 114.279329 173.661307 
L 115.881243 157.315946 
L 117.483156 161.773772 
L 119.08507 166.231597 
L 120.686984 166.231597 
L 122.288898 172.175365 
L 123.890812 161.773772 
L 125.492726 169.203481 
L 127.09464 160.28783 
L 128.696554 164.745655 
L 130.298467 164.745655 
L 131.900381 161.773772 
L 133.502295 166.231597 
L 135.104209 163.259714 
L 136.706123 161.773772 
L 138.308037 172.175365 
L 139.909951 166.231597 
L 141.511865 166.231597 
L 143.113778 161.773772 
L 144.715692 160.28783 
L 146.317606 163.259714 
L 147.91952 160.28783 
L 149.521434 163.259714 
L 151.123348 166.231597 
L 152.725262 163.259714 
L 154.327176 161.773772 
L 155.929089 169.203481 
L 157.531003 167.717539 
L 159.132917 167.717539 
L 160.734831 167.717539 
L 162.336745 170.689423 
L 163.938659 163.259714 
L 165.540573 161.773772 
L 167.142487 167.717539 
L 168.7444 169.203481 
L 170.346314 164.745655 
L 171.948228 170.689423 
L 173.550142 170.689423 
L 175.152056 160.28783 
L 176.75397 166.231597 
L 178.355884 167.717539 
L 179.957798 167.717539 
L 181.559711 164.745655 
L 183.161625 172.175365 
L 184.763539 172.175365 
L 186.365453 166.231597 
L 187.967367 169.203481 
L 189.569281 167.717539 
L 191.171195 164.745655 
L 192.773109 166.231597 
L 194.375022 164.745655 
L 195.976936 161.773772 
L 197.57885 169.203481 
L 199.180764 164.745655 
L 200.782678 167.717539 
L 202.384592 155.830004 
L 203.986506 163.259714 
L 205.58842 166.231597 
L 207.190333 158.801888 
L 208.792247 169.203481 
L 210.394161 167.717539 
L 211.996075 169.203481 
L 213.597989 169.203481 
L 215.199903 166.231597 
L 216.801817 170.689423 
L 218.403731 170.689423 
L 220.005644 167.717539 
" style="fill:none;stroke:#008000;stroke-linecap:square;stroke-width:1.5;"/>
   </g>
   <g id="line2d_14">
    <path clip-path="url(#pfaa9656432)" d="M 59.814257 152.85812 
L 61.416171 35.468711 
L 63.018085 45.870304 
L 64.619999 44.384362 
L 66.221912 48.842188 
L 67.823826 41.412478 
L 69.42574 41.412478 
L 71.027654 39.926536 
L 72.629568 47.356246 
L 74.231482 50.32813 
L 75.833396 38.440595 
L 77.43531 39.926536 
L 79.037223 53.300013 
L 80.639137 35.468711 
L 82.241051 39.926536 
L 83.842965 36.954653 
L 85.444879 53.300013 
L 87.046793 42.89842 
L 88.648707 42.89842 
L 90.250621 51.814072 
L 91.852534 51.814072 
L 93.454448 59.243781 
L 95.056362 33.982769 
L 96.658276 47.356246 
L 98.26019 51.814072 
L 99.862104 44.384362 
L 101.464018 41.412478 
L 103.065932 48.842188 
L 104.667845 48.842188 
L 106.269759 45.870304 
L 107.871673 41.412478 
L 109.473587 42.89842 
L 111.075501 44.384362 
L 112.677415 44.384362 
L 114.279329 35.468711 
L 115.881243 53.300013 
L 117.483156 50.32813 
L 119.08507 41.412478 
L 120.686984 50.32813 
L 122.288898 32.496827 
L 123.890812 47.356246 
L 125.492726 38.440595 
L 127.09464 39.926536 
L 128.696554 38.440595 
L 130.298467 42.89842 
L 131.900381 57.757839 
L 133.502295 41.412478 
L 135.104209 41.412478 
L 136.706123 44.384362 
L 138.308037 35.468711 
L 139.909951 39.926536 
L 141.511865 36.954653 
L 143.113778 56.271897 
L 144.715692 45.870304 
L 146.317606 38.440595 
L 147.91952 44.384362 
L 149.521434 44.384362 
L 151.123348 42.89842 
L 152.725262 39.926536 
L 154.327176 41.412478 
L 155.929089 36.954653 
L 157.531003 50.32813 
L 159.132917 35.468711 
L 160.734831 41.412478 
L 162.336745 47.356246 
L 163.938659 45.870304 
L 165.540573 41.412478 
L 167.142487 36.954653 
L 168.7444 39.926536 
L 170.346314 38.440595 
L 171.948228 32.496827 
L 173.550142 45.870304 
L 175.152056 45.870304 
L 176.75397 47.356246 
L 178.355884 53.300013 
L 179.957798 33.982769 
L 181.559711 47.356246 
L 183.161625 29.524943 
L 184.763539 39.926536 
L 186.365453 47.356246 
L 187.967367 38.440595 
L 189.569281 44.384362 
L 191.171195 38.440595 
L 192.773109 53.300013 
L 194.375022 39.926536 
L 195.976936 36.954653 
L 197.57885 41.412478 
L 199.180764 44.384362 
L 200.782678 38.440595 
L 202.384592 53.300013 
L 203.986506 41.412478 
L 205.58842 44.384362 
L 207.190333 51.814072 
L 208.792247 35.468711 
L 210.394161 33.982769 
L 211.996075 39.926536 
L 213.597989 54.785955 
L 215.199903 38.440595 
L 216.801817 39.926536 
L 218.403731 36.954653 
L 220.005644 38.440595 
" style="fill:none;stroke:#0000ff;stroke-linecap:square;stroke-width:1.5;"/>
   </g>
   <g id="patch_3">
    <path d="M 51.804688 180.868125 
L 51.804688 22.318125 
" style="fill:none;stroke:#000000;stroke-linecap:square;stroke-linejoin:miter;stroke-width:0.8;"/>
   </g>
   <g id="patch_4">
    <path d="M 228.015214 180.868125 
L 228.015214 22.318125 
" style="fill:none;stroke:#000000;stroke-linecap:square;stroke-linejoin:miter;stroke-width:0.8;"/>
   </g>
   <g id="patch_5">
    <path d="M 51.804688 180.868125 
L 228.015214 180.868125 
" style="fill:none;stroke:#000000;stroke-linecap:square;stroke-linejoin:miter;stroke-width:0.8;"/>
   </g>
   <g id="patch_6">
    <path d="M 51.804688 22.318125 
L 228.015214 22.318125 
" style="fill:none;stroke:#000000;stroke-linecap:square;stroke-linejoin:miter;stroke-width:0.8;"/>
   </g>
   <g id="text_14">
    <!-- R = 0.4 -->
    <defs>
     <path d="M 44.390625 34.1875 
Q 47.5625 33.109375 50.5625 29.59375 
Q 53.5625 26.078125 56.59375 19.921875 
L 66.609375 0 
L 56 0 
L 46.6875 18.703125 
Q 43.0625 26.03125 39.671875 28.421875 
Q 36.28125 30.8125 30.421875 30.8125 
L 19.671875 30.8125 
L 19.671875 0 
L 9.8125 0 
L 9.8125 72.90625 
L 32.078125 72.90625 
Q 44.578125 72.90625 50.734375 67.671875 
Q 56.890625 62.453125 56.890625 51.90625 
Q 56.890625 45.015625 53.6875 40.46875 
Q 50.484375 35.9375 44.390625 34.1875 
z
M 19.671875 64.796875 
L 19.671875 38.921875 
L 32.078125 38.921875 
Q 39.203125 38.921875 42.84375 42.21875 
Q 46.484375 45.515625 46.484375 51.90625 
Q 46.484375 58.296875 42.84375 61.546875 
Q 39.203125 64.796875 32.078125 64.796875 
z
" id="DejaVuSans-82"/>
     <path d="M 10.59375 45.40625 
L 73.1875 45.40625 
L 73.1875 37.203125 
L 10.59375 37.203125 
z
M 10.59375 25.484375 
L 73.1875 25.484375 
L 73.1875 17.1875 
L 10.59375 17.1875 
z
" id="DejaVuSans-61"/>
    </defs>
    <g transform="translate(117.357451 16.318125)scale(0.12 -0.12)">
     <use xlink:href="#DejaVuSans-82"/>
     <use x="69.482422" xlink:href="#DejaVuSans-32"/>
     <use x="101.269531" xlink:href="#DejaVuSans-61"/>
     <use x="185.058594" xlink:href="#DejaVuSans-32"/>
     <use x="216.845703" xlink:href="#DejaVuSans-48"/>
     <use x="280.46875" xlink:href="#DejaVuSans-46"/>
     <use x="312.255859" xlink:href="#DejaVuSans-52"/>
    </g>
   </g>
   <g id="legend_1">
    <g id="patch_7">
     <path d="M 141.219901 117.77125 
L 221.015214 117.77125 
Q 223.015214 117.77125 223.015214 115.77125 
L 223.015214 87.415 
Q 223.015214 85.415 221.015214 85.415 
L 141.219901 85.415 
Q 139.219901 85.415 139.219901 87.415 
L 139.219901 115.77125 
Q 139.219901 117.77125 141.219901 117.77125 
z
" style="fill:#ffffff;opacity:0.8;stroke:#cccccc;stroke-linejoin:miter;"/>
    </g>
    <g id="line2d_15">
     <path d="M 143.219901 93.513437 
L 163.219901 93.513437 
" style="fill:none;stroke:#008000;stroke-linecap:square;stroke-width:1.5;"/>
    </g>
    <g id="line2d_16"/>
    <g id="text_15">
     <!-- Active -->
     <defs>
      <path d="M 34.1875 63.1875 
L 20.796875 26.90625 
L 47.609375 26.90625 
z
M 28.609375 72.90625 
L 39.796875 72.90625 
L 67.578125 0 
L 57.328125 0 
L 50.6875 18.703125 
L 17.828125 18.703125 
L 11.1875 0 
L 0.78125 0 
z
" id="DejaVuSans-65"/>
      <path d="M 48.78125 52.59375 
L 48.78125 44.1875 
Q 44.96875 46.296875 41.140625 47.34375 
Q 37.3125 48.390625 33.40625 48.390625 
Q 24.65625 48.390625 19.8125 42.84375 
Q 14.984375 37.3125 14.984375 27.296875 
Q 14.984375 17.28125 19.8125 11.734375 
Q 24.65625 6.203125 33.40625 6.203125 
Q 37.3125 6.203125 41.140625 7.25 
Q 44.96875 8.296875 48.78125 10.40625 
L 48.78125 2.09375 
Q 45.015625 0.34375 40.984375 -0.53125 
Q 36.96875 -1.421875 32.421875 -1.421875 
Q 20.0625 -1.421875 12.78125 6.34375 
Q 5.515625 14.109375 5.515625 27.296875 
Q 5.515625 40.671875 12.859375 48.328125 
Q 20.21875 56 33.015625 56 
Q 37.15625 56 41.109375 55.140625 
Q 45.0625 54.296875 48.78125 52.59375 
z
" id="DejaVuSans-99"/>
      <path d="M 2.984375 54.6875 
L 12.5 54.6875 
L 29.59375 8.796875 
L 46.6875 54.6875 
L 56.203125 54.6875 
L 35.6875 0 
L 23.484375 0 
z
" id="DejaVuSans-118"/>
      <path d="M 56.203125 29.59375 
L 56.203125 25.203125 
L 14.890625 25.203125 
Q 15.484375 15.921875 20.484375 11.0625 
Q 25.484375 6.203125 34.421875 6.203125 
Q 39.59375 6.203125 44.453125 7.46875 
Q 49.3125 8.734375 54.109375 11.28125 
L 54.109375 2.78125 
Q 49.265625 0.734375 44.1875 -0.34375 
Q 39.109375 -1.421875 33.890625 -1.421875 
Q 20.796875 -1.421875 13.15625 6.1875 
Q 5.515625 13.8125 5.515625 26.8125 
Q 5.515625 40.234375 12.765625 48.109375 
Q 20.015625 56 32.328125 56 
Q 43.359375 56 49.78125 48.890625 
Q 56.203125 41.796875 56.203125 29.59375 
z
M 47.21875 32.234375 
Q 47.125 39.59375 43.09375 43.984375 
Q 39.0625 48.390625 32.421875 48.390625 
Q 24.90625 48.390625 20.390625 44.140625 
Q 15.875 39.890625 15.1875 32.171875 
z
" id="DejaVuSans-101"/>
     </defs>
     <g transform="translate(171.219901 97.013437)scale(0.1 -0.1)">
      <use xlink:href="#DejaVuSans-65"/>
      <use x="68.392578" xlink:href="#DejaVuSans-99"/>
      <use x="123.373047" xlink:href="#DejaVuSans-116"/>
      <use x="162.582031" xlink:href="#DejaVuSans-105"/>
      <use x="190.365234" xlink:href="#DejaVuSans-118"/>
      <use x="249.544922" xlink:href="#DejaVuSans-101"/>
     </g>
    </g>
    <g id="line2d_17">
     <path d="M 143.219901 108.191562 
L 163.219901 108.191562 
" style="fill:none;stroke:#0000ff;stroke-linecap:square;stroke-width:1.5;"/>
    </g>
    <g id="line2d_18"/>
    <g id="text_16">
     <!-- Defective -->
     <defs>
      <path d="M 19.671875 64.796875 
L 19.671875 8.109375 
L 31.59375 8.109375 
Q 46.6875 8.109375 53.6875 14.9375 
Q 60.6875 21.78125 60.6875 36.53125 
Q 60.6875 51.171875 53.6875 57.984375 
Q 46.6875 64.796875 31.59375 64.796875 
z
M 9.8125 72.90625 
L 30.078125 72.90625 
Q 51.265625 72.90625 61.171875 64.09375 
Q 71.09375 55.28125 71.09375 36.53125 
Q 71.09375 17.671875 61.125 8.828125 
Q 51.171875 0 30.078125 0 
L 9.8125 0 
z
" id="DejaVuSans-68"/>
     </defs>
     <g transform="translate(171.219901 111.691562)scale(0.1 -0.1)">
      <use xlink:href="#DejaVuSans-68"/>
      <use x="77.001953" xlink:href="#DejaVuSans-101"/>
      <use x="138.525391" xlink:href="#DejaVuSans-102"/>
      <use x="173.730469" xlink:href="#DejaVuSans-101"/>
      <use x="235.253906" xlink:href="#DejaVuSans-99"/>
      <use x="290.234375" xlink:href="#DejaVuSans-116"/>
      <use x="329.443359" xlink:href="#DejaVuSans-105"/>
      <use x="357.226562" xlink:href="#DejaVuSans-118"/>
      <use x="416.40625" xlink:href="#DejaVuSans-101"/>
     </g>
    </g>
   </g>
  </g>
  <g id="axes_2">
   <g id="patch_8">
    <path d="M 298.499424 180.868125 
L 474.709951 180.868125 
L 474.709951 22.318125 
L 298.499424 22.318125 
z
" style="fill:#ffffff;"/>
   </g>
   <g id="matplotlib.axis_3">
    <g id="xtick_7">
     <g id="line2d_19">
      <g>
       <use style="stroke:#000000;stroke-width:0.8;" x="306.508994" xlink:href="#mf2d232909f" y="180.868125"/>
      </g>
     </g>
     <g id="text_17">
      <!-- 0 -->
      <g transform="translate(303.327744 195.466562)scale(0.1 -0.1)">
       <use xlink:href="#DejaVuSans-48"/>
      </g>
     </g>
    </g>
    <g id="xtick_8">
     <g id="line2d_20">
      <g>
       <use style="stroke:#000000;stroke-width:0.8;" x="338.547271" xlink:href="#mf2d232909f" y="180.868125"/>
      </g>
     </g>
     <g id="text_18">
      <!-- 1 -->
      <g transform="translate(335.366021 195.466562)scale(0.1 -0.1)">
       <use xlink:href="#DejaVuSans-49"/>
      </g>
     </g>
    </g>
    <g id="xtick_9">
     <g id="line2d_21">
      <g>
       <use style="stroke:#000000;stroke-width:0.8;" x="370.585549" xlink:href="#mf2d232909f" y="180.868125"/>
      </g>
     </g>
     <g id="text_19">
      <!-- 2 -->
      <g transform="translate(367.404299 195.466562)scale(0.1 -0.1)">
       <use xlink:href="#DejaVuSans-50"/>
      </g>
     </g>
    </g>
    <g id="xtick_10">
     <g id="line2d_22">
      <g>
       <use style="stroke:#000000;stroke-width:0.8;" x="402.623826" xlink:href="#mf2d232909f" y="180.868125"/>
      </g>
     </g>
     <g id="text_20">
      <!-- 3 -->
      <g transform="translate(399.442576 195.466562)scale(0.1 -0.1)">
       <use xlink:href="#DejaVuSans-51"/>
      </g>
     </g>
    </g>
    <g id="xtick_11">
     <g id="line2d_23">
      <g>
       <use style="stroke:#000000;stroke-width:0.8;" x="434.662104" xlink:href="#mf2d232909f" y="180.868125"/>
      </g>
     </g>
     <g id="text_21">
      <!-- 4 -->
      <g transform="translate(431.480854 195.466562)scale(0.1 -0.1)">
       <use xlink:href="#DejaVuSans-52"/>
      </g>
     </g>
    </g>
    <g id="xtick_12">
     <g id="line2d_24">
      <g>
       <use style="stroke:#000000;stroke-width:0.8;" x="466.700381" xlink:href="#mf2d232909f" y="180.868125"/>
      </g>
     </g>
     <g id="text_22">
      <!-- 5 -->
      <g transform="translate(463.519131 195.466562)scale(0.1 -0.1)">
       <use xlink:href="#DejaVuSans-53"/>
      </g>
     </g>
    </g>
   </g>
   <g id="matplotlib.axis_4">
    <g id="ytick_7">
     <g id="line2d_25">
      <g>
       <use style="stroke:#000000;stroke-width:0.8;" x="298.499424" xlink:href="#ma16c1e5f24" y="180.868125"/>
      </g>
     </g>
     <g id="text_23">
      <!-- 0 -->
      <g transform="translate(285.136924 184.667344)scale(0.1 -0.1)">
       <use xlink:href="#DejaVuSans-48"/>
      </g>
     </g>
    </g>
    <g id="ytick_8">
     <g id="line2d_26">
      <g>
       <use style="stroke:#000000;stroke-width:0.8;" x="298.499424" xlink:href="#ma16c1e5f24" y="149.158125"/>
      </g>
     </g>
     <g id="text_24">
      <!-- 20 -->
      <g transform="translate(278.774424 152.957344)scale(0.1 -0.1)">
       <use xlink:href="#DejaVuSans-50"/>
       <use x="63.623047" xlink:href="#DejaVuSans-48"/>
      </g>
     </g>
    </g>
    <g id="ytick_9">
     <g id="line2d_27">
      <g>
       <use style="stroke:#000000;stroke-width:0.8;" x="298.499424" xlink:href="#ma16c1e5f24" y="117.448125"/>
      </g>
     </g>
     <g id="text_25">
      <!-- 40 -->
      <g transform="translate(278.774424 121.247344)scale(0.1 -0.1)">
       <use xlink:href="#DejaVuSans-52"/>
       <use x="63.623047" xlink:href="#DejaVuSans-48"/>
      </g>
     </g>
    </g>
    <g id="ytick_10">
     <g id="line2d_28">
      <g>
       <use style="stroke:#000000;stroke-width:0.8;" x="298.499424" xlink:href="#ma16c1e5f24" y="85.738125"/>
      </g>
     </g>
     <g id="text_26">
      <!-- 60 -->
      <g transform="translate(278.774424 89.537344)scale(0.1 -0.1)">
       <use xlink:href="#DejaVuSans-54"/>
       <use x="63.623047" xlink:href="#DejaVuSans-48"/>
      </g>
     </g>
    </g>
    <g id="ytick_11">
     <g id="line2d_29">
      <g>
       <use style="stroke:#000000;stroke-width:0.8;" x="298.499424" xlink:href="#ma16c1e5f24" y="54.028125"/>
      </g>
     </g>
     <g id="text_27">
      <!-- 80 -->
      <g transform="translate(278.774424 57.827344)scale(0.1 -0.1)">
       <use xlink:href="#DejaVuSans-56"/>
       <use x="63.623047" xlink:href="#DejaVuSans-48"/>
      </g>
     </g>
    </g>
    <g id="ytick_12">
     <g id="line2d_30">
      <g>
       <use style="stroke:#000000;stroke-width:0.8;" x="298.499424" xlink:href="#ma16c1e5f24" y="22.318125"/>
      </g>
     </g>
     <g id="text_28">
      <!-- 100 -->
      <g transform="translate(272.411924 26.117344)scale(0.1 -0.1)">
       <use xlink:href="#DejaVuSans-49"/>
       <use x="63.623047" xlink:href="#DejaVuSans-48"/>
       <use x="127.246094" xlink:href="#DejaVuSans-48"/>
      </g>
     </g>
    </g>
   </g>
   <g id="line2d_31">
    <path clip-path="url(#pa0b8767730)" d="M 306.508994 153.914625 
L 308.110908 149.158125 
L 309.712821 147.572625 
L 311.314735 147.572625 
L 312.916649 150.743625 
L 314.518563 153.914625 
L 316.120477 163.427625 
L 317.722391 158.671125 
L 319.324305 158.671125 
L 320.926219 150.743625 
L 322.528132 153.914625 
L 324.130046 152.329125 
L 325.73196 153.914625 
L 327.333874 155.500125 
L 328.935788 153.914625 
L 330.537702 145.987125 
L 332.139616 157.085625 
L 333.74153 153.914625 
L 335.343443 149.158125 
L 336.945357 145.987125 
L 338.547271 157.085625 
L 340.149185 145.987125 
L 341.751099 150.743625 
L 343.353013 145.987125 
L 344.954927 141.230625 
L 346.556841 153.914625 
L 348.158754 145.987125 
L 349.760668 157.085625 
L 351.362582 147.572625 
L 352.964496 157.085625 
L 354.56641 147.572625 
L 356.168324 150.743625 
L 357.770238 144.401625 
L 359.372152 152.329125 
L 360.974065 152.329125 
L 362.575979 147.572625 
L 364.177893 152.329125 
L 365.779807 158.671125 
L 367.381721 150.743625 
L 368.983635 155.500125 
L 370.585549 155.500125 
L 372.187463 153.914625 
L 373.789376 147.572625 
L 375.39129 150.743625 
L 376.993204 152.329125 
L 378.595118 149.158125 
L 380.197032 149.158125 
L 381.798946 142.816125 
L 383.40086 142.816125 
L 385.002774 152.329125 
L 386.604688 150.743625 
L 388.206601 155.500125 
L 389.808515 145.987125 
L 391.410429 144.401625 
L 393.012343 152.329125 
L 394.614257 147.572625 
L 396.216171 149.158125 
L 397.818085 144.401625 
L 399.419999 150.743625 
L 401.021912 152.329125 
L 402.623826 160.256625 
L 404.22574 149.158125 
L 405.827654 152.329125 
L 407.429568 136.474125 
L 409.031482 149.158125 
L 410.633396 150.743625 
L 412.23531 134.888625 
L 413.837223 139.645125 
L 415.439137 141.230625 
L 417.041051 136.474125 
L 418.642965 158.671125 
L 420.244879 141.230625 
L 421.846793 136.474125 
L 423.448707 149.158125 
L 425.050621 149.158125 
L 426.652534 147.572625 
L 428.254448 142.816125 
L 429.856362 142.816125 
L 431.458276 152.329125 
L 433.06019 153.914625 
L 434.662104 153.914625 
L 436.264018 147.572625 
L 437.865932 150.743625 
L 439.467845 157.085625 
L 441.069759 160.256625 
L 442.671673 150.743625 
L 444.273587 155.500125 
L 445.875501 153.914625 
L 447.477415 145.987125 
L 449.079329 155.500125 
L 450.681243 142.816125 
L 452.283156 155.500125 
L 453.88507 150.743625 
L 455.486984 157.085625 
L 457.088898 157.085625 
L 458.690812 152.329125 
L 460.292726 152.329125 
L 461.89464 157.085625 
L 463.496554 161.842125 
L 465.098467 147.572625 
L 466.700381 149.158125 
" style="fill:none;stroke:#008000;stroke-linecap:square;stroke-width:1.5;"/>
   </g>
   <g id="line2d_32">
    <path clip-path="url(#pa0b8767730)" d="M 306.508994 153.914625 
L 308.110908 52.442625 
L 309.712821 55.613625 
L 311.314735 66.712125 
L 312.916649 54.028125 
L 314.518563 52.442625 
L 316.120477 39.758625 
L 317.722391 41.344125 
L 319.324305 54.028125 
L 320.926219 50.857125 
L 322.528132 46.100625 
L 324.130046 47.686125 
L 325.73196 54.028125 
L 327.333874 42.929625 
L 328.935788 46.100625 
L 330.537702 57.199125 
L 332.139616 47.686125 
L 333.74153 49.271625 
L 335.343443 47.686125 
L 336.945357 50.857125 
L 338.547271 44.515125 
L 340.149185 61.955625 
L 341.751099 54.028125 
L 343.353013 54.028125 
L 344.954927 58.784625 
L 346.556841 52.442625 
L 348.158754 49.271625 
L 349.760668 42.929625 
L 351.362582 54.028125 
L 352.964496 42.929625 
L 354.56641 47.686125 
L 356.168324 44.515125 
L 357.770238 57.199125 
L 359.372152 54.028125 
L 360.974065 44.515125 
L 362.575979 54.028125 
L 364.177893 65.126625 
L 365.779807 41.344125 
L 367.381721 46.100625 
L 368.983635 52.442625 
L 370.585549 47.686125 
L 372.187463 44.515125 
L 373.789376 60.370125 
L 375.39129 60.370125 
L 376.993204 55.613625 
L 378.595118 61.955625 
L 380.197032 57.199125 
L 381.798946 58.784625 
L 383.40086 55.613625 
L 385.002774 52.442625 
L 386.604688 50.857125 
L 388.206601 49.271625 
L 389.808515 65.126625 
L 391.410429 57.199125 
L 393.012343 54.028125 
L 394.614257 58.784625 
L 396.216171 47.686125 
L 397.818085 50.857125 
L 399.419999 58.784625 
L 401.021912 47.686125 
L 402.623826 44.515125 
L 404.22574 55.613625 
L 405.827654 52.442625 
L 407.429568 65.126625 
L 409.031482 58.784625 
L 410.633396 54.028125 
L 412.23531 61.955625 
L 413.837223 57.199125 
L 415.439137 49.271625 
L 417.041051 63.541125 
L 418.642965 66.712125 
L 420.244879 58.784625 
L 421.846793 68.297625 
L 423.448707 52.442625 
L 425.050621 52.442625 
L 426.652534 55.613625 
L 428.254448 50.857125 
L 429.856362 54.028125 
L 431.458276 49.271625 
L 433.06019 46.100625 
L 434.662104 44.515125 
L 436.264018 50.857125 
L 437.865932 49.271625 
L 439.467845 46.100625 
L 441.069759 36.587625 
L 442.671673 57.199125 
L 444.273587 38.173125 
L 445.875501 42.929625 
L 447.477415 61.955625 
L 449.079329 47.686125 
L 450.681243 57.199125 
L 452.283156 50.857125 
L 453.88507 54.028125 
L 455.486984 55.613625 
L 457.088898 41.344125 
L 458.690812 50.857125 
L 460.292726 46.100625 
L 461.89464 38.173125 
L 463.496554 46.100625 
L 465.098467 54.028125 
L 466.700381 50.857125 
" style="fill:none;stroke:#0000ff;stroke-linecap:square;stroke-width:1.5;"/>
   </g>
   <g id="patch_9">
    <path d="M 298.499424 180.868125 
L 298.499424 22.318125 
" style="fill:none;stroke:#000000;stroke-linecap:square;stroke-linejoin:miter;stroke-width:0.8;"/>
   </g>
   <g id="patch_10">
    <path d="M 474.709951 180.868125 
L 474.709951 22.318125 
" style="fill:none;stroke:#000000;stroke-linecap:square;stroke-linejoin:miter;stroke-width:0.8;"/>
   </g>
   <g id="patch_11">
    <path d="M 298.499424 180.868125 
L 474.709951 180.868125 
" style="fill:none;stroke:#000000;stroke-linecap:square;stroke-linejoin:miter;stroke-width:0.8;"/>
   </g>
   <g id="patch_12">
    <path d="M 298.499424 22.318125 
L 474.709951 22.318125 
" style="fill:none;stroke:#000000;stroke-linecap:square;stroke-linejoin:miter;stroke-width:0.8;"/>
   </g>
   <g id="text_29">
    <!-- R = 0.5 -->
    <g transform="translate(364.052188 16.318125)scale(0.12 -0.12)">
     <use xlink:href="#DejaVuSans-82"/>
     <use x="69.482422" xlink:href="#DejaVuSans-32"/>
     <use x="101.269531" xlink:href="#DejaVuSans-61"/>
     <use x="185.058594" xlink:href="#DejaVuSans-32"/>
     <use x="216.845703" xlink:href="#DejaVuSans-48"/>
     <use x="280.46875" xlink:href="#DejaVuSans-46"/>
     <use x="312.255859" xlink:href="#DejaVuSans-53"/>
    </g>
   </g>
  </g>
  <g id="axes_3">
   <g id="patch_13">
    <path d="M 545.194161 180.868125 
L 721.404688 180.868125 
L 721.404688 22.318125 
L 545.194161 22.318125 
z
" style="fill:#ffffff;"/>
   </g>
   <g id="matplotlib.axis_5">
    <g id="xtick_13">
     <g id="line2d_33">
      <g>
       <use style="stroke:#000000;stroke-width:0.8;" x="553.203731" xlink:href="#mf2d232909f" y="180.868125"/>
      </g>
     </g>
     <g id="text_30">
      <!-- 0 -->
      <g transform="translate(550.022481 195.466562)scale(0.1 -0.1)">
       <use xlink:href="#DejaVuSans-48"/>
      </g>
     </g>
    </g>
    <g id="xtick_14">
     <g id="line2d_34">
      <g>
       <use style="stroke:#000000;stroke-width:0.8;" x="585.242008" xlink:href="#mf2d232909f" y="180.868125"/>
      </g>
     </g>
     <g id="text_31">
      <!-- 1 -->
      <g transform="translate(582.060758 195.466562)scale(0.1 -0.1)">
       <use xlink:href="#DejaVuSans-49"/>
      </g>
     </g>
    </g>
    <g id="xtick_15">
     <g id="line2d_35">
      <g>
       <use style="stroke:#000000;stroke-width:0.8;" x="617.280286" xlink:href="#mf2d232909f" y="180.868125"/>
      </g>
     </g>
     <g id="text_32">
      <!-- 2 -->
      <g transform="translate(614.099036 195.466562)scale(0.1 -0.1)">
       <use xlink:href="#DejaVuSans-50"/>
      </g>
     </g>
    </g>
    <g id="xtick_16">
     <g id="line2d_36">
      <g>
       <use style="stroke:#000000;stroke-width:0.8;" x="649.318563" xlink:href="#mf2d232909f" y="180.868125"/>
      </g>
     </g>
     <g id="text_33">
      <!-- 3 -->
      <g transform="translate(646.137313 195.466562)scale(0.1 -0.1)">
       <use xlink:href="#DejaVuSans-51"/>
      </g>
     </g>
    </g>
    <g id="xtick_17">
     <g id="line2d_37">
      <g>
       <use style="stroke:#000000;stroke-width:0.8;" x="681.356841" xlink:href="#mf2d232909f" y="180.868125"/>
      </g>
     </g>
     <g id="text_34">
      <!-- 4 -->
      <g transform="translate(678.175591 195.466562)scale(0.1 -0.1)">
       <use xlink:href="#DejaVuSans-52"/>
      </g>
     </g>
    </g>
    <g id="xtick_18">
     <g id="line2d_38">
      <g>
       <use style="stroke:#000000;stroke-width:0.8;" x="713.395118" xlink:href="#mf2d232909f" y="180.868125"/>
      </g>
     </g>
     <g id="text_35">
      <!-- 5 -->
      <g transform="translate(710.213868 195.466562)scale(0.1 -0.1)">
       <use xlink:href="#DejaVuSans-53"/>
      </g>
     </g>
    </g>
   </g>
   <g id="matplotlib.axis_6">
    <g id="ytick_13">
     <g id="line2d_39">
      <g>
       <use style="stroke:#000000;stroke-width:0.8;" x="545.194161" xlink:href="#ma16c1e5f24" y="180.868125"/>
      </g>
     </g>
     <g id="text_36">
      <!-- 0 -->
      <g transform="translate(531.831661 184.667344)scale(0.1 -0.1)">
       <use xlink:href="#DejaVuSans-48"/>
      </g>
     </g>
    </g>
    <g id="ytick_14">
     <g id="line2d_40">
      <g>
       <use style="stroke:#000000;stroke-width:0.8;" x="545.194161" xlink:href="#ma16c1e5f24" y="149.158125"/>
      </g>
     </g>
     <g id="text_37">
      <!-- 20 -->
      <g transform="translate(525.469161 152.957344)scale(0.1 -0.1)">
       <use xlink:href="#DejaVuSans-50"/>
       <use x="63.623047" xlink:href="#DejaVuSans-48"/>
      </g>
     </g>
    </g>
    <g id="ytick_15">
     <g id="line2d_41">
      <g>
       <use style="stroke:#000000;stroke-width:0.8;" x="545.194161" xlink:href="#ma16c1e5f24" y="117.448125"/>
      </g>
     </g>
     <g id="text_38">
      <!-- 40 -->
      <g transform="translate(525.469161 121.247344)scale(0.1 -0.1)">
       <use xlink:href="#DejaVuSans-52"/>
       <use x="63.623047" xlink:href="#DejaVuSans-48"/>
      </g>
     </g>
    </g>
    <g id="ytick_16">
     <g id="line2d_42">
      <g>
       <use style="stroke:#000000;stroke-width:0.8;" x="545.194161" xlink:href="#ma16c1e5f24" y="85.738125"/>
      </g>
     </g>
     <g id="text_39">
      <!-- 60 -->
      <g transform="translate(525.469161 89.537344)scale(0.1 -0.1)">
       <use xlink:href="#DejaVuSans-54"/>
       <use x="63.623047" xlink:href="#DejaVuSans-48"/>
      </g>
     </g>
    </g>
    <g id="ytick_17">
     <g id="line2d_43">
      <g>
       <use style="stroke:#000000;stroke-width:0.8;" x="545.194161" xlink:href="#ma16c1e5f24" y="54.028125"/>
      </g>
     </g>
     <g id="text_40">
      <!-- 80 -->
      <g transform="translate(525.469161 57.827344)scale(0.1 -0.1)">
       <use xlink:href="#DejaVuSans-56"/>
       <use x="63.623047" xlink:href="#DejaVuSans-48"/>
      </g>
     </g>
    </g>
    <g id="ytick_18">
     <g id="line2d_44">
      <g>
       <use style="stroke:#000000;stroke-width:0.8;" x="545.194161" xlink:href="#ma16c1e5f24" y="22.318125"/>
      </g>
     </g>
     <g id="text_41">
      <!-- 100 -->
      <g transform="translate(519.106661 26.117344)scale(0.1 -0.1)">
       <use xlink:href="#DejaVuSans-49"/>
       <use x="63.623047" xlink:href="#DejaVuSans-48"/>
       <use x="127.246094" xlink:href="#DejaVuSans-48"/>
      </g>
     </g>
    </g>
   </g>
   <g id="line2d_45">
    <path clip-path="url(#p6a843421f3)" d="M 553.203731 142.816125 
L 554.805644 130.132125 
L 556.407558 144.401625 
L 558.009472 138.059625 
L 559.611386 141.230625 
L 561.2133 136.474125 
L 562.815214 147.572625 
L 564.417128 136.474125 
L 566.019042 142.816125 
L 567.620955 153.914625 
L 569.222869 134.888625 
L 570.824783 136.474125 
L 572.426697 138.059625 
L 574.028611 142.816125 
L 575.630525 153.914625 
L 577.232439 144.401625 
L 578.834353 150.743625 
L 580.436266 130.132125 
L 582.03818 141.230625 
L 583.640094 139.645125 
L 585.242008 138.059625 
L 586.843922 152.329125 
L 588.445836 155.500125 
L 590.04775 149.158125 
L 591.649664 142.816125 
L 593.251577 141.230625 
L 594.853491 138.059625 
L 596.455405 149.158125 
L 598.057319 141.230625 
L 599.659233 141.230625 
L 601.261147 131.717625 
L 602.863061 141.230625 
L 604.464975 134.888625 
L 606.066888 145.987125 
L 607.668802 142.816125 
L 609.270716 141.230625 
L 610.87263 144.401625 
L 612.474544 141.230625 
L 614.076458 150.743625 
L 615.678372 139.645125 
L 617.280286 136.474125 
L 618.882199 147.572625 
L 620.484113 136.474125 
L 622.086027 147.572625 
L 623.687941 138.059625 
L 625.289855 139.645125 
L 626.891769 142.816125 
L 628.493683 133.303125 
L 630.095597 139.645125 
L 631.69751 145.987125 
L 633.299424 139.645125 
L 634.901338 142.816125 
L 636.503252 139.645125 
L 638.105166 150.743625 
L 639.70708 139.645125 
L 641.308994 139.645125 
L 642.910908 130.132125 
L 644.512821 142.816125 
L 646.114735 142.816125 
L 647.716649 149.158125 
L 649.318563 134.888625 
L 650.920477 133.303125 
L 652.522391 139.645125 
L 654.124305 145.987125 
L 655.726219 134.888625 
L 657.328132 138.059625 
L 658.930046 145.987125 
L 660.53196 134.888625 
L 662.133874 141.230625 
L 663.735788 147.572625 
L 665.337702 134.888625 
L 666.939616 139.645125 
L 668.54153 123.790125 
L 670.143443 134.888625 
L 671.745357 138.059625 
L 673.347271 133.303125 
L 674.949185 141.230625 
L 676.551099 133.303125 
L 678.153013 139.645125 
L 679.754927 144.401625 
L 681.356841 141.230625 
L 682.958754 136.474125 
L 684.560668 138.059625 
L 686.162582 142.816125 
L 687.764496 138.059625 
L 689.36641 145.987125 
L 690.968324 141.230625 
L 692.570238 149.158125 
L 694.172152 136.474125 
L 695.774065 144.401625 
L 697.375979 133.303125 
L 698.977893 141.230625 
L 700.579807 141.230625 
L 702.181721 147.572625 
L 703.783635 142.816125 
L 705.385549 142.816125 
L 706.987463 142.816125 
L 708.589376 142.816125 
L 710.19129 139.645125 
L 711.793204 142.816125 
L 713.395118 144.401625 
" style="fill:none;stroke:#008000;stroke-linecap:square;stroke-width:1.5;"/>
   </g>
   <g id="line2d_46">
    <path clip-path="url(#p6a843421f3)" d="M 553.203731 169.769625 
L 554.805644 68.297625 
L 556.407558 60.370125 
L 558.009472 60.370125 
L 559.611386 57.199125 
L 561.2133 69.883125 
L 562.815214 60.370125 
L 564.417128 66.712125 
L 566.019042 66.712125 
L 567.620955 49.271625 
L 569.222869 68.297625 
L 570.824783 63.541125 
L 572.426697 66.712125 
L 574.028611 58.784625 
L 575.630525 52.442625 
L 577.232439 57.199125 
L 578.834353 65.126625 
L 580.436266 68.297625 
L 582.03818 63.541125 
L 583.640094 69.883125 
L 585.242008 73.054125 
L 586.843922 74.639625 
L 588.445836 55.613625 
L 590.04775 65.126625 
L 591.649664 55.613625 
L 593.251577 55.613625 
L 594.853491 63.541125 
L 596.455405 46.100625 
L 598.057319 68.297625 
L 599.659233 57.199125 
L 601.261147 71.468625 
L 602.863061 57.199125 
L 604.464975 76.225125 
L 606.066888 68.297625 
L 607.668802 60.370125 
L 609.270716 54.028125 
L 610.87263 58.784625 
L 612.474544 57.199125 
L 614.076458 66.712125 
L 615.678372 63.541125 
L 617.280286 54.028125 
L 618.882199 54.028125 
L 620.484113 60.370125 
L 622.086027 57.199125 
L 623.687941 60.370125 
L 625.289855 60.370125 
L 626.891769 57.199125 
L 628.493683 68.297625 
L 630.095597 65.126625 
L 631.69751 55.613625 
L 633.299424 65.126625 
L 634.901338 63.541125 
L 636.503252 58.784625 
L 638.105166 63.541125 
L 639.70708 58.784625 
L 641.308994 61.955625 
L 642.910908 68.297625 
L 644.512821 61.955625 
L 646.114735 60.370125 
L 647.716649 55.613625 
L 649.318563 68.297625 
L 650.920477 66.712125 
L 652.522391 73.054125 
L 654.124305 63.541125 
L 655.726219 69.883125 
L 657.328132 60.370125 
L 658.930046 57.199125 
L 660.53196 69.883125 
L 662.133874 58.784625 
L 663.735788 58.784625 
L 665.337702 63.541125 
L 666.939616 66.712125 
L 668.54153 77.810625 
L 670.143443 66.712125 
L 671.745357 65.126625 
L 673.347271 73.054125 
L 674.949185 58.784625 
L 676.551099 76.225125 
L 678.153013 58.784625 
L 679.754927 61.955625 
L 681.356841 74.639625 
L 682.958754 71.468625 
L 684.560668 65.126625 
L 686.162582 63.541125 
L 687.764496 68.297625 
L 689.36641 57.199125 
L 690.968324 68.297625 
L 692.570238 71.468625 
L 694.172152 68.297625 
L 695.774065 57.199125 
L 697.375979 69.883125 
L 698.977893 57.199125 
L 700.579807 71.468625 
L 702.181721 63.541125 
L 703.783635 63.541125 
L 705.385549 60.370125 
L 706.987463 63.541125 
L 708.589376 68.297625 
L 710.19129 68.297625 
L 711.793204 68.297625 
L 713.395118 50.857125 
" style="fill:none;stroke:#0000ff;stroke-linecap:square;stroke-width:1.5;"/>
   </g>
   <g id="patch_14">
    <path d="M 545.194161 180.868125 
L 545.194161 22.318125 
" style="fill:none;stroke:#000000;stroke-linecap:square;stroke-linejoin:miter;stroke-width:0.8;"/>
   </g>
   <g id="patch_15">
    <path d="M 721.404688 180.868125 
L 721.404688 22.318125 
" style="fill:none;stroke:#000000;stroke-linecap:square;stroke-linejoin:miter;stroke-width:0.8;"/>
   </g>
   <g id="patch_16">
    <path d="M 545.194161 180.868125 
L 721.404688 180.868125 
" style="fill:none;stroke:#000000;stroke-linecap:square;stroke-linejoin:miter;stroke-width:0.8;"/>
   </g>
   <g id="patch_17">
    <path d="M 545.194161 22.318125 
L 721.404688 22.318125 
" style="fill:none;stroke:#000000;stroke-linecap:square;stroke-linejoin:miter;stroke-width:0.8;"/>
   </g>
   <g id="text_42">
    <!-- R = 0.6 -->
    <g transform="translate(610.746924 16.318125)scale(0.12 -0.12)">
     <use xlink:href="#DejaVuSans-82"/>
     <use x="69.482422" xlink:href="#DejaVuSans-32"/>
     <use x="101.269531" xlink:href="#DejaVuSans-61"/>
     <use x="185.058594" xlink:href="#DejaVuSans-32"/>
     <use x="216.845703" xlink:href="#DejaVuSans-48"/>
     <use x="280.46875" xlink:href="#DejaVuSans-46"/>
     <use x="312.255859" xlink:href="#DejaVuSans-54"/>
    </g>
   </g>
  </g>
  <g id="axes_4">
   <g id="patch_18">
    <path d="M 51.804688 402.838125 
L 228.015214 402.838125 
L 228.015214 244.288125 
L 51.804688 244.288125 
z
" style="fill:#ffffff;"/>
   </g>
   <g id="matplotlib.axis_7">
    <g id="xtick_19">
     <g id="line2d_47">
      <g>
       <use style="stroke:#000000;stroke-width:0.8;" x="59.814257" xlink:href="#mf2d232909f" y="402.838125"/>
      </g>
     </g>
     <g id="text_43">
      <!-- 0 -->
      <g transform="translate(56.633007 417.436562)scale(0.1 -0.1)">
       <use xlink:href="#DejaVuSans-48"/>
      </g>
     </g>
    </g>
    <g id="xtick_20">
     <g id="line2d_48">
      <g>
       <use style="stroke:#000000;stroke-width:0.8;" x="91.852534" xlink:href="#mf2d232909f" y="402.838125"/>
      </g>
     </g>
     <g id="text_44">
      <!-- 1 -->
      <g transform="translate(88.671284 417.436562)scale(0.1 -0.1)">
       <use xlink:href="#DejaVuSans-49"/>
      </g>
     </g>
    </g>
    <g id="xtick_21">
     <g id="line2d_49">
      <g>
       <use style="stroke:#000000;stroke-width:0.8;" x="123.890812" xlink:href="#mf2d232909f" y="402.838125"/>
      </g>
     </g>
     <g id="text_45">
      <!-- 2 -->
      <g transform="translate(120.709562 417.436562)scale(0.1 -0.1)">
       <use xlink:href="#DejaVuSans-50"/>
      </g>
     </g>
    </g>
    <g id="xtick_22">
     <g id="line2d_50">
      <g>
       <use style="stroke:#000000;stroke-width:0.8;" x="155.929089" xlink:href="#mf2d232909f" y="402.838125"/>
      </g>
     </g>
     <g id="text_46">
      <!-- 3 -->
      <g transform="translate(152.747839 417.436562)scale(0.1 -0.1)">
       <use xlink:href="#DejaVuSans-51"/>
      </g>
     </g>
    </g>
    <g id="xtick_23">
     <g id="line2d_51">
      <g>
       <use style="stroke:#000000;stroke-width:0.8;" x="187.967367" xlink:href="#mf2d232909f" y="402.838125"/>
      </g>
     </g>
     <g id="text_47">
      <!-- 4 -->
      <g transform="translate(184.786117 417.436562)scale(0.1 -0.1)">
       <use xlink:href="#DejaVuSans-52"/>
      </g>
     </g>
    </g>
    <g id="xtick_24">
     <g id="line2d_52">
      <g>
       <use style="stroke:#000000;stroke-width:0.8;" x="220.005644" xlink:href="#mf2d232909f" y="402.838125"/>
      </g>
     </g>
     <g id="text_48">
      <!-- 5 -->
      <g transform="translate(216.824394 417.436562)scale(0.1 -0.1)">
       <use xlink:href="#DejaVuSans-53"/>
      </g>
     </g>
    </g>
   </g>
   <g id="matplotlib.axis_8">
    <g id="ytick_19">
     <g id="line2d_53">
      <g>
       <use style="stroke:#000000;stroke-width:0.8;" x="51.804688" xlink:href="#ma16c1e5f24" y="402.838125"/>
      </g>
     </g>
     <g id="text_49">
      <!-- 0 -->
      <g transform="translate(38.442188 406.637344)scale(0.1 -0.1)">
       <use xlink:href="#DejaVuSans-48"/>
      </g>
     </g>
    </g>
    <g id="ytick_20">
     <g id="line2d_54">
      <g>
       <use style="stroke:#000000;stroke-width:0.8;" x="51.804688" xlink:href="#ma16c1e5f24" y="371.128125"/>
      </g>
     </g>
     <g id="text_50">
      <!-- 20 -->
      <g transform="translate(32.079688 374.927344)scale(0.1 -0.1)">
       <use xlink:href="#DejaVuSans-50"/>
       <use x="63.623047" xlink:href="#DejaVuSans-48"/>
      </g>
     </g>
    </g>
    <g id="ytick_21">
     <g id="line2d_55">
      <g>
       <use style="stroke:#000000;stroke-width:0.8;" x="51.804688" xlink:href="#ma16c1e5f24" y="339.418125"/>
      </g>
     </g>
     <g id="text_51">
      <!-- 40 -->
      <g transform="translate(32.079688 343.217344)scale(0.1 -0.1)">
       <use xlink:href="#DejaVuSans-52"/>
       <use x="63.623047" xlink:href="#DejaVuSans-48"/>
      </g>
     </g>
    </g>
    <g id="ytick_22">
     <g id="line2d_56">
      <g>
       <use style="stroke:#000000;stroke-width:0.8;" x="51.804688" xlink:href="#ma16c1e5f24" y="307.708125"/>
      </g>
     </g>
     <g id="text_52">
      <!-- 60 -->
      <g transform="translate(32.079688 311.507344)scale(0.1 -0.1)">
       <use xlink:href="#DejaVuSans-54"/>
       <use x="63.623047" xlink:href="#DejaVuSans-48"/>
      </g>
     </g>
    </g>
    <g id="ytick_23">
     <g id="line2d_57">
      <g>
       <use style="stroke:#000000;stroke-width:0.8;" x="51.804688" xlink:href="#ma16c1e5f24" y="275.998125"/>
      </g>
     </g>
     <g id="text_53">
      <!-- 80 -->
      <g transform="translate(32.079688 279.797344)scale(0.1 -0.1)">
       <use xlink:href="#DejaVuSans-56"/>
       <use x="63.623047" xlink:href="#DejaVuSans-48"/>
      </g>
     </g>
    </g>
    <g id="ytick_24">
     <g id="line2d_58">
      <g>
       <use style="stroke:#000000;stroke-width:0.8;" x="51.804688" xlink:href="#ma16c1e5f24" y="244.288125"/>
      </g>
     </g>
     <g id="text_54">
      <!-- 100 -->
      <g transform="translate(25.717188 248.087344)scale(0.1 -0.1)">
       <use xlink:href="#DejaVuSans-49"/>
       <use x="63.623047" xlink:href="#DejaVuSans-48"/>
       <use x="127.246094" xlink:href="#DejaVuSans-48"/>
      </g>
     </g>
    </g>
    <g id="text_55">
     <!-- No. of binding motors -->
     <g transform="translate(18.597656 404.897109)rotate(-90)scale(0.15 -0.15)">
      <use xlink:href="#DejaVuSans-78"/>
      <use x="74.804688" xlink:href="#DejaVuSans-111"/>
      <use x="135.970703" xlink:href="#DejaVuSans-46"/>
      <use x="167.757812" xlink:href="#DejaVuSans-32"/>
      <use x="199.544922" xlink:href="#DejaVuSans-111"/>
      <use x="260.726562" xlink:href="#DejaVuSans-102"/>
      <use x="295.931641" xlink:href="#DejaVuSans-32"/>
      <use x="327.71875" xlink:href="#DejaVuSans-98"/>
      <use x="391.195312" xlink:href="#DejaVuSans-105"/>
      <use x="418.978516" xlink:href="#DejaVuSans-110"/>
      <use x="482.357422" xlink:href="#DejaVuSans-100"/>
      <use x="545.833984" xlink:href="#DejaVuSans-105"/>
      <use x="573.617188" xlink:href="#DejaVuSans-110"/>
      <use x="636.996094" xlink:href="#DejaVuSans-103"/>
      <use x="700.472656" xlink:href="#DejaVuSans-32"/>
      <use x="732.259766" xlink:href="#DejaVuSans-109"/>
      <use x="829.671875" xlink:href="#DejaVuSans-111"/>
      <use x="890.853516" xlink:href="#DejaVuSans-116"/>
      <use x="930.0625" xlink:href="#DejaVuSans-111"/>
      <use x="991.244141" xlink:href="#DejaVuSans-114"/>
      <use x="1032.357422" xlink:href="#DejaVuSans-115"/>
     </g>
    </g>
   </g>
   <g id="line2d_59">
    <path clip-path="url(#p7eaeb98584)" d="M 59.814257 371.128125 
L 61.416171 352.102125 
L 63.018085 358.444125 
L 64.619999 344.174625 
L 66.221912 350.516625 
L 67.823826 350.516625 
L 69.42574 363.200625 
L 71.027654 358.444125 
L 72.629568 352.102125 
L 74.231482 348.931125 
L 75.833396 345.760125 
L 77.43531 352.102125 
L 79.037223 356.858625 
L 80.639137 369.542625 
L 82.241051 347.345625 
L 83.842965 360.029625 
L 85.444879 358.444125 
L 87.046793 337.832625 
L 88.648707 352.102125 
L 90.250621 360.029625 
L 91.852534 352.102125 
L 93.454448 352.102125 
L 95.056362 342.589125 
L 96.658276 348.931125 
L 98.26019 352.102125 
L 99.862104 342.589125 
L 101.464018 336.247125 
L 103.065932 341.003625 
L 104.667845 347.345625 
L 106.269759 356.858625 
L 107.871673 361.615125 
L 109.473587 344.174625 
L 111.075501 353.687625 
L 112.677415 339.418125 
L 114.279329 342.589125 
L 115.881243 345.760125 
L 117.483156 341.003625 
L 119.08507 334.661625 
L 120.686984 352.102125 
L 122.288898 361.615125 
L 123.890812 345.760125 
L 125.492726 348.931125 
L 127.09464 353.687625 
L 128.696554 355.273125 
L 130.298467 348.931125 
L 131.900381 336.247125 
L 133.502295 342.589125 
L 135.104209 360.029625 
L 136.706123 352.102125 
L 138.308037 350.516625 
L 139.909951 352.102125 
L 141.511865 342.589125 
L 143.113778 348.931125 
L 144.715692 339.418125 
L 146.317606 339.418125 
L 147.91952 345.760125 
L 149.521434 341.003625 
L 151.123348 341.003625 
L 152.725262 360.029625 
L 154.327176 356.858625 
L 155.929089 347.345625 
L 157.531003 347.345625 
L 159.132917 339.418125 
L 160.734831 329.905125 
L 162.336745 352.102125 
L 163.938659 345.760125 
L 165.540573 352.102125 
L 167.142487 336.247125 
L 168.7444 350.516625 
L 170.346314 339.418125 
L 171.948228 336.247125 
L 173.550142 350.516625 
L 175.152056 353.687625 
L 176.75397 360.029625 
L 178.355884 363.200625 
L 179.957798 334.661625 
L 181.559711 347.345625 
L 183.161625 352.102125 
L 184.763539 360.029625 
L 186.365453 352.102125 
L 187.967367 355.273125 
L 189.569281 360.029625 
L 191.171195 361.615125 
L 192.773109 352.102125 
L 194.375022 348.931125 
L 195.976936 347.345625 
L 197.57885 361.615125 
L 199.180764 361.615125 
L 200.782678 353.687625 
L 202.384592 344.174625 
L 203.986506 361.615125 
L 205.58842 353.687625 
L 207.190333 355.273125 
L 208.792247 348.931125 
L 210.394161 353.687625 
L 211.996075 363.200625 
L 213.597989 350.516625 
L 215.199903 355.273125 
L 216.801817 344.174625 
L 218.403731 350.516625 
L 220.005644 355.273125 
" style="fill:none;stroke:#008000;stroke-linecap:square;stroke-width:1.5;"/>
   </g>
   <g id="line2d_60">
    <path clip-path="url(#p7eaeb98584)" d="M 59.814257 380.641125 
L 61.416171 321.977625 
L 63.018085 299.780625 
L 64.619999 302.951625 
L 66.221912 307.708125 
L 67.823826 302.951625 
L 69.42574 285.511125 
L 71.027654 295.024125 
L 72.629568 299.780625 
L 74.231482 301.366125 
L 75.833396 306.122625 
L 77.43531 312.464625 
L 79.037223 288.682125 
L 80.639137 293.438625 
L 82.241051 302.951625 
L 83.842965 296.609625 
L 85.444879 288.682125 
L 87.046793 310.879125 
L 88.648707 307.708125 
L 90.250621 298.195125 
L 91.852534 299.780625 
L 93.454448 310.879125 
L 95.056362 304.537125 
L 96.658276 301.366125 
L 98.26019 301.366125 
L 99.862104 302.951625 
L 101.464018 321.977625 
L 103.065932 302.951625 
L 104.667845 307.708125 
L 106.269759 298.195125 
L 107.871673 293.438625 
L 109.473587 307.708125 
L 111.075501 306.122625 
L 112.677415 314.050125 
L 114.279329 304.537125 
L 115.881243 299.780625 
L 117.483156 312.464625 
L 119.08507 318.806625 
L 120.686984 301.366125 
L 122.288898 288.682125 
L 123.890812 315.635625 
L 125.492726 310.879125 
L 127.09464 299.780625 
L 128.696554 298.195125 
L 130.298467 304.537125 
L 131.900381 306.122625 
L 133.502295 304.537125 
L 135.104209 304.537125 
L 136.706123 296.609625 
L 138.308037 302.951625 
L 139.909951 291.853125 
L 141.511865 314.050125 
L 143.113778 296.609625 
L 144.715692 306.122625 
L 146.317606 304.537125 
L 147.91952 296.609625 
L 149.521434 307.708125 
L 151.123348 307.708125 
L 152.725262 298.195125 
L 154.327176 301.366125 
L 155.929089 307.708125 
L 157.531003 307.708125 
L 159.132917 306.122625 
L 160.734831 325.148625 
L 162.336745 304.537125 
L 163.938659 318.806625 
L 165.540573 299.780625 
L 167.142487 315.635625 
L 168.7444 299.780625 
L 170.346314 304.537125 
L 171.948228 307.708125 
L 173.550142 296.609625 
L 175.152056 290.267625 
L 176.75397 288.682125 
L 178.355884 307.708125 
L 179.957798 312.464625 
L 181.559711 293.438625 
L 183.161625 302.951625 
L 184.763539 290.267625 
L 186.365453 301.366125 
L 187.967367 291.853125 
L 189.569281 298.195125 
L 191.171195 301.366125 
L 192.773109 293.438625 
L 194.375022 301.366125 
L 195.976936 295.024125 
L 197.57885 287.096625 
L 199.180764 295.024125 
L 200.782678 291.853125 
L 202.384592 302.951625 
L 203.986506 288.682125 
L 205.58842 299.780625 
L 207.190333 291.853125 
L 208.792247 306.122625 
L 210.394161 293.438625 
L 211.996075 293.438625 
L 213.597989 295.024125 
L 215.199903 299.780625 
L 216.801817 304.537125 
L 218.403731 291.853125 
L 220.005644 291.853125 
" style="fill:none;stroke:#0000ff;stroke-linecap:square;stroke-width:1.5;"/>
   </g>
   <g id="patch_19">
    <path d="M 51.804688 402.838125 
L 51.804688 244.288125 
" style="fill:none;stroke:#000000;stroke-linecap:square;stroke-linejoin:miter;stroke-width:0.8;"/>
   </g>
   <g id="patch_20">
    <path d="M 228.015214 402.838125 
L 228.015214 244.288125 
" style="fill:none;stroke:#000000;stroke-linecap:square;stroke-linejoin:miter;stroke-width:0.8;"/>
   </g>
   <g id="patch_21">
    <path d="M 51.804688 402.838125 
L 228.015214 402.838125 
" style="fill:none;stroke:#000000;stroke-linecap:square;stroke-linejoin:miter;stroke-width:0.8;"/>
   </g>
   <g id="patch_22">
    <path d="M 51.804688 244.288125 
L 228.015214 244.288125 
" style="fill:none;stroke:#000000;stroke-linecap:square;stroke-linejoin:miter;stroke-width:0.8;"/>
   </g>
   <g id="text_56">
    <!-- R = 0.7 -->
    <defs>
     <path d="M 8.203125 72.90625 
L 55.078125 72.90625 
L 55.078125 68.703125 
L 28.609375 0 
L 18.3125 0 
L 43.21875 64.59375 
L 8.203125 64.59375 
z
" id="DejaVuSans-55"/>
    </defs>
    <g transform="translate(117.357451 238.288125)scale(0.12 -0.12)">
     <use xlink:href="#DejaVuSans-82"/>
     <use x="69.482422" xlink:href="#DejaVuSans-32"/>
     <use x="101.269531" xlink:href="#DejaVuSans-61"/>
     <use x="185.058594" xlink:href="#DejaVuSans-32"/>
     <use x="216.845703" xlink:href="#DejaVuSans-48"/>
     <use x="280.46875" xlink:href="#DejaVuSans-46"/>
     <use x="312.255859" xlink:href="#DejaVuSans-55"/>
    </g>
   </g>
  </g>
  <g id="axes_5">
   <g id="patch_23">
    <path d="M 298.499424 402.838125 
L 474.709951 402.838125 
L 474.709951 244.288125 
L 298.499424 244.288125 
z
" style="fill:#ffffff;"/>
   </g>
   <g id="matplotlib.axis_9">
    <g id="xtick_25">
     <g id="line2d_61">
      <g>
       <use style="stroke:#000000;stroke-width:0.8;" x="306.508994" xlink:href="#mf2d232909f" y="402.838125"/>
      </g>
     </g>
     <g id="text_57">
      <!-- 0 -->
      <g transform="translate(303.327744 417.436562)scale(0.1 -0.1)">
       <use xlink:href="#DejaVuSans-48"/>
      </g>
     </g>
    </g>
    <g id="xtick_26">
     <g id="line2d_62">
      <g>
       <use style="stroke:#000000;stroke-width:0.8;" x="338.547271" xlink:href="#mf2d232909f" y="402.838125"/>
      </g>
     </g>
     <g id="text_58">
      <!-- 1 -->
      <g transform="translate(335.366021 417.436562)scale(0.1 -0.1)">
       <use xlink:href="#DejaVuSans-49"/>
      </g>
     </g>
    </g>
    <g id="xtick_27">
     <g id="line2d_63">
      <g>
       <use style="stroke:#000000;stroke-width:0.8;" x="370.585549" xlink:href="#mf2d232909f" y="402.838125"/>
      </g>
     </g>
     <g id="text_59">
      <!-- 2 -->
      <g transform="translate(367.404299 417.436562)scale(0.1 -0.1)">
       <use xlink:href="#DejaVuSans-50"/>
      </g>
     </g>
    </g>
    <g id="xtick_28">
     <g id="line2d_64">
      <g>
       <use style="stroke:#000000;stroke-width:0.8;" x="402.623826" xlink:href="#mf2d232909f" y="402.838125"/>
      </g>
     </g>
     <g id="text_60">
      <!-- 3 -->
      <g transform="translate(399.442576 417.436562)scale(0.1 -0.1)">
       <use xlink:href="#DejaVuSans-51"/>
      </g>
     </g>
    </g>
    <g id="xtick_29">
     <g id="line2d_65">
      <g>
       <use style="stroke:#000000;stroke-width:0.8;" x="434.662104" xlink:href="#mf2d232909f" y="402.838125"/>
      </g>
     </g>
     <g id="text_61">
      <!-- 4 -->
      <g transform="translate(431.480854 417.436562)scale(0.1 -0.1)">
       <use xlink:href="#DejaVuSans-52"/>
      </g>
     </g>
    </g>
    <g id="xtick_30">
     <g id="line2d_66">
      <g>
       <use style="stroke:#000000;stroke-width:0.8;" x="466.700381" xlink:href="#mf2d232909f" y="402.838125"/>
      </g>
     </g>
     <g id="text_62">
      <!-- 5 -->
      <g transform="translate(463.519131 417.436562)scale(0.1 -0.1)">
       <use xlink:href="#DejaVuSans-53"/>
      </g>
     </g>
    </g>
    <g id="text_63">
     <!-- Time (sec.) -->
     <defs>
      <path d="M -0.296875 72.90625 
L 61.375 72.90625 
L 61.375 64.59375 
L 35.5 64.59375 
L 35.5 0 
L 25.59375 0 
L 25.59375 64.59375 
L -0.296875 64.59375 
z
" id="DejaVuSans-84"/>
      <path d="M 31 75.875 
Q 24.46875 64.65625 21.28125 53.65625 
Q 18.109375 42.671875 18.109375 31.390625 
Q 18.109375 20.125 21.3125 9.0625 
Q 24.515625 -2 31 -13.1875 
L 23.1875 -13.1875 
Q 15.875 -1.703125 12.234375 9.375 
Q 8.59375 20.453125 8.59375 31.390625 
Q 8.59375 42.28125 12.203125 53.3125 
Q 15.828125 64.359375 23.1875 75.875 
z
" id="DejaVuSans-40"/>
      <path d="M 8.015625 75.875 
L 15.828125 75.875 
Q 23.140625 64.359375 26.78125 53.3125 
Q 30.421875 42.28125 30.421875 31.390625 
Q 30.421875 20.453125 26.78125 9.375 
Q 23.140625 -1.703125 15.828125 -13.1875 
L 8.015625 -13.1875 
Q 14.5 -2 17.703125 9.0625 
Q 20.90625 20.125 20.90625 31.390625 
Q 20.90625 42.671875 17.703125 53.65625 
Q 14.5 64.65625 8.015625 75.875 
z
" id="DejaVuSans-41"/>
     </defs>
     <g transform="translate(344.758203 434.913906)scale(0.15 -0.15)">
      <use xlink:href="#DejaVuSans-84"/>
      <use x="61.037109" xlink:href="#DejaVuSans-105"/>
      <use x="88.820312" xlink:href="#DejaVuSans-109"/>
      <use x="186.232422" xlink:href="#DejaVuSans-101"/>
      <use x="247.755859" xlink:href="#DejaVuSans-32"/>
      <use x="279.542969" xlink:href="#DejaVuSans-40"/>
      <use x="318.556641" xlink:href="#DejaVuSans-115"/>
      <use x="370.65625" xlink:href="#DejaVuSans-101"/>
      <use x="432.179688" xlink:href="#DejaVuSans-99"/>
      <use x="487.160156" xlink:href="#DejaVuSans-46"/>
      <use x="518.947266" xlink:href="#DejaVuSans-41"/>
     </g>
    </g>
   </g>
   <g id="matplotlib.axis_10">
    <g id="ytick_25">
     <g id="line2d_67">
      <g>
       <use style="stroke:#000000;stroke-width:0.8;" x="298.499424" xlink:href="#ma16c1e5f24" y="402.838125"/>
      </g>
     </g>
     <g id="text_64">
      <!-- 0 -->
      <g transform="translate(285.136924 406.637344)scale(0.1 -0.1)">
       <use xlink:href="#DejaVuSans-48"/>
      </g>
     </g>
    </g>
    <g id="ytick_26">
     <g id="line2d_68">
      <g>
       <use style="stroke:#000000;stroke-width:0.8;" x="298.499424" xlink:href="#ma16c1e5f24" y="371.128125"/>
      </g>
     </g>
     <g id="text_65">
      <!-- 20 -->
      <g transform="translate(278.774424 374.927344)scale(0.1 -0.1)">
       <use xlink:href="#DejaVuSans-50"/>
       <use x="63.623047" xlink:href="#DejaVuSans-48"/>
      </g>
     </g>
    </g>
    <g id="ytick_27">
     <g id="line2d_69">
      <g>
       <use style="stroke:#000000;stroke-width:0.8;" x="298.499424" xlink:href="#ma16c1e5f24" y="339.418125"/>
      </g>
     </g>
     <g id="text_66">
      <!-- 40 -->
      <g transform="translate(278.774424 343.217344)scale(0.1 -0.1)">
       <use xlink:href="#DejaVuSans-52"/>
       <use x="63.623047" xlink:href="#DejaVuSans-48"/>
      </g>
     </g>
    </g>
    <g id="ytick_28">
     <g id="line2d_70">
      <g>
       <use style="stroke:#000000;stroke-width:0.8;" x="298.499424" xlink:href="#ma16c1e5f24" y="307.708125"/>
      </g>
     </g>
     <g id="text_67">
      <!-- 60 -->
      <g transform="translate(278.774424 311.507344)scale(0.1 -0.1)">
       <use xlink:href="#DejaVuSans-54"/>
       <use x="63.623047" xlink:href="#DejaVuSans-48"/>
      </g>
     </g>
    </g>
    <g id="ytick_29">
     <g id="line2d_71">
      <g>
       <use style="stroke:#000000;stroke-width:0.8;" x="298.499424" xlink:href="#ma16c1e5f24" y="275.998125"/>
      </g>
     </g>
     <g id="text_68">
      <!-- 80 -->
      <g transform="translate(278.774424 279.797344)scale(0.1 -0.1)">
       <use xlink:href="#DejaVuSans-56"/>
       <use x="63.623047" xlink:href="#DejaVuSans-48"/>
      </g>
     </g>
    </g>
    <g id="ytick_30">
     <g id="line2d_72">
      <g>
       <use style="stroke:#000000;stroke-width:0.8;" x="298.499424" xlink:href="#ma16c1e5f24" y="244.288125"/>
      </g>
     </g>
     <g id="text_69">
      <!-- 100 -->
      <g transform="translate(272.411924 248.087344)scale(0.1 -0.1)">
       <use xlink:href="#DejaVuSans-49"/>
       <use x="63.623047" xlink:href="#DejaVuSans-48"/>
       <use x="127.246094" xlink:href="#DejaVuSans-48"/>
      </g>
     </g>
    </g>
   </g>
   <g id="line2d_73">
    <path clip-path="url(#p260940271a)" d="M 306.508994 369.542625 
L 308.110908 336.247125 
L 309.712821 341.003625 
L 311.314735 344.174625 
L 312.916649 350.516625 
L 314.518563 347.345625 
L 316.120477 350.516625 
L 317.722391 344.174625 
L 319.324305 347.345625 
L 320.926219 337.832625 
L 322.528132 337.832625 
L 324.130046 336.247125 
L 325.73196 344.174625 
L 327.333874 345.760125 
L 328.935788 339.418125 
L 330.537702 326.734125 
L 332.139616 318.806625 
L 333.74153 341.003625 
L 335.343443 344.174625 
L 336.945357 328.319625 
L 338.547271 333.076125 
L 340.149185 342.589125 
L 341.751099 328.319625 
L 343.353013 342.589125 
L 344.954927 329.905125 
L 346.556841 347.345625 
L 348.158754 334.661625 
L 349.760668 331.490625 
L 351.362582 342.589125 
L 352.964496 333.076125 
L 354.56641 337.832625 
L 356.168324 344.174625 
L 357.770238 344.174625 
L 359.372152 345.760125 
L 360.974065 321.977625 
L 362.575979 344.174625 
L 364.177893 325.148625 
L 365.779807 314.050125 
L 367.381721 352.102125 
L 368.983635 339.418125 
L 370.585549 328.319625 
L 372.187463 329.905125 
L 373.789376 321.977625 
L 375.39129 333.076125 
L 376.993204 342.589125 
L 378.595118 347.345625 
L 380.197032 329.905125 
L 381.798946 337.832625 
L 383.40086 342.589125 
L 385.002774 342.589125 
L 386.604688 329.905125 
L 388.206601 318.806625 
L 389.808515 339.418125 
L 391.410429 334.661625 
L 393.012343 341.003625 
L 394.614257 337.832625 
L 396.216171 333.076125 
L 397.818085 342.589125 
L 399.419999 333.076125 
L 401.021912 336.247125 
L 402.623826 326.734125 
L 404.22574 334.661625 
L 405.827654 328.319625 
L 407.429568 317.221125 
L 409.031482 336.247125 
L 410.633396 339.418125 
L 412.23531 334.661625 
L 413.837223 331.490625 
L 415.439137 342.589125 
L 417.041051 341.003625 
L 418.642965 334.661625 
L 420.244879 326.734125 
L 421.846793 337.832625 
L 423.448707 328.319625 
L 425.050621 344.174625 
L 426.652534 339.418125 
L 428.254448 345.760125 
L 429.856362 339.418125 
L 431.458276 320.392125 
L 433.06019 333.076125 
L 434.662104 336.247125 
L 436.264018 321.977625 
L 437.865932 336.247125 
L 439.467845 334.661625 
L 441.069759 328.319625 
L 442.671673 344.174625 
L 444.273587 334.661625 
L 445.875501 329.905125 
L 447.477415 345.760125 
L 449.079329 339.418125 
L 450.681243 334.661625 
L 452.283156 328.319625 
L 453.88507 326.734125 
L 455.486984 323.563125 
L 457.088898 341.003625 
L 458.690812 337.832625 
L 460.292726 337.832625 
L 461.89464 336.247125 
L 463.496554 341.003625 
L 465.098467 323.563125 
L 466.700381 358.444125 
" style="fill:none;stroke:#008000;stroke-linecap:square;stroke-width:1.5;"/>
   </g>
   <g id="line2d_74">
    <path clip-path="url(#p260940271a)" d="M 306.508994 394.910625 
L 308.110908 334.661625 
L 309.712821 315.635625 
L 311.314735 333.076125 
L 312.916649 331.490625 
L 314.518563 309.293625 
L 316.120477 309.293625 
L 317.722391 320.392125 
L 319.324305 315.635625 
L 320.926219 318.806625 
L 322.528132 310.879125 
L 324.130046 317.221125 
L 325.73196 321.977625 
L 327.333874 304.537125 
L 328.935788 318.806625 
L 330.537702 326.734125 
L 332.139616 329.905125 
L 333.74153 317.221125 
L 335.343443 328.319625 
L 336.945357 315.635625 
L 338.547271 317.221125 
L 340.149185 321.977625 
L 341.751099 331.490625 
L 343.353013 307.708125 
L 344.954927 329.905125 
L 346.556841 321.977625 
L 348.158754 333.076125 
L 349.760668 312.464625 
L 351.362582 326.734125 
L 352.964496 331.490625 
L 354.56641 325.148625 
L 356.168324 317.221125 
L 357.770238 317.221125 
L 359.372152 314.050125 
L 360.974065 325.148625 
L 362.575979 328.319625 
L 364.177893 320.392125 
L 365.779807 329.905125 
L 367.381721 321.977625 
L 368.983635 328.319625 
L 370.585549 326.734125 
L 372.187463 337.832625 
L 373.789376 331.490625 
L 375.39129 320.392125 
L 376.993204 325.148625 
L 378.595118 317.221125 
L 380.197032 321.977625 
L 381.798946 312.464625 
L 383.40086 325.148625 
L 385.002774 325.148625 
L 386.604688 318.806625 
L 388.206601 333.076125 
L 389.808515 329.905125 
L 391.410429 336.247125 
L 393.012343 320.392125 
L 394.614257 323.563125 
L 396.216171 326.734125 
L 397.818085 323.563125 
L 399.419999 320.392125 
L 401.021912 317.221125 
L 402.623826 337.832625 
L 404.22574 333.076125 
L 405.827654 337.832625 
L 407.429568 333.076125 
L 409.031482 331.490625 
L 410.633396 341.003625 
L 412.23531 323.563125 
L 413.837223 323.563125 
L 415.439137 320.392125 
L 417.041051 325.148625 
L 418.642965 323.563125 
L 420.244879 317.221125 
L 421.846793 315.635625 
L 423.448707 320.392125 
L 425.050621 304.537125 
L 426.652534 309.293625 
L 428.254448 314.050125 
L 429.856362 318.806625 
L 431.458276 325.148625 
L 433.06019 318.806625 
L 434.662104 318.806625 
L 436.264018 326.734125 
L 437.865932 328.319625 
L 439.467845 312.464625 
L 441.069759 326.734125 
L 442.671673 336.247125 
L 444.273587 321.977625 
L 445.875501 317.221125 
L 447.477415 318.806625 
L 449.079329 312.464625 
L 450.681243 328.319625 
L 452.283156 323.563125 
L 453.88507 325.148625 
L 455.486984 328.319625 
L 457.088898 320.392125 
L 458.690812 318.806625 
L 460.292726 318.806625 
L 461.89464 317.221125 
L 463.496554 317.221125 
L 465.098467 334.661625 
L 466.700381 304.537125 
" style="fill:none;stroke:#0000ff;stroke-linecap:square;stroke-width:1.5;"/>
   </g>
   <g id="patch_24">
    <path d="M 298.499424 402.838125 
L 298.499424 244.288125 
" style="fill:none;stroke:#000000;stroke-linecap:square;stroke-linejoin:miter;stroke-width:0.8;"/>
   </g>
   <g id="patch_25">
    <path d="M 474.709951 402.838125 
L 474.709951 244.288125 
" style="fill:none;stroke:#000000;stroke-linecap:square;stroke-linejoin:miter;stroke-width:0.8;"/>
   </g>
   <g id="patch_26">
    <path d="M 298.499424 402.838125 
L 474.709951 402.838125 
" style="fill:none;stroke:#000000;stroke-linecap:square;stroke-linejoin:miter;stroke-width:0.8;"/>
   </g>
   <g id="patch_27">
    <path d="M 298.499424 244.288125 
L 474.709951 244.288125 
" style="fill:none;stroke:#000000;stroke-linecap:square;stroke-linejoin:miter;stroke-width:0.8;"/>
   </g>
   <g id="text_70">
    <!-- R = 0.8 -->
    <g transform="translate(364.052188 238.288125)scale(0.12 -0.12)">
     <use xlink:href="#DejaVuSans-82"/>
     <use x="69.482422" xlink:href="#DejaVuSans-32"/>
     <use x="101.269531" xlink:href="#DejaVuSans-61"/>
     <use x="185.058594" xlink:href="#DejaVuSans-32"/>
     <use x="216.845703" xlink:href="#DejaVuSans-48"/>
     <use x="280.46875" xlink:href="#DejaVuSans-46"/>
     <use x="312.255859" xlink:href="#DejaVuSans-56"/>
    </g>
   </g>
  </g>
  <g id="axes_6">
   <g id="patch_28">
    <path d="M 545.194161 402.838125 
L 721.404688 402.838125 
L 721.404688 244.288125 
L 545.194161 244.288125 
z
" style="fill:#ffffff;"/>
   </g>
   <g id="matplotlib.axis_11">
    <g id="xtick_31">
     <g id="line2d_75">
      <g>
       <use style="stroke:#000000;stroke-width:0.8;" x="553.203731" xlink:href="#mf2d232909f" y="402.838125"/>
      </g>
     </g>
     <g id="text_71">
      <!-- 0 -->
      <g transform="translate(550.022481 417.436562)scale(0.1 -0.1)">
       <use xlink:href="#DejaVuSans-48"/>
      </g>
     </g>
    </g>
    <g id="xtick_32">
     <g id="line2d_76">
      <g>
       <use style="stroke:#000000;stroke-width:0.8;" x="585.242008" xlink:href="#mf2d232909f" y="402.838125"/>
      </g>
     </g>
     <g id="text_72">
      <!-- 1 -->
      <g transform="translate(582.060758 417.436562)scale(0.1 -0.1)">
       <use xlink:href="#DejaVuSans-49"/>
      </g>
     </g>
    </g>
    <g id="xtick_33">
     <g id="line2d_77">
      <g>
       <use style="stroke:#000000;stroke-width:0.8;" x="617.280286" xlink:href="#mf2d232909f" y="402.838125"/>
      </g>
     </g>
     <g id="text_73">
      <!-- 2 -->
      <g transform="translate(614.099036 417.436562)scale(0.1 -0.1)">
       <use xlink:href="#DejaVuSans-50"/>
      </g>
     </g>
    </g>
    <g id="xtick_34">
     <g id="line2d_78">
      <g>
       <use style="stroke:#000000;stroke-width:0.8;" x="649.318563" xlink:href="#mf2d232909f" y="402.838125"/>
      </g>
     </g>
     <g id="text_74">
      <!-- 3 -->
      <g transform="translate(646.137313 417.436562)scale(0.1 -0.1)">
       <use xlink:href="#DejaVuSans-51"/>
      </g>
     </g>
    </g>
    <g id="xtick_35">
     <g id="line2d_79">
      <g>
       <use style="stroke:#000000;stroke-width:0.8;" x="681.356841" xlink:href="#mf2d232909f" y="402.838125"/>
      </g>
     </g>
     <g id="text_75">
      <!-- 4 -->
      <g transform="translate(678.175591 417.436562)scale(0.1 -0.1)">
       <use xlink:href="#DejaVuSans-52"/>
      </g>
     </g>
    </g>
    <g id="xtick_36">
     <g id="line2d_80">
      <g>
       <use style="stroke:#000000;stroke-width:0.8;" x="713.395118" xlink:href="#mf2d232909f" y="402.838125"/>
      </g>
     </g>
     <g id="text_76">
      <!-- 5 -->
      <g transform="translate(710.213868 417.436562)scale(0.1 -0.1)">
       <use xlink:href="#DejaVuSans-53"/>
      </g>
     </g>
    </g>
    <g id="text_77">
     <!-- Time (sec.) -->
     <g transform="translate(591.45294 434.913906)scale(0.15 -0.15)">
      <use xlink:href="#DejaVuSans-84"/>
      <use x="61.037109" xlink:href="#DejaVuSans-105"/>
      <use x="88.820312" xlink:href="#DejaVuSans-109"/>
      <use x="186.232422" xlink:href="#DejaVuSans-101"/>
      <use x="247.755859" xlink:href="#DejaVuSans-32"/>
      <use x="279.542969" xlink:href="#DejaVuSans-40"/>
      <use x="318.556641" xlink:href="#DejaVuSans-115"/>
      <use x="370.65625" xlink:href="#DejaVuSans-101"/>
      <use x="432.179688" xlink:href="#DejaVuSans-99"/>
      <use x="487.160156" xlink:href="#DejaVuSans-46"/>
      <use x="518.947266" xlink:href="#DejaVuSans-41"/>
     </g>
    </g>
   </g>
   <g id="matplotlib.axis_12">
    <g id="ytick_31">
     <g id="line2d_81">
      <g>
       <use style="stroke:#000000;stroke-width:0.8;" x="545.194161" xlink:href="#ma16c1e5f24" y="401.501809"/>
      </g>
     </g>
     <g id="text_78">
      <!-- 0 -->
      <g transform="translate(531.831661 405.301027)scale(0.1 -0.1)">
       <use xlink:href="#DejaVuSans-48"/>
      </g>
     </g>
    </g>
    <g id="ytick_32">
     <g id="line2d_82">
      <g>
       <use style="stroke:#000000;stroke-width:0.8;" x="545.194161" xlink:href="#ma16c1e5f24" y="370.059072"/>
      </g>
     </g>
     <g id="text_79">
      <!-- 20 -->
      <g transform="translate(525.469161 373.858291)scale(0.1 -0.1)">
       <use xlink:href="#DejaVuSans-50"/>
       <use x="63.623047" xlink:href="#DejaVuSans-48"/>
      </g>
     </g>
    </g>
    <g id="ytick_33">
     <g id="line2d_83">
      <g>
       <use style="stroke:#000000;stroke-width:0.8;" x="545.194161" xlink:href="#ma16c1e5f24" y="338.616335"/>
      </g>
     </g>
     <g id="text_80">
      <!-- 40 -->
      <g transform="translate(525.469161 342.415554)scale(0.1 -0.1)">
       <use xlink:href="#DejaVuSans-52"/>
       <use x="63.623047" xlink:href="#DejaVuSans-48"/>
      </g>
     </g>
    </g>
    <g id="ytick_34">
     <g id="line2d_84">
      <g>
       <use style="stroke:#000000;stroke-width:0.8;" x="545.194161" xlink:href="#ma16c1e5f24" y="307.173598"/>
      </g>
     </g>
     <g id="text_81">
      <!-- 60 -->
      <g transform="translate(525.469161 310.972817)scale(0.1 -0.1)">
       <use xlink:href="#DejaVuSans-54"/>
       <use x="63.623047" xlink:href="#DejaVuSans-48"/>
      </g>
     </g>
    </g>
    <g id="ytick_35">
     <g id="line2d_85">
      <g>
       <use style="stroke:#000000;stroke-width:0.8;" x="545.194161" xlink:href="#ma16c1e5f24" y="275.730862"/>
      </g>
     </g>
     <g id="text_82">
      <!-- 80 -->
      <g transform="translate(525.469161 279.53008)scale(0.1 -0.1)">
       <use xlink:href="#DejaVuSans-56"/>
       <use x="63.623047" xlink:href="#DejaVuSans-48"/>
      </g>
     </g>
    </g>
    <g id="ytick_36">
     <g id="line2d_86">
      <g>
       <use style="stroke:#000000;stroke-width:0.8;" x="545.194161" xlink:href="#ma16c1e5f24" y="244.288125"/>
      </g>
     </g>
     <g id="text_83">
      <!-- 100 -->
      <g transform="translate(519.106661 248.087344)scale(0.1 -0.1)">
       <use xlink:href="#DejaVuSans-49"/>
       <use x="63.623047" xlink:href="#DejaVuSans-48"/>
       <use x="127.246094" xlink:href="#DejaVuSans-48"/>
      </g>
     </g>
    </g>
   </g>
   <g id="line2d_87">
    <path clip-path="url(#p3526aa6dc2)" d="M 553.203731 370.059072 
L 554.805644 326.039241 
L 556.407558 326.039241 
L 558.009472 335.472062 
L 559.611386 324.467104 
L 561.2133 318.178556 
L 562.815214 324.467104 
L 564.417128 324.467104 
L 566.019042 340.188472 
L 567.620955 343.332746 
L 569.222869 329.183514 
L 570.824783 340.188472 
L 572.426697 337.044198 
L 574.028611 322.894967 
L 575.630525 319.750693 
L 577.232439 327.611377 
L 578.834353 316.606419 
L 580.436266 315.034283 
L 582.03818 335.472062 
L 583.640094 321.32283 
L 585.242008 322.894967 
L 586.843922 313.462146 
L 588.445836 327.611377 
L 590.04775 346.477019 
L 591.649664 322.894967 
L 593.251577 321.32283 
L 594.853491 324.467104 
L 596.455405 326.039241 
L 598.057319 318.178556 
L 599.659233 318.178556 
L 601.261147 335.472062 
L 602.863061 321.32283 
L 604.464975 321.32283 
L 606.066888 318.178556 
L 607.668802 315.034283 
L 609.270716 332.327788 
L 610.87263 318.178556 
L 612.474544 332.327788 
L 614.076458 330.755651 
L 615.678372 332.327788 
L 617.280286 326.039241 
L 618.882199 324.467104 
L 620.484113 330.755651 
L 622.086027 333.899925 
L 623.687941 326.039241 
L 625.289855 341.760609 
L 626.891769 324.467104 
L 628.493683 332.327788 
L 630.095597 322.894967 
L 631.69751 338.616335 
L 633.299424 326.039241 
L 634.901338 335.472062 
L 636.503252 337.044198 
L 638.105166 319.750693 
L 639.70708 335.472062 
L 641.308994 329.183514 
L 642.910908 324.467104 
L 644.512821 333.899925 
L 646.114735 321.32283 
L 647.716649 335.472062 
L 649.318563 335.472062 
L 650.920477 338.616335 
L 652.522391 340.188472 
L 654.124305 319.750693 
L 655.726219 335.472062 
L 657.328132 324.467104 
L 658.930046 335.472062 
L 660.53196 324.467104 
L 662.133874 324.467104 
L 663.735788 343.332746 
L 665.337702 338.616335 
L 666.939616 327.611377 
L 668.54153 327.611377 
L 670.143443 326.039241 
L 671.745357 322.894967 
L 673.347271 322.894967 
L 674.949185 341.760609 
L 676.551099 321.32283 
L 678.153013 322.894967 
L 679.754927 321.32283 
L 681.356841 335.472062 
L 682.958754 322.894967 
L 684.560668 332.327788 
L 686.162582 308.745735 
L 687.764496 327.611377 
L 689.36641 315.034283 
L 690.968324 316.606419 
L 692.570238 332.327788 
L 694.172152 333.899925 
L 695.774065 348.049156 
L 697.375979 318.178556 
L 698.977893 321.32283 
L 700.579807 351.19343 
L 702.181721 340.188472 
L 703.783635 330.755651 
L 705.385549 319.750693 
L 706.987463 316.606419 
L 708.589376 322.894967 
L 710.19129 326.039241 
L 711.793204 335.472062 
L 713.395118 330.755651 
" style="fill:none;stroke:#008000;stroke-linecap:square;stroke-width:1.5;"/>
   </g>
   <g id="line2d_88">
    <path clip-path="url(#p3526aa6dc2)" d="M 553.203731 398.357535 
L 554.805644 381.06403 
L 556.407558 363.770525 
L 558.009472 376.347619 
L 559.611386 366.914798 
L 561.2133 365.342661 
L 562.815214 368.486935 
L 564.417128 359.054114 
L 566.019042 382.636167 
L 567.620955 357.481977 
L 569.222869 360.626251 
L 570.824783 362.198388 
L 572.426697 362.198388 
L 574.028611 360.626251 
L 575.630525 355.90984 
L 577.232439 366.914798 
L 578.834353 359.054114 
L 580.436266 359.054114 
L 582.03818 371.631209 
L 583.640094 377.919756 
L 585.242008 373.203346 
L 586.843922 344.904883 
L 588.445836 360.626251 
L 590.04775 362.198388 
L 591.649664 352.765567 
L 593.251577 355.90984 
L 594.853491 376.347619 
L 596.455405 352.765567 
L 598.057319 341.760609 
L 599.659233 360.626251 
L 601.261147 376.347619 
L 602.863061 374.775482 
L 604.464975 357.481977 
L 606.066888 344.904883 
L 607.668802 351.19343 
L 609.270716 351.19343 
L 610.87263 359.054114 
L 612.474544 360.626251 
L 614.076458 377.919756 
L 615.678372 362.198388 
L 617.280286 344.904883 
L 618.882199 355.90984 
L 620.484113 348.049156 
L 622.086027 359.054114 
L 623.687941 343.332746 
L 625.289855 355.90984 
L 626.891769 344.904883 
L 628.493683 359.054114 
L 630.095597 360.626251 
L 631.69751 359.054114 
L 633.299424 352.765567 
L 634.901338 344.904883 
L 636.503252 349.621293 
L 638.105166 360.626251 
L 639.70708 360.626251 
L 641.308994 368.486935 
L 642.910908 368.486935 
L 644.512821 366.914798 
L 646.114735 377.919756 
L 647.716649 360.626251 
L 649.318563 368.486935 
L 650.920477 354.337704 
L 652.522391 349.621293 
L 654.124305 348.049156 
L 655.726219 349.621293 
L 657.328132 362.198388 
L 658.930046 371.631209 
L 660.53196 360.626251 
L 662.133874 366.914798 
L 663.735788 354.337704 
L 665.337702 352.765567 
L 666.939616 346.477019 
L 668.54153 362.198388 
L 670.143443 344.904883 
L 671.745357 355.90984 
L 673.347271 351.19343 
L 674.949185 359.054114 
L 676.551099 357.481977 
L 678.153013 344.904883 
L 679.754927 355.90984 
L 681.356841 355.90984 
L 682.958754 373.203346 
L 684.560668 365.342661 
L 686.162582 363.770525 
L 687.764496 354.337704 
L 689.36641 355.90984 
L 690.968324 360.626251 
L 692.570238 352.765567 
L 694.172152 351.19343 
L 695.774065 365.342661 
L 697.375979 355.90984 
L 698.977893 360.626251 
L 700.579807 377.919756 
L 702.181721 360.626251 
L 703.783635 355.90984 
L 705.385549 357.481977 
L 706.987463 354.337704 
L 708.589376 357.481977 
L 710.19129 368.486935 
L 711.793204 357.481977 
L 713.395118 343.332746 
" style="fill:none;stroke:#0000ff;stroke-linecap:square;stroke-width:1.5;"/>
   </g>
   <g id="patch_29">
    <path d="M 545.194161 402.838125 
L 545.194161 244.288125 
" style="fill:none;stroke:#000000;stroke-linecap:square;stroke-linejoin:miter;stroke-width:0.8;"/>
   </g>
   <g id="patch_30">
    <path d="M 721.404688 402.838125 
L 721.404688 244.288125 
" style="fill:none;stroke:#000000;stroke-linecap:square;stroke-linejoin:miter;stroke-width:0.8;"/>
   </g>
   <g id="patch_31">
    <path d="M 545.194161 402.838125 
L 721.404688 402.838125 
" style="fill:none;stroke:#000000;stroke-linecap:square;stroke-linejoin:miter;stroke-width:0.8;"/>
   </g>
   <g id="patch_32">
    <path d="M 545.194161 244.288125 
L 721.404688 244.288125 
" style="fill:none;stroke:#000000;stroke-linecap:square;stroke-linejoin:miter;stroke-width:0.8;"/>
   </g>
   <g id="text_84">
    <!-- R = 0.9 -->
    <defs>
     <path d="M 10.984375 1.515625 
L 10.984375 10.5 
Q 14.703125 8.734375 18.5 7.8125 
Q 22.3125 6.890625 25.984375 6.890625 
Q 35.75 6.890625 40.890625 13.453125 
Q 46.046875 20.015625 46.78125 33.40625 
Q 43.953125 29.203125 39.59375 26.953125 
Q 35.25 24.703125 29.984375 24.703125 
Q 19.046875 24.703125 12.671875 31.3125 
Q 6.296875 37.9375 6.296875 49.421875 
Q 6.296875 60.640625 12.9375 67.421875 
Q 19.578125 74.21875 30.609375 74.21875 
Q 43.265625 74.21875 49.921875 64.515625 
Q 56.59375 54.828125 56.59375 36.375 
Q 56.59375 19.140625 48.40625 8.859375 
Q 40.234375 -1.421875 26.421875 -1.421875 
Q 22.703125 -1.421875 18.890625 -0.6875 
Q 15.09375 0.046875 10.984375 1.515625 
z
M 30.609375 32.421875 
Q 37.25 32.421875 41.125 36.953125 
Q 45.015625 41.5 45.015625 49.421875 
Q 45.015625 57.28125 41.125 61.84375 
Q 37.25 66.40625 30.609375 66.40625 
Q 23.96875 66.40625 20.09375 61.84375 
Q 16.21875 57.28125 16.21875 49.421875 
Q 16.21875 41.5 20.09375 36.953125 
Q 23.96875 32.421875 30.609375 32.421875 
z
" id="DejaVuSans-57"/>
    </defs>
    <g transform="translate(610.746924 238.288125)scale(0.12 -0.12)">
     <use xlink:href="#DejaVuSans-82"/>
     <use x="69.482422" xlink:href="#DejaVuSans-32"/>
     <use x="101.269531" xlink:href="#DejaVuSans-61"/>
     <use x="185.058594" xlink:href="#DejaVuSans-32"/>
     <use x="216.845703" xlink:href="#DejaVuSans-48"/>
     <use x="280.46875" xlink:href="#DejaVuSans-46"/>
     <use x="312.255859" xlink:href="#DejaVuSans-57"/>
    </g>
   </g>
  </g>
 </g>
 <defs>
  <clipPath id="pfaa9656432">
   <rect height="158.55" width="176.210526" x="51.804688" y="22.318125"/>
  </clipPath>
  <clipPath id="pa0b8767730">
   <rect height="158.55" width="176.210526" x="298.499424" y="22.318125"/>
  </clipPath>
  <clipPath id="p6a843421f3">
   <rect height="158.55" width="176.210526" x="545.194161" y="22.318125"/>
  </clipPath>
  <clipPath id="p7eaeb98584">
   <rect height="158.55" width="176.210526" x="51.804688" y="244.288125"/>
  </clipPath>
  <clipPath id="p260940271a">
   <rect height="158.55" width="176.210526" x="298.499424" y="244.288125"/>
  </clipPath>
  <clipPath id="p3526aa6dc2">
   <rect height="158.55" width="176.210526" x="545.194161" y="244.288125"/>
  </clipPath>
 </defs>
</svg>
