<?xml version="1.0" encoding="utf-8" standalone="no"?>
<!DOCTYPE svg PUBLIC "-//W3C//DTD SVG 1.1//EN"
  "http://www.w3.org/Graphics/SVG/1.1/DTD/svg11.dtd">
<!-- Created with matplotlib (https://matplotlib.org/) -->
<svg height="449.28pt" version="1.1" viewBox="0 0 689.141719 449.28" width="689.141719pt" xmlns="http://www.w3.org/2000/svg" xmlns:xlink="http://www.w3.org/1999/xlink">
 <defs>
  <style type="text/css">
*{stroke-linecap:butt;stroke-linejoin:round;}
  </style>
 </defs>
 <g id="figure_1">
  <g id="patch_1">
   <path d="M 0 449.28 
L 689.141719 449.28 
L 689.141719 0 
L 0 0 
z
" style="fill:#ffffff;"/>
  </g>
  <g id="axes_1">
   <g id="patch_2">
    <path d="M 56.16 204.872727 
L 502.56 204.872727 
L 502.56 7.2 
L 56.16 7.2 
z
" style="fill:#ffffff;"/>
   </g>
   <g id="patch_3">
    <path clip-path="url(#p9f2b287495)" d="M 482.269091 204.872727 
L 454.755994 204.872727 
L 454.755994 83.156273 
L 482.269091 83.156273 
z
" style="fill:#008000;opacity:0.5;stroke:#008000;stroke-linejoin:miter;"/>
   </g>
   <g id="patch_4">
    <path clip-path="url(#p9f2b287495)" d="M 447.87772 204.872727 
L 420.364622 204.872727 
L 420.364622 79.148643 
L 447.87772 79.148643 
z
" style="fill:#008000;opacity:0.5;stroke:#008000;stroke-linejoin:miter;"/>
   </g>
   <g id="patch_5">
    <path clip-path="url(#p9f2b287495)" d="M 413.486348 204.872727 
L 385.973251 204.872727 
L 385.973251 83.957593 
L 413.486348 83.957593 
z
" style="fill:#008000;opacity:0.5;stroke:#008000;stroke-linejoin:miter;"/>
   </g>
   <g id="patch_6">
    <path clip-path="url(#p9f2b287495)" d="M 379.094977 204.872727 
L 351.58188 204.872727 
L 351.58188 89.110507 
L 379.094977 89.110507 
z
" style="fill:#008000;opacity:0.5;stroke:#008000;stroke-linejoin:miter;"/>
   </g>
   <g id="patch_7">
    <path clip-path="url(#p9f2b287495)" d="M 344.703606 204.872727 
L 317.190508 204.872727 
L 317.190508 89.110507 
L 344.703606 89.110507 
z
" style="fill:#008000;opacity:0.5;stroke:#008000;stroke-linejoin:miter;"/>
   </g>
   <g id="patch_8">
    <path clip-path="url(#p9f2b287495)" d="M 310.312234 204.872727 
L 282.799137 204.872727 
L 282.799137 101.247825 
L 310.312234 101.247825 
z
" style="fill:#008000;opacity:0.5;stroke:#008000;stroke-linejoin:miter;"/>
   </g>
   <g id="patch_9">
    <path clip-path="url(#p9f2b287495)" d="M 275.920863 204.872727 
L 248.407766 204.872727 
L 248.407766 104.797412 
L 275.920863 104.797412 
z
" style="fill:#008000;opacity:0.5;stroke:#008000;stroke-linejoin:miter;"/>
   </g>
   <g id="patch_10">
    <path clip-path="url(#p9f2b287495)" d="M 241.529492 204.872727 
L 214.016394 204.872727 
L 214.016394 106.51482 
L 241.529492 106.51482 
z
" style="fill:#008000;opacity:0.5;stroke:#008000;stroke-linejoin:miter;"/>
   </g>
   <g id="patch_11">
    <path clip-path="url(#p9f2b287495)" d="M 207.13812 204.872727 
L 179.625023 204.872727 
L 179.625023 100.446161 
L 207.13812 100.446161 
z
" style="fill:#008000;opacity:0.5;stroke:#008000;stroke-linejoin:miter;"/>
   </g>
   <g id="patch_12">
    <path clip-path="url(#p9f2b287495)" d="M 172.746749 204.872727 
L 145.233652 204.872727 
L 145.233652 104.339367 
L 172.746749 104.339367 
z
" style="fill:#008000;opacity:0.5;stroke:#008000;stroke-linejoin:miter;"/>
   </g>
   <g id="patch_13">
    <path clip-path="url(#p9f2b287495)" d="M 138.355378 204.872727 
L 110.84228 204.872727 
L 110.84228 107.545334 
L 138.355378 107.545334 
z
" style="fill:#008000;opacity:0.5;stroke:#008000;stroke-linejoin:miter;"/>
   </g>
   <g id="patch_14">
    <path clip-path="url(#p9f2b287495)" d="M 103.964006 204.872727 
L 76.450909 204.872727 
L 76.450909 108.919468 
L 103.964006 108.919468 
z
" style="fill:#008000;opacity:0.5;stroke:#008000;stroke-linejoin:miter;"/>
   </g>
   <g id="matplotlib.axis_1">
    <g id="xtick_1">
     <g id="line2d_1">
      <defs>
       <path d="M 0 0 
L 0 3.5 
" id="m8f4f5108f9" style="stroke:#000000;stroke-width:0.8;"/>
      </defs>
      <g>
       <use style="stroke:#000000;stroke-width:0.8;" x="485.708228" xlink:href="#m8f4f5108f9" y="204.872727"/>
      </g>
     </g>
     <g id="text_1">
      <!-- 1 -->
      <defs>
       <path d="M 12.40625 8.296875 
L 28.515625 8.296875 
L 28.515625 63.921875 
L 10.984375 60.40625 
L 10.984375 69.390625 
L 28.421875 72.90625 
L 38.28125 72.90625 
L 38.28125 8.296875 
L 54.390625 8.296875 
L 54.390625 0 
L 12.40625 0 
z
" id="DejaVuSans-49"/>
      </defs>
      <g transform="translate(482.526978 240.971165)scale(0.1 -0.1)">
       <use xlink:href="#DejaVuSans-49"/>
      </g>
     </g>
    </g>
    <g id="xtick_2">
     <g id="line2d_2">
      <g>
       <use style="stroke:#000000;stroke-width:0.8;" x="451.316857" xlink:href="#m8f4f5108f9" y="204.872727"/>
      </g>
     </g>
     <g id="text_2">
      <!-- 2 -->
      <defs>
       <path d="M 19.1875 8.296875 
L 53.609375 8.296875 
L 53.609375 0 
L 7.328125 0 
L 7.328125 8.296875 
Q 12.9375 14.109375 22.625 23.890625 
Q 32.328125 33.6875 34.8125 36.53125 
Q 39.546875 41.84375 41.421875 45.53125 
Q 43.3125 49.21875 43.3125 52.78125 
Q 43.3125 58.59375 39.234375 62.25 
Q 35.15625 65.921875 28.609375 65.921875 
Q 23.96875 65.921875 18.8125 64.3125 
Q 13.671875 62.703125 7.8125 59.421875 
L 7.8125 69.390625 
Q 13.765625 71.78125 18.9375 73 
Q 24.125 74.21875 28.421875 74.21875 
Q 39.75 74.21875 46.484375 68.546875 
Q 53.21875 62.890625 53.21875 53.421875 
Q 53.21875 48.921875 51.53125 44.890625 
Q 49.859375 40.875 45.40625 35.40625 
Q 44.1875 33.984375 37.640625 27.21875 
Q 31.109375 20.453125 19.1875 8.296875 
z
" id="DejaVuSans-50"/>
      </defs>
      <g transform="translate(448.135607 240.971165)scale(0.1 -0.1)">
       <use xlink:href="#DejaVuSans-50"/>
      </g>
     </g>
    </g>
    <g id="xtick_3">
     <g id="line2d_3">
      <g>
       <use style="stroke:#000000;stroke-width:0.8;" x="416.925485" xlink:href="#m8f4f5108f9" y="204.872727"/>
      </g>
     </g>
     <g id="text_3">
      <!-- 3 -->
      <defs>
       <path d="M 40.578125 39.3125 
Q 47.65625 37.796875 51.625 33 
Q 55.609375 28.21875 55.609375 21.1875 
Q 55.609375 10.40625 48.1875 4.484375 
Q 40.765625 -1.421875 27.09375 -1.421875 
Q 22.515625 -1.421875 17.65625 -0.515625 
Q 12.796875 0.390625 7.625 2.203125 
L 7.625 11.71875 
Q 11.71875 9.328125 16.59375 8.109375 
Q 21.484375 6.890625 26.8125 6.890625 
Q 36.078125 6.890625 40.9375 10.546875 
Q 45.796875 14.203125 45.796875 21.1875 
Q 45.796875 27.640625 41.28125 31.265625 
Q 36.765625 34.90625 28.71875 34.90625 
L 20.21875 34.90625 
L 20.21875 43.015625 
L 29.109375 43.015625 
Q 36.375 43.015625 40.234375 45.921875 
Q 44.09375 48.828125 44.09375 54.296875 
Q 44.09375 59.90625 40.109375 62.90625 
Q 36.140625 65.921875 28.71875 65.921875 
Q 24.65625 65.921875 20.015625 65.03125 
Q 15.375 64.15625 9.8125 62.3125 
L 9.8125 71.09375 
Q 15.4375 72.65625 20.34375 73.4375 
Q 25.25 74.21875 29.59375 74.21875 
Q 40.828125 74.21875 47.359375 69.109375 
Q 53.90625 64.015625 53.90625 55.328125 
Q 53.90625 49.265625 50.4375 45.09375 
Q 46.96875 40.921875 40.578125 39.3125 
z
" id="DejaVuSans-51"/>
      </defs>
      <g transform="translate(413.744235 240.971165)scale(0.1 -0.1)">
       <use xlink:href="#DejaVuSans-51"/>
      </g>
     </g>
    </g>
    <g id="xtick_4">
     <g id="line2d_4">
      <g>
       <use style="stroke:#000000;stroke-width:0.8;" x="382.534114" xlink:href="#m8f4f5108f9" y="204.872727"/>
      </g>
     </g>
     <g id="text_4">
      <!-- 4 -->
      <defs>
       <path d="M 37.796875 64.3125 
L 12.890625 25.390625 
L 37.796875 25.390625 
z
M 35.203125 72.90625 
L 47.609375 72.90625 
L 47.609375 25.390625 
L 58.015625 25.390625 
L 58.015625 17.1875 
L 47.609375 17.1875 
L 47.609375 0 
L 37.796875 0 
L 37.796875 17.1875 
L 4.890625 17.1875 
L 4.890625 26.703125 
z
" id="DejaVuSans-52"/>
      </defs>
      <g transform="translate(379.352864 240.971165)scale(0.1 -0.1)">
       <use xlink:href="#DejaVuSans-52"/>
      </g>
     </g>
    </g>
    <g id="xtick_5">
     <g id="line2d_5">
      <g>
       <use style="stroke:#000000;stroke-width:0.8;" x="348.142743" xlink:href="#m8f4f5108f9" y="204.872727"/>
      </g>
     </g>
     <g id="text_5">
      <!-- 5 -->
      <defs>
       <path d="M 10.796875 72.90625 
L 49.515625 72.90625 
L 49.515625 64.59375 
L 19.828125 64.59375 
L 19.828125 46.734375 
Q 21.96875 47.46875 24.109375 47.828125 
Q 26.265625 48.1875 28.421875 48.1875 
Q 40.625 48.1875 47.75 41.5 
Q 54.890625 34.8125 54.890625 23.390625 
Q 54.890625 11.625 47.5625 5.09375 
Q 40.234375 -1.421875 26.90625 -1.421875 
Q 22.3125 -1.421875 17.546875 -0.640625 
Q 12.796875 0.140625 7.71875 1.703125 
L 7.71875 11.625 
Q 12.109375 9.234375 16.796875 8.0625 
Q 21.484375 6.890625 26.703125 6.890625 
Q 35.15625 6.890625 40.078125 11.328125 
Q 45.015625 15.765625 45.015625 23.390625 
Q 45.015625 31 40.078125 35.4375 
Q 35.15625 39.890625 26.703125 39.890625 
Q 22.75 39.890625 18.8125 39.015625 
Q 14.890625 38.140625 10.796875 36.28125 
z
" id="DejaVuSans-53"/>
      </defs>
      <g transform="translate(344.961493 240.971165)scale(0.1 -0.1)">
       <use xlink:href="#DejaVuSans-53"/>
      </g>
     </g>
    </g>
    <g id="xtick_6">
     <g id="line2d_6">
      <g>
       <use style="stroke:#000000;stroke-width:0.8;" x="313.751371" xlink:href="#m8f4f5108f9" y="204.872727"/>
      </g>
     </g>
     <g id="text_6">
      <!-- 6 -->
      <defs>
       <path d="M 33.015625 40.375 
Q 26.375 40.375 22.484375 35.828125 
Q 18.609375 31.296875 18.609375 23.390625 
Q 18.609375 15.53125 22.484375 10.953125 
Q 26.375 6.390625 33.015625 6.390625 
Q 39.65625 6.390625 43.53125 10.953125 
Q 47.40625 15.53125 47.40625 23.390625 
Q 47.40625 31.296875 43.53125 35.828125 
Q 39.65625 40.375 33.015625 40.375 
z
M 52.59375 71.296875 
L 52.59375 62.3125 
Q 48.875 64.0625 45.09375 64.984375 
Q 41.3125 65.921875 37.59375 65.921875 
Q 27.828125 65.921875 22.671875 59.328125 
Q 17.53125 52.734375 16.796875 39.40625 
Q 19.671875 43.65625 24.015625 45.921875 
Q 28.375 48.1875 33.59375 48.1875 
Q 44.578125 48.1875 50.953125 41.515625 
Q 57.328125 34.859375 57.328125 23.390625 
Q 57.328125 12.15625 50.6875 5.359375 
Q 44.046875 -1.421875 33.015625 -1.421875 
Q 20.359375 -1.421875 13.671875 8.265625 
Q 6.984375 17.96875 6.984375 36.375 
Q 6.984375 53.65625 15.1875 63.9375 
Q 23.390625 74.21875 37.203125 74.21875 
Q 40.921875 74.21875 44.703125 73.484375 
Q 48.484375 72.75 52.59375 71.296875 
z
" id="DejaVuSans-54"/>
      </defs>
      <g transform="translate(310.570121 240.971165)scale(0.1 -0.1)">
       <use xlink:href="#DejaVuSans-54"/>
      </g>
     </g>
    </g>
    <g id="xtick_7">
     <g id="line2d_7">
      <g>
       <use style="stroke:#000000;stroke-width:0.8;" x="279.36" xlink:href="#m8f4f5108f9" y="204.872727"/>
      </g>
     </g>
     <g id="text_7">
      <!-- 7 -->
      <defs>
       <path d="M 8.203125 72.90625 
L 55.078125 72.90625 
L 55.078125 68.703125 
L 28.609375 0 
L 18.3125 0 
L 43.21875 64.59375 
L 8.203125 64.59375 
z
" id="DejaVuSans-55"/>
      </defs>
      <g transform="translate(276.17875 240.971165)scale(0.1 -0.1)">
       <use xlink:href="#DejaVuSans-55"/>
      </g>
     </g>
    </g>
    <g id="xtick_8">
     <g id="line2d_8">
      <g>
       <use style="stroke:#000000;stroke-width:0.8;" x="244.968629" xlink:href="#m8f4f5108f9" y="204.872727"/>
      </g>
     </g>
     <g id="text_8">
      <!-- 8 -->
      <defs>
       <path d="M 31.78125 34.625 
Q 24.75 34.625 20.71875 30.859375 
Q 16.703125 27.09375 16.703125 20.515625 
Q 16.703125 13.921875 20.71875 10.15625 
Q 24.75 6.390625 31.78125 6.390625 
Q 38.8125 6.390625 42.859375 10.171875 
Q 46.921875 13.96875 46.921875 20.515625 
Q 46.921875 27.09375 42.890625 30.859375 
Q 38.875 34.625 31.78125 34.625 
z
M 21.921875 38.8125 
Q 15.578125 40.375 12.03125 44.71875 
Q 8.5 49.078125 8.5 55.328125 
Q 8.5 64.0625 14.71875 69.140625 
Q 20.953125 74.21875 31.78125 74.21875 
Q 42.671875 74.21875 48.875 69.140625 
Q 55.078125 64.0625 55.078125 55.328125 
Q 55.078125 49.078125 51.53125 44.71875 
Q 48 40.375 41.703125 38.8125 
Q 48.828125 37.15625 52.796875 32.3125 
Q 56.78125 27.484375 56.78125 20.515625 
Q 56.78125 9.90625 50.3125 4.234375 
Q 43.84375 -1.421875 31.78125 -1.421875 
Q 19.734375 -1.421875 13.25 4.234375 
Q 6.78125 9.90625 6.78125 20.515625 
Q 6.78125 27.484375 10.78125 32.3125 
Q 14.796875 37.15625 21.921875 38.8125 
z
M 18.3125 54.390625 
Q 18.3125 48.734375 21.84375 45.5625 
Q 25.390625 42.390625 31.78125 42.390625 
Q 38.140625 42.390625 41.71875 45.5625 
Q 45.3125 48.734375 45.3125 54.390625 
Q 45.3125 60.0625 41.71875 63.234375 
Q 38.140625 66.40625 31.78125 66.40625 
Q 25.390625 66.40625 21.84375 63.234375 
Q 18.3125 60.0625 18.3125 54.390625 
z
" id="DejaVuSans-56"/>
      </defs>
      <g transform="translate(241.787379 240.971165)scale(0.1 -0.1)">
       <use xlink:href="#DejaVuSans-56"/>
      </g>
     </g>
    </g>
    <g id="xtick_9">
     <g id="line2d_9">
      <g>
       <use style="stroke:#000000;stroke-width:0.8;" x="210.577257" xlink:href="#m8f4f5108f9" y="204.872727"/>
      </g>
     </g>
     <g id="text_9">
      <!-- 9 -->
      <defs>
       <path d="M 10.984375 1.515625 
L 10.984375 10.5 
Q 14.703125 8.734375 18.5 7.8125 
Q 22.3125 6.890625 25.984375 6.890625 
Q 35.75 6.890625 40.890625 13.453125 
Q 46.046875 20.015625 46.78125 33.40625 
Q 43.953125 29.203125 39.59375 26.953125 
Q 35.25 24.703125 29.984375 24.703125 
Q 19.046875 24.703125 12.671875 31.3125 
Q 6.296875 37.9375 6.296875 49.421875 
Q 6.296875 60.640625 12.9375 67.421875 
Q 19.578125 74.21875 30.609375 74.21875 
Q 43.265625 74.21875 49.921875 64.515625 
Q 56.59375 54.828125 56.59375 36.375 
Q 56.59375 19.140625 48.40625 8.859375 
Q 40.234375 -1.421875 26.421875 -1.421875 
Q 22.703125 -1.421875 18.890625 -0.6875 
Q 15.09375 0.046875 10.984375 1.515625 
z
M 30.609375 32.421875 
Q 37.25 32.421875 41.125 36.953125 
Q 45.015625 41.5 45.015625 49.421875 
Q 45.015625 57.28125 41.125 61.84375 
Q 37.25 66.40625 30.609375 66.40625 
Q 23.96875 66.40625 20.09375 61.84375 
Q 16.21875 57.28125 16.21875 49.421875 
Q 16.21875 41.5 20.09375 36.953125 
Q 23.96875 32.421875 30.609375 32.421875 
z
" id="DejaVuSans-57"/>
      </defs>
      <g transform="translate(207.396007 240.971165)scale(0.1 -0.1)">
       <use xlink:href="#DejaVuSans-57"/>
      </g>
     </g>
    </g>
    <g id="xtick_10">
     <g id="line2d_10">
      <g>
       <use style="stroke:#000000;stroke-width:0.8;" x="176.185886" xlink:href="#m8f4f5108f9" y="204.872727"/>
      </g>
     </g>
     <g id="text_10">
      <!-- 10 -->
      <defs>
       <path d="M 31.78125 66.40625 
Q 24.171875 66.40625 20.328125 58.90625 
Q 16.5 51.421875 16.5 36.375 
Q 16.5 21.390625 20.328125 13.890625 
Q 24.171875 6.390625 31.78125 6.390625 
Q 39.453125 6.390625 43.28125 13.890625 
Q 47.125 21.390625 47.125 36.375 
Q 47.125 51.421875 43.28125 58.90625 
Q 39.453125 66.40625 31.78125 66.40625 
z
M 31.78125 74.21875 
Q 44.046875 74.21875 50.515625 64.515625 
Q 56.984375 54.828125 56.984375 36.375 
Q 56.984375 17.96875 50.515625 8.265625 
Q 44.046875 -1.421875 31.78125 -1.421875 
Q 19.53125 -1.421875 13.0625 8.265625 
Q 6.59375 17.96875 6.59375 36.375 
Q 6.59375 54.828125 13.0625 64.515625 
Q 19.53125 74.21875 31.78125 74.21875 
z
" id="DejaVuSans-48"/>
      </defs>
      <g transform="translate(169.823386 240.971165)scale(0.1 -0.1)">
       <use xlink:href="#DejaVuSans-49"/>
       <use x="63.623047" xlink:href="#DejaVuSans-48"/>
      </g>
     </g>
    </g>
    <g id="xtick_11">
     <g id="line2d_11">
      <g>
       <use style="stroke:#000000;stroke-width:0.8;" x="141.794515" xlink:href="#m8f4f5108f9" y="204.872727"/>
      </g>
     </g>
     <g id="text_11">
      <!-- 11 -->
      <g transform="translate(135.432015 240.971165)scale(0.1 -0.1)">
       <use xlink:href="#DejaVuSans-49"/>
       <use x="63.623047" xlink:href="#DejaVuSans-49"/>
      </g>
     </g>
    </g>
    <g id="xtick_12">
     <g id="line2d_12">
      <g>
       <use style="stroke:#000000;stroke-width:0.8;" x="107.403143" xlink:href="#m8f4f5108f9" y="204.872727"/>
      </g>
     </g>
     <g id="text_12">
      <!-- 12 -->
      <g transform="translate(101.040643 240.971165)scale(0.1 -0.1)">
       <use xlink:href="#DejaVuSans-49"/>
       <use x="63.623047" xlink:href="#DejaVuSans-50"/>
      </g>
     </g>
    </g>
    <g id="xtick_13">
     <g id="line2d_13">
      <g>
       <use style="stroke:#000000;stroke-width:0.8;" x="73.011772" xlink:href="#m8f4f5108f9" y="204.872727"/>
      </g>
     </g>
     <g id="text_13">
      <!-- 13 -->
      <g transform="translate(66.649272 240.971165)scale(0.1 -0.1)">
       <use xlink:href="#DejaVuSans-49"/>
       <use x="63.623047" xlink:href="#DejaVuSans-51"/>
      </g>
     </g>
    </g>
   </g>
   <g id="matplotlib.axis_2">
    <g id="ytick_1">
     <g id="line2d_14">
      <defs>
       <path d="M 0 0 
L -3.5 0 
" id="m6ef368f4a7" style="stroke:#000000;stroke-width:0.8;"/>
      </defs>
      <g>
       <use style="stroke:#000000;stroke-width:0.8;" x="56.16" xlink:href="#m6ef368f4a7" y="204.872727"/>
      </g>
     </g>
     <g id="text_14">
      <!-- 0 -->
      <g transform="translate(42.7975 208.671946)scale(0.1 -0.1)">
       <use xlink:href="#DejaVuSans-48"/>
      </g>
     </g>
    </g>
    <g id="ytick_2">
     <g id="line2d_15">
      <g>
       <use style="stroke:#000000;stroke-width:0.8;" x="56.16" xlink:href="#m6ef368f4a7" y="170.407377"/>
      </g>
     </g>
     <g id="text_15">
      <!-- 1 -->
      <g transform="translate(42.7975 174.206595)scale(0.1 -0.1)">
       <use xlink:href="#DejaVuSans-49"/>
      </g>
     </g>
    </g>
    <g id="ytick_3">
     <g id="line2d_16">
      <g>
       <use style="stroke:#000000;stroke-width:0.8;" x="56.16" xlink:href="#m6ef368f4a7" y="135.942026"/>
      </g>
     </g>
     <g id="text_16">
      <!-- 2 -->
      <g transform="translate(42.7975 139.741245)scale(0.1 -0.1)">
       <use xlink:href="#DejaVuSans-50"/>
      </g>
     </g>
    </g>
    <g id="ytick_4">
     <g id="line2d_17">
      <g>
       <use style="stroke:#000000;stroke-width:0.8;" x="56.16" xlink:href="#m6ef368f4a7" y="101.476675"/>
      </g>
     </g>
     <g id="text_17">
      <!-- 3 -->
      <g transform="translate(42.7975 105.275894)scale(0.1 -0.1)">
       <use xlink:href="#DejaVuSans-51"/>
      </g>
     </g>
    </g>
    <g id="ytick_5">
     <g id="line2d_18">
      <g>
       <use style="stroke:#000000;stroke-width:0.8;" x="56.16" xlink:href="#m6ef368f4a7" y="67.011325"/>
      </g>
     </g>
     <g id="text_18">
      <!-- 4 -->
      <g transform="translate(42.7975 70.810543)scale(0.1 -0.1)">
       <use xlink:href="#DejaVuSans-52"/>
      </g>
     </g>
    </g>
    <g id="ytick_6">
     <g id="line2d_19">
      <g>
       <use style="stroke:#000000;stroke-width:0.8;" x="56.16" xlink:href="#m6ef368f4a7" y="32.545974"/>
      </g>
     </g>
     <g id="text_19">
      <!-- 5 -->
      <g transform="translate(42.7975 36.345193)scale(0.1 -0.1)">
       <use xlink:href="#DejaVuSans-53"/>
      </g>
     </g>
    </g>
   </g>
   <g id="LineCollection_1">
    <path clip-path="url(#p9f2b287495)" d="M 468.512542 148.530151 
L 468.512542 17.782396 
" style="fill:none;stroke:#808080;stroke-width:3;"/>
    <path clip-path="url(#p9f2b287495)" d="M 434.121171 140.012039 
L 434.121171 18.285246 
" style="fill:none;stroke:#808080;stroke-width:3;"/>
    <path clip-path="url(#p9f2b287495)" d="M 399.7298 151.302199 
L 399.7298 16.612987 
" style="fill:none;stroke:#808080;stroke-width:3;"/>
    <path clip-path="url(#p9f2b287495)" d="M 365.338428 148.946492 
L 365.338428 29.274523 
" style="fill:none;stroke:#808080;stroke-width:3;"/>
    <path clip-path="url(#p9f2b287495)" d="M 330.947057 155.273296 
L 330.947057 22.947718 
" style="fill:none;stroke:#808080;stroke-width:3;"/>
    <path clip-path="url(#p9f2b287495)" d="M 296.555686 165.434716 
L 296.555686 37.060935 
" style="fill:none;stroke:#808080;stroke-width:3;"/>
    <path clip-path="url(#p9f2b287495)" d="M 262.164314 169.541952 
L 262.164314 40.052872 
" style="fill:none;stroke:#808080;stroke-width:3;"/>
    <path clip-path="url(#p9f2b287495)" d="M 227.772943 166.163313 
L 227.772943 46.866327 
" style="fill:none;stroke:#808080;stroke-width:3;"/>
    <path clip-path="url(#p9f2b287495)" d="M 193.381572 159.199934 
L 193.381572 41.692389 
" style="fill:none;stroke:#808080;stroke-width:3;"/>
    <path clip-path="url(#p9f2b287495)" d="M 158.9902 160.770175 
L 158.9902 47.908559 
" style="fill:none;stroke:#808080;stroke-width:3;"/>
    <path clip-path="url(#p9f2b287495)" d="M 124.598829 167.130756 
L 124.598829 47.959913 
" style="fill:none;stroke:#808080;stroke-width:3;"/>
    <path clip-path="url(#p9f2b287495)" d="M 90.207458 168.811976 
L 90.207458 49.02696 
" style="fill:none;stroke:#808080;stroke-width:3;"/>
   </g>
   <g id="line2d_20">
    <defs>
     <path d="M 3 0 
L -3 -0 
" id="m570f7d0fd6" style="stroke:#808080;"/>
    </defs>
    <g clip-path="url(#p9f2b287495)">
     <use style="fill:#808080;stroke:#808080;" x="468.512542" xlink:href="#m570f7d0fd6" y="148.530151"/>
     <use style="fill:#808080;stroke:#808080;" x="434.121171" xlink:href="#m570f7d0fd6" y="140.012039"/>
     <use style="fill:#808080;stroke:#808080;" x="399.7298" xlink:href="#m570f7d0fd6" y="151.302199"/>
     <use style="fill:#808080;stroke:#808080;" x="365.338428" xlink:href="#m570f7d0fd6" y="148.946492"/>
     <use style="fill:#808080;stroke:#808080;" x="330.947057" xlink:href="#m570f7d0fd6" y="155.273296"/>
     <use style="fill:#808080;stroke:#808080;" x="296.555686" xlink:href="#m570f7d0fd6" y="165.434716"/>
     <use style="fill:#808080;stroke:#808080;" x="262.164314" xlink:href="#m570f7d0fd6" y="169.541952"/>
     <use style="fill:#808080;stroke:#808080;" x="227.772943" xlink:href="#m570f7d0fd6" y="166.163313"/>
     <use style="fill:#808080;stroke:#808080;" x="193.381572" xlink:href="#m570f7d0fd6" y="159.199934"/>
     <use style="fill:#808080;stroke:#808080;" x="158.9902" xlink:href="#m570f7d0fd6" y="160.770175"/>
     <use style="fill:#808080;stroke:#808080;" x="124.598829" xlink:href="#m570f7d0fd6" y="167.130756"/>
     <use style="fill:#808080;stroke:#808080;" x="90.207458" xlink:href="#m570f7d0fd6" y="168.811976"/>
    </g>
   </g>
   <g id="line2d_21">
    <g clip-path="url(#p9f2b287495)">
     <use style="fill:#808080;stroke:#808080;" x="468.512542" xlink:href="#m570f7d0fd6" y="17.782396"/>
     <use style="fill:#808080;stroke:#808080;" x="434.121171" xlink:href="#m570f7d0fd6" y="18.285246"/>
     <use style="fill:#808080;stroke:#808080;" x="399.7298" xlink:href="#m570f7d0fd6" y="16.612987"/>
     <use style="fill:#808080;stroke:#808080;" x="365.338428" xlink:href="#m570f7d0fd6" y="29.274523"/>
     <use style="fill:#808080;stroke:#808080;" x="330.947057" xlink:href="#m570f7d0fd6" y="22.947718"/>
     <use style="fill:#808080;stroke:#808080;" x="296.555686" xlink:href="#m570f7d0fd6" y="37.060935"/>
     <use style="fill:#808080;stroke:#808080;" x="262.164314" xlink:href="#m570f7d0fd6" y="40.052872"/>
     <use style="fill:#808080;stroke:#808080;" x="227.772943" xlink:href="#m570f7d0fd6" y="46.866327"/>
     <use style="fill:#808080;stroke:#808080;" x="193.381572" xlink:href="#m570f7d0fd6" y="41.692389"/>
     <use style="fill:#808080;stroke:#808080;" x="158.9902" xlink:href="#m570f7d0fd6" y="47.908559"/>
     <use style="fill:#808080;stroke:#808080;" x="124.598829" xlink:href="#m570f7d0fd6" y="47.959913"/>
     <use style="fill:#808080;stroke:#808080;" x="90.207458" xlink:href="#m570f7d0fd6" y="49.02696"/>
    </g>
   </g>
   <g id="patch_15">
    <path d="M 56.16 204.872727 
L 56.16 32.545974 
" style="fill:none;stroke:#000000;stroke-linecap:square;stroke-linejoin:miter;stroke-width:0.8;"/>
   </g>
   <g id="patch_16">
    <path d="M 485.708228 204.872727 
L 73.011772 204.872727 
" style="fill:none;stroke:#000000;stroke-linecap:square;stroke-linejoin:miter;stroke-width:0.8;"/>
   </g>
   <g id="legend_1">
    <g id="patch_17">
     <path d="M 63.16 29.878125 
L 159.455312 29.878125 
Q 161.455312 29.878125 161.455312 27.878125 
L 161.455312 14.2 
Q 161.455312 12.2 159.455312 12.2 
L 63.16 12.2 
Q 61.16 12.2 61.16 14.2 
L 61.16 27.878125 
Q 61.16 29.878125 63.16 29.878125 
z
" style="fill:#ffffff;opacity:0.8;stroke:#cccccc;stroke-linejoin:miter;"/>
    </g>
    <g id="patch_18">
     <path d="M 65.16 23.798437 
L 85.16 23.798437 
L 85.16 16.798437 
L 65.16 16.798437 
z
" style="fill:#008000;opacity:0.5;stroke:#008000;stroke-linejoin:miter;"/>
    </g>
    <g id="text_20">
     <!-- Active motor -->
     <defs>
      <path d="M 34.1875 63.1875 
L 20.796875 26.90625 
L 47.609375 26.90625 
z
M 28.609375 72.90625 
L 39.796875 72.90625 
L 67.578125 0 
L 57.328125 0 
L 50.6875 18.703125 
L 17.828125 18.703125 
L 11.1875 0 
L 0.78125 0 
z
" id="DejaVuSans-65"/>
      <path d="M 48.78125 52.59375 
L 48.78125 44.1875 
Q 44.96875 46.296875 41.140625 47.34375 
Q 37.3125 48.390625 33.40625 48.390625 
Q 24.65625 48.390625 19.8125 42.84375 
Q 14.984375 37.3125 14.984375 27.296875 
Q 14.984375 17.28125 19.8125 11.734375 
Q 24.65625 6.203125 33.40625 6.203125 
Q 37.3125 6.203125 41.140625 7.25 
Q 44.96875 8.296875 48.78125 10.40625 
L 48.78125 2.09375 
Q 45.015625 0.34375 40.984375 -0.53125 
Q 36.96875 -1.421875 32.421875 -1.421875 
Q 20.0625 -1.421875 12.78125 6.34375 
Q 5.515625 14.109375 5.515625 27.296875 
Q 5.515625 40.671875 12.859375 48.328125 
Q 20.21875 56 33.015625 56 
Q 37.15625 56 41.109375 55.140625 
Q 45.0625 54.296875 48.78125 52.59375 
z
" id="DejaVuSans-99"/>
      <path d="M 18.3125 70.21875 
L 18.3125 54.6875 
L 36.8125 54.6875 
L 36.8125 47.703125 
L 18.3125 47.703125 
L 18.3125 18.015625 
Q 18.3125 11.328125 20.140625 9.421875 
Q 21.96875 7.515625 27.59375 7.515625 
L 36.8125 7.515625 
L 36.8125 0 
L 27.59375 0 
Q 17.1875 0 13.234375 3.875 
Q 9.28125 7.765625 9.28125 18.015625 
L 9.28125 47.703125 
L 2.6875 47.703125 
L 2.6875 54.6875 
L 9.28125 54.6875 
L 9.28125 70.21875 
z
" id="DejaVuSans-116"/>
      <path d="M 9.421875 54.6875 
L 18.40625 54.6875 
L 18.40625 0 
L 9.421875 0 
z
M 9.421875 75.984375 
L 18.40625 75.984375 
L 18.40625 64.59375 
L 9.421875 64.59375 
z
" id="DejaVuSans-105"/>
      <path d="M 2.984375 54.6875 
L 12.5 54.6875 
L 29.59375 8.796875 
L 46.6875 54.6875 
L 56.203125 54.6875 
L 35.6875 0 
L 23.484375 0 
z
" id="DejaVuSans-118"/>
      <path d="M 56.203125 29.59375 
L 56.203125 25.203125 
L 14.890625 25.203125 
Q 15.484375 15.921875 20.484375 11.0625 
Q 25.484375 6.203125 34.421875 6.203125 
Q 39.59375 6.203125 44.453125 7.46875 
Q 49.3125 8.734375 54.109375 11.28125 
L 54.109375 2.78125 
Q 49.265625 0.734375 44.1875 -0.34375 
Q 39.109375 -1.421875 33.890625 -1.421875 
Q 20.796875 -1.421875 13.15625 6.1875 
Q 5.515625 13.8125 5.515625 26.8125 
Q 5.515625 40.234375 12.765625 48.109375 
Q 20.015625 56 32.328125 56 
Q 43.359375 56 49.78125 48.890625 
Q 56.203125 41.796875 56.203125 29.59375 
z
M 47.21875 32.234375 
Q 47.125 39.59375 43.09375 43.984375 
Q 39.0625 48.390625 32.421875 48.390625 
Q 24.90625 48.390625 20.390625 44.140625 
Q 15.875 39.890625 15.1875 32.171875 
z
" id="DejaVuSans-101"/>
      <path id="DejaVuSans-32"/>
      <path d="M 52 44.1875 
Q 55.375 50.25 60.0625 53.125 
Q 64.75 56 71.09375 56 
Q 79.640625 56 84.28125 50.015625 
Q 88.921875 44.046875 88.921875 33.015625 
L 88.921875 0 
L 79.890625 0 
L 79.890625 32.71875 
Q 79.890625 40.578125 77.09375 44.375 
Q 74.3125 48.1875 68.609375 48.1875 
Q 61.625 48.1875 57.5625 43.546875 
Q 53.515625 38.921875 53.515625 30.90625 
L 53.515625 0 
L 44.484375 0 
L 44.484375 32.71875 
Q 44.484375 40.625 41.703125 44.40625 
Q 38.921875 48.1875 33.109375 48.1875 
Q 26.21875 48.1875 22.15625 43.53125 
Q 18.109375 38.875 18.109375 30.90625 
L 18.109375 0 
L 9.078125 0 
L 9.078125 54.6875 
L 18.109375 54.6875 
L 18.109375 46.1875 
Q 21.1875 51.21875 25.484375 53.609375 
Q 29.78125 56 35.6875 56 
Q 41.65625 56 45.828125 52.96875 
Q 50 49.953125 52 44.1875 
z
" id="DejaVuSans-109"/>
      <path d="M 30.609375 48.390625 
Q 23.390625 48.390625 19.1875 42.75 
Q 14.984375 37.109375 14.984375 27.296875 
Q 14.984375 17.484375 19.15625 11.84375 
Q 23.34375 6.203125 30.609375 6.203125 
Q 37.796875 6.203125 41.984375 11.859375 
Q 46.1875 17.53125 46.1875 27.296875 
Q 46.1875 37.015625 41.984375 42.703125 
Q 37.796875 48.390625 30.609375 48.390625 
z
M 30.609375 56 
Q 42.328125 56 49.015625 48.375 
Q 55.71875 40.765625 55.71875 27.296875 
Q 55.71875 13.875 49.015625 6.21875 
Q 42.328125 -1.421875 30.609375 -1.421875 
Q 18.84375 -1.421875 12.171875 6.21875 
Q 5.515625 13.875 5.515625 27.296875 
Q 5.515625 40.765625 12.171875 48.375 
Q 18.84375 56 30.609375 56 
z
" id="DejaVuSans-111"/>
      <path d="M 41.109375 46.296875 
Q 39.59375 47.171875 37.8125 47.578125 
Q 36.03125 48 33.890625 48 
Q 26.265625 48 22.1875 43.046875 
Q 18.109375 38.09375 18.109375 28.8125 
L 18.109375 0 
L 9.078125 0 
L 9.078125 54.6875 
L 18.109375 54.6875 
L 18.109375 46.1875 
Q 20.953125 51.171875 25.484375 53.578125 
Q 30.03125 56 36.53125 56 
Q 37.453125 56 38.578125 55.875 
Q 39.703125 55.765625 41.0625 55.515625 
z
" id="DejaVuSans-114"/>
     </defs>
     <g transform="translate(93.16 23.798437)scale(0.1 -0.1)">
      <use xlink:href="#DejaVuSans-65"/>
      <use x="68.392578" xlink:href="#DejaVuSans-99"/>
      <use x="123.373047" xlink:href="#DejaVuSans-116"/>
      <use x="162.582031" xlink:href="#DejaVuSans-105"/>
      <use x="190.365234" xlink:href="#DejaVuSans-118"/>
      <use x="249.544922" xlink:href="#DejaVuSans-101"/>
      <use x="311.068359" xlink:href="#DejaVuSans-32"/>
      <use x="342.855469" xlink:href="#DejaVuSans-109"/>
      <use x="440.267578" xlink:href="#DejaVuSans-111"/>
      <use x="501.449219" xlink:href="#DejaVuSans-116"/>
      <use x="540.658203" xlink:href="#DejaVuSans-111"/>
      <use x="601.839844" xlink:href="#DejaVuSans-114"/>
     </g>
    </g>
   </g>
  </g>
  <g id="axes_2">
   <g id="patch_19">
    <path d="M 56.16 442.08 
L 502.56 442.08 
L 502.56 244.407273 
L 56.16 244.407273 
z
" style="fill:#ffffff;"/>
   </g>
   <g id="patch_20">
    <path clip-path="url(#p1dab3088fc)" d="M 482.269091 268.680011 
L 454.755994 268.680011 
L 454.755994 368.919221 
L 482.269091 368.919221 
z
" style="fill:#0000ff;opacity:0.5;stroke:#0000ff;stroke-linejoin:miter;"/>
   </g>
   <g id="patch_21">
    <path clip-path="url(#p1dab3088fc)" d="M 447.87772 268.680011 
L 420.364622 268.680011 
L 420.364622 319.25785 
L 447.87772 319.25785 
z
" style="fill:#0000ff;opacity:0.5;stroke:#0000ff;stroke-linejoin:miter;"/>
   </g>
   <g id="patch_22">
    <path clip-path="url(#p1dab3088fc)" d="M 413.486348 268.680011 
L 385.973251 268.680011 
L 385.973251 324.938683 
L 413.486348 324.938683 
z
" style="fill:#0000ff;opacity:0.5;stroke:#0000ff;stroke-linejoin:miter;"/>
   </g>
   <g id="patch_23">
    <path clip-path="url(#p1dab3088fc)" d="M 379.094977 268.680011 
L 351.58188 268.680011 
L 351.58188 300.474254 
L 379.094977 300.474254 
z
" style="fill:#0000ff;opacity:0.5;stroke:#0000ff;stroke-linejoin:miter;"/>
   </g>
   <g id="patch_24">
    <path clip-path="url(#p1dab3088fc)" d="M 344.703606 268.680011 
L 317.190508 268.680011 
L 317.190508 310.003536 
L 344.703606 310.003536 
z
" style="fill:#0000ff;opacity:0.5;stroke:#0000ff;stroke-linejoin:miter;"/>
   </g>
   <g id="patch_25">
    <path clip-path="url(#p1dab3088fc)" d="M 310.312234 268.680011 
L 282.799137 268.680011 
L 282.799137 304.414267 
L 310.312234 304.414267 
z
" style="fill:#0000ff;opacity:0.5;stroke:#0000ff;stroke-linejoin:miter;"/>
   </g>
   <g id="patch_26">
    <path clip-path="url(#p1dab3088fc)" d="M 275.920863 268.680011 
L 248.407766 268.680011 
L 248.407766 300.932626 
L 275.920863 300.932626 
z
" style="fill:#0000ff;opacity:0.5;stroke:#0000ff;stroke-linejoin:miter;"/>
   </g>
   <g id="patch_27">
    <path clip-path="url(#p1dab3088fc)" d="M 241.529492 268.680011 
L 214.016394 268.680011 
L 214.016394 295.434921 
L 241.529492 295.434921 
z
" style="fill:#0000ff;opacity:0.5;stroke:#0000ff;stroke-linejoin:miter;"/>
   </g>
   <g id="patch_28">
    <path clip-path="url(#p1dab3088fc)" d="M 207.13812 268.680011 
L 179.625023 268.680011 
L 179.625023 293.0526 
L 207.13812 293.0526 
z
" style="fill:#0000ff;opacity:0.5;stroke:#0000ff;stroke-linejoin:miter;"/>
   </g>
   <g id="patch_29">
    <path clip-path="url(#p1dab3088fc)" d="M 172.746749 268.680011 
L 145.233652 268.680011 
L 145.233652 294.152196 
L 172.746749 294.152196 
z
" style="fill:#0000ff;opacity:0.5;stroke:#0000ff;stroke-linejoin:miter;"/>
   </g>
   <g id="patch_30">
    <path clip-path="url(#p1dab3088fc)" d="M 138.355378 268.680011 
L 110.84228 268.680011 
L 110.84228 297.542273 
L 138.355378 297.542273 
z
" style="fill:#0000ff;opacity:0.5;stroke:#0000ff;stroke-linejoin:miter;"/>
   </g>
   <g id="patch_31">
    <path clip-path="url(#p1dab3088fc)" d="M 103.964006 268.680011 
L 76.450909 268.680011 
L 76.450909 298.000369 
L 103.964006 298.000369 
z
" style="fill:#0000ff;opacity:0.5;stroke:#0000ff;stroke-linejoin:miter;"/>
   </g>
   <g id="matplotlib.axis_3">
    <g id="xtick_14">
     <g id="line2d_22">
      <defs>
       <path d="M 0 0 
L 0 -3.5 
" id="me398a43051" style="stroke:#000000;stroke-width:0.8;"/>
      </defs>
      <g>
       <use style="stroke:#000000;stroke-width:0.8;" x="485.708228" xlink:href="#me398a43051" y="268.680011"/>
      </g>
     </g>
    </g>
    <g id="xtick_15">
     <g id="line2d_23">
      <g>
       <use style="stroke:#000000;stroke-width:0.8;" x="451.316857" xlink:href="#me398a43051" y="268.680011"/>
      </g>
     </g>
    </g>
    <g id="xtick_16">
     <g id="line2d_24">
      <g>
       <use style="stroke:#000000;stroke-width:0.8;" x="416.925485" xlink:href="#me398a43051" y="268.680011"/>
      </g>
     </g>
    </g>
    <g id="xtick_17">
     <g id="line2d_25">
      <g>
       <use style="stroke:#000000;stroke-width:0.8;" x="382.534114" xlink:href="#me398a43051" y="268.680011"/>
      </g>
     </g>
    </g>
    <g id="xtick_18">
     <g id="line2d_26">
      <g>
       <use style="stroke:#000000;stroke-width:0.8;" x="348.142743" xlink:href="#me398a43051" y="268.680011"/>
      </g>
     </g>
    </g>
    <g id="xtick_19">
     <g id="line2d_27">
      <g>
       <use style="stroke:#000000;stroke-width:0.8;" x="313.751371" xlink:href="#me398a43051" y="268.680011"/>
      </g>
     </g>
    </g>
    <g id="xtick_20">
     <g id="line2d_28">
      <g>
       <use style="stroke:#000000;stroke-width:0.8;" x="279.36" xlink:href="#me398a43051" y="268.680011"/>
      </g>
     </g>
    </g>
    <g id="xtick_21">
     <g id="line2d_29">
      <g>
       <use style="stroke:#000000;stroke-width:0.8;" x="244.968629" xlink:href="#me398a43051" y="268.680011"/>
      </g>
     </g>
    </g>
    <g id="xtick_22">
     <g id="line2d_30">
      <g>
       <use style="stroke:#000000;stroke-width:0.8;" x="210.577257" xlink:href="#me398a43051" y="268.680011"/>
      </g>
     </g>
    </g>
    <g id="xtick_23">
     <g id="line2d_31">
      <g>
       <use style="stroke:#000000;stroke-width:0.8;" x="176.185886" xlink:href="#me398a43051" y="268.680011"/>
      </g>
     </g>
    </g>
    <g id="xtick_24">
     <g id="line2d_32">
      <g>
       <use style="stroke:#000000;stroke-width:0.8;" x="141.794515" xlink:href="#me398a43051" y="268.680011"/>
      </g>
     </g>
    </g>
    <g id="xtick_25">
     <g id="line2d_33">
      <g>
       <use style="stroke:#000000;stroke-width:0.8;" x="107.403143" xlink:href="#me398a43051" y="268.680011"/>
      </g>
     </g>
    </g>
    <g id="xtick_26">
     <g id="line2d_34">
      <g>
       <use style="stroke:#000000;stroke-width:0.8;" x="73.011772" xlink:href="#me398a43051" y="268.680011"/>
      </g>
     </g>
    </g>
   </g>
   <g id="matplotlib.axis_4">
    <g id="ytick_7">
     <g id="line2d_35">
      <g>
       <use style="stroke:#000000;stroke-width:0.8;" x="56.16" xlink:href="#m6ef368f4a7" y="268.680011"/>
      </g>
     </g>
     <g id="text_21">
      <!-- 0 -->
      <g transform="translate(42.7975 272.479229)scale(0.1 -0.1)">
       <use xlink:href="#DejaVuSans-48"/>
      </g>
     </g>
    </g>
    <g id="ytick_8">
     <g id="line2d_36">
      <g>
       <use style="stroke:#000000;stroke-width:0.8;" x="56.16" xlink:href="#m6ef368f4a7" y="296.259549"/>
      </g>
     </g>
     <g id="text_22">
      <!-- 1 -->
      <g transform="translate(42.7975 300.058767)scale(0.1 -0.1)">
       <use xlink:href="#DejaVuSans-49"/>
      </g>
     </g>
    </g>
    <g id="ytick_9">
     <g id="line2d_37">
      <g>
       <use style="stroke:#000000;stroke-width:0.8;" x="56.16" xlink:href="#m6ef368f4a7" y="323.839087"/>
      </g>
     </g>
     <g id="text_23">
      <!-- 2 -->
      <g transform="translate(42.7975 327.638306)scale(0.1 -0.1)">
       <use xlink:href="#DejaVuSans-50"/>
      </g>
     </g>
    </g>
    <g id="ytick_10">
     <g id="line2d_38">
      <g>
       <use style="stroke:#000000;stroke-width:0.8;" x="56.16" xlink:href="#m6ef368f4a7" y="351.418625"/>
      </g>
     </g>
     <g id="text_24">
      <!-- 3 -->
      <g transform="translate(42.7975 355.217844)scale(0.1 -0.1)">
       <use xlink:href="#DejaVuSans-51"/>
      </g>
     </g>
    </g>
    <g id="ytick_11">
     <g id="line2d_39">
      <g>
       <use style="stroke:#000000;stroke-width:0.8;" x="56.16" xlink:href="#m6ef368f4a7" y="378.998163"/>
      </g>
     </g>
     <g id="text_25">
      <!-- 4 -->
      <g transform="translate(42.7975 382.797382)scale(0.1 -0.1)">
       <use xlink:href="#DejaVuSans-52"/>
      </g>
     </g>
    </g>
    <g id="ytick_12">
     <g id="line2d_40">
      <g>
       <use style="stroke:#000000;stroke-width:0.8;" x="56.16" xlink:href="#m6ef368f4a7" y="406.577702"/>
      </g>
     </g>
     <g id="text_26">
      <!-- 5 -->
      <g transform="translate(42.7975 410.37692)scale(0.1 -0.1)">
       <use xlink:href="#DejaVuSans-53"/>
      </g>
     </g>
    </g>
   </g>
   <g id="LineCollection_2">
    <path clip-path="url(#p1dab3088fc)" d="M 468.512542 304.743566 
L 468.512542 433.094876 
" style="fill:none;stroke:#808080;stroke-width:3;"/>
    <path clip-path="url(#p1dab3088fc)" d="M 434.121171 268.695455 
L 434.121171 369.820245 
" style="fill:none;stroke:#808080;stroke-width:3;"/>
    <path clip-path="url(#p1dab3088fc)" d="M 399.7298 267.369431 
L 399.7298 382.507935 
" style="fill:none;stroke:#808080;stroke-width:3;"/>
    <path clip-path="url(#p1dab3088fc)" d="M 365.338428 259.667017 
L 365.338428 341.28149 
" style="fill:none;stroke:#808080;stroke-width:3;"/>
    <path clip-path="url(#p1dab3088fc)" d="M 330.947057 261.493059 
L 330.947057 358.514013 
" style="fill:none;stroke:#808080;stroke-width:3;"/>
    <path clip-path="url(#p1dab3088fc)" d="M 296.555686 263.001108 
L 296.555686 345.827425 
" style="fill:none;stroke:#808080;stroke-width:3;"/>
    <path clip-path="url(#p1dab3088fc)" d="M 262.164314 262.636782 
L 262.164314 339.228469 
" style="fill:none;stroke:#808080;stroke-width:3;"/>
    <path clip-path="url(#p1dab3088fc)" d="M 227.772943 259.439486 
L 227.772943 331.430355 
" style="fill:none;stroke:#808080;stroke-width:3;"/>
    <path clip-path="url(#p1dab3088fc)" d="M 193.381572 258.191236 
L 193.381572 327.913964 
" style="fill:none;stroke:#808080;stroke-width:3;"/>
    <path clip-path="url(#p1dab3088fc)" d="M 158.9902 255.498922 
L 158.9902 332.805471 
" style="fill:none;stroke:#808080;stroke-width:3;"/>
    <path clip-path="url(#p1dab3088fc)" d="M 124.598829 253.392397 
L 124.598829 341.692149 
" style="fill:none;stroke:#808080;stroke-width:3;"/>
    <path clip-path="url(#p1dab3088fc)" d="M 90.207458 259.328892 
L 90.207458 336.671846 
" style="fill:none;stroke:#808080;stroke-width:3;"/>
   </g>
   <g id="line2d_41">
    <g clip-path="url(#p1dab3088fc)">
     <use style="fill:#808080;stroke:#808080;" x="468.512542" xlink:href="#m570f7d0fd6" y="304.743566"/>
     <use style="fill:#808080;stroke:#808080;" x="434.121171" xlink:href="#m570f7d0fd6" y="268.695455"/>
     <use style="fill:#808080;stroke:#808080;" x="399.7298" xlink:href="#m570f7d0fd6" y="267.369431"/>
     <use style="fill:#808080;stroke:#808080;" x="365.338428" xlink:href="#m570f7d0fd6" y="259.667017"/>
     <use style="fill:#808080;stroke:#808080;" x="330.947057" xlink:href="#m570f7d0fd6" y="261.493059"/>
     <use style="fill:#808080;stroke:#808080;" x="296.555686" xlink:href="#m570f7d0fd6" y="263.001108"/>
     <use style="fill:#808080;stroke:#808080;" x="262.164314" xlink:href="#m570f7d0fd6" y="262.636782"/>
     <use style="fill:#808080;stroke:#808080;" x="227.772943" xlink:href="#m570f7d0fd6" y="259.439486"/>
     <use style="fill:#808080;stroke:#808080;" x="193.381572" xlink:href="#m570f7d0fd6" y="258.191236"/>
     <use style="fill:#808080;stroke:#808080;" x="158.9902" xlink:href="#m570f7d0fd6" y="255.498922"/>
     <use style="fill:#808080;stroke:#808080;" x="124.598829" xlink:href="#m570f7d0fd6" y="253.392397"/>
     <use style="fill:#808080;stroke:#808080;" x="90.207458" xlink:href="#m570f7d0fd6" y="259.328892"/>
    </g>
   </g>
   <g id="line2d_42">
    <g clip-path="url(#p1dab3088fc)">
     <use style="fill:#808080;stroke:#808080;" x="468.512542" xlink:href="#m570f7d0fd6" y="433.094876"/>
     <use style="fill:#808080;stroke:#808080;" x="434.121171" xlink:href="#m570f7d0fd6" y="369.820245"/>
     <use style="fill:#808080;stroke:#808080;" x="399.7298" xlink:href="#m570f7d0fd6" y="382.507935"/>
     <use style="fill:#808080;stroke:#808080;" x="365.338428" xlink:href="#m570f7d0fd6" y="341.28149"/>
     <use style="fill:#808080;stroke:#808080;" x="330.947057" xlink:href="#m570f7d0fd6" y="358.514013"/>
     <use style="fill:#808080;stroke:#808080;" x="296.555686" xlink:href="#m570f7d0fd6" y="345.827425"/>
     <use style="fill:#808080;stroke:#808080;" x="262.164314" xlink:href="#m570f7d0fd6" y="339.228469"/>
     <use style="fill:#808080;stroke:#808080;" x="227.772943" xlink:href="#m570f7d0fd6" y="331.430355"/>
     <use style="fill:#808080;stroke:#808080;" x="193.381572" xlink:href="#m570f7d0fd6" y="327.913964"/>
     <use style="fill:#808080;stroke:#808080;" x="158.9902" xlink:href="#m570f7d0fd6" y="332.805471"/>
     <use style="fill:#808080;stroke:#808080;" x="124.598829" xlink:href="#m570f7d0fd6" y="341.692149"/>
     <use style="fill:#808080;stroke:#808080;" x="90.207458" xlink:href="#m570f7d0fd6" y="336.671846"/>
    </g>
   </g>
   <g id="patch_32">
    <path d="M 56.16 268.680011 
L 56.16 406.577702 
" style="fill:none;stroke:#000000;stroke-linecap:square;stroke-linejoin:miter;stroke-width:0.8;"/>
   </g>
   <g id="patch_33">
    <path d="M 485.708228 268.680011 
L 73.011772 268.680011 
" style="fill:none;stroke:#000000;stroke-linecap:square;stroke-linejoin:miter;stroke-width:0.8;"/>
   </g>
   <g id="legend_2">
    <g id="patch_34">
     <path d="M 63.16 437.08 
L 168.031875 437.08 
Q 170.031875 437.08 170.031875 435.08 
L 170.031875 421.401875 
Q 170.031875 419.401875 168.031875 419.401875 
L 63.16 419.401875 
Q 61.16 419.401875 61.16 421.401875 
L 61.16 435.08 
Q 61.16 437.08 63.16 437.08 
z
" style="fill:#ffffff;opacity:0.8;stroke:#cccccc;stroke-linejoin:miter;"/>
    </g>
    <g id="patch_35">
     <path d="M 65.16 431.000312 
L 85.16 431.000312 
L 85.16 424.000312 
L 65.16 424.000312 
z
" style="fill:#0000ff;opacity:0.5;stroke:#0000ff;stroke-linejoin:miter;"/>
    </g>
    <g id="text_27">
     <!-- Inactive motor -->
     <defs>
      <path d="M 9.8125 72.90625 
L 19.671875 72.90625 
L 19.671875 0 
L 9.8125 0 
z
" id="DejaVuSans-73"/>
      <path d="M 54.890625 33.015625 
L 54.890625 0 
L 45.90625 0 
L 45.90625 32.71875 
Q 45.90625 40.484375 42.875 44.328125 
Q 39.84375 48.1875 33.796875 48.1875 
Q 26.515625 48.1875 22.3125 43.546875 
Q 18.109375 38.921875 18.109375 30.90625 
L 18.109375 0 
L 9.078125 0 
L 9.078125 54.6875 
L 18.109375 54.6875 
L 18.109375 46.1875 
Q 21.34375 51.125 25.703125 53.5625 
Q 30.078125 56 35.796875 56 
Q 45.21875 56 50.046875 50.171875 
Q 54.890625 44.34375 54.890625 33.015625 
z
" id="DejaVuSans-110"/>
      <path d="M 34.28125 27.484375 
Q 23.390625 27.484375 19.1875 25 
Q 14.984375 22.515625 14.984375 16.5 
Q 14.984375 11.71875 18.140625 8.90625 
Q 21.296875 6.109375 26.703125 6.109375 
Q 34.1875 6.109375 38.703125 11.40625 
Q 43.21875 16.703125 43.21875 25.484375 
L 43.21875 27.484375 
z
M 52.203125 31.203125 
L 52.203125 0 
L 43.21875 0 
L 43.21875 8.296875 
Q 40.140625 3.328125 35.546875 0.953125 
Q 30.953125 -1.421875 24.3125 -1.421875 
Q 15.921875 -1.421875 10.953125 3.296875 
Q 6 8.015625 6 15.921875 
Q 6 25.140625 12.171875 29.828125 
Q 18.359375 34.515625 30.609375 34.515625 
L 43.21875 34.515625 
L 43.21875 35.40625 
Q 43.21875 41.609375 39.140625 45 
Q 35.0625 48.390625 27.6875 48.390625 
Q 23 48.390625 18.546875 47.265625 
Q 14.109375 46.140625 10.015625 43.890625 
L 10.015625 52.203125 
Q 14.9375 54.109375 19.578125 55.046875 
Q 24.21875 56 28.609375 56 
Q 40.484375 56 46.34375 49.84375 
Q 52.203125 43.703125 52.203125 31.203125 
z
" id="DejaVuSans-97"/>
     </defs>
     <g transform="translate(93.16 431.000312)scale(0.1 -0.1)">
      <use xlink:href="#DejaVuSans-73"/>
      <use x="29.492188" xlink:href="#DejaVuSans-110"/>
      <use x="92.871094" xlink:href="#DejaVuSans-97"/>
      <use x="154.150391" xlink:href="#DejaVuSans-99"/>
      <use x="209.130859" xlink:href="#DejaVuSans-116"/>
      <use x="248.339844" xlink:href="#DejaVuSans-105"/>
      <use x="276.123047" xlink:href="#DejaVuSans-118"/>
      <use x="335.302734" xlink:href="#DejaVuSans-101"/>
      <use x="396.826172" xlink:href="#DejaVuSans-32"/>
      <use x="428.613281" xlink:href="#DejaVuSans-109"/>
      <use x="526.025391" xlink:href="#DejaVuSans-111"/>
      <use x="587.207031" xlink:href="#DejaVuSans-116"/>
      <use x="626.416016" xlink:href="#DejaVuSans-111"/>
      <use x="687.597656" xlink:href="#DejaVuSans-114"/>
     </g>
    </g>
   </g>
  </g>
  <g id="text_28">
   <!-- Actin binding position -->
   <defs>
    <path d="M 48.6875 27.296875 
Q 48.6875 37.203125 44.609375 42.84375 
Q 40.53125 48.484375 33.40625 48.484375 
Q 26.265625 48.484375 22.1875 42.84375 
Q 18.109375 37.203125 18.109375 27.296875 
Q 18.109375 17.390625 22.1875 11.75 
Q 26.265625 6.109375 33.40625 6.109375 
Q 40.53125 6.109375 44.609375 11.75 
Q 48.6875 17.390625 48.6875 27.296875 
z
M 18.109375 46.390625 
Q 20.953125 51.265625 25.265625 53.625 
Q 29.59375 56 35.59375 56 
Q 45.5625 56 51.78125 48.09375 
Q 58.015625 40.1875 58.015625 27.296875 
Q 58.015625 14.40625 51.78125 6.484375 
Q 45.5625 -1.421875 35.59375 -1.421875 
Q 29.59375 -1.421875 25.265625 0.953125 
Q 20.953125 3.328125 18.109375 8.203125 
L 18.109375 0 
L 9.078125 0 
L 9.078125 75.984375 
L 18.109375 75.984375 
z
" id="DejaVuSans-98"/>
    <path d="M 45.40625 46.390625 
L 45.40625 75.984375 
L 54.390625 75.984375 
L 54.390625 0 
L 45.40625 0 
L 45.40625 8.203125 
Q 42.578125 3.328125 38.25 0.953125 
Q 33.9375 -1.421875 27.875 -1.421875 
Q 17.96875 -1.421875 11.734375 6.484375 
Q 5.515625 14.40625 5.515625 27.296875 
Q 5.515625 40.1875 11.734375 48.09375 
Q 17.96875 56 27.875 56 
Q 33.9375 56 38.25 53.625 
Q 42.578125 51.265625 45.40625 46.390625 
z
M 14.796875 27.296875 
Q 14.796875 17.390625 18.875 11.75 
Q 22.953125 6.109375 30.078125 6.109375 
Q 37.203125 6.109375 41.296875 11.75 
Q 45.40625 17.390625 45.40625 27.296875 
Q 45.40625 37.203125 41.296875 42.84375 
Q 37.203125 48.484375 30.078125 48.484375 
Q 22.953125 48.484375 18.875 42.84375 
Q 14.796875 37.203125 14.796875 27.296875 
z
" id="DejaVuSans-100"/>
    <path d="M 45.40625 27.984375 
Q 45.40625 37.75 41.375 43.109375 
Q 37.359375 48.484375 30.078125 48.484375 
Q 22.859375 48.484375 18.828125 43.109375 
Q 14.796875 37.75 14.796875 27.984375 
Q 14.796875 18.265625 18.828125 12.890625 
Q 22.859375 7.515625 30.078125 7.515625 
Q 37.359375 7.515625 41.375 12.890625 
Q 45.40625 18.265625 45.40625 27.984375 
z
M 54.390625 6.78125 
Q 54.390625 -7.171875 48.1875 -13.984375 
Q 42 -20.796875 29.203125 -20.796875 
Q 24.46875 -20.796875 20.265625 -20.09375 
Q 16.0625 -19.390625 12.109375 -17.921875 
L 12.109375 -9.1875 
Q 16.0625 -11.328125 19.921875 -12.34375 
Q 23.78125 -13.375 27.78125 -13.375 
Q 36.625 -13.375 41.015625 -8.765625 
Q 45.40625 -4.15625 45.40625 5.171875 
L 45.40625 9.625 
Q 42.625 4.78125 38.28125 2.390625 
Q 33.9375 0 27.875 0 
Q 17.828125 0 11.671875 7.65625 
Q 5.515625 15.328125 5.515625 27.984375 
Q 5.515625 40.671875 11.671875 48.328125 
Q 17.828125 56 27.875 56 
Q 33.9375 56 38.28125 53.609375 
Q 42.625 51.21875 45.40625 46.390625 
L 45.40625 54.6875 
L 54.390625 54.6875 
z
" id="DejaVuSans-103"/>
    <path d="M 18.109375 8.203125 
L 18.109375 -20.796875 
L 9.078125 -20.796875 
L 9.078125 54.6875 
L 18.109375 54.6875 
L 18.109375 46.390625 
Q 20.953125 51.265625 25.265625 53.625 
Q 29.59375 56 35.59375 56 
Q 45.5625 56 51.78125 48.09375 
Q 58.015625 40.1875 58.015625 27.296875 
Q 58.015625 14.40625 51.78125 6.484375 
Q 45.5625 -1.421875 35.59375 -1.421875 
Q 29.59375 -1.421875 25.265625 0.953125 
Q 20.953125 3.328125 18.109375 8.203125 
z
M 48.6875 27.296875 
Q 48.6875 37.203125 44.609375 42.84375 
Q 40.53125 48.484375 33.40625 48.484375 
Q 26.265625 48.484375 22.1875 42.84375 
Q 18.109375 37.203125 18.109375 27.296875 
Q 18.109375 17.390625 22.1875 11.75 
Q 26.265625 6.109375 33.40625 6.109375 
Q 40.53125 6.109375 44.609375 11.75 
Q 48.6875 17.390625 48.6875 27.296875 
z
" id="DejaVuSans-112"/>
    <path d="M 44.28125 53.078125 
L 44.28125 44.578125 
Q 40.484375 46.53125 36.375 47.5 
Q 32.28125 48.484375 27.875 48.484375 
Q 21.1875 48.484375 17.84375 46.4375 
Q 14.5 44.390625 14.5 40.28125 
Q 14.5 37.15625 16.890625 35.375 
Q 19.28125 33.59375 26.515625 31.984375 
L 29.59375 31.296875 
Q 39.15625 29.25 43.1875 25.515625 
Q 47.21875 21.78125 47.21875 15.09375 
Q 47.21875 7.46875 41.1875 3.015625 
Q 35.15625 -1.421875 24.609375 -1.421875 
Q 20.21875 -1.421875 15.453125 -0.5625 
Q 10.6875 0.296875 5.421875 2 
L 5.421875 11.28125 
Q 10.40625 8.6875 15.234375 7.390625 
Q 20.0625 6.109375 24.8125 6.109375 
Q 31.15625 6.109375 34.5625 8.28125 
Q 37.984375 10.453125 37.984375 14.40625 
Q 37.984375 18.0625 35.515625 20.015625 
Q 33.0625 21.96875 24.703125 23.78125 
L 21.578125 24.515625 
Q 13.234375 26.265625 9.515625 29.90625 
Q 5.8125 33.546875 5.8125 39.890625 
Q 5.8125 47.609375 11.28125 51.796875 
Q 16.75 56 26.8125 56 
Q 31.78125 56 36.171875 55.265625 
Q 40.578125 54.546875 44.28125 53.078125 
z
" id="DejaVuSans-115"/>
   </defs>
   <g transform="translate(519.018281 243.36)scale(0.15 -0.15)">
    <use xlink:href="#DejaVuSans-65"/>
    <use x="68.392578" xlink:href="#DejaVuSans-99"/>
    <use x="123.373047" xlink:href="#DejaVuSans-116"/>
    <use x="162.582031" xlink:href="#DejaVuSans-105"/>
    <use x="190.365234" xlink:href="#DejaVuSans-110"/>
    <use x="253.744141" xlink:href="#DejaVuSans-32"/>
    <use x="285.53125" xlink:href="#DejaVuSans-98"/>
    <use x="349.007812" xlink:href="#DejaVuSans-105"/>
    <use x="376.791016" xlink:href="#DejaVuSans-110"/>
    <use x="440.169922" xlink:href="#DejaVuSans-100"/>
    <use x="503.646484" xlink:href="#DejaVuSans-105"/>
    <use x="531.429688" xlink:href="#DejaVuSans-110"/>
    <use x="594.808594" xlink:href="#DejaVuSans-103"/>
    <use x="658.285156" xlink:href="#DejaVuSans-32"/>
    <use x="690.072266" xlink:href="#DejaVuSans-112"/>
    <use x="753.548828" xlink:href="#DejaVuSans-111"/>
    <use x="814.730469" xlink:href="#DejaVuSans-115"/>
    <use x="866.830078" xlink:href="#DejaVuSans-105"/>
    <use x="894.613281" xlink:href="#DejaVuSans-116"/>
    <use x="933.822266" xlink:href="#DejaVuSans-105"/>
    <use x="961.605469" xlink:href="#DejaVuSans-111"/>
    <use x="1022.787109" xlink:href="#DejaVuSans-110"/>
   </g>
  </g>
  <g id="text_29">
   <!-- Binding occurrences -->
   <defs>
    <path d="M 19.671875 34.8125 
L 19.671875 8.109375 
L 35.5 8.109375 
Q 43.453125 8.109375 47.28125 11.40625 
Q 51.125 14.703125 51.125 21.484375 
Q 51.125 28.328125 47.28125 31.5625 
Q 43.453125 34.8125 35.5 34.8125 
z
M 19.671875 64.796875 
L 19.671875 42.828125 
L 34.28125 42.828125 
Q 41.5 42.828125 45.03125 45.53125 
Q 48.578125 48.25 48.578125 53.8125 
Q 48.578125 59.328125 45.03125 62.0625 
Q 41.5 64.796875 34.28125 64.796875 
z
M 9.8125 72.90625 
L 35.015625 72.90625 
Q 46.296875 72.90625 52.390625 68.21875 
Q 58.5 63.53125 58.5 54.890625 
Q 58.5 48.1875 55.375 44.234375 
Q 52.25 40.28125 46.1875 39.3125 
Q 53.46875 37.75 57.5 32.78125 
Q 61.53125 27.828125 61.53125 20.40625 
Q 61.53125 10.640625 54.890625 5.3125 
Q 48.25 0 35.984375 0 
L 9.8125 0 
z
" id="DejaVuSans-66"/>
    <path d="M 8.5 21.578125 
L 8.5 54.6875 
L 17.484375 54.6875 
L 17.484375 21.921875 
Q 17.484375 14.15625 20.5 10.265625 
Q 23.53125 6.390625 29.59375 6.390625 
Q 36.859375 6.390625 41.078125 11.03125 
Q 45.3125 15.671875 45.3125 23.6875 
L 45.3125 54.6875 
L 54.296875 54.6875 
L 54.296875 0 
L 45.3125 0 
L 45.3125 8.40625 
Q 42.046875 3.421875 37.71875 1 
Q 33.40625 -1.421875 27.6875 -1.421875 
Q 18.265625 -1.421875 13.375 4.4375 
Q 8.5 10.296875 8.5 21.578125 
z
M 31.109375 56 
z
" id="DejaVuSans-117"/>
   </defs>
   <g transform="translate(18.597656 302.571797)rotate(-90)scale(0.15 -0.15)">
    <use xlink:href="#DejaVuSans-66"/>
    <use x="68.603516" xlink:href="#DejaVuSans-105"/>
    <use x="96.386719" xlink:href="#DejaVuSans-110"/>
    <use x="159.765625" xlink:href="#DejaVuSans-100"/>
    <use x="223.242188" xlink:href="#DejaVuSans-105"/>
    <use x="251.025391" xlink:href="#DejaVuSans-110"/>
    <use x="314.404297" xlink:href="#DejaVuSans-103"/>
    <use x="377.880859" xlink:href="#DejaVuSans-32"/>
    <use x="409.667969" xlink:href="#DejaVuSans-111"/>
    <use x="470.849609" xlink:href="#DejaVuSans-99"/>
    <use x="525.830078" xlink:href="#DejaVuSans-99"/>
    <use x="580.810547" xlink:href="#DejaVuSans-117"/>
    <use x="644.189453" xlink:href="#DejaVuSans-114"/>
    <use x="685.287109" xlink:href="#DejaVuSans-114"/>
    <use x="726.369141" xlink:href="#DejaVuSans-101"/>
    <use x="787.892578" xlink:href="#DejaVuSans-110"/>
    <use x="851.271484" xlink:href="#DejaVuSans-99"/>
    <use x="906.251953" xlink:href="#DejaVuSans-101"/>
    <use x="967.775391" xlink:href="#DejaVuSans-115"/>
   </g>
  </g>
 </g>
 <defs>
  <clipPath id="p9f2b287495">
   <rect height="197.672727" width="446.4" x="56.16" y="7.2"/>
  </clipPath>
  <clipPath id="p1dab3088fc">
   <rect height="197.672727" width="446.4" x="56.16" y="244.407273"/>
  </clipPath>
 </defs>
</svg>
