<?xml version="1.0" encoding="utf-8" standalone="no"?>
<!DOCTYPE svg PUBLIC "-//W3C//DTD SVG 1.1//EN"
  "http://www.w3.org/Graphics/SVG/1.1/DTD/svg11.dtd">
<!-- Created with matplotlib (https://matplotlib.org/) -->
<svg height="719.399844pt" version="1.1" viewBox="0 0 917.077812 719.399844" width="917.077812pt" xmlns="http://www.w3.org/2000/svg" xmlns:xlink="http://www.w3.org/1999/xlink">
 <defs>
  <style type="text/css">
*{stroke-linecap:butt;stroke-linejoin:round;}
  </style>
 </defs>
 <g id="figure_1">
  <g id="patch_1">
   <path d="M 0 719.399844 
L 917.077812 719.399844 
L 917.077812 0 
L 0 0 
z
" style="fill:#ffffff;"/>
  </g>
  <g id="axes_1">
   <g id="patch_2">
    <path d="M 58.565 666.358594 
L 895.565 666.358594 
L 895.565 14.038594 
L 58.565 14.038594 
z
" style="fill:#ffffff;"/>
   </g>
   <g id="matplotlib.axis_1">
    <g id="xtick_1">
     <g id="line2d_1">
      <defs>
       <path d="M 0 0 
L 0 3.5 
" id="me840679acf" style="stroke:#000000;stroke-width:0.8;"/>
      </defs>
      <g>
       <use style="stroke:#000000;stroke-width:0.8;" x="164.560633" xlink:href="#me840679acf" y="666.358594"/>
      </g>
     </g>
     <g id="text_1">
      <!-- 0.2 -->
      <defs>
       <path d="M 31.78125 66.40625 
Q 24.171875 66.40625 20.328125 58.90625 
Q 16.5 51.421875 16.5 36.375 
Q 16.5 21.390625 20.328125 13.890625 
Q 24.171875 6.390625 31.78125 6.390625 
Q 39.453125 6.390625 43.28125 13.890625 
Q 47.125 21.390625 47.125 36.375 
Q 47.125 51.421875 43.28125 58.90625 
Q 39.453125 66.40625 31.78125 66.40625 
z
M 31.78125 74.21875 
Q 44.046875 74.21875 50.515625 64.515625 
Q 56.984375 54.828125 56.984375 36.375 
Q 56.984375 17.96875 50.515625 8.265625 
Q 44.046875 -1.421875 31.78125 -1.421875 
Q 19.53125 -1.421875 13.0625 8.265625 
Q 6.59375 17.96875 6.59375 36.375 
Q 6.59375 54.828125 13.0625 64.515625 
Q 19.53125 74.21875 31.78125 74.21875 
z
" id="DejaVuSans-48"/>
       <path d="M 10.6875 12.40625 
L 21 12.40625 
L 21 0 
L 10.6875 0 
z
" id="DejaVuSans-46"/>
       <path d="M 19.1875 8.296875 
L 53.609375 8.296875 
L 53.609375 0 
L 7.328125 0 
L 7.328125 8.296875 
Q 12.9375 14.109375 22.625 23.890625 
Q 32.328125 33.6875 34.8125 36.53125 
Q 39.546875 41.84375 41.421875 45.53125 
Q 43.3125 49.21875 43.3125 52.78125 
Q 43.3125 58.59375 39.234375 62.25 
Q 35.15625 65.921875 28.609375 65.921875 
Q 23.96875 65.921875 18.8125 64.3125 
Q 13.671875 62.703125 7.8125 59.421875 
L 7.8125 69.390625 
Q 13.765625 71.78125 18.9375 73 
Q 24.125 74.21875 28.421875 74.21875 
Q 39.75 74.21875 46.484375 68.546875 
Q 53.21875 62.890625 53.21875 53.421875 
Q 53.21875 48.921875 51.53125 44.890625 
Q 49.859375 40.875 45.40625 35.40625 
Q 44.1875 33.984375 37.640625 27.21875 
Q 31.109375 20.453125 19.1875 8.296875 
z
" id="DejaVuSans-50"/>
      </defs>
      <g transform="translate(150.247821 687.035781)scale(0.18 -0.18)">
       <use xlink:href="#DejaVuSans-48"/>
       <use x="63.623047" xlink:href="#DejaVuSans-46"/>
       <use x="95.410156" xlink:href="#DejaVuSans-50"/>
      </g>
     </g>
    </g>
    <g id="xtick_2">
     <g id="line2d_2">
      <g>
       <use style="stroke:#000000;stroke-width:0.8;" x="310.761507" xlink:href="#me840679acf" y="666.358594"/>
      </g>
     </g>
     <g id="text_2">
      <!-- 0.4 -->
      <defs>
       <path d="M 37.796875 64.3125 
L 12.890625 25.390625 
L 37.796875 25.390625 
z
M 35.203125 72.90625 
L 47.609375 72.90625 
L 47.609375 25.390625 
L 58.015625 25.390625 
L 58.015625 17.1875 
L 47.609375 17.1875 
L 47.609375 0 
L 37.796875 0 
L 37.796875 17.1875 
L 4.890625 17.1875 
L 4.890625 26.703125 
z
" id="DejaVuSans-52"/>
      </defs>
      <g transform="translate(296.448694 687.035781)scale(0.18 -0.18)">
       <use xlink:href="#DejaVuSans-48"/>
       <use x="63.623047" xlink:href="#DejaVuSans-46"/>
       <use x="95.410156" xlink:href="#DejaVuSans-52"/>
      </g>
     </g>
    </g>
    <g id="xtick_3">
     <g id="line2d_3">
      <g>
       <use style="stroke:#000000;stroke-width:0.8;" x="456.96238" xlink:href="#me840679acf" y="666.358594"/>
      </g>
     </g>
     <g id="text_3">
      <!-- 0.6 -->
      <defs>
       <path d="M 33.015625 40.375 
Q 26.375 40.375 22.484375 35.828125 
Q 18.609375 31.296875 18.609375 23.390625 
Q 18.609375 15.53125 22.484375 10.953125 
Q 26.375 6.390625 33.015625 6.390625 
Q 39.65625 6.390625 43.53125 10.953125 
Q 47.40625 15.53125 47.40625 23.390625 
Q 47.40625 31.296875 43.53125 35.828125 
Q 39.65625 40.375 33.015625 40.375 
z
M 52.59375 71.296875 
L 52.59375 62.3125 
Q 48.875 64.0625 45.09375 64.984375 
Q 41.3125 65.921875 37.59375 65.921875 
Q 27.828125 65.921875 22.671875 59.328125 
Q 17.53125 52.734375 16.796875 39.40625 
Q 19.671875 43.65625 24.015625 45.921875 
Q 28.375 48.1875 33.59375 48.1875 
Q 44.578125 48.1875 50.953125 41.515625 
Q 57.328125 34.859375 57.328125 23.390625 
Q 57.328125 12.15625 50.6875 5.359375 
Q 44.046875 -1.421875 33.015625 -1.421875 
Q 20.359375 -1.421875 13.671875 8.265625 
Q 6.984375 17.96875 6.984375 36.375 
Q 6.984375 53.65625 15.1875 63.9375 
Q 23.390625 74.21875 37.203125 74.21875 
Q 40.921875 74.21875 44.703125 73.484375 
Q 48.484375 72.75 52.59375 71.296875 
z
" id="DejaVuSans-54"/>
      </defs>
      <g transform="translate(442.649567 687.035781)scale(0.18 -0.18)">
       <use xlink:href="#DejaVuSans-48"/>
       <use x="63.623047" xlink:href="#DejaVuSans-46"/>
       <use x="95.410156" xlink:href="#DejaVuSans-54"/>
      </g>
     </g>
    </g>
    <g id="xtick_4">
     <g id="line2d_4">
      <g>
       <use style="stroke:#000000;stroke-width:0.8;" x="603.163253" xlink:href="#me840679acf" y="666.358594"/>
      </g>
     </g>
     <g id="text_4">
      <!-- 0.8 -->
      <defs>
       <path d="M 31.78125 34.625 
Q 24.75 34.625 20.71875 30.859375 
Q 16.703125 27.09375 16.703125 20.515625 
Q 16.703125 13.921875 20.71875 10.15625 
Q 24.75 6.390625 31.78125 6.390625 
Q 38.8125 6.390625 42.859375 10.171875 
Q 46.921875 13.96875 46.921875 20.515625 
Q 46.921875 27.09375 42.890625 30.859375 
Q 38.875 34.625 31.78125 34.625 
z
M 21.921875 38.8125 
Q 15.578125 40.375 12.03125 44.71875 
Q 8.5 49.078125 8.5 55.328125 
Q 8.5 64.0625 14.71875 69.140625 
Q 20.953125 74.21875 31.78125 74.21875 
Q 42.671875 74.21875 48.875 69.140625 
Q 55.078125 64.0625 55.078125 55.328125 
Q 55.078125 49.078125 51.53125 44.71875 
Q 48 40.375 41.703125 38.8125 
Q 48.828125 37.15625 52.796875 32.3125 
Q 56.78125 27.484375 56.78125 20.515625 
Q 56.78125 9.90625 50.3125 4.234375 
Q 43.84375 -1.421875 31.78125 -1.421875 
Q 19.734375 -1.421875 13.25 4.234375 
Q 6.78125 9.90625 6.78125 20.515625 
Q 6.78125 27.484375 10.78125 32.3125 
Q 14.796875 37.15625 21.921875 38.8125 
z
M 18.3125 54.390625 
Q 18.3125 48.734375 21.84375 45.5625 
Q 25.390625 42.390625 31.78125 42.390625 
Q 38.140625 42.390625 41.71875 45.5625 
Q 45.3125 48.734375 45.3125 54.390625 
Q 45.3125 60.0625 41.71875 63.234375 
Q 38.140625 66.40625 31.78125 66.40625 
Q 25.390625 66.40625 21.84375 63.234375 
Q 18.3125 60.0625 18.3125 54.390625 
z
" id="DejaVuSans-56"/>
      </defs>
      <g transform="translate(588.850441 687.035781)scale(0.18 -0.18)">
       <use xlink:href="#DejaVuSans-48"/>
       <use x="63.623047" xlink:href="#DejaVuSans-46"/>
       <use x="95.410156" xlink:href="#DejaVuSans-56"/>
      </g>
     </g>
    </g>
    <g id="xtick_5">
     <g id="line2d_5">
      <g>
       <use style="stroke:#000000;stroke-width:0.8;" x="749.364127" xlink:href="#me840679acf" y="666.358594"/>
      </g>
     </g>
     <g id="text_5">
      <!-- 1.0 -->
      <defs>
       <path d="M 12.40625 8.296875 
L 28.515625 8.296875 
L 28.515625 63.921875 
L 10.984375 60.40625 
L 10.984375 69.390625 
L 28.421875 72.90625 
L 38.28125 72.90625 
L 38.28125 8.296875 
L 54.390625 8.296875 
L 54.390625 0 
L 12.40625 0 
z
" id="DejaVuSans-49"/>
      </defs>
      <g transform="translate(735.051314 687.035781)scale(0.18 -0.18)">
       <use xlink:href="#DejaVuSans-49"/>
       <use x="63.623047" xlink:href="#DejaVuSans-46"/>
       <use x="95.410156" xlink:href="#DejaVuSans-48"/>
      </g>
     </g>
    </g>
    <g id="xtick_6">
     <g id="line2d_6">
      <g>
       <use style="stroke:#000000;stroke-width:0.8;" x="895.565" xlink:href="#me840679acf" y="666.358594"/>
      </g>
     </g>
     <g id="text_6">
      <!-- 1.2 -->
      <g transform="translate(881.252187 687.035781)scale(0.18 -0.18)">
       <use xlink:href="#DejaVuSans-49"/>
       <use x="63.623047" xlink:href="#DejaVuSans-46"/>
       <use x="95.410156" xlink:href="#DejaVuSans-50"/>
      </g>
     </g>
    </g>
    <g id="text_7">
     <!-- Motor ratio -->
     <defs>
      <path d="M 9.8125 72.90625 
L 24.515625 72.90625 
L 43.109375 23.296875 
L 61.8125 72.90625 
L 76.515625 72.90625 
L 76.515625 0 
L 66.890625 0 
L 66.890625 64.015625 
L 48.09375 14.015625 
L 38.1875 14.015625 
L 19.390625 64.015625 
L 19.390625 0 
L 9.8125 0 
z
" id="DejaVuSans-77"/>
      <path d="M 30.609375 48.390625 
Q 23.390625 48.390625 19.1875 42.75 
Q 14.984375 37.109375 14.984375 27.296875 
Q 14.984375 17.484375 19.15625 11.84375 
Q 23.34375 6.203125 30.609375 6.203125 
Q 37.796875 6.203125 41.984375 11.859375 
Q 46.1875 17.53125 46.1875 27.296875 
Q 46.1875 37.015625 41.984375 42.703125 
Q 37.796875 48.390625 30.609375 48.390625 
z
M 30.609375 56 
Q 42.328125 56 49.015625 48.375 
Q 55.71875 40.765625 55.71875 27.296875 
Q 55.71875 13.875 49.015625 6.21875 
Q 42.328125 -1.421875 30.609375 -1.421875 
Q 18.84375 -1.421875 12.171875 6.21875 
Q 5.515625 13.875 5.515625 27.296875 
Q 5.515625 40.765625 12.171875 48.375 
Q 18.84375 56 30.609375 56 
z
" id="DejaVuSans-111"/>
      <path d="M 18.3125 70.21875 
L 18.3125 54.6875 
L 36.8125 54.6875 
L 36.8125 47.703125 
L 18.3125 47.703125 
L 18.3125 18.015625 
Q 18.3125 11.328125 20.140625 9.421875 
Q 21.96875 7.515625 27.59375 7.515625 
L 36.8125 7.515625 
L 36.8125 0 
L 27.59375 0 
Q 17.1875 0 13.234375 3.875 
Q 9.28125 7.765625 9.28125 18.015625 
L 9.28125 47.703125 
L 2.6875 47.703125 
L 2.6875 54.6875 
L 9.28125 54.6875 
L 9.28125 70.21875 
z
" id="DejaVuSans-116"/>
      <path d="M 41.109375 46.296875 
Q 39.59375 47.171875 37.8125 47.578125 
Q 36.03125 48 33.890625 48 
Q 26.265625 48 22.1875 43.046875 
Q 18.109375 38.09375 18.109375 28.8125 
L 18.109375 0 
L 9.078125 0 
L 9.078125 54.6875 
L 18.109375 54.6875 
L 18.109375 46.1875 
Q 20.953125 51.171875 25.484375 53.578125 
Q 30.03125 56 36.53125 56 
Q 37.453125 56 38.578125 55.875 
Q 39.703125 55.765625 41.0625 55.515625 
z
" id="DejaVuSans-114"/>
      <path id="DejaVuSans-32"/>
      <path d="M 34.28125 27.484375 
Q 23.390625 27.484375 19.1875 25 
Q 14.984375 22.515625 14.984375 16.5 
Q 14.984375 11.71875 18.140625 8.90625 
Q 21.296875 6.109375 26.703125 6.109375 
Q 34.1875 6.109375 38.703125 11.40625 
Q 43.21875 16.703125 43.21875 25.484375 
L 43.21875 27.484375 
z
M 52.203125 31.203125 
L 52.203125 0 
L 43.21875 0 
L 43.21875 8.296875 
Q 40.140625 3.328125 35.546875 0.953125 
Q 30.953125 -1.421875 24.3125 -1.421875 
Q 15.921875 -1.421875 10.953125 3.296875 
Q 6 8.015625 6 15.921875 
Q 6 25.140625 12.171875 29.828125 
Q 18.359375 34.515625 30.609375 34.515625 
L 43.21875 34.515625 
L 43.21875 35.40625 
Q 43.21875 41.609375 39.140625 45 
Q 35.0625 48.390625 27.6875 48.390625 
Q 23 48.390625 18.546875 47.265625 
Q 14.109375 46.140625 10.015625 43.890625 
L 10.015625 52.203125 
Q 14.9375 54.109375 19.578125 55.046875 
Q 24.21875 56 28.609375 56 
Q 40.484375 56 46.34375 49.84375 
Q 52.203125 43.703125 52.203125 31.203125 
z
" id="DejaVuSans-97"/>
      <path d="M 9.421875 54.6875 
L 18.40625 54.6875 
L 18.40625 0 
L 9.421875 0 
z
M 9.421875 75.984375 
L 18.40625 75.984375 
L 18.40625 64.59375 
L 9.421875 64.59375 
z
" id="DejaVuSans-105"/>
     </defs>
     <g transform="translate(427.446875 708.456406)scale(0.18 -0.18)">
      <use xlink:href="#DejaVuSans-77"/>
      <use x="86.279297" xlink:href="#DejaVuSans-111"/>
      <use x="147.460938" xlink:href="#DejaVuSans-116"/>
      <use x="186.669922" xlink:href="#DejaVuSans-111"/>
      <use x="247.851562" xlink:href="#DejaVuSans-114"/>
      <use x="288.964844" xlink:href="#DejaVuSans-32"/>
      <use x="320.751953" xlink:href="#DejaVuSans-114"/>
      <use x="361.865234" xlink:href="#DejaVuSans-97"/>
      <use x="423.144531" xlink:href="#DejaVuSans-116"/>
      <use x="462.353516" xlink:href="#DejaVuSans-105"/>
      <use x="490.136719" xlink:href="#DejaVuSans-111"/>
     </g>
    </g>
   </g>
   <g id="matplotlib.axis_2">
    <g id="ytick_1">
     <g id="line2d_7">
      <defs>
       <path d="M 0 0 
L -3.5 0 
" id="m484e37eb4a" style="stroke:#000000;stroke-width:0.8;"/>
      </defs>
      <g>
       <use style="stroke:#000000;stroke-width:0.8;" x="58.565" xlink:href="#m484e37eb4a" y="602.835194"/>
      </g>
     </g>
     <g id="text_8">
      <!-- 0 -->
      <g transform="translate(40.1125 609.673788)scale(0.18 -0.18)">
       <use xlink:href="#DejaVuSans-48"/>
      </g>
     </g>
    </g>
    <g id="ytick_2">
     <g id="line2d_8">
      <g>
       <use style="stroke:#000000;stroke-width:0.8;" x="58.565" xlink:href="#m484e37eb4a" y="504.702427"/>
      </g>
     </g>
     <g id="text_9">
      <!-- 2 -->
      <g transform="translate(40.1125 511.541021)scale(0.18 -0.18)">
       <use xlink:href="#DejaVuSans-50"/>
      </g>
     </g>
    </g>
    <g id="ytick_3">
     <g id="line2d_9">
      <g>
       <use style="stroke:#000000;stroke-width:0.8;" x="58.565" xlink:href="#m484e37eb4a" y="406.56966"/>
      </g>
     </g>
     <g id="text_10">
      <!-- 4 -->
      <g transform="translate(40.1125 413.408254)scale(0.18 -0.18)">
       <use xlink:href="#DejaVuSans-52"/>
      </g>
     </g>
    </g>
    <g id="ytick_4">
     <g id="line2d_10">
      <g>
       <use style="stroke:#000000;stroke-width:0.8;" x="58.565" xlink:href="#m484e37eb4a" y="308.436894"/>
      </g>
     </g>
     <g id="text_11">
      <!-- 6 -->
      <g transform="translate(40.1125 315.275488)scale(0.18 -0.18)">
       <use xlink:href="#DejaVuSans-54"/>
      </g>
     </g>
    </g>
    <g id="ytick_5">
     <g id="line2d_11">
      <g>
       <use style="stroke:#000000;stroke-width:0.8;" x="58.565" xlink:href="#m484e37eb4a" y="210.304127"/>
      </g>
     </g>
     <g id="text_12">
      <!-- 8 -->
      <g transform="translate(40.1125 217.142721)scale(0.18 -0.18)">
       <use xlink:href="#DejaVuSans-56"/>
      </g>
     </g>
    </g>
    <g id="ytick_6">
     <g id="line2d_12">
      <g>
       <use style="stroke:#000000;stroke-width:0.8;" x="58.565" xlink:href="#m484e37eb4a" y="112.17136"/>
      </g>
     </g>
     <g id="text_13">
      <!-- 10 -->
      <g transform="translate(28.66 119.009954)scale(0.18 -0.18)">
       <use xlink:href="#DejaVuSans-49"/>
       <use x="63.623047" xlink:href="#DejaVuSans-48"/>
      </g>
     </g>
    </g>
    <g id="ytick_7">
     <g id="line2d_13">
      <g>
       <use style="stroke:#000000;stroke-width:0.8;" x="58.565" xlink:href="#m484e37eb4a" y="14.038594"/>
      </g>
     </g>
     <g id="text_14">
      <!-- 12 -->
      <g transform="translate(28.66 20.877187)scale(0.18 -0.18)">
       <use xlink:href="#DejaVuSans-49"/>
       <use x="63.623047" xlink:href="#DejaVuSans-50"/>
      </g>
     </g>
    </g>
    <g id="text_15">
     <!-- Speed ($\mu m/s$) -->
     <defs>
      <path d="M 53.515625 70.515625 
L 53.515625 60.890625 
Q 47.90625 63.578125 42.921875 64.890625 
Q 37.9375 66.21875 33.296875 66.21875 
Q 25.25 66.21875 20.875 63.09375 
Q 16.5 59.96875 16.5 54.203125 
Q 16.5 49.359375 19.40625 46.890625 
Q 22.3125 44.4375 30.421875 42.921875 
L 36.375 41.703125 
Q 47.40625 39.59375 52.65625 34.296875 
Q 57.90625 29 57.90625 20.125 
Q 57.90625 9.515625 50.796875 4.046875 
Q 43.703125 -1.421875 29.984375 -1.421875 
Q 24.8125 -1.421875 18.96875 -0.25 
Q 13.140625 0.921875 6.890625 3.21875 
L 6.890625 13.375 
Q 12.890625 10.015625 18.65625 8.296875 
Q 24.421875 6.59375 29.984375 6.59375 
Q 38.421875 6.59375 43.015625 9.90625 
Q 47.609375 13.234375 47.609375 19.390625 
Q 47.609375 24.75 44.3125 27.78125 
Q 41.015625 30.8125 33.5 32.328125 
L 27.484375 33.5 
Q 16.453125 35.6875 11.515625 40.375 
Q 6.59375 45.0625 6.59375 53.421875 
Q 6.59375 63.09375 13.40625 68.65625 
Q 20.21875 74.21875 32.171875 74.21875 
Q 37.3125 74.21875 42.625 73.28125 
Q 47.953125 72.359375 53.515625 70.515625 
z
" id="DejaVuSans-83"/>
      <path d="M 18.109375 8.203125 
L 18.109375 -20.796875 
L 9.078125 -20.796875 
L 9.078125 54.6875 
L 18.109375 54.6875 
L 18.109375 46.390625 
Q 20.953125 51.265625 25.265625 53.625 
Q 29.59375 56 35.59375 56 
Q 45.5625 56 51.78125 48.09375 
Q 58.015625 40.1875 58.015625 27.296875 
Q 58.015625 14.40625 51.78125 6.484375 
Q 45.5625 -1.421875 35.59375 -1.421875 
Q 29.59375 -1.421875 25.265625 0.953125 
Q 20.953125 3.328125 18.109375 8.203125 
z
M 48.6875 27.296875 
Q 48.6875 37.203125 44.609375 42.84375 
Q 40.53125 48.484375 33.40625 48.484375 
Q 26.265625 48.484375 22.1875 42.84375 
Q 18.109375 37.203125 18.109375 27.296875 
Q 18.109375 17.390625 22.1875 11.75 
Q 26.265625 6.109375 33.40625 6.109375 
Q 40.53125 6.109375 44.609375 11.75 
Q 48.6875 17.390625 48.6875 27.296875 
z
" id="DejaVuSans-112"/>
      <path d="M 56.203125 29.59375 
L 56.203125 25.203125 
L 14.890625 25.203125 
Q 15.484375 15.921875 20.484375 11.0625 
Q 25.484375 6.203125 34.421875 6.203125 
Q 39.59375 6.203125 44.453125 7.46875 
Q 49.3125 8.734375 54.109375 11.28125 
L 54.109375 2.78125 
Q 49.265625 0.734375 44.1875 -0.34375 
Q 39.109375 -1.421875 33.890625 -1.421875 
Q 20.796875 -1.421875 13.15625 6.1875 
Q 5.515625 13.8125 5.515625 26.8125 
Q 5.515625 40.234375 12.765625 48.109375 
Q 20.015625 56 32.328125 56 
Q 43.359375 56 49.78125 48.890625 
Q 56.203125 41.796875 56.203125 29.59375 
z
M 47.21875 32.234375 
Q 47.125 39.59375 43.09375 43.984375 
Q 39.0625 48.390625 32.421875 48.390625 
Q 24.90625 48.390625 20.390625 44.140625 
Q 15.875 39.890625 15.1875 32.171875 
z
" id="DejaVuSans-101"/>
      <path d="M 45.40625 46.390625 
L 45.40625 75.984375 
L 54.390625 75.984375 
L 54.390625 0 
L 45.40625 0 
L 45.40625 8.203125 
Q 42.578125 3.328125 38.25 0.953125 
Q 33.9375 -1.421875 27.875 -1.421875 
Q 17.96875 -1.421875 11.734375 6.484375 
Q 5.515625 14.40625 5.515625 27.296875 
Q 5.515625 40.1875 11.734375 48.09375 
Q 17.96875 56 27.875 56 
Q 33.9375 56 38.25 53.625 
Q 42.578125 51.265625 45.40625 46.390625 
z
M 14.796875 27.296875 
Q 14.796875 17.390625 18.875 11.75 
Q 22.953125 6.109375 30.078125 6.109375 
Q 37.203125 6.109375 41.296875 11.75 
Q 45.40625 17.390625 45.40625 27.296875 
Q 45.40625 37.203125 41.296875 42.84375 
Q 37.203125 48.484375 30.078125 48.484375 
Q 22.953125 48.484375 18.875 42.84375 
Q 14.796875 37.203125 14.796875 27.296875 
z
" id="DejaVuSans-100"/>
      <path d="M 31 75.875 
Q 24.46875 64.65625 21.28125 53.65625 
Q 18.109375 42.671875 18.109375 31.390625 
Q 18.109375 20.125 21.3125 9.0625 
Q 24.515625 -2 31 -13.1875 
L 23.1875 -13.1875 
Q 15.875 -1.703125 12.234375 9.375 
Q 8.59375 20.453125 8.59375 31.390625 
Q 8.59375 42.28125 12.203125 53.3125 
Q 15.828125 64.359375 23.1875 75.875 
z
" id="DejaVuSans-40"/>
      <path d="M -1.3125 -20.796875 
L 13.375 54.6875 
L 22.40625 54.6875 
L 15.765625 20.65625 
Q 15.578125 19.625 15.421875 18.359375 
Q 15.28125 17.09375 15.28125 15.828125 
Q 15.28125 11.28125 18.140625 8.828125 
Q 21 6.390625 26.3125 6.390625 
Q 33.546875 6.390625 37.984375 10.484375 
Q 42.4375 14.59375 44 22.796875 
L 50.203125 54.6875 
L 59.1875 54.6875 
L 51.03125 12.640625 
Q 50.828125 11.71875 50.75 11.03125 
Q 50.6875 10.359375 50.6875 9.8125 
Q 50.6875 8.296875 51.296875 7.59375 
Q 51.90625 6.890625 53.21875 6.890625 
Q 53.71875 6.890625 54.5625 7.125 
Q 55.421875 7.375 56.984375 8.015625 
L 55.609375 0.78125 
Q 53.46875 -0.296875 51.515625 -0.859375 
Q 49.5625 -1.421875 47.703125 -1.421875 
Q 44.484375 -1.421875 42.65625 0.625 
Q 40.828125 2.6875 40.828125 6.296875 
Q 38.09375 2.390625 34.296875 0.484375 
Q 30.515625 -1.421875 25.390625 -1.421875 
Q 20.84375 -1.421875 17.453125 0.671875 
Q 14.0625 2.78125 12.984375 6.203125 
L 7.71875 -20.796875 
z
" id="DejaVuSans-Oblique-956"/>
      <path d="M 89.796875 33.015625 
L 83.40625 0 
L 74.421875 0 
L 80.71875 32.71875 
Q 81.109375 34.8125 81.296875 36.328125 
Q 81.5 37.84375 81.5 38.921875 
Q 81.5 43.3125 79.046875 45.75 
Q 76.609375 48.1875 72.21875 48.1875 
Q 65.671875 48.1875 60.546875 43.28125 
Q 55.421875 38.375 53.90625 30.515625 
L 47.90625 0 
L 38.921875 0 
L 45.3125 32.71875 
Q 45.703125 34.515625 45.890625 36.046875 
Q 46.09375 37.59375 46.09375 38.8125 
Q 46.09375 43.265625 43.65625 45.71875 
Q 41.21875 48.1875 36.921875 48.1875 
Q 30.28125 48.1875 25.140625 43.28125 
Q 20.015625 38.375 18.5 30.515625 
L 12.5 0 
L 3.515625 0 
L 14.203125 54.6875 
L 23.1875 54.6875 
L 21.484375 46.1875 
Q 25.140625 50.984375 30.046875 53.484375 
Q 34.96875 56 40.578125 56 
Q 46.53125 56 50.359375 52.875 
Q 54.203125 49.75 54.984375 44.1875 
Q 59.078125 49.953125 64.46875 52.96875 
Q 69.875 56 75.875 56 
Q 82.90625 56 86.734375 51.953125 
Q 90.578125 47.90625 90.578125 40.484375 
Q 90.578125 38.875 90.375 36.9375 
Q 90.1875 35.015625 89.796875 33.015625 
z
" id="DejaVuSans-Oblique-109"/>
      <path d="M 25.390625 72.90625 
L 33.6875 72.90625 
L 8.296875 -9.28125 
L 0 -9.28125 
z
" id="DejaVuSans-47"/>
      <path d="M 50 53.078125 
L 48.296875 44.578125 
Q 44.734375 46.53125 40.765625 47.5 
Q 36.8125 48.484375 32.625 48.484375 
Q 25.53125 48.484375 21.453125 46.0625 
Q 17.390625 43.65625 17.390625 39.5 
Q 17.390625 34.671875 26.859375 32.078125 
Q 27.59375 31.890625 27.9375 31.78125 
L 30.8125 30.90625 
Q 39.796875 28.421875 42.796875 25.6875 
Q 45.796875 22.953125 45.796875 18.21875 
Q 45.796875 9.515625 38.890625 4.046875 
Q 31.984375 -1.421875 20.796875 -1.421875 
Q 16.453125 -1.421875 11.671875 -0.578125 
Q 6.890625 0.25 1.125 2 
L 2.875 11.28125 
Q 7.8125 8.734375 12.59375 7.421875 
Q 17.390625 6.109375 21.78125 6.109375 
Q 28.375 6.109375 32.5 8.9375 
Q 36.625 11.765625 36.625 16.109375 
Q 36.625 20.796875 25.78125 23.6875 
L 24.859375 23.921875 
L 21.78125 24.703125 
Q 14.9375 26.515625 11.765625 29.46875 
Q 8.59375 32.421875 8.59375 37.015625 
Q 8.59375 45.75 15.15625 50.875 
Q 21.734375 56 33.015625 56 
Q 37.453125 56 41.671875 55.265625 
Q 45.90625 54.546875 50 53.078125 
z
" id="DejaVuSans-Oblique-115"/>
      <path d="M 8.015625 75.875 
L 15.828125 75.875 
Q 23.140625 64.359375 26.78125 53.3125 
Q 30.421875 42.28125 30.421875 31.390625 
Q 30.421875 20.453125 26.78125 9.375 
Q 23.140625 -1.703125 15.828125 -13.1875 
L 8.015625 -13.1875 
Q 14.5 -2 17.703125 9.0625 
Q 20.90625 20.125 20.90625 31.390625 
Q 20.90625 42.671875 17.703125 53.65625 
Q 14.5 64.65625 8.015625 75.875 
z
" id="DejaVuSans-41"/>
     </defs>
     <g transform="translate(20.88 400.588594)rotate(-90)scale(0.18 -0.18)">
      <use transform="translate(0 0.015625)" xlink:href="#DejaVuSans-83"/>
      <use transform="translate(63.476562 0.015625)" xlink:href="#DejaVuSans-112"/>
      <use transform="translate(126.953125 0.015625)" xlink:href="#DejaVuSans-101"/>
      <use transform="translate(188.476562 0.015625)" xlink:href="#DejaVuSans-101"/>
      <use transform="translate(250 0.015625)" xlink:href="#DejaVuSans-100"/>
      <use transform="translate(313.476562 0.015625)" xlink:href="#DejaVuSans-32"/>
      <use transform="translate(345.263672 0.015625)" xlink:href="#DejaVuSans-40"/>
      <use transform="translate(384.277344 0.015625)" xlink:href="#DejaVuSans-Oblique-956"/>
      <use transform="translate(447.900391 0.015625)" xlink:href="#DejaVuSans-Oblique-109"/>
      <use transform="translate(545.3125 0.015625)" xlink:href="#DejaVuSans-47"/>
      <use transform="translate(579.003906 0.015625)" xlink:href="#DejaVuSans-Oblique-115"/>
      <use transform="translate(631.103516 0.015625)" xlink:href="#DejaVuSans-41"/>
     </g>
    </g>
   </g>
   <g id="LineCollection_1">
    <path clip-path="url(#p2d95ce26b2)" d="M 91.460197 478.899641 
L 91.460197 139.417835 
" style="fill:none;stroke:#ff00ff;stroke-width:1.5;"/>
    <path clip-path="url(#p2d95ce26b2)" d="M 164.560633 460.732188 
L 164.560633 89.12848 
" style="fill:none;stroke:#ff00ff;stroke-width:1.5;"/>
    <path clip-path="url(#p2d95ce26b2)" d="M 237.66107 485.184182 
L 237.66107 136.543915 
" style="fill:none;stroke:#ff00ff;stroke-width:1.5;"/>
    <path clip-path="url(#p2d95ce26b2)" d="M 310.761507 432.790147 
L 310.761507 160.018034 
" style="fill:none;stroke:#ff00ff;stroke-width:1.5;"/>
    <path clip-path="url(#p2d95ce26b2)" d="M 383.861943 469.619432 
L 383.861943 75.926165 
" style="fill:none;stroke:#ff00ff;stroke-width:1.5;"/>
    <path clip-path="url(#p2d95ce26b2)" d="M 456.96238 337.687605 
L 456.96238 171.10414 
" style="fill:none;stroke:#ff00ff;stroke-width:1.5;"/>
    <path clip-path="url(#p2d95ce26b2)" d="M 530.062817 295.343298 
L 530.062817 202.840355 
" style="fill:none;stroke:#ff00ff;stroke-width:1.5;"/>
    <path clip-path="url(#p2d95ce26b2)" d="M 603.163253 301.321839 
L 603.163253 198.541933 
" style="fill:none;stroke:#ff00ff;stroke-width:1.5;"/>
    <path clip-path="url(#p2d95ce26b2)" d="M 676.26369 283.903953 
L 676.26369 216.440356 
" style="fill:none;stroke:#ff00ff;stroke-width:1.5;"/>
    <path clip-path="url(#p2d95ce26b2)" d="M 749.364127 288.838139 
L 749.364127 203.338117 
" style="fill:none;stroke:#ff00ff;stroke-width:1.5;"/>
   </g>
   <g id="LineCollection_2">
    <path clip-path="url(#p2d95ce26b2)" d="M 91.460197 478.899641 
L 91.460197 139.417835 
" style="fill:none;stroke:#808080;stroke-width:1.5;"/>
    <path clip-path="url(#p2d95ce26b2)" d="M 164.560633 460.732188 
L 164.560633 89.12848 
" style="fill:none;stroke:#808080;stroke-width:1.5;"/>
    <path clip-path="url(#p2d95ce26b2)" d="M 237.66107 485.184182 
L 237.66107 136.543915 
" style="fill:none;stroke:#808080;stroke-width:1.5;"/>
    <path clip-path="url(#p2d95ce26b2)" d="M 310.761507 432.790147 
L 310.761507 160.018034 
" style="fill:none;stroke:#808080;stroke-width:1.5;"/>
    <path clip-path="url(#p2d95ce26b2)" d="M 383.861943 469.619432 
L 383.861943 75.926165 
" style="fill:none;stroke:#808080;stroke-width:1.5;"/>
    <path clip-path="url(#p2d95ce26b2)" d="M 456.96238 337.687605 
L 456.96238 171.10414 
" style="fill:none;stroke:#808080;stroke-width:1.5;"/>
   </g>
   <g id="LineCollection_3">
    <path clip-path="url(#p2d95ce26b2)" d="M 91.460197 473.934071 
L 91.460197 137.187668 
" style="fill:none;stroke:#008000;stroke-width:1.5;"/>
    <path clip-path="url(#p2d95ce26b2)" d="M 164.560633 463.16757 
L 164.560633 187.735654 
" style="fill:none;stroke:#008000;stroke-width:1.5;"/>
    <path clip-path="url(#p2d95ce26b2)" d="M 237.66107 415.077802 
L 237.66107 74.497959 
" style="fill:none;stroke:#008000;stroke-width:1.5;"/>
    <path clip-path="url(#p2d95ce26b2)" d="M 310.761507 443.224719 
L 310.761507 106.715872 
" style="fill:none;stroke:#008000;stroke-width:1.5;"/>
    <path clip-path="url(#p2d95ce26b2)" d="M 383.861943 380.545102 
L 383.861943 165.960429 
" style="fill:none;stroke:#008000;stroke-width:1.5;"/>
    <path clip-path="url(#p2d95ce26b2)" d="M 456.96238 454.278804 
L 456.96238 89.325762 
" style="fill:none;stroke:#008000;stroke-width:1.5;"/>
    <path clip-path="url(#p2d95ce26b2)" d="M 530.062817 296.558726 
L 530.062817 218.701418 
" style="fill:none;stroke:#008000;stroke-width:1.5;"/>
    <path clip-path="url(#p2d95ce26b2)" d="M 603.163253 291.102591 
L 603.163253 218.009358 
" style="fill:none;stroke:#008000;stroke-width:1.5;"/>
    <path clip-path="url(#p2d95ce26b2)" d="M 676.26369 290.466615 
L 676.26369 206.111484 
" style="fill:none;stroke:#008000;stroke-width:1.5;"/>
    <path clip-path="url(#p2d95ce26b2)" d="M 749.364127 288.838139 
L 749.364127 203.338117 
" style="fill:none;stroke:#008000;stroke-width:1.5;"/>
   </g>
   <g id="LineCollection_4">
    <path clip-path="url(#p2d95ce26b2)" d="M 91.460197 608.058895 
L 91.460197 590.322041 
" style="fill:none;stroke:#ff0000;stroke-width:1.5;"/>
    <path clip-path="url(#p2d95ce26b2)" d="M 164.560633 638.174754 
L 164.560633 427.326023 
" style="fill:none;stroke:#ff0000;stroke-width:1.5;"/>
    <path clip-path="url(#p2d95ce26b2)" d="M 237.66107 550.082678 
L 237.66107 432.0357 
" style="fill:none;stroke:#ff0000;stroke-width:1.5;"/>
    <path clip-path="url(#p2d95ce26b2)" d="M 310.761507 498.343643 
L 310.761507 352.251378 
" style="fill:none;stroke:#ff0000;stroke-width:1.5;"/>
    <path clip-path="url(#p2d95ce26b2)" d="M 383.861943 418.399903 
L 383.861943 308.479217 
" style="fill:none;stroke:#ff0000;stroke-width:1.5;"/>
    <path clip-path="url(#p2d95ce26b2)" d="M 456.96238 366.710176 
L 456.96238 291.992393 
" style="fill:none;stroke:#ff0000;stroke-width:1.5;"/>
    <path clip-path="url(#p2d95ce26b2)" d="M 530.062817 328.957762 
L 530.062817 259.078808 
" style="fill:none;stroke:#ff0000;stroke-width:1.5;"/>
    <path clip-path="url(#p2d95ce26b2)" d="M 603.163253 322.326285 
L 603.163253 239.848241 
" style="fill:none;stroke:#ff0000;stroke-width:1.5;"/>
    <path clip-path="url(#p2d95ce26b2)" d="M 676.26369 295.848799 
L 676.26369 233.929411 
" style="fill:none;stroke:#ff0000;stroke-width:1.5;"/>
    <path clip-path="url(#p2d95ce26b2)" d="M 749.364127 288.838139 
L 749.364127 203.338117 
" style="fill:none;stroke:#ff0000;stroke-width:1.5;"/>
   </g>
   <g id="LineCollection_5">
    <path clip-path="url(#p2d95ce26b2)" d="M 91.460197 601.912156 
L 91.460197 598.147695 
" style="fill:none;stroke:#ff00ff;stroke-width:1.5;"/>
    <path clip-path="url(#p2d95ce26b2)" d="M 164.560633 603.435932 
L 164.560633 593.621882 
" style="fill:none;stroke:#ff00ff;stroke-width:1.5;"/>
    <path clip-path="url(#p2d95ce26b2)" d="M 237.66107 637.384166 
L 237.66107 513.816904 
" style="fill:none;stroke:#ff00ff;stroke-width:1.5;"/>
    <path clip-path="url(#p2d95ce26b2)" d="M 310.761507 582.067866 
L 310.761507 495.750338 
" style="fill:none;stroke:#ff00ff;stroke-width:1.5;"/>
    <path clip-path="url(#p2d95ce26b2)" d="M 383.861943 564.338486 
L 383.861943 465.699832 
" style="fill:none;stroke:#ff00ff;stroke-width:1.5;"/>
    <path clip-path="url(#p2d95ce26b2)" d="M 456.96238 490.452612 
L 456.96238 393.772418 
" style="fill:none;stroke:#ff00ff;stroke-width:1.5;"/>
    <path clip-path="url(#p2d95ce26b2)" d="M 530.062817 430.089046 
L 530.062817 349.139764 
" style="fill:none;stroke:#ff00ff;stroke-width:1.5;"/>
    <path clip-path="url(#p2d95ce26b2)" d="M 603.163253 364.386732 
L 603.163253 279.810678 
" style="fill:none;stroke:#ff00ff;stroke-width:1.5;"/>
    <path clip-path="url(#p2d95ce26b2)" d="M 676.26369 320.204515 
L 676.26369 255.218451 
" style="fill:none;stroke:#ff00ff;stroke-width:1.5;"/>
    <path clip-path="url(#p2d95ce26b2)" d="M 749.364127 288.838139 
L 749.364127 203.338117 
" style="fill:none;stroke:#ff00ff;stroke-width:1.5;"/>
   </g>
   <g id="LineCollection_6">
    <path clip-path="url(#p2d95ce26b2)" d="M 91.460197 602.066177 
L 91.460197 599.218658 
" style="fill:none;stroke:#800080;stroke-width:1.5;"/>
    <path clip-path="url(#p2d95ce26b2)" d="M 164.560633 602.219441 
L 164.560633 599.793983 
" style="fill:none;stroke:#800080;stroke-width:1.5;"/>
    <path clip-path="url(#p2d95ce26b2)" d="M 237.66107 602.274875 
L 237.66107 596.305062 
" style="fill:none;stroke:#800080;stroke-width:1.5;"/>
    <path clip-path="url(#p2d95ce26b2)" d="M 310.761507 601.778893 
L 310.761507 599.193194 
" style="fill:none;stroke:#800080;stroke-width:1.5;"/>
    <path clip-path="url(#p2d95ce26b2)" d="M 383.861943 604.502359 
L 383.861943 571.915945 
" style="fill:none;stroke:#800080;stroke-width:1.5;"/>
    <path clip-path="url(#p2d95ce26b2)" d="M 456.96238 610.01961 
L 456.96238 546.181939 
" style="fill:none;stroke:#800080;stroke-width:1.5;"/>
    <path clip-path="url(#p2d95ce26b2)" d="M 530.062817 634.317687 
L 530.062817 342.129889 
" style="fill:none;stroke:#800080;stroke-width:1.5;"/>
    <path clip-path="url(#p2d95ce26b2)" d="M 603.163253 520.780844 
L 603.163253 392.637582 
" style="fill:none;stroke:#800080;stroke-width:1.5;"/>
    <path clip-path="url(#p2d95ce26b2)" d="M 676.26369 387.754165 
L 676.26369 302.220013 
" style="fill:none;stroke:#800080;stroke-width:1.5;"/>
    <path clip-path="url(#p2d95ce26b2)" d="M 749.364127 288.838139 
L 749.364127 203.338117 
" style="fill:none;stroke:#800080;stroke-width:1.5;"/>
   </g>
   <g id="LineCollection_7">
    <path clip-path="url(#p2d95ce26b2)" d="M 91.460197 602.097949 
L 91.460197 599.586743 
" style="fill:none;stroke:#0000ff;stroke-width:1.5;"/>
    <path clip-path="url(#p2d95ce26b2)" d="M 164.560633 602.17087 
L 164.560633 599.203032 
" style="fill:none;stroke:#0000ff;stroke-width:1.5;"/>
    <path clip-path="url(#p2d95ce26b2)" d="M 237.66107 603.212447 
L 237.66107 597.031178 
" style="fill:none;stroke:#0000ff;stroke-width:1.5;"/>
    <path clip-path="url(#p2d95ce26b2)" d="M 310.761507 602.80132 
L 310.761507 597.818727 
" style="fill:none;stroke:#0000ff;stroke-width:1.5;"/>
    <path clip-path="url(#p2d95ce26b2)" d="M 383.861943 602.852824 
L 383.861943 596.233181 
" style="fill:none;stroke:#0000ff;stroke-width:1.5;"/>
    <path clip-path="url(#p2d95ce26b2)" d="M 456.96238 603.849379 
L 456.96238 583.733822 
" style="fill:none;stroke:#0000ff;stroke-width:1.5;"/>
    <path clip-path="url(#p2d95ce26b2)" d="M 530.062817 599.916556 
L 530.062817 560.505312 
" style="fill:none;stroke:#0000ff;stroke-width:1.5;"/>
    <path clip-path="url(#p2d95ce26b2)" d="M 603.163253 604.223453 
L 603.163253 464.622805 
" style="fill:none;stroke:#0000ff;stroke-width:1.5;"/>
    <path clip-path="url(#p2d95ce26b2)" d="M 676.26369 444.71873 
L 676.26369 336.05478 
" style="fill:none;stroke:#0000ff;stroke-width:1.5;"/>
    <path clip-path="url(#p2d95ce26b2)" d="M 749.364127 286.789942 
L 749.364127 224.71703 
" style="fill:none;stroke:#0000ff;stroke-width:1.5;"/>
   </g>
   <g id="LineCollection_8">
    <path clip-path="url(#p2d95ce26b2)" d="M 91.460197 601.656318 
L 91.460197 599.50672 
" style="fill:none;stroke:#000000;stroke-width:1.5;"/>
    <path clip-path="url(#p2d95ce26b2)" d="M 164.560633 601.733009 
L 164.560633 598.708483 
" style="fill:none;stroke:#000000;stroke-width:1.5;"/>
    <path clip-path="url(#p2d95ce26b2)" d="M 237.66107 603.673725 
L 237.66107 596.875978 
" style="fill:none;stroke:#000000;stroke-width:1.5;"/>
    <path clip-path="url(#p2d95ce26b2)" d="M 310.761507 602.528499 
L 310.761507 597.907924 
" style="fill:none;stroke:#000000;stroke-width:1.5;"/>
    <path clip-path="url(#p2d95ce26b2)" d="M 383.861943 604.932467 
L 383.861943 596.046585 
" style="fill:none;stroke:#000000;stroke-width:1.5;"/>
    <path clip-path="url(#p2d95ce26b2)" d="M 456.96238 604.890082 
L 456.96238 593.32286 
" style="fill:none;stroke:#000000;stroke-width:1.5;"/>
    <path clip-path="url(#p2d95ce26b2)" d="M 530.062817 620.342941 
L 530.062817 557.133812 
" style="fill:none;stroke:#000000;stroke-width:1.5;"/>
    <path clip-path="url(#p2d95ce26b2)" d="M 603.163253 625.055138 
L 603.163253 496.57351 
" style="fill:none;stroke:#000000;stroke-width:1.5;"/>
    <path clip-path="url(#p2d95ce26b2)" d="M 676.26369 513.81099 
L 676.26369 386.140499 
" style="fill:none;stroke:#000000;stroke-width:1.5;"/>
    <path clip-path="url(#p2d95ce26b2)" d="M 749.364127 288.838139 
L 749.364127 203.338117 
" style="fill:none;stroke:#000000;stroke-width:1.5;"/>
   </g>
   <g id="LineCollection_9">
    <path clip-path="url(#p2d95ce26b2)" d="M 164.560633 638.174754 
L 164.560633 427.326023 
" style="fill:none;stroke:#808080;stroke-width:1.5;"/>
   </g>
   <g id="LineCollection_10">
    <path clip-path="url(#p2d95ce26b2)" d="M 91.460197 473.934071 
L 91.460197 137.187668 
" style="fill:none;stroke:#808080;stroke-width:1.5;"/>
    <path clip-path="url(#p2d95ce26b2)" d="M 164.560633 463.16757 
L 164.560633 187.735654 
" style="fill:none;stroke:#808080;stroke-width:1.5;"/>
    <path clip-path="url(#p2d95ce26b2)" d="M 237.66107 415.077802 
L 237.66107 74.497959 
" style="fill:none;stroke:#808080;stroke-width:1.5;"/>
    <path clip-path="url(#p2d95ce26b2)" d="M 310.761507 443.224719 
L 310.761507 106.715872 
" style="fill:none;stroke:#808080;stroke-width:1.5;"/>
   </g>
   <g id="LineCollection_11">
    <path clip-path="url(#p2d95ce26b2)" d="M 530.062817 634.317687 
L 530.062817 342.129889 
" style="fill:none;stroke:#808080;stroke-width:1.5;"/>
   </g>
   <g id="line2d_14">
    <defs>
     <path d="M 3 0 
L -3 -0 
" id="m615d973bbd" style="stroke:#ff00ff;"/>
    </defs>
    <g clip-path="url(#p2d95ce26b2)">
     <use style="fill:#ff00ff;stroke:#ff00ff;" x="91.460197" xlink:href="#m615d973bbd" y="478.899641"/>
     <use style="fill:#ff00ff;stroke:#ff00ff;" x="164.560633" xlink:href="#m615d973bbd" y="460.732188"/>
     <use style="fill:#ff00ff;stroke:#ff00ff;" x="237.66107" xlink:href="#m615d973bbd" y="485.184182"/>
     <use style="fill:#ff00ff;stroke:#ff00ff;" x="310.761507" xlink:href="#m615d973bbd" y="432.790147"/>
     <use style="fill:#ff00ff;stroke:#ff00ff;" x="383.861943" xlink:href="#m615d973bbd" y="469.619432"/>
     <use style="fill:#ff00ff;stroke:#ff00ff;" x="456.96238" xlink:href="#m615d973bbd" y="337.687605"/>
     <use style="fill:#ff00ff;stroke:#ff00ff;" x="530.062817" xlink:href="#m615d973bbd" y="295.343298"/>
     <use style="fill:#ff00ff;stroke:#ff00ff;" x="603.163253" xlink:href="#m615d973bbd" y="301.321839"/>
     <use style="fill:#ff00ff;stroke:#ff00ff;" x="676.26369" xlink:href="#m615d973bbd" y="283.903953"/>
     <use style="fill:#ff00ff;stroke:#ff00ff;" x="749.364127" xlink:href="#m615d973bbd" y="288.838139"/>
    </g>
   </g>
   <g id="line2d_15">
    <g clip-path="url(#p2d95ce26b2)">
     <use style="fill:#ff00ff;stroke:#ff00ff;" x="91.460197" xlink:href="#m615d973bbd" y="139.417835"/>
     <use style="fill:#ff00ff;stroke:#ff00ff;" x="164.560633" xlink:href="#m615d973bbd" y="89.12848"/>
     <use style="fill:#ff00ff;stroke:#ff00ff;" x="237.66107" xlink:href="#m615d973bbd" y="136.543915"/>
     <use style="fill:#ff00ff;stroke:#ff00ff;" x="310.761507" xlink:href="#m615d973bbd" y="160.018034"/>
     <use style="fill:#ff00ff;stroke:#ff00ff;" x="383.861943" xlink:href="#m615d973bbd" y="75.926165"/>
     <use style="fill:#ff00ff;stroke:#ff00ff;" x="456.96238" xlink:href="#m615d973bbd" y="171.10414"/>
     <use style="fill:#ff00ff;stroke:#ff00ff;" x="530.062817" xlink:href="#m615d973bbd" y="202.840355"/>
     <use style="fill:#ff00ff;stroke:#ff00ff;" x="603.163253" xlink:href="#m615d973bbd" y="198.541933"/>
     <use style="fill:#ff00ff;stroke:#ff00ff;" x="676.26369" xlink:href="#m615d973bbd" y="216.440356"/>
     <use style="fill:#ff00ff;stroke:#ff00ff;" x="749.364127" xlink:href="#m615d973bbd" y="203.338117"/>
    </g>
   </g>
   <g id="line2d_16">
    <defs>
     <path d="M 3 0 
L -3 -0 
" id="mc8a9527360" style="stroke:#808080;"/>
    </defs>
    <g clip-path="url(#p2d95ce26b2)">
     <use style="fill:#808080;stroke:#808080;" x="91.460197" xlink:href="#mc8a9527360" y="478.899641"/>
     <use style="fill:#808080;stroke:#808080;" x="164.560633" xlink:href="#mc8a9527360" y="460.732188"/>
     <use style="fill:#808080;stroke:#808080;" x="237.66107" xlink:href="#mc8a9527360" y="485.184182"/>
     <use style="fill:#808080;stroke:#808080;" x="310.761507" xlink:href="#mc8a9527360" y="432.790147"/>
     <use style="fill:#808080;stroke:#808080;" x="383.861943" xlink:href="#mc8a9527360" y="469.619432"/>
     <use style="fill:#808080;stroke:#808080;" x="456.96238" xlink:href="#mc8a9527360" y="337.687605"/>
    </g>
   </g>
   <g id="line2d_17">
    <g clip-path="url(#p2d95ce26b2)">
     <use style="fill:#808080;stroke:#808080;" x="91.460197" xlink:href="#mc8a9527360" y="139.417835"/>
     <use style="fill:#808080;stroke:#808080;" x="164.560633" xlink:href="#mc8a9527360" y="89.12848"/>
     <use style="fill:#808080;stroke:#808080;" x="237.66107" xlink:href="#mc8a9527360" y="136.543915"/>
     <use style="fill:#808080;stroke:#808080;" x="310.761507" xlink:href="#mc8a9527360" y="160.018034"/>
     <use style="fill:#808080;stroke:#808080;" x="383.861943" xlink:href="#mc8a9527360" y="75.926165"/>
     <use style="fill:#808080;stroke:#808080;" x="456.96238" xlink:href="#mc8a9527360" y="171.10414"/>
    </g>
   </g>
   <g id="line2d_18">
    <defs>
     <path d="M 3 0 
L -3 -0 
" id="mda9d2f8dbe" style="stroke:#008000;"/>
    </defs>
    <g clip-path="url(#p2d95ce26b2)">
     <use style="fill:#008000;stroke:#008000;" x="91.460197" xlink:href="#mda9d2f8dbe" y="473.934071"/>
     <use style="fill:#008000;stroke:#008000;" x="164.560633" xlink:href="#mda9d2f8dbe" y="463.16757"/>
     <use style="fill:#008000;stroke:#008000;" x="237.66107" xlink:href="#mda9d2f8dbe" y="415.077802"/>
     <use style="fill:#008000;stroke:#008000;" x="310.761507" xlink:href="#mda9d2f8dbe" y="443.224719"/>
     <use style="fill:#008000;stroke:#008000;" x="383.861943" xlink:href="#mda9d2f8dbe" y="380.545102"/>
     <use style="fill:#008000;stroke:#008000;" x="456.96238" xlink:href="#mda9d2f8dbe" y="454.278804"/>
     <use style="fill:#008000;stroke:#008000;" x="530.062817" xlink:href="#mda9d2f8dbe" y="296.558726"/>
     <use style="fill:#008000;stroke:#008000;" x="603.163253" xlink:href="#mda9d2f8dbe" y="291.102591"/>
     <use style="fill:#008000;stroke:#008000;" x="676.26369" xlink:href="#mda9d2f8dbe" y="290.466615"/>
     <use style="fill:#008000;stroke:#008000;" x="749.364127" xlink:href="#mda9d2f8dbe" y="288.838139"/>
    </g>
   </g>
   <g id="line2d_19">
    <g clip-path="url(#p2d95ce26b2)">
     <use style="fill:#008000;stroke:#008000;" x="91.460197" xlink:href="#mda9d2f8dbe" y="137.187668"/>
     <use style="fill:#008000;stroke:#008000;" x="164.560633" xlink:href="#mda9d2f8dbe" y="187.735654"/>
     <use style="fill:#008000;stroke:#008000;" x="237.66107" xlink:href="#mda9d2f8dbe" y="74.497959"/>
     <use style="fill:#008000;stroke:#008000;" x="310.761507" xlink:href="#mda9d2f8dbe" y="106.715872"/>
     <use style="fill:#008000;stroke:#008000;" x="383.861943" xlink:href="#mda9d2f8dbe" y="165.960429"/>
     <use style="fill:#008000;stroke:#008000;" x="456.96238" xlink:href="#mda9d2f8dbe" y="89.325762"/>
     <use style="fill:#008000;stroke:#008000;" x="530.062817" xlink:href="#mda9d2f8dbe" y="218.701418"/>
     <use style="fill:#008000;stroke:#008000;" x="603.163253" xlink:href="#mda9d2f8dbe" y="218.009358"/>
     <use style="fill:#008000;stroke:#008000;" x="676.26369" xlink:href="#mda9d2f8dbe" y="206.111484"/>
     <use style="fill:#008000;stroke:#008000;" x="749.364127" xlink:href="#mda9d2f8dbe" y="203.338117"/>
    </g>
   </g>
   <g id="line2d_20">
    <defs>
     <path d="M 3 0 
L -3 -0 
" id="mc4b836cb82" style="stroke:#ff0000;"/>
    </defs>
    <g clip-path="url(#p2d95ce26b2)">
     <use style="fill:#ff0000;stroke:#ff0000;" x="91.460197" xlink:href="#mc4b836cb82" y="608.058895"/>
     <use style="fill:#ff0000;stroke:#ff0000;" x="164.560633" xlink:href="#mc4b836cb82" y="638.174754"/>
     <use style="fill:#ff0000;stroke:#ff0000;" x="237.66107" xlink:href="#mc4b836cb82" y="550.082678"/>
     <use style="fill:#ff0000;stroke:#ff0000;" x="310.761507" xlink:href="#mc4b836cb82" y="498.343643"/>
     <use style="fill:#ff0000;stroke:#ff0000;" x="383.861943" xlink:href="#mc4b836cb82" y="418.399903"/>
     <use style="fill:#ff0000;stroke:#ff0000;" x="456.96238" xlink:href="#mc4b836cb82" y="366.710176"/>
     <use style="fill:#ff0000;stroke:#ff0000;" x="530.062817" xlink:href="#mc4b836cb82" y="328.957762"/>
     <use style="fill:#ff0000;stroke:#ff0000;" x="603.163253" xlink:href="#mc4b836cb82" y="322.326285"/>
     <use style="fill:#ff0000;stroke:#ff0000;" x="676.26369" xlink:href="#mc4b836cb82" y="295.848799"/>
     <use style="fill:#ff0000;stroke:#ff0000;" x="749.364127" xlink:href="#mc4b836cb82" y="288.838139"/>
    </g>
   </g>
   <g id="line2d_21">
    <g clip-path="url(#p2d95ce26b2)">
     <use style="fill:#ff0000;stroke:#ff0000;" x="91.460197" xlink:href="#mc4b836cb82" y="590.322041"/>
     <use style="fill:#ff0000;stroke:#ff0000;" x="164.560633" xlink:href="#mc4b836cb82" y="427.326023"/>
     <use style="fill:#ff0000;stroke:#ff0000;" x="237.66107" xlink:href="#mc4b836cb82" y="432.0357"/>
     <use style="fill:#ff0000;stroke:#ff0000;" x="310.761507" xlink:href="#mc4b836cb82" y="352.251378"/>
     <use style="fill:#ff0000;stroke:#ff0000;" x="383.861943" xlink:href="#mc4b836cb82" y="308.479217"/>
     <use style="fill:#ff0000;stroke:#ff0000;" x="456.96238" xlink:href="#mc4b836cb82" y="291.992393"/>
     <use style="fill:#ff0000;stroke:#ff0000;" x="530.062817" xlink:href="#mc4b836cb82" y="259.078808"/>
     <use style="fill:#ff0000;stroke:#ff0000;" x="603.163253" xlink:href="#mc4b836cb82" y="239.848241"/>
     <use style="fill:#ff0000;stroke:#ff0000;" x="676.26369" xlink:href="#mc4b836cb82" y="233.929411"/>
     <use style="fill:#ff0000;stroke:#ff0000;" x="749.364127" xlink:href="#mc4b836cb82" y="203.338117"/>
    </g>
   </g>
   <g id="line2d_22">
    <g clip-path="url(#p2d95ce26b2)">
     <use style="fill:#ff00ff;stroke:#ff00ff;" x="91.460197" xlink:href="#m615d973bbd" y="601.912156"/>
     <use style="fill:#ff00ff;stroke:#ff00ff;" x="164.560633" xlink:href="#m615d973bbd" y="603.435932"/>
     <use style="fill:#ff00ff;stroke:#ff00ff;" x="237.66107" xlink:href="#m615d973bbd" y="637.384166"/>
     <use style="fill:#ff00ff;stroke:#ff00ff;" x="310.761507" xlink:href="#m615d973bbd" y="582.067866"/>
     <use style="fill:#ff00ff;stroke:#ff00ff;" x="383.861943" xlink:href="#m615d973bbd" y="564.338486"/>
     <use style="fill:#ff00ff;stroke:#ff00ff;" x="456.96238" xlink:href="#m615d973bbd" y="490.452612"/>
     <use style="fill:#ff00ff;stroke:#ff00ff;" x="530.062817" xlink:href="#m615d973bbd" y="430.089046"/>
     <use style="fill:#ff00ff;stroke:#ff00ff;" x="603.163253" xlink:href="#m615d973bbd" y="364.386732"/>
     <use style="fill:#ff00ff;stroke:#ff00ff;" x="676.26369" xlink:href="#m615d973bbd" y="320.204515"/>
     <use style="fill:#ff00ff;stroke:#ff00ff;" x="749.364127" xlink:href="#m615d973bbd" y="288.838139"/>
    </g>
   </g>
   <g id="line2d_23">
    <g clip-path="url(#p2d95ce26b2)">
     <use style="fill:#ff00ff;stroke:#ff00ff;" x="91.460197" xlink:href="#m615d973bbd" y="598.147695"/>
     <use style="fill:#ff00ff;stroke:#ff00ff;" x="164.560633" xlink:href="#m615d973bbd" y="593.621882"/>
     <use style="fill:#ff00ff;stroke:#ff00ff;" x="237.66107" xlink:href="#m615d973bbd" y="513.816904"/>
     <use style="fill:#ff00ff;stroke:#ff00ff;" x="310.761507" xlink:href="#m615d973bbd" y="495.750338"/>
     <use style="fill:#ff00ff;stroke:#ff00ff;" x="383.861943" xlink:href="#m615d973bbd" y="465.699832"/>
     <use style="fill:#ff00ff;stroke:#ff00ff;" x="456.96238" xlink:href="#m615d973bbd" y="393.772418"/>
     <use style="fill:#ff00ff;stroke:#ff00ff;" x="530.062817" xlink:href="#m615d973bbd" y="349.139764"/>
     <use style="fill:#ff00ff;stroke:#ff00ff;" x="603.163253" xlink:href="#m615d973bbd" y="279.810678"/>
     <use style="fill:#ff00ff;stroke:#ff00ff;" x="676.26369" xlink:href="#m615d973bbd" y="255.218451"/>
     <use style="fill:#ff00ff;stroke:#ff00ff;" x="749.364127" xlink:href="#m615d973bbd" y="203.338117"/>
    </g>
   </g>
   <g id="line2d_24">
    <defs>
     <path d="M 3 0 
L -3 -0 
" id="m424a27c1a7" style="stroke:#800080;"/>
    </defs>
    <g clip-path="url(#p2d95ce26b2)">
     <use style="fill:#800080;stroke:#800080;" x="91.460197" xlink:href="#m424a27c1a7" y="602.066177"/>
     <use style="fill:#800080;stroke:#800080;" x="164.560633" xlink:href="#m424a27c1a7" y="602.219441"/>
     <use style="fill:#800080;stroke:#800080;" x="237.66107" xlink:href="#m424a27c1a7" y="602.274875"/>
     <use style="fill:#800080;stroke:#800080;" x="310.761507" xlink:href="#m424a27c1a7" y="601.778893"/>
     <use style="fill:#800080;stroke:#800080;" x="383.861943" xlink:href="#m424a27c1a7" y="604.502359"/>
     <use style="fill:#800080;stroke:#800080;" x="456.96238" xlink:href="#m424a27c1a7" y="610.01961"/>
     <use style="fill:#800080;stroke:#800080;" x="530.062817" xlink:href="#m424a27c1a7" y="634.317687"/>
     <use style="fill:#800080;stroke:#800080;" x="603.163253" xlink:href="#m424a27c1a7" y="520.780844"/>
     <use style="fill:#800080;stroke:#800080;" x="676.26369" xlink:href="#m424a27c1a7" y="387.754165"/>
     <use style="fill:#800080;stroke:#800080;" x="749.364127" xlink:href="#m424a27c1a7" y="288.838139"/>
    </g>
   </g>
   <g id="line2d_25">
    <g clip-path="url(#p2d95ce26b2)">
     <use style="fill:#800080;stroke:#800080;" x="91.460197" xlink:href="#m424a27c1a7" y="599.218658"/>
     <use style="fill:#800080;stroke:#800080;" x="164.560633" xlink:href="#m424a27c1a7" y="599.793983"/>
     <use style="fill:#800080;stroke:#800080;" x="237.66107" xlink:href="#m424a27c1a7" y="596.305062"/>
     <use style="fill:#800080;stroke:#800080;" x="310.761507" xlink:href="#m424a27c1a7" y="599.193194"/>
     <use style="fill:#800080;stroke:#800080;" x="383.861943" xlink:href="#m424a27c1a7" y="571.915945"/>
     <use style="fill:#800080;stroke:#800080;" x="456.96238" xlink:href="#m424a27c1a7" y="546.181939"/>
     <use style="fill:#800080;stroke:#800080;" x="530.062817" xlink:href="#m424a27c1a7" y="342.129889"/>
     <use style="fill:#800080;stroke:#800080;" x="603.163253" xlink:href="#m424a27c1a7" y="392.637582"/>
     <use style="fill:#800080;stroke:#800080;" x="676.26369" xlink:href="#m424a27c1a7" y="302.220013"/>
     <use style="fill:#800080;stroke:#800080;" x="749.364127" xlink:href="#m424a27c1a7" y="203.338117"/>
    </g>
   </g>
   <g id="line2d_26">
    <defs>
     <path d="M 3 0 
L -3 -0 
" id="m41d217c87a" style="stroke:#0000ff;"/>
    </defs>
    <g clip-path="url(#p2d95ce26b2)">
     <use style="fill:#0000ff;stroke:#0000ff;" x="91.460197" xlink:href="#m41d217c87a" y="602.097949"/>
     <use style="fill:#0000ff;stroke:#0000ff;" x="164.560633" xlink:href="#m41d217c87a" y="602.17087"/>
     <use style="fill:#0000ff;stroke:#0000ff;" x="237.66107" xlink:href="#m41d217c87a" y="603.212447"/>
     <use style="fill:#0000ff;stroke:#0000ff;" x="310.761507" xlink:href="#m41d217c87a" y="602.80132"/>
     <use style="fill:#0000ff;stroke:#0000ff;" x="383.861943" xlink:href="#m41d217c87a" y="602.852824"/>
     <use style="fill:#0000ff;stroke:#0000ff;" x="456.96238" xlink:href="#m41d217c87a" y="603.849379"/>
     <use style="fill:#0000ff;stroke:#0000ff;" x="530.062817" xlink:href="#m41d217c87a" y="599.916556"/>
     <use style="fill:#0000ff;stroke:#0000ff;" x="603.163253" xlink:href="#m41d217c87a" y="604.223453"/>
     <use style="fill:#0000ff;stroke:#0000ff;" x="676.26369" xlink:href="#m41d217c87a" y="444.71873"/>
     <use style="fill:#0000ff;stroke:#0000ff;" x="749.364127" xlink:href="#m41d217c87a" y="286.789942"/>
    </g>
   </g>
   <g id="line2d_27">
    <g clip-path="url(#p2d95ce26b2)">
     <use style="fill:#0000ff;stroke:#0000ff;" x="91.460197" xlink:href="#m41d217c87a" y="599.586743"/>
     <use style="fill:#0000ff;stroke:#0000ff;" x="164.560633" xlink:href="#m41d217c87a" y="599.203032"/>
     <use style="fill:#0000ff;stroke:#0000ff;" x="237.66107" xlink:href="#m41d217c87a" y="597.031178"/>
     <use style="fill:#0000ff;stroke:#0000ff;" x="310.761507" xlink:href="#m41d217c87a" y="597.818727"/>
     <use style="fill:#0000ff;stroke:#0000ff;" x="383.861943" xlink:href="#m41d217c87a" y="596.233181"/>
     <use style="fill:#0000ff;stroke:#0000ff;" x="456.96238" xlink:href="#m41d217c87a" y="583.733822"/>
     <use style="fill:#0000ff;stroke:#0000ff;" x="530.062817" xlink:href="#m41d217c87a" y="560.505312"/>
     <use style="fill:#0000ff;stroke:#0000ff;" x="603.163253" xlink:href="#m41d217c87a" y="464.622805"/>
     <use style="fill:#0000ff;stroke:#0000ff;" x="676.26369" xlink:href="#m41d217c87a" y="336.05478"/>
     <use style="fill:#0000ff;stroke:#0000ff;" x="749.364127" xlink:href="#m41d217c87a" y="224.71703"/>
    </g>
   </g>
   <g id="line2d_28">
    <defs>
     <path d="M 3 0 
L -3 -0 
" id="m1873e660c5" style="stroke:#000000;"/>
    </defs>
    <g clip-path="url(#p2d95ce26b2)">
     <use style="stroke:#000000;" x="91.460197" xlink:href="#m1873e660c5" y="601.656318"/>
     <use style="stroke:#000000;" x="164.560633" xlink:href="#m1873e660c5" y="601.733009"/>
     <use style="stroke:#000000;" x="237.66107" xlink:href="#m1873e660c5" y="603.673725"/>
     <use style="stroke:#000000;" x="310.761507" xlink:href="#m1873e660c5" y="602.528499"/>
     <use style="stroke:#000000;" x="383.861943" xlink:href="#m1873e660c5" y="604.932467"/>
     <use style="stroke:#000000;" x="456.96238" xlink:href="#m1873e660c5" y="604.890082"/>
     <use style="stroke:#000000;" x="530.062817" xlink:href="#m1873e660c5" y="620.342941"/>
     <use style="stroke:#000000;" x="603.163253" xlink:href="#m1873e660c5" y="625.055138"/>
     <use style="stroke:#000000;" x="676.26369" xlink:href="#m1873e660c5" y="513.81099"/>
     <use style="stroke:#000000;" x="749.364127" xlink:href="#m1873e660c5" y="288.838139"/>
    </g>
   </g>
   <g id="line2d_29">
    <g clip-path="url(#p2d95ce26b2)">
     <use style="stroke:#000000;" x="91.460197" xlink:href="#m1873e660c5" y="599.50672"/>
     <use style="stroke:#000000;" x="164.560633" xlink:href="#m1873e660c5" y="598.708483"/>
     <use style="stroke:#000000;" x="237.66107" xlink:href="#m1873e660c5" y="596.875978"/>
     <use style="stroke:#000000;" x="310.761507" xlink:href="#m1873e660c5" y="597.907924"/>
     <use style="stroke:#000000;" x="383.861943" xlink:href="#m1873e660c5" y="596.046585"/>
     <use style="stroke:#000000;" x="456.96238" xlink:href="#m1873e660c5" y="593.32286"/>
     <use style="stroke:#000000;" x="530.062817" xlink:href="#m1873e660c5" y="557.133812"/>
     <use style="stroke:#000000;" x="603.163253" xlink:href="#m1873e660c5" y="496.57351"/>
     <use style="stroke:#000000;" x="676.26369" xlink:href="#m1873e660c5" y="386.140499"/>
     <use style="stroke:#000000;" x="749.364127" xlink:href="#m1873e660c5" y="203.338117"/>
    </g>
   </g>
   <g id="line2d_30">
    <g clip-path="url(#p2d95ce26b2)">
     <use style="fill:#808080;stroke:#808080;" x="164.560633" xlink:href="#mc8a9527360" y="638.174754"/>
    </g>
   </g>
   <g id="line2d_31">
    <g clip-path="url(#p2d95ce26b2)">
     <use style="fill:#808080;stroke:#808080;" x="164.560633" xlink:href="#mc8a9527360" y="427.326023"/>
    </g>
   </g>
   <g id="line2d_32">
    <g clip-path="url(#p2d95ce26b2)">
     <use style="fill:#808080;stroke:#808080;" x="91.460197" xlink:href="#mc8a9527360" y="473.934071"/>
     <use style="fill:#808080;stroke:#808080;" x="164.560633" xlink:href="#mc8a9527360" y="463.16757"/>
     <use style="fill:#808080;stroke:#808080;" x="237.66107" xlink:href="#mc8a9527360" y="415.077802"/>
     <use style="fill:#808080;stroke:#808080;" x="310.761507" xlink:href="#mc8a9527360" y="443.224719"/>
    </g>
   </g>
   <g id="line2d_33">
    <g clip-path="url(#p2d95ce26b2)">
     <use style="fill:#808080;stroke:#808080;" x="91.460197" xlink:href="#mc8a9527360" y="137.187668"/>
     <use style="fill:#808080;stroke:#808080;" x="164.560633" xlink:href="#mc8a9527360" y="187.735654"/>
     <use style="fill:#808080;stroke:#808080;" x="237.66107" xlink:href="#mc8a9527360" y="74.497959"/>
     <use style="fill:#808080;stroke:#808080;" x="310.761507" xlink:href="#mc8a9527360" y="106.715872"/>
    </g>
   </g>
   <g id="line2d_34">
    <g clip-path="url(#p2d95ce26b2)">
     <use style="fill:#808080;stroke:#808080;" x="530.062817" xlink:href="#mc8a9527360" y="634.317687"/>
    </g>
   </g>
   <g id="line2d_35">
    <g clip-path="url(#p2d95ce26b2)">
     <use style="fill:#808080;stroke:#808080;" x="530.062817" xlink:href="#mc8a9527360" y="342.129889"/>
    </g>
   </g>
   <g id="line2d_36">
    <path clip-path="url(#p2d95ce26b2)" d="M 91.460197 309.158738 
L 164.560633 274.930334 
L 237.66107 310.864048 
L 310.761507 296.404091 
L 383.861943 272.772798 
L 456.96238 254.395873 
L 530.062817 249.091827 
L 603.163253 249.931886 
L 676.26369 250.172155 
L 749.364127 246.088128 
" style="fill:none;stroke:#ff00ff;stroke-dasharray:5.55,2.4;stroke-dashoffset:0;stroke-width:1.5;"/>
    <defs>
     <path d="M 0 3 
C 0.795609 3 1.55874 2.683901 2.12132 2.12132 
C 2.683901 1.55874 3 0.795609 3 0 
C 3 -0.795609 2.683901 -1.55874 2.12132 -2.12132 
C 1.55874 -2.683901 0.795609 -3 0 -3 
C -0.795609 -3 -1.55874 -2.683901 -2.12132 -2.12132 
C -2.683901 -1.55874 -3 -0.795609 -3 0 
C -3 0.795609 -2.683901 1.55874 -2.12132 2.12132 
C -1.55874 2.683901 -0.795609 3 0 3 
z
" id="mc0955b3cf4" style="stroke:#ff00ff;"/>
    </defs>
    <g clip-path="url(#p2d95ce26b2)">
     <use style="fill:#ff00ff;stroke:#ff00ff;" x="91.460197" xlink:href="#mc0955b3cf4" y="309.158738"/>
     <use style="fill:#ff00ff;stroke:#ff00ff;" x="164.560633" xlink:href="#mc0955b3cf4" y="274.930334"/>
     <use style="fill:#ff00ff;stroke:#ff00ff;" x="237.66107" xlink:href="#mc0955b3cf4" y="310.864048"/>
     <use style="fill:#ff00ff;stroke:#ff00ff;" x="310.761507" xlink:href="#mc0955b3cf4" y="296.404091"/>
     <use style="fill:#ff00ff;stroke:#ff00ff;" x="383.861943" xlink:href="#mc0955b3cf4" y="272.772798"/>
     <use style="fill:#ff00ff;stroke:#ff00ff;" x="456.96238" xlink:href="#mc0955b3cf4" y="254.395873"/>
     <use style="fill:#ff00ff;stroke:#ff00ff;" x="530.062817" xlink:href="#mc0955b3cf4" y="249.091827"/>
     <use style="fill:#ff00ff;stroke:#ff00ff;" x="603.163253" xlink:href="#mc0955b3cf4" y="249.931886"/>
     <use style="fill:#ff00ff;stroke:#ff00ff;" x="676.26369" xlink:href="#mc0955b3cf4" y="250.172155"/>
     <use style="fill:#ff00ff;stroke:#ff00ff;" x="749.364127" xlink:href="#mc0955b3cf4" y="246.088128"/>
    </g>
   </g>
   <g id="line2d_37">
    <path clip-path="url(#p2d95ce26b2)" d="M 91.460197 309.158738 
L 164.560633 274.930334 
L 237.66107 310.864048 
L 310.761507 296.404091 
L 383.861943 272.772798 
L 456.96238 254.395873 
" style="fill:none;stroke:#ffffff;stroke-dasharray:5.55,2.4;stroke-dashoffset:0;stroke-width:1.5;"/>
    <defs>
     <path d="M 0 3.5 
C 0.928211 3.5 1.81853 3.131218 2.474874 2.474874 
C 3.131218 1.81853 3.5 0.928211 3.5 0 
C 3.5 -0.928211 3.131218 -1.81853 2.474874 -2.474874 
C 1.81853 -3.131218 0.928211 -3.5 0 -3.5 
C -0.928211 -3.5 -1.81853 -3.131218 -2.474874 -2.474874 
C -3.131218 -1.81853 -3.5 -0.928211 -3.5 0 
C -3.5 0.928211 -3.131218 1.81853 -2.474874 2.474874 
C -1.81853 3.131218 -0.928211 3.5 0 3.5 
z
" id="m27e4ea2b01" style="stroke:#808080;"/>
    </defs>
    <g clip-path="url(#p2d95ce26b2)">
     <use style="fill:#ffffff;stroke:#808080;" x="91.460197" xlink:href="#m27e4ea2b01" y="309.158738"/>
     <use style="fill:#ffffff;stroke:#808080;" x="164.560633" xlink:href="#m27e4ea2b01" y="274.930334"/>
     <use style="fill:#ffffff;stroke:#808080;" x="237.66107" xlink:href="#m27e4ea2b01" y="310.864048"/>
     <use style="fill:#ffffff;stroke:#808080;" x="310.761507" xlink:href="#m27e4ea2b01" y="296.404091"/>
     <use style="fill:#ffffff;stroke:#808080;" x="383.861943" xlink:href="#m27e4ea2b01" y="272.772798"/>
     <use style="fill:#ffffff;stroke:#808080;" x="456.96238" xlink:href="#m27e4ea2b01" y="254.395873"/>
    </g>
   </g>
   <g id="line2d_38">
    <path clip-path="url(#p2d95ce26b2)" d="M 91.460197 305.56087 
L 164.560633 325.451612 
L 237.66107 244.78788 
L 310.761507 274.970296 
L 383.861943 273.252765 
L 456.96238 271.802283 
L 530.062817 257.630072 
L 603.163253 254.555975 
L 676.26369 248.289049 
L 749.364127 246.088128 
" style="fill:none;stroke:#008000;stroke-dasharray:5.55,2.4;stroke-dashoffset:0;stroke-width:1.5;"/>
    <defs>
     <path d="M 0 3 
C 0.795609 3 1.55874 2.683901 2.12132 2.12132 
C 2.683901 1.55874 3 0.795609 3 0 
C 3 -0.795609 2.683901 -1.55874 2.12132 -2.12132 
C 1.55874 -2.683901 0.795609 -3 0 -3 
C -0.795609 -3 -1.55874 -2.683901 -2.12132 -2.12132 
C -2.683901 -1.55874 -3 -0.795609 -3 0 
C -3 0.795609 -2.683901 1.55874 -2.12132 2.12132 
C -1.55874 2.683901 -0.795609 3 0 3 
z
" id="m451dda8d73" style="stroke:#008000;"/>
    </defs>
    <g clip-path="url(#p2d95ce26b2)">
     <use style="fill:#008000;stroke:#008000;" x="91.460197" xlink:href="#m451dda8d73" y="305.56087"/>
     <use style="fill:#008000;stroke:#008000;" x="164.560633" xlink:href="#m451dda8d73" y="325.451612"/>
     <use style="fill:#008000;stroke:#008000;" x="237.66107" xlink:href="#m451dda8d73" y="244.78788"/>
     <use style="fill:#008000;stroke:#008000;" x="310.761507" xlink:href="#m451dda8d73" y="274.970296"/>
     <use style="fill:#008000;stroke:#008000;" x="383.861943" xlink:href="#m451dda8d73" y="273.252765"/>
     <use style="fill:#008000;stroke:#008000;" x="456.96238" xlink:href="#m451dda8d73" y="271.802283"/>
     <use style="fill:#008000;stroke:#008000;" x="530.062817" xlink:href="#m451dda8d73" y="257.630072"/>
     <use style="fill:#008000;stroke:#008000;" x="603.163253" xlink:href="#m451dda8d73" y="254.555975"/>
     <use style="fill:#008000;stroke:#008000;" x="676.26369" xlink:href="#m451dda8d73" y="248.289049"/>
     <use style="fill:#008000;stroke:#008000;" x="749.364127" xlink:href="#m451dda8d73" y="246.088128"/>
    </g>
   </g>
   <g id="line2d_39">
    <path clip-path="url(#p2d95ce26b2)" d="M 91.460197 599.190468 
L 164.560633 532.750389 
L 237.66107 491.059189 
L 310.761507 425.29751 
L 383.861943 363.43956 
L 456.96238 329.351285 
L 530.062817 294.018285 
L 603.163253 281.087263 
L 676.26369 264.889105 
L 749.364127 246.088128 
" style="fill:none;stroke:#ff0000;stroke-dasharray:5.55,2.4;stroke-dashoffset:0;stroke-width:1.5;"/>
    <defs>
     <path d="M 0 3 
C 0.795609 3 1.55874 2.683901 2.12132 2.12132 
C 2.683901 1.55874 3 0.795609 3 0 
C 3 -0.795609 2.683901 -1.55874 2.12132 -2.12132 
C 1.55874 -2.683901 0.795609 -3 0 -3 
C -0.795609 -3 -1.55874 -2.683901 -2.12132 -2.12132 
C -2.683901 -1.55874 -3 -0.795609 -3 0 
C -3 0.795609 -2.683901 1.55874 -2.12132 2.12132 
C -1.55874 2.683901 -0.795609 3 0 3 
z
" id="m20f98f92be" style="stroke:#ff0000;"/>
    </defs>
    <g clip-path="url(#p2d95ce26b2)">
     <use style="fill:#ff0000;stroke:#ff0000;" x="91.460197" xlink:href="#m20f98f92be" y="599.190468"/>
     <use style="fill:#ff0000;stroke:#ff0000;" x="164.560633" xlink:href="#m20f98f92be" y="532.750389"/>
     <use style="fill:#ff0000;stroke:#ff0000;" x="237.66107" xlink:href="#m20f98f92be" y="491.059189"/>
     <use style="fill:#ff0000;stroke:#ff0000;" x="310.761507" xlink:href="#m20f98f92be" y="425.29751"/>
     <use style="fill:#ff0000;stroke:#ff0000;" x="383.861943" xlink:href="#m20f98f92be" y="363.43956"/>
     <use style="fill:#ff0000;stroke:#ff0000;" x="456.96238" xlink:href="#m20f98f92be" y="329.351285"/>
     <use style="fill:#ff0000;stroke:#ff0000;" x="530.062817" xlink:href="#m20f98f92be" y="294.018285"/>
     <use style="fill:#ff0000;stroke:#ff0000;" x="603.163253" xlink:href="#m20f98f92be" y="281.087263"/>
     <use style="fill:#ff0000;stroke:#ff0000;" x="676.26369" xlink:href="#m20f98f92be" y="264.889105"/>
     <use style="fill:#ff0000;stroke:#ff0000;" x="749.364127" xlink:href="#m20f98f92be" y="246.088128"/>
    </g>
   </g>
   <g id="line2d_40">
    <path clip-path="url(#p2d95ce26b2)" d="M 91.460197 600.029926 
L 164.560633 598.528907 
L 237.66107 575.600535 
L 310.761507 538.909102 
L 383.861943 515.019159 
L 456.96238 442.112515 
L 530.062817 389.614405 
L 603.163253 322.098705 
L 676.26369 287.711483 
L 749.364127 246.088128 
" style="fill:none;stroke:#ff00ff;stroke-dasharray:5.55,2.4;stroke-dashoffset:0;stroke-width:1.5;"/>
    <g clip-path="url(#p2d95ce26b2)">
     <use style="fill:#ff00ff;stroke:#ff00ff;" x="91.460197" xlink:href="#mc0955b3cf4" y="600.029926"/>
     <use style="fill:#ff00ff;stroke:#ff00ff;" x="164.560633" xlink:href="#mc0955b3cf4" y="598.528907"/>
     <use style="fill:#ff00ff;stroke:#ff00ff;" x="237.66107" xlink:href="#mc0955b3cf4" y="575.600535"/>
     <use style="fill:#ff00ff;stroke:#ff00ff;" x="310.761507" xlink:href="#mc0955b3cf4" y="538.909102"/>
     <use style="fill:#ff00ff;stroke:#ff00ff;" x="383.861943" xlink:href="#mc0955b3cf4" y="515.019159"/>
     <use style="fill:#ff00ff;stroke:#ff00ff;" x="456.96238" xlink:href="#mc0955b3cf4" y="442.112515"/>
     <use style="fill:#ff00ff;stroke:#ff00ff;" x="530.062817" xlink:href="#mc0955b3cf4" y="389.614405"/>
     <use style="fill:#ff00ff;stroke:#ff00ff;" x="603.163253" xlink:href="#mc0955b3cf4" y="322.098705"/>
     <use style="fill:#ff00ff;stroke:#ff00ff;" x="676.26369" xlink:href="#mc0955b3cf4" y="287.711483"/>
     <use style="fill:#ff00ff;stroke:#ff00ff;" x="749.364127" xlink:href="#mc0955b3cf4" y="246.088128"/>
    </g>
   </g>
   <g id="line2d_41">
    <path clip-path="url(#p2d95ce26b2)" d="M 91.460197 600.642417 
L 164.560633 601.006712 
L 237.66107 599.289969 
L 310.761507 600.486043 
L 383.861943 588.209152 
L 456.96238 578.100774 
L 530.062817 488.223788 
L 603.163253 456.709213 
L 676.26369 344.987089 
L 749.364127 246.088128 
" style="fill:none;stroke:#800080;stroke-dasharray:5.55,2.4;stroke-dashoffset:0;stroke-width:1.5;"/>
    <defs>
     <path d="M 0 3 
C 0.795609 3 1.55874 2.683901 2.12132 2.12132 
C 2.683901 1.55874 3 0.795609 3 0 
C 3 -0.795609 2.683901 -1.55874 2.12132 -2.12132 
C 1.55874 -2.683901 0.795609 -3 0 -3 
C -0.795609 -3 -1.55874 -2.683901 -2.12132 -2.12132 
C -2.683901 -1.55874 -3 -0.795609 -3 0 
C -3 0.795609 -2.683901 1.55874 -2.12132 2.12132 
C -1.55874 2.683901 -0.795609 3 0 3 
z
" id="md77f2b0359" style="stroke:#800080;"/>
    </defs>
    <g clip-path="url(#p2d95ce26b2)">
     <use style="fill:#800080;stroke:#800080;" x="91.460197" xlink:href="#md77f2b0359" y="600.642417"/>
     <use style="fill:#800080;stroke:#800080;" x="164.560633" xlink:href="#md77f2b0359" y="601.006712"/>
     <use style="fill:#800080;stroke:#800080;" x="237.66107" xlink:href="#md77f2b0359" y="599.289969"/>
     <use style="fill:#800080;stroke:#800080;" x="310.761507" xlink:href="#md77f2b0359" y="600.486043"/>
     <use style="fill:#800080;stroke:#800080;" x="383.861943" xlink:href="#md77f2b0359" y="588.209152"/>
     <use style="fill:#800080;stroke:#800080;" x="456.96238" xlink:href="#md77f2b0359" y="578.100774"/>
     <use style="fill:#800080;stroke:#800080;" x="530.062817" xlink:href="#md77f2b0359" y="488.223788"/>
     <use style="fill:#800080;stroke:#800080;" x="603.163253" xlink:href="#md77f2b0359" y="456.709213"/>
     <use style="fill:#800080;stroke:#800080;" x="676.26369" xlink:href="#md77f2b0359" y="344.987089"/>
     <use style="fill:#800080;stroke:#800080;" x="749.364127" xlink:href="#md77f2b0359" y="246.088128"/>
    </g>
   </g>
   <g id="line2d_42">
    <path clip-path="url(#p2d95ce26b2)" d="M 91.460197 600.842346 
L 164.560633 600.686951 
L 237.66107 600.121812 
L 310.761507 600.310023 
L 383.861943 599.543002 
L 456.96238 593.7916 
L 530.062817 580.210934 
L 603.163253 534.423129 
L 676.26369 390.386755 
L 749.364127 255.753486 
" style="fill:none;stroke:#1f77b4;stroke-dasharray:5.55,2.4;stroke-dashoffset:0;stroke-width:1.5;"/>
    <defs>
     <path d="M 0 3 
C 0.795609 3 1.55874 2.683901 2.12132 2.12132 
C 2.683901 1.55874 3 0.795609 3 0 
C 3 -0.795609 2.683901 -1.55874 2.12132 -2.12132 
C 1.55874 -2.683901 0.795609 -3 0 -3 
C -0.795609 -3 -1.55874 -2.683901 -2.12132 -2.12132 
C -2.683901 -1.55874 -3 -0.795609 -3 0 
C -3 0.795609 -2.683901 1.55874 -2.12132 2.12132 
C -1.55874 2.683901 -0.795609 3 0 3 
z
" id="m271f63deee" style="stroke:#1f77b4;"/>
    </defs>
    <g clip-path="url(#p2d95ce26b2)">
     <use style="fill:#1f77b4;stroke:#1f77b4;" x="91.460197" xlink:href="#m271f63deee" y="600.842346"/>
     <use style="fill:#1f77b4;stroke:#1f77b4;" x="164.560633" xlink:href="#m271f63deee" y="600.686951"/>
     <use style="fill:#1f77b4;stroke:#1f77b4;" x="237.66107" xlink:href="#m271f63deee" y="600.121812"/>
     <use style="fill:#1f77b4;stroke:#1f77b4;" x="310.761507" xlink:href="#m271f63deee" y="600.310023"/>
     <use style="fill:#1f77b4;stroke:#1f77b4;" x="383.861943" xlink:href="#m271f63deee" y="599.543002"/>
     <use style="fill:#1f77b4;stroke:#1f77b4;" x="456.96238" xlink:href="#m271f63deee" y="593.7916"/>
     <use style="fill:#1f77b4;stroke:#1f77b4;" x="530.062817" xlink:href="#m271f63deee" y="580.210934"/>
     <use style="fill:#1f77b4;stroke:#1f77b4;" x="603.163253" xlink:href="#m271f63deee" y="534.423129"/>
     <use style="fill:#1f77b4;stroke:#1f77b4;" x="676.26369" xlink:href="#m271f63deee" y="390.386755"/>
     <use style="fill:#1f77b4;stroke:#1f77b4;" x="749.364127" xlink:href="#m271f63deee" y="255.753486"/>
    </g>
   </g>
   <g id="line2d_43">
    <path clip-path="url(#p2d95ce26b2)" d="M 91.460197 600.581519 
L 164.560633 600.220746 
L 237.66107 600.274851 
L 310.761507 600.218212 
L 383.861943 600.489526 
L 456.96238 599.106471 
L 530.062817 588.738377 
L 603.163253 560.814324 
L 676.26369 449.975745 
L 749.364127 246.088128 
" style="fill:none;stroke:#000000;stroke-dasharray:5.55,2.4;stroke-dashoffset:0;stroke-width:1.5;"/>
    <defs>
     <path d="M 0 3 
C 0.795609 3 1.55874 2.683901 2.12132 2.12132 
C 2.683901 1.55874 3 0.795609 3 0 
C 3 -0.795609 2.683901 -1.55874 2.12132 -2.12132 
C 1.55874 -2.683901 0.795609 -3 0 -3 
C -0.795609 -3 -1.55874 -2.683901 -2.12132 -2.12132 
C -2.683901 -1.55874 -3 -0.795609 -3 0 
C -3 0.795609 -2.683901 1.55874 -2.12132 2.12132 
C -1.55874 2.683901 -0.795609 3 0 3 
z
" id="m86aa7d12d1" style="stroke:#000000;"/>
    </defs>
    <g clip-path="url(#p2d95ce26b2)">
     <use style="stroke:#000000;" x="91.460197" xlink:href="#m86aa7d12d1" y="600.581519"/>
     <use style="stroke:#000000;" x="164.560633" xlink:href="#m86aa7d12d1" y="600.220746"/>
     <use style="stroke:#000000;" x="237.66107" xlink:href="#m86aa7d12d1" y="600.274851"/>
     <use style="stroke:#000000;" x="310.761507" xlink:href="#m86aa7d12d1" y="600.218212"/>
     <use style="stroke:#000000;" x="383.861943" xlink:href="#m86aa7d12d1" y="600.489526"/>
     <use style="stroke:#000000;" x="456.96238" xlink:href="#m86aa7d12d1" y="599.106471"/>
     <use style="stroke:#000000;" x="530.062817" xlink:href="#m86aa7d12d1" y="588.738377"/>
     <use style="stroke:#000000;" x="603.163253" xlink:href="#m86aa7d12d1" y="560.814324"/>
     <use style="stroke:#000000;" x="676.26369" xlink:href="#m86aa7d12d1" y="449.975745"/>
     <use style="stroke:#000000;" x="749.364127" xlink:href="#m86aa7d12d1" y="246.088128"/>
    </g>
   </g>
   <g id="line2d_44">
    <path clip-path="url(#p2d95ce26b2)" d="M 164.560633 532.750389 
" style="fill:none;stroke:#ffffff;stroke-dasharray:5.55,2.4;stroke-dashoffset:0;stroke-width:1.5;"/>
    <g clip-path="url(#p2d95ce26b2)">
     <use style="fill:#ffffff;stroke:#808080;" x="164.560633" xlink:href="#m27e4ea2b01" y="532.750389"/>
    </g>
   </g>
   <g id="line2d_45">
    <path clip-path="url(#p2d95ce26b2)" d="M 91.460197 305.56087 
L 164.560633 325.451612 
L 237.66107 244.78788 
L 310.761507 274.970296 
" style="fill:none;stroke:#ffffff;stroke-dasharray:5.55,2.4;stroke-dashoffset:0;stroke-width:1.5;"/>
    <g clip-path="url(#p2d95ce26b2)">
     <use style="fill:#ffffff;stroke:#808080;" x="91.460197" xlink:href="#m27e4ea2b01" y="305.56087"/>
     <use style="fill:#ffffff;stroke:#808080;" x="164.560633" xlink:href="#m27e4ea2b01" y="325.451612"/>
     <use style="fill:#ffffff;stroke:#808080;" x="237.66107" xlink:href="#m27e4ea2b01" y="244.78788"/>
     <use style="fill:#ffffff;stroke:#808080;" x="310.761507" xlink:href="#m27e4ea2b01" y="274.970296"/>
    </g>
   </g>
   <g id="line2d_46">
    <path clip-path="url(#p2d95ce26b2)" d="M 530.062817 488.223788 
" style="fill:none;stroke:#ffff00;stroke-dasharray:5.55,2.4;stroke-dashoffset:0;stroke-width:1.5;"/>
    <defs>
     <path d="M 0 3.5 
C 0.928211 3.5 1.81853 3.131218 2.474874 2.474874 
C 3.131218 1.81853 3.5 0.928211 3.5 0 
C 3.5 -0.928211 3.131218 -1.81853 2.474874 -2.474874 
C 1.81853 -3.131218 0.928211 -3.5 0 -3.5 
C -0.928211 -3.5 -1.81853 -3.131218 -2.474874 -2.474874 
C -3.131218 -1.81853 -3.5 -0.928211 -3.5 0 
C -3.5 0.928211 -3.131218 1.81853 -2.474874 2.474874 
C -1.81853 3.131218 -0.928211 3.5 0 3.5 
z
" id="m3e8b555519" style="stroke:#808080;"/>
    </defs>
    <g clip-path="url(#p2d95ce26b2)">
     <use style="fill:#ffff00;stroke:#808080;" x="530.062817" xlink:href="#m3e8b555519" y="488.223788"/>
    </g>
   </g>
   <g id="patch_3">
    <path d="M 58.565 666.358594 
L 58.565 14.038594 
" style="fill:none;stroke:#000000;stroke-linecap:square;stroke-linejoin:miter;stroke-width:0.8;"/>
   </g>
   <g id="patch_4">
    <path d="M 58.565 666.358594 
L 895.565 666.358594 
" style="fill:none;stroke:#000000;stroke-linecap:square;stroke-linejoin:miter;stroke-width:0.8;"/>
   </g>
   <g id="legend_1">
    <g id="patch_5">
     <path d="M 766.665 159.183906 
L 888.565 159.183906 
Q 890.565 159.183906 890.565 157.183906 
L 890.565 21.038594 
Q 890.565 19.038594 888.565 19.038594 
L 766.665 19.038594 
Q 764.665 19.038594 764.665 21.038594 
L 764.665 157.183906 
Q 764.665 159.183906 766.665 159.183906 
z
" style="fill:#ffffff;opacity:0.8;stroke:#cccccc;stroke-linejoin:miter;"/>
    </g>
    <g id="LineCollection_12">
     <path d="M 778.665 32.137031 
L 778.665 22.137031 
" style="fill:none;stroke:#ff00ff;stroke-width:1.5;"/>
    </g>
    <g id="line2d_47">
     <g>
      <use style="fill:#ff00ff;stroke:#ff00ff;" x="778.665" xlink:href="#m615d973bbd" y="32.137031"/>
     </g>
    </g>
    <g id="line2d_48">
     <g>
      <use style="fill:#ff00ff;stroke:#ff00ff;" x="778.665" xlink:href="#m615d973bbd" y="22.137031"/>
     </g>
    </g>
    <g id="line2d_49">
     <path d="M 768.665 27.137031 
L 788.665 27.137031 
" style="fill:none;stroke:#ff00ff;stroke-dasharray:5.55,2.4;stroke-dashoffset:0;stroke-width:1.5;"/>
    </g>
    <g id="line2d_50">
     <g>
      <use style="fill:#ff00ff;stroke:#ff00ff;" x="778.665" xlink:href="#mc0955b3cf4" y="27.137031"/>
     </g>
    </g>
    <g id="text_16">
     <!-- $F_{M_2}$ = 2.0 pN -->
     <defs>
      <path d="M 16.890625 72.90625 
L 58.6875 72.90625 
L 57.078125 64.59375 
L 25.09375 64.59375 
L 20.90625 43.109375 
L 49.8125 43.109375 
L 48.1875 34.8125 
L 19.28125 34.8125 
L 12.5 0 
L 2.6875 0 
z
" id="DejaVuSans-Oblique-70"/>
      <path d="M 16.890625 72.90625 
L 31.6875 72.90625 
L 40.1875 23.78125 
L 68.40625 72.90625 
L 83.59375 72.90625 
L 69.390625 0 
L 59.8125 0 
L 72.21875 63.921875 
L 43.609375 14.015625 
L 33.984375 14.015625 
L 24.703125 64.109375 
L 12.3125 0 
L 2.6875 0 
z
" id="DejaVuSans-Oblique-77"/>
      <path d="M 10.59375 45.40625 
L 73.1875 45.40625 
L 73.1875 37.203125 
L 10.59375 37.203125 
z
M 10.59375 25.484375 
L 73.1875 25.484375 
L 73.1875 17.1875 
L 10.59375 17.1875 
z
" id="DejaVuSans-61"/>
      <path d="M 9.8125 72.90625 
L 23.09375 72.90625 
L 55.421875 11.921875 
L 55.421875 72.90625 
L 64.984375 72.90625 
L 64.984375 0 
L 51.703125 0 
L 19.390625 60.984375 
L 19.390625 0 
L 9.8125 0 
z
" id="DejaVuSans-78"/>
     </defs>
     <g transform="translate(796.665 30.637031)scale(0.1 -0.1)">
      <use transform="translate(0 0.78125)" xlink:href="#DejaVuSans-Oblique-70"/>
      <use transform="translate(57.519531 -15.625)scale(0.7)" xlink:href="#DejaVuSans-Oblique-77"/>
      <use transform="translate(117.915039 -27.109375)scale(0.49)" xlink:href="#DejaVuSans-50"/>
      <use transform="translate(153.73877 0.78125)" xlink:href="#DejaVuSans-32"/>
      <use transform="translate(185.525879 0.78125)" xlink:href="#DejaVuSans-61"/>
      <use transform="translate(269.314941 0.78125)" xlink:href="#DejaVuSans-32"/>
      <use transform="translate(301.102051 0.78125)" xlink:href="#DejaVuSans-50"/>
      <use transform="translate(364.725098 0.78125)" xlink:href="#DejaVuSans-46"/>
      <use transform="translate(396.512207 0.78125)" xlink:href="#DejaVuSans-48"/>
      <use transform="translate(460.135254 0.78125)" xlink:href="#DejaVuSans-32"/>
      <use transform="translate(491.922363 0.78125)" xlink:href="#DejaVuSans-112"/>
      <use transform="translate(555.398926 0.78125)" xlink:href="#DejaVuSans-78"/>
     </g>
    </g>
    <g id="LineCollection_13">
     <path d="M 778.665 47.535469 
L 778.665 37.535469 
" style="fill:none;stroke:#008000;stroke-width:1.5;"/>
    </g>
    <g id="line2d_51">
     <g>
      <use style="fill:#008000;stroke:#008000;" x="778.665" xlink:href="#mda9d2f8dbe" y="47.535469"/>
     </g>
    </g>
    <g id="line2d_52">
     <g>
      <use style="fill:#008000;stroke:#008000;" x="778.665" xlink:href="#mda9d2f8dbe" y="37.535469"/>
     </g>
    </g>
    <g id="line2d_53">
     <path d="M 768.665 42.535469 
L 788.665 42.535469 
" style="fill:none;stroke:#008000;stroke-dasharray:5.55,2.4;stroke-dashoffset:0;stroke-width:1.5;"/>
    </g>
    <g id="line2d_54">
     <g>
      <use style="fill:#008000;stroke:#008000;" x="778.665" xlink:href="#m451dda8d73" y="42.535469"/>
     </g>
    </g>
    <g id="text_17">
     <!-- $F_{M_2}$ = 4.0 pN -->
     <g transform="translate(796.665 46.035469)scale(0.1 -0.1)">
      <use transform="translate(0 0.78125)" xlink:href="#DejaVuSans-Oblique-70"/>
      <use transform="translate(57.519531 -15.625)scale(0.7)" xlink:href="#DejaVuSans-Oblique-77"/>
      <use transform="translate(117.915039 -27.109375)scale(0.49)" xlink:href="#DejaVuSans-50"/>
      <use transform="translate(153.73877 0.78125)" xlink:href="#DejaVuSans-32"/>
      <use transform="translate(185.525879 0.78125)" xlink:href="#DejaVuSans-61"/>
      <use transform="translate(269.314941 0.78125)" xlink:href="#DejaVuSans-32"/>
      <use transform="translate(301.102051 0.78125)" xlink:href="#DejaVuSans-52"/>
      <use transform="translate(364.725098 0.78125)" xlink:href="#DejaVuSans-46"/>
      <use transform="translate(396.512207 0.78125)" xlink:href="#DejaVuSans-48"/>
      <use transform="translate(460.135254 0.78125)" xlink:href="#DejaVuSans-32"/>
      <use transform="translate(491.922363 0.78125)" xlink:href="#DejaVuSans-112"/>
      <use transform="translate(555.398926 0.78125)" xlink:href="#DejaVuSans-78"/>
     </g>
    </g>
    <g id="LineCollection_14">
     <path d="M 778.665 62.933906 
L 778.665 52.933906 
" style="fill:none;stroke:#ff0000;stroke-width:1.5;"/>
    </g>
    <g id="line2d_55">
     <g>
      <use style="fill:#ff0000;stroke:#ff0000;" x="778.665" xlink:href="#mc4b836cb82" y="62.933906"/>
     </g>
    </g>
    <g id="line2d_56">
     <g>
      <use style="fill:#ff0000;stroke:#ff0000;" x="778.665" xlink:href="#mc4b836cb82" y="52.933906"/>
     </g>
    </g>
    <g id="line2d_57">
     <path d="M 768.665 57.933906 
L 788.665 57.933906 
" style="fill:none;stroke:#ff0000;stroke-dasharray:5.55,2.4;stroke-dashoffset:0;stroke-width:1.5;"/>
    </g>
    <g id="line2d_58">
     <g>
      <use style="fill:#ff0000;stroke:#ff0000;" x="778.665" xlink:href="#m20f98f92be" y="57.933906"/>
     </g>
    </g>
    <g id="text_18">
     <!-- $F_{M_2}$ = 5.0 pN -->
     <defs>
      <path d="M 10.796875 72.90625 
L 49.515625 72.90625 
L 49.515625 64.59375 
L 19.828125 64.59375 
L 19.828125 46.734375 
Q 21.96875 47.46875 24.109375 47.828125 
Q 26.265625 48.1875 28.421875 48.1875 
Q 40.625 48.1875 47.75 41.5 
Q 54.890625 34.8125 54.890625 23.390625 
Q 54.890625 11.625 47.5625 5.09375 
Q 40.234375 -1.421875 26.90625 -1.421875 
Q 22.3125 -1.421875 17.546875 -0.640625 
Q 12.796875 0.140625 7.71875 1.703125 
L 7.71875 11.625 
Q 12.109375 9.234375 16.796875 8.0625 
Q 21.484375 6.890625 26.703125 6.890625 
Q 35.15625 6.890625 40.078125 11.328125 
Q 45.015625 15.765625 45.015625 23.390625 
Q 45.015625 31 40.078125 35.4375 
Q 35.15625 39.890625 26.703125 39.890625 
Q 22.75 39.890625 18.8125 39.015625 
Q 14.890625 38.140625 10.796875 36.28125 
z
" id="DejaVuSans-53"/>
     </defs>
     <g transform="translate(796.665 61.433906)scale(0.1 -0.1)">
      <use transform="translate(0 0.78125)" xlink:href="#DejaVuSans-Oblique-70"/>
      <use transform="translate(57.519531 -15.625)scale(0.7)" xlink:href="#DejaVuSans-Oblique-77"/>
      <use transform="translate(117.915039 -27.109375)scale(0.49)" xlink:href="#DejaVuSans-50"/>
      <use transform="translate(153.73877 0.78125)" xlink:href="#DejaVuSans-32"/>
      <use transform="translate(185.525879 0.78125)" xlink:href="#DejaVuSans-61"/>
      <use transform="translate(269.314941 0.78125)" xlink:href="#DejaVuSans-32"/>
      <use transform="translate(301.102051 0.78125)" xlink:href="#DejaVuSans-53"/>
      <use transform="translate(364.725098 0.78125)" xlink:href="#DejaVuSans-46"/>
      <use transform="translate(396.512207 0.78125)" xlink:href="#DejaVuSans-48"/>
      <use transform="translate(460.135254 0.78125)" xlink:href="#DejaVuSans-32"/>
      <use transform="translate(491.922363 0.78125)" xlink:href="#DejaVuSans-112"/>
      <use transform="translate(555.398926 0.78125)" xlink:href="#DejaVuSans-78"/>
     </g>
    </g>
    <g id="LineCollection_15">
     <path d="M 778.665 78.332344 
L 778.665 68.332344 
" style="fill:none;stroke:#ff00ff;stroke-width:1.5;"/>
    </g>
    <g id="line2d_59">
     <g>
      <use style="fill:#ff00ff;stroke:#ff00ff;" x="778.665" xlink:href="#m615d973bbd" y="78.332344"/>
     </g>
    </g>
    <g id="line2d_60">
     <g>
      <use style="fill:#ff00ff;stroke:#ff00ff;" x="778.665" xlink:href="#m615d973bbd" y="68.332344"/>
     </g>
    </g>
    <g id="line2d_61">
     <path d="M 768.665 73.332344 
L 788.665 73.332344 
" style="fill:none;stroke:#ff00ff;stroke-dasharray:5.55,2.4;stroke-dashoffset:0;stroke-width:1.5;"/>
    </g>
    <g id="line2d_62">
     <g>
      <use style="fill:#ff00ff;stroke:#ff00ff;" x="778.665" xlink:href="#mc0955b3cf4" y="73.332344"/>
     </g>
    </g>
    <g id="text_19">
     <!-- $F_{M_2}$ = 6.0 pN -->
     <g transform="translate(796.665 76.832344)scale(0.1 -0.1)">
      <use transform="translate(0 0.78125)" xlink:href="#DejaVuSans-Oblique-70"/>
      <use transform="translate(57.519531 -15.625)scale(0.7)" xlink:href="#DejaVuSans-Oblique-77"/>
      <use transform="translate(117.915039 -27.109375)scale(0.49)" xlink:href="#DejaVuSans-50"/>
      <use transform="translate(153.73877 0.78125)" xlink:href="#DejaVuSans-32"/>
      <use transform="translate(185.525879 0.78125)" xlink:href="#DejaVuSans-61"/>
      <use transform="translate(269.314941 0.78125)" xlink:href="#DejaVuSans-32"/>
      <use transform="translate(301.102051 0.78125)" xlink:href="#DejaVuSans-54"/>
      <use transform="translate(364.725098 0.78125)" xlink:href="#DejaVuSans-46"/>
      <use transform="translate(396.512207 0.78125)" xlink:href="#DejaVuSans-48"/>
      <use transform="translate(460.135254 0.78125)" xlink:href="#DejaVuSans-32"/>
      <use transform="translate(491.922363 0.78125)" xlink:href="#DejaVuSans-112"/>
      <use transform="translate(555.398926 0.78125)" xlink:href="#DejaVuSans-78"/>
     </g>
    </g>
    <g id="LineCollection_16">
     <path d="M 778.665 93.730781 
L 778.665 83.730781 
" style="fill:none;stroke:#800080;stroke-width:1.5;"/>
    </g>
    <g id="line2d_63">
     <g>
      <use style="fill:#800080;stroke:#800080;" x="778.665" xlink:href="#m424a27c1a7" y="93.730781"/>
     </g>
    </g>
    <g id="line2d_64">
     <g>
      <use style="fill:#800080;stroke:#800080;" x="778.665" xlink:href="#m424a27c1a7" y="83.730781"/>
     </g>
    </g>
    <g id="line2d_65">
     <path d="M 768.665 88.730781 
L 788.665 88.730781 
" style="fill:none;stroke:#800080;stroke-dasharray:5.55,2.4;stroke-dashoffset:0;stroke-width:1.5;"/>
    </g>
    <g id="line2d_66">
     <g>
      <use style="fill:#800080;stroke:#800080;" x="778.665" xlink:href="#md77f2b0359" y="88.730781"/>
     </g>
    </g>
    <g id="text_20">
     <!-- $F_{M_2}$ = 8.0 pN -->
     <g transform="translate(796.665 92.230781)scale(0.1 -0.1)">
      <use transform="translate(0 0.78125)" xlink:href="#DejaVuSans-Oblique-70"/>
      <use transform="translate(57.519531 -15.625)scale(0.7)" xlink:href="#DejaVuSans-Oblique-77"/>
      <use transform="translate(117.915039 -27.109375)scale(0.49)" xlink:href="#DejaVuSans-50"/>
      <use transform="translate(153.73877 0.78125)" xlink:href="#DejaVuSans-32"/>
      <use transform="translate(185.525879 0.78125)" xlink:href="#DejaVuSans-61"/>
      <use transform="translate(269.314941 0.78125)" xlink:href="#DejaVuSans-32"/>
      <use transform="translate(301.102051 0.78125)" xlink:href="#DejaVuSans-56"/>
      <use transform="translate(364.725098 0.78125)" xlink:href="#DejaVuSans-46"/>
      <use transform="translate(396.512207 0.78125)" xlink:href="#DejaVuSans-48"/>
      <use transform="translate(460.135254 0.78125)" xlink:href="#DejaVuSans-32"/>
      <use transform="translate(491.922363 0.78125)" xlink:href="#DejaVuSans-112"/>
      <use transform="translate(555.398926 0.78125)" xlink:href="#DejaVuSans-78"/>
     </g>
    </g>
    <g id="LineCollection_17">
     <path d="M 778.665 109.129219 
L 778.665 99.129219 
" style="fill:none;stroke:#0000ff;stroke-width:1.5;"/>
    </g>
    <g id="line2d_67">
     <g>
      <use style="fill:#0000ff;stroke:#0000ff;" x="778.665" xlink:href="#m41d217c87a" y="109.129219"/>
     </g>
    </g>
    <g id="line2d_68">
     <g>
      <use style="fill:#0000ff;stroke:#0000ff;" x="778.665" xlink:href="#m41d217c87a" y="99.129219"/>
     </g>
    </g>
    <g id="line2d_69">
     <path d="M 768.665 104.129219 
L 788.665 104.129219 
" style="fill:none;stroke:#1f77b4;stroke-dasharray:5.55,2.4;stroke-dashoffset:0;stroke-width:1.5;"/>
    </g>
    <g id="line2d_70">
     <g>
      <use style="fill:#1f77b4;stroke:#1f77b4;" x="778.665" xlink:href="#m271f63deee" y="104.129219"/>
     </g>
    </g>
    <g id="text_21">
     <!-- $F_{M_2}$ = 9.2 pN -->
     <defs>
      <path d="M 10.984375 1.515625 
L 10.984375 10.5 
Q 14.703125 8.734375 18.5 7.8125 
Q 22.3125 6.890625 25.984375 6.890625 
Q 35.75 6.890625 40.890625 13.453125 
Q 46.046875 20.015625 46.78125 33.40625 
Q 43.953125 29.203125 39.59375 26.953125 
Q 35.25 24.703125 29.984375 24.703125 
Q 19.046875 24.703125 12.671875 31.3125 
Q 6.296875 37.9375 6.296875 49.421875 
Q 6.296875 60.640625 12.9375 67.421875 
Q 19.578125 74.21875 30.609375 74.21875 
Q 43.265625 74.21875 49.921875 64.515625 
Q 56.59375 54.828125 56.59375 36.375 
Q 56.59375 19.140625 48.40625 8.859375 
Q 40.234375 -1.421875 26.421875 -1.421875 
Q 22.703125 -1.421875 18.890625 -0.6875 
Q 15.09375 0.046875 10.984375 1.515625 
z
M 30.609375 32.421875 
Q 37.25 32.421875 41.125 36.953125 
Q 45.015625 41.5 45.015625 49.421875 
Q 45.015625 57.28125 41.125 61.84375 
Q 37.25 66.40625 30.609375 66.40625 
Q 23.96875 66.40625 20.09375 61.84375 
Q 16.21875 57.28125 16.21875 49.421875 
Q 16.21875 41.5 20.09375 36.953125 
Q 23.96875 32.421875 30.609375 32.421875 
z
" id="DejaVuSans-57"/>
     </defs>
     <g transform="translate(796.665 107.629219)scale(0.1 -0.1)">
      <use transform="translate(0 0.78125)" xlink:href="#DejaVuSans-Oblique-70"/>
      <use transform="translate(57.519531 -15.625)scale(0.7)" xlink:href="#DejaVuSans-Oblique-77"/>
      <use transform="translate(117.915039 -27.109375)scale(0.49)" xlink:href="#DejaVuSans-50"/>
      <use transform="translate(153.73877 0.78125)" xlink:href="#DejaVuSans-32"/>
      <use transform="translate(185.525879 0.78125)" xlink:href="#DejaVuSans-61"/>
      <use transform="translate(269.314941 0.78125)" xlink:href="#DejaVuSans-32"/>
      <use transform="translate(301.102051 0.78125)" xlink:href="#DejaVuSans-57"/>
      <use transform="translate(364.725098 0.78125)" xlink:href="#DejaVuSans-46"/>
      <use transform="translate(396.434082 0.78125)" xlink:href="#DejaVuSans-50"/>
      <use transform="translate(460.057129 0.78125)" xlink:href="#DejaVuSans-32"/>
      <use transform="translate(491.844238 0.78125)" xlink:href="#DejaVuSans-112"/>
      <use transform="translate(555.320801 0.78125)" xlink:href="#DejaVuSans-78"/>
     </g>
    </g>
    <g id="LineCollection_18">
     <path d="M 778.665 124.527656 
L 778.665 114.527656 
" style="fill:none;stroke:#000000;stroke-width:1.5;"/>
    </g>
    <g id="line2d_71">
     <g>
      <use style="stroke:#000000;" x="778.665" xlink:href="#m1873e660c5" y="124.527656"/>
     </g>
    </g>
    <g id="line2d_72">
     <g>
      <use style="stroke:#000000;" x="778.665" xlink:href="#m1873e660c5" y="114.527656"/>
     </g>
    </g>
    <g id="line2d_73">
     <path d="M 768.665 119.527656 
L 788.665 119.527656 
" style="fill:none;stroke:#000000;stroke-dasharray:5.55,2.4;stroke-dashoffset:0;stroke-width:1.5;"/>
    </g>
    <g id="line2d_74">
     <g>
      <use style="stroke:#000000;" x="778.665" xlink:href="#m86aa7d12d1" y="119.527656"/>
     </g>
    </g>
    <g id="text_22">
     <!-- $F_{M_2}$ = 10.0 pN -->
     <g transform="translate(796.665 123.027656)scale(0.1 -0.1)">
      <use transform="translate(0 0.78125)" xlink:href="#DejaVuSans-Oblique-70"/>
      <use transform="translate(57.519531 -15.625)scale(0.7)" xlink:href="#DejaVuSans-Oblique-77"/>
      <use transform="translate(117.915039 -27.109375)scale(0.49)" xlink:href="#DejaVuSans-50"/>
      <use transform="translate(153.73877 0.78125)" xlink:href="#DejaVuSans-32"/>
      <use transform="translate(185.525879 0.78125)" xlink:href="#DejaVuSans-61"/>
      <use transform="translate(269.314941 0.78125)" xlink:href="#DejaVuSans-32"/>
      <use transform="translate(301.102051 0.78125)" xlink:href="#DejaVuSans-49"/>
      <use transform="translate(364.725098 0.78125)" xlink:href="#DejaVuSans-48"/>
      <use transform="translate(428.348145 0.78125)" xlink:href="#DejaVuSans-46"/>
      <use transform="translate(460.135254 0.78125)" xlink:href="#DejaVuSans-48"/>
      <use transform="translate(523.758301 0.78125)" xlink:href="#DejaVuSans-32"/>
      <use transform="translate(555.54541 0.78125)" xlink:href="#DejaVuSans-112"/>
      <use transform="translate(619.021973 0.78125)" xlink:href="#DejaVuSans-78"/>
     </g>
    </g>
    <g id="LineCollection_19">
     <path d="M 778.665 139.926094 
L 778.665 129.926094 
" style="fill:none;stroke:#808080;stroke-width:1.5;"/>
    </g>
    <g id="line2d_75">
     <g>
      <use style="fill:#808080;stroke:#808080;" x="778.665" xlink:href="#mc8a9527360" y="139.926094"/>
     </g>
    </g>
    <g id="line2d_76">
     <g>
      <use style="fill:#808080;stroke:#808080;" x="778.665" xlink:href="#mc8a9527360" y="129.926094"/>
     </g>
    </g>
    <g id="line2d_77">
     <path d="M 768.665 134.926094 
L 788.665 134.926094 
" style="fill:none;stroke:#ffffff;stroke-dasharray:5.55,2.4;stroke-dashoffset:0;stroke-width:1.5;"/>
    </g>
    <g id="line2d_78">
     <g>
      <use style="fill:#ffffff;stroke:#808080;" x="778.665" xlink:href="#m27e4ea2b01" y="134.926094"/>
     </g>
    </g>
    <g id="text_23">
     <!-- Natural detach -->
     <defs>
      <path d="M 8.5 21.578125 
L 8.5 54.6875 
L 17.484375 54.6875 
L 17.484375 21.921875 
Q 17.484375 14.15625 20.5 10.265625 
Q 23.53125 6.390625 29.59375 6.390625 
Q 36.859375 6.390625 41.078125 11.03125 
Q 45.3125 15.671875 45.3125 23.6875 
L 45.3125 54.6875 
L 54.296875 54.6875 
L 54.296875 0 
L 45.3125 0 
L 45.3125 8.40625 
Q 42.046875 3.421875 37.71875 1 
Q 33.40625 -1.421875 27.6875 -1.421875 
Q 18.265625 -1.421875 13.375 4.4375 
Q 8.5 10.296875 8.5 21.578125 
z
M 31.109375 56 
z
" id="DejaVuSans-117"/>
      <path d="M 9.421875 75.984375 
L 18.40625 75.984375 
L 18.40625 0 
L 9.421875 0 
z
" id="DejaVuSans-108"/>
      <path d="M 48.78125 52.59375 
L 48.78125 44.1875 
Q 44.96875 46.296875 41.140625 47.34375 
Q 37.3125 48.390625 33.40625 48.390625 
Q 24.65625 48.390625 19.8125 42.84375 
Q 14.984375 37.3125 14.984375 27.296875 
Q 14.984375 17.28125 19.8125 11.734375 
Q 24.65625 6.203125 33.40625 6.203125 
Q 37.3125 6.203125 41.140625 7.25 
Q 44.96875 8.296875 48.78125 10.40625 
L 48.78125 2.09375 
Q 45.015625 0.34375 40.984375 -0.53125 
Q 36.96875 -1.421875 32.421875 -1.421875 
Q 20.0625 -1.421875 12.78125 6.34375 
Q 5.515625 14.109375 5.515625 27.296875 
Q 5.515625 40.671875 12.859375 48.328125 
Q 20.21875 56 33.015625 56 
Q 37.15625 56 41.109375 55.140625 
Q 45.0625 54.296875 48.78125 52.59375 
z
" id="DejaVuSans-99"/>
      <path d="M 54.890625 33.015625 
L 54.890625 0 
L 45.90625 0 
L 45.90625 32.71875 
Q 45.90625 40.484375 42.875 44.328125 
Q 39.84375 48.1875 33.796875 48.1875 
Q 26.515625 48.1875 22.3125 43.546875 
Q 18.109375 38.921875 18.109375 30.90625 
L 18.109375 0 
L 9.078125 0 
L 9.078125 75.984375 
L 18.109375 75.984375 
L 18.109375 46.1875 
Q 21.34375 51.125 25.703125 53.5625 
Q 30.078125 56 35.796875 56 
Q 45.21875 56 50.046875 50.171875 
Q 54.890625 44.34375 54.890625 33.015625 
z
" id="DejaVuSans-104"/>
     </defs>
     <g transform="translate(796.665 138.426094)scale(0.1 -0.1)">
      <use xlink:href="#DejaVuSans-78"/>
      <use x="74.804688" xlink:href="#DejaVuSans-97"/>
      <use x="136.083984" xlink:href="#DejaVuSans-116"/>
      <use x="175.292969" xlink:href="#DejaVuSans-117"/>
      <use x="238.671875" xlink:href="#DejaVuSans-114"/>
      <use x="279.785156" xlink:href="#DejaVuSans-97"/>
      <use x="341.064453" xlink:href="#DejaVuSans-108"/>
      <use x="368.847656" xlink:href="#DejaVuSans-32"/>
      <use x="400.634766" xlink:href="#DejaVuSans-100"/>
      <use x="464.111328" xlink:href="#DejaVuSans-101"/>
      <use x="525.634766" xlink:href="#DejaVuSans-116"/>
      <use x="564.84375" xlink:href="#DejaVuSans-97"/>
      <use x="626.123047" xlink:href="#DejaVuSans-99"/>
      <use x="681.103516" xlink:href="#DejaVuSans-104"/>
     </g>
    </g>
    <g id="LineCollection_20">
     <path d="M 778.665 154.604219 
L 778.665 144.604219 
" style="fill:none;stroke:#808080;stroke-width:1.5;"/>
    </g>
    <g id="line2d_79">
     <g>
      <use style="fill:#808080;stroke:#808080;" x="778.665" xlink:href="#mc8a9527360" y="154.604219"/>
     </g>
    </g>
    <g id="line2d_80">
     <g>
      <use style="fill:#808080;stroke:#808080;" x="778.665" xlink:href="#mc8a9527360" y="144.604219"/>
     </g>
    </g>
    <g id="line2d_81">
     <path d="M 768.665 149.604219 
L 788.665 149.604219 
" style="fill:none;stroke:#ffff00;stroke-dasharray:5.55,2.4;stroke-dashoffset:0;stroke-width:1.5;"/>
    </g>
    <g id="line2d_82">
     <g>
      <use style="fill:#ffff00;stroke:#808080;" x="778.665" xlink:href="#m3e8b555519" y="149.604219"/>
     </g>
    </g>
    <g id="text_24">
     <!-- Deficiency detach -->
     <defs>
      <path d="M 19.671875 64.796875 
L 19.671875 8.109375 
L 31.59375 8.109375 
Q 46.6875 8.109375 53.6875 14.9375 
Q 60.6875 21.78125 60.6875 36.53125 
Q 60.6875 51.171875 53.6875 57.984375 
Q 46.6875 64.796875 31.59375 64.796875 
z
M 9.8125 72.90625 
L 30.078125 72.90625 
Q 51.265625 72.90625 61.171875 64.09375 
Q 71.09375 55.28125 71.09375 36.53125 
Q 71.09375 17.671875 61.125 8.828125 
Q 51.171875 0 30.078125 0 
L 9.8125 0 
z
" id="DejaVuSans-68"/>
      <path d="M 37.109375 75.984375 
L 37.109375 68.5 
L 28.515625 68.5 
Q 23.6875 68.5 21.796875 66.546875 
Q 19.921875 64.59375 19.921875 59.515625 
L 19.921875 54.6875 
L 34.71875 54.6875 
L 34.71875 47.703125 
L 19.921875 47.703125 
L 19.921875 0 
L 10.890625 0 
L 10.890625 47.703125 
L 2.296875 47.703125 
L 2.296875 54.6875 
L 10.890625 54.6875 
L 10.890625 58.5 
Q 10.890625 67.625 15.140625 71.796875 
Q 19.390625 75.984375 28.609375 75.984375 
z
" id="DejaVuSans-102"/>
      <path d="M 54.890625 33.015625 
L 54.890625 0 
L 45.90625 0 
L 45.90625 32.71875 
Q 45.90625 40.484375 42.875 44.328125 
Q 39.84375 48.1875 33.796875 48.1875 
Q 26.515625 48.1875 22.3125 43.546875 
Q 18.109375 38.921875 18.109375 30.90625 
L 18.109375 0 
L 9.078125 0 
L 9.078125 54.6875 
L 18.109375 54.6875 
L 18.109375 46.1875 
Q 21.34375 51.125 25.703125 53.5625 
Q 30.078125 56 35.796875 56 
Q 45.21875 56 50.046875 50.171875 
Q 54.890625 44.34375 54.890625 33.015625 
z
" id="DejaVuSans-110"/>
      <path d="M 32.171875 -5.078125 
Q 28.375 -14.84375 24.75 -17.8125 
Q 21.140625 -20.796875 15.09375 -20.796875 
L 7.90625 -20.796875 
L 7.90625 -13.28125 
L 13.1875 -13.28125 
Q 16.890625 -13.28125 18.9375 -11.515625 
Q 21 -9.765625 23.484375 -3.21875 
L 25.09375 0.875 
L 2.984375 54.6875 
L 12.5 54.6875 
L 29.59375 11.921875 
L 46.6875 54.6875 
L 56.203125 54.6875 
z
" id="DejaVuSans-121"/>
     </defs>
     <g transform="translate(796.665 153.104219)scale(0.1 -0.1)">
      <use xlink:href="#DejaVuSans-68"/>
      <use x="77.001953" xlink:href="#DejaVuSans-101"/>
      <use x="138.525391" xlink:href="#DejaVuSans-102"/>
      <use x="173.730469" xlink:href="#DejaVuSans-105"/>
      <use x="201.513672" xlink:href="#DejaVuSans-99"/>
      <use x="256.494141" xlink:href="#DejaVuSans-105"/>
      <use x="284.277344" xlink:href="#DejaVuSans-101"/>
      <use x="345.800781" xlink:href="#DejaVuSans-110"/>
      <use x="409.179688" xlink:href="#DejaVuSans-99"/>
      <use x="464.160156" xlink:href="#DejaVuSans-121"/>
      <use x="523.339844" xlink:href="#DejaVuSans-32"/>
      <use x="555.126953" xlink:href="#DejaVuSans-100"/>
      <use x="618.603516" xlink:href="#DejaVuSans-101"/>
      <use x="680.126953" xlink:href="#DejaVuSans-116"/>
      <use x="719.335938" xlink:href="#DejaVuSans-97"/>
      <use x="780.615234" xlink:href="#DejaVuSans-99"/>
      <use x="835.595703" xlink:href="#DejaVuSans-104"/>
     </g>
    </g>
   </g>
  </g>
 </g>
 <defs>
  <clipPath id="p2d95ce26b2">
   <rect height="652.32" width="837" x="58.565" y="14.038594"/>
  </clipPath>
 </defs>
</svg>
