<?xml version="1.0" encoding="utf-8" standalone="no"?>
<!DOCTYPE svg PUBLIC "-//W3C//DTD SVG 1.1//EN"
  "http://www.w3.org/Graphics/SVG/1.1/DTD/svg11.dtd">
<!-- Created with matplotlib (https://matplotlib.org/) -->
<svg height="568.066556pt" version="1.1" viewBox="0 0 709.164137 568.066556" width="709.164137pt" xmlns="http://www.w3.org/2000/svg" xmlns:xlink="http://www.w3.org/1999/xlink">
 <defs>
  <style type="text/css">
*{stroke-linecap:butt;stroke-linejoin:round;}
  </style>
 </defs>
 <g id="figure_1">
  <g id="patch_1">
   <path d="M 0 568.066556 
L 709.164137 568.066556 
L 709.164137 0 
L 0 0 
z
" style="fill:#ffffff;"/>
  </g>
  <g id="axes_1">
   <g id="patch_2">
    <path d="M 67.268825 507.589794 
L 687.651325 507.589794 
L 687.651325 14.038594 
L 67.268825 14.038594 
z
" style="fill:#ffffff;"/>
   </g>
   <g id="matplotlib.axis_1">
    <g id="xtick_1">
     <g id="line2d_1">
      <defs>
       <path d="M 0 0 
L 0 6 
" id="mf8720284a0" style="stroke:#555555;"/>
      </defs>
      <g>
       <use style="fill:#555555;stroke:#555555;" x="67.268825" xlink:href="#mf8720284a0" y="512.525306"/>
      </g>
     </g>
     <g id="text_1">
      <!-- 0.0 -->
      <defs>
       <path d="M 31.78125 66.40625 
Q 24.171875 66.40625 20.328125 58.90625 
Q 16.5 51.421875 16.5 36.375 
Q 16.5 21.390625 20.328125 13.890625 
Q 24.171875 6.390625 31.78125 6.390625 
Q 39.453125 6.390625 43.28125 13.890625 
Q 47.125 21.390625 47.125 36.375 
Q 47.125 51.421875 43.28125 58.90625 
Q 39.453125 66.40625 31.78125 66.40625 
z
M 31.78125 74.21875 
Q 44.046875 74.21875 50.515625 64.515625 
Q 56.984375 54.828125 56.984375 36.375 
Q 56.984375 17.96875 50.515625 8.265625 
Q 44.046875 -1.421875 31.78125 -1.421875 
Q 19.53125 -1.421875 13.0625 8.265625 
Q 6.59375 17.96875 6.59375 36.375 
Q 6.59375 54.828125 13.0625 64.515625 
Q 19.53125 74.21875 31.78125 74.21875 
z
" id="DejaVuSans-48"/>
       <path d="M 10.6875 12.40625 
L 21 12.40625 
L 21 0 
L 10.6875 0 
z
" id="DejaVuSans-46"/>
      </defs>
      <g style="fill:#555555;" transform="translate(52.956013 535.702493)scale(0.18 -0.18)">
       <use xlink:href="#DejaVuSans-48"/>
       <use x="63.623047" xlink:href="#DejaVuSans-46"/>
       <use x="95.410156" xlink:href="#DejaVuSans-48"/>
      </g>
     </g>
    </g>
    <g id="xtick_2">
     <g id="line2d_2">
      <g>
       <use style="fill:#555555;stroke:#555555;" x="170.665908" xlink:href="#mf8720284a0" y="512.525306"/>
      </g>
     </g>
     <g id="text_2">
      <!-- 0.2 -->
      <defs>
       <path d="M 19.1875 8.296875 
L 53.609375 8.296875 
L 53.609375 0 
L 7.328125 0 
L 7.328125 8.296875 
Q 12.9375 14.109375 22.625 23.890625 
Q 32.328125 33.6875 34.8125 36.53125 
Q 39.546875 41.84375 41.421875 45.53125 
Q 43.3125 49.21875 43.3125 52.78125 
Q 43.3125 58.59375 39.234375 62.25 
Q 35.15625 65.921875 28.609375 65.921875 
Q 23.96875 65.921875 18.8125 64.3125 
Q 13.671875 62.703125 7.8125 59.421875 
L 7.8125 69.390625 
Q 13.765625 71.78125 18.9375 73 
Q 24.125 74.21875 28.421875 74.21875 
Q 39.75 74.21875 46.484375 68.546875 
Q 53.21875 62.890625 53.21875 53.421875 
Q 53.21875 48.921875 51.53125 44.890625 
Q 49.859375 40.875 45.40625 35.40625 
Q 44.1875 33.984375 37.640625 27.21875 
Q 31.109375 20.453125 19.1875 8.296875 
z
" id="DejaVuSans-50"/>
      </defs>
      <g style="fill:#555555;" transform="translate(156.353096 535.702493)scale(0.18 -0.18)">
       <use xlink:href="#DejaVuSans-48"/>
       <use x="63.623047" xlink:href="#DejaVuSans-46"/>
       <use x="95.410156" xlink:href="#DejaVuSans-50"/>
      </g>
     </g>
    </g>
    <g id="xtick_3">
     <g id="line2d_3">
      <g>
       <use style="fill:#555555;stroke:#555555;" x="274.062992" xlink:href="#mf8720284a0" y="512.525306"/>
      </g>
     </g>
     <g id="text_3">
      <!-- 0.4 -->
      <defs>
       <path d="M 37.796875 64.3125 
L 12.890625 25.390625 
L 37.796875 25.390625 
z
M 35.203125 72.90625 
L 47.609375 72.90625 
L 47.609375 25.390625 
L 58.015625 25.390625 
L 58.015625 17.1875 
L 47.609375 17.1875 
L 47.609375 0 
L 37.796875 0 
L 37.796875 17.1875 
L 4.890625 17.1875 
L 4.890625 26.703125 
z
" id="DejaVuSans-52"/>
      </defs>
      <g style="fill:#555555;" transform="translate(259.750179 535.702493)scale(0.18 -0.18)">
       <use xlink:href="#DejaVuSans-48"/>
       <use x="63.623047" xlink:href="#DejaVuSans-46"/>
       <use x="95.410156" xlink:href="#DejaVuSans-52"/>
      </g>
     </g>
    </g>
    <g id="xtick_4">
     <g id="line2d_4">
      <g>
       <use style="fill:#555555;stroke:#555555;" x="377.460075" xlink:href="#mf8720284a0" y="512.525306"/>
      </g>
     </g>
     <g id="text_4">
      <!-- 0.6 -->
      <defs>
       <path d="M 33.015625 40.375 
Q 26.375 40.375 22.484375 35.828125 
Q 18.609375 31.296875 18.609375 23.390625 
Q 18.609375 15.53125 22.484375 10.953125 
Q 26.375 6.390625 33.015625 6.390625 
Q 39.65625 6.390625 43.53125 10.953125 
Q 47.40625 15.53125 47.40625 23.390625 
Q 47.40625 31.296875 43.53125 35.828125 
Q 39.65625 40.375 33.015625 40.375 
z
M 52.59375 71.296875 
L 52.59375 62.3125 
Q 48.875 64.0625 45.09375 64.984375 
Q 41.3125 65.921875 37.59375 65.921875 
Q 27.828125 65.921875 22.671875 59.328125 
Q 17.53125 52.734375 16.796875 39.40625 
Q 19.671875 43.65625 24.015625 45.921875 
Q 28.375 48.1875 33.59375 48.1875 
Q 44.578125 48.1875 50.953125 41.515625 
Q 57.328125 34.859375 57.328125 23.390625 
Q 57.328125 12.15625 50.6875 5.359375 
Q 44.046875 -1.421875 33.015625 -1.421875 
Q 20.359375 -1.421875 13.671875 8.265625 
Q 6.984375 17.96875 6.984375 36.375 
Q 6.984375 53.65625 15.1875 63.9375 
Q 23.390625 74.21875 37.203125 74.21875 
Q 40.921875 74.21875 44.703125 73.484375 
Q 48.484375 72.75 52.59375 71.296875 
z
" id="DejaVuSans-54"/>
      </defs>
      <g style="fill:#555555;" transform="translate(363.147262 535.702493)scale(0.18 -0.18)">
       <use xlink:href="#DejaVuSans-48"/>
       <use x="63.623047" xlink:href="#DejaVuSans-46"/>
       <use x="95.410156" xlink:href="#DejaVuSans-54"/>
      </g>
     </g>
    </g>
    <g id="xtick_5">
     <g id="line2d_5">
      <g>
       <use style="fill:#555555;stroke:#555555;" x="480.857158" xlink:href="#mf8720284a0" y="512.525306"/>
      </g>
     </g>
     <g id="text_5">
      <!-- 0.8 -->
      <defs>
       <path d="M 31.78125 34.625 
Q 24.75 34.625 20.71875 30.859375 
Q 16.703125 27.09375 16.703125 20.515625 
Q 16.703125 13.921875 20.71875 10.15625 
Q 24.75 6.390625 31.78125 6.390625 
Q 38.8125 6.390625 42.859375 10.171875 
Q 46.921875 13.96875 46.921875 20.515625 
Q 46.921875 27.09375 42.890625 30.859375 
Q 38.875 34.625 31.78125 34.625 
z
M 21.921875 38.8125 
Q 15.578125 40.375 12.03125 44.71875 
Q 8.5 49.078125 8.5 55.328125 
Q 8.5 64.0625 14.71875 69.140625 
Q 20.953125 74.21875 31.78125 74.21875 
Q 42.671875 74.21875 48.875 69.140625 
Q 55.078125 64.0625 55.078125 55.328125 
Q 55.078125 49.078125 51.53125 44.71875 
Q 48 40.375 41.703125 38.8125 
Q 48.828125 37.15625 52.796875 32.3125 
Q 56.78125 27.484375 56.78125 20.515625 
Q 56.78125 9.90625 50.3125 4.234375 
Q 43.84375 -1.421875 31.78125 -1.421875 
Q 19.734375 -1.421875 13.25 4.234375 
Q 6.78125 9.90625 6.78125 20.515625 
Q 6.78125 27.484375 10.78125 32.3125 
Q 14.796875 37.15625 21.921875 38.8125 
z
M 18.3125 54.390625 
Q 18.3125 48.734375 21.84375 45.5625 
Q 25.390625 42.390625 31.78125 42.390625 
Q 38.140625 42.390625 41.71875 45.5625 
Q 45.3125 48.734375 45.3125 54.390625 
Q 45.3125 60.0625 41.71875 63.234375 
Q 38.140625 66.40625 31.78125 66.40625 
Q 25.390625 66.40625 21.84375 63.234375 
Q 18.3125 60.0625 18.3125 54.390625 
z
" id="DejaVuSans-56"/>
      </defs>
      <g style="fill:#555555;" transform="translate(466.544346 535.702493)scale(0.18 -0.18)">
       <use xlink:href="#DejaVuSans-48"/>
       <use x="63.623047" xlink:href="#DejaVuSans-46"/>
       <use x="95.410156" xlink:href="#DejaVuSans-56"/>
      </g>
     </g>
    </g>
    <g id="xtick_6">
     <g id="line2d_6">
      <g>
       <use style="fill:#555555;stroke:#555555;" x="584.254242" xlink:href="#mf8720284a0" y="512.525306"/>
      </g>
     </g>
     <g id="text_6">
      <!-- 1.0 -->
      <defs>
       <path d="M 12.40625 8.296875 
L 28.515625 8.296875 
L 28.515625 63.921875 
L 10.984375 60.40625 
L 10.984375 69.390625 
L 28.421875 72.90625 
L 38.28125 72.90625 
L 38.28125 8.296875 
L 54.390625 8.296875 
L 54.390625 0 
L 12.40625 0 
z
" id="DejaVuSans-49"/>
      </defs>
      <g style="fill:#555555;" transform="translate(569.941429 535.702493)scale(0.18 -0.18)">
       <use xlink:href="#DejaVuSans-49"/>
       <use x="63.623047" xlink:href="#DejaVuSans-46"/>
       <use x="95.410156" xlink:href="#DejaVuSans-48"/>
      </g>
     </g>
    </g>
    <g id="xtick_7">
     <g id="line2d_7">
      <g>
       <use style="fill:#555555;stroke:#555555;" x="687.651325" xlink:href="#mf8720284a0" y="512.525306"/>
      </g>
     </g>
     <g id="text_7">
      <!-- 1.2 -->
      <g style="fill:#555555;" transform="translate(673.338512 535.702493)scale(0.18 -0.18)">
       <use xlink:href="#DejaVuSans-49"/>
       <use x="63.623047" xlink:href="#DejaVuSans-46"/>
       <use x="95.410156" xlink:href="#DejaVuSans-50"/>
      </g>
     </g>
    </g>
    <g id="text_8">
     <!-- Motor ratio -->
     <defs>
      <path d="M 9.8125 72.90625 
L 24.515625 72.90625 
L 43.109375 23.296875 
L 61.8125 72.90625 
L 76.515625 72.90625 
L 76.515625 0 
L 66.890625 0 
L 66.890625 64.015625 
L 48.09375 14.015625 
L 38.1875 14.015625 
L 19.390625 64.015625 
L 19.390625 0 
L 9.8125 0 
z
" id="DejaVuSans-77"/>
      <path d="M 30.609375 48.390625 
Q 23.390625 48.390625 19.1875 42.75 
Q 14.984375 37.109375 14.984375 27.296875 
Q 14.984375 17.484375 19.15625 11.84375 
Q 23.34375 6.203125 30.609375 6.203125 
Q 37.796875 6.203125 41.984375 11.859375 
Q 46.1875 17.53125 46.1875 27.296875 
Q 46.1875 37.015625 41.984375 42.703125 
Q 37.796875 48.390625 30.609375 48.390625 
z
M 30.609375 56 
Q 42.328125 56 49.015625 48.375 
Q 55.71875 40.765625 55.71875 27.296875 
Q 55.71875 13.875 49.015625 6.21875 
Q 42.328125 -1.421875 30.609375 -1.421875 
Q 18.84375 -1.421875 12.171875 6.21875 
Q 5.515625 13.875 5.515625 27.296875 
Q 5.515625 40.765625 12.171875 48.375 
Q 18.84375 56 30.609375 56 
z
" id="DejaVuSans-111"/>
      <path d="M 18.3125 70.21875 
L 18.3125 54.6875 
L 36.8125 54.6875 
L 36.8125 47.703125 
L 18.3125 47.703125 
L 18.3125 18.015625 
Q 18.3125 11.328125 20.140625 9.421875 
Q 21.96875 7.515625 27.59375 7.515625 
L 36.8125 7.515625 
L 36.8125 0 
L 27.59375 0 
Q 17.1875 0 13.234375 3.875 
Q 9.28125 7.765625 9.28125 18.015625 
L 9.28125 47.703125 
L 2.6875 47.703125 
L 2.6875 54.6875 
L 9.28125 54.6875 
L 9.28125 70.21875 
z
" id="DejaVuSans-116"/>
      <path d="M 41.109375 46.296875 
Q 39.59375 47.171875 37.8125 47.578125 
Q 36.03125 48 33.890625 48 
Q 26.265625 48 22.1875 43.046875 
Q 18.109375 38.09375 18.109375 28.8125 
L 18.109375 0 
L 9.078125 0 
L 9.078125 54.6875 
L 18.109375 54.6875 
L 18.109375 46.1875 
Q 20.953125 51.171875 25.484375 53.578125 
Q 30.03125 56 36.53125 56 
Q 37.453125 56 38.578125 55.875 
Q 39.703125 55.765625 41.0625 55.515625 
z
" id="DejaVuSans-114"/>
      <path id="DejaVuSans-32"/>
      <path d="M 34.28125 27.484375 
Q 23.390625 27.484375 19.1875 25 
Q 14.984375 22.515625 14.984375 16.5 
Q 14.984375 11.71875 18.140625 8.90625 
Q 21.296875 6.109375 26.703125 6.109375 
Q 34.1875 6.109375 38.703125 11.40625 
Q 43.21875 16.703125 43.21875 25.484375 
L 43.21875 27.484375 
z
M 52.203125 31.203125 
L 52.203125 0 
L 43.21875 0 
L 43.21875 8.296875 
Q 40.140625 3.328125 35.546875 0.953125 
Q 30.953125 -1.421875 24.3125 -1.421875 
Q 15.921875 -1.421875 10.953125 3.296875 
Q 6 8.015625 6 15.921875 
Q 6 25.140625 12.171875 29.828125 
Q 18.359375 34.515625 30.609375 34.515625 
L 43.21875 34.515625 
L 43.21875 35.40625 
Q 43.21875 41.609375 39.140625 45 
Q 35.0625 48.390625 27.6875 48.390625 
Q 23 48.390625 18.546875 47.265625 
Q 14.109375 46.140625 10.015625 43.890625 
L 10.015625 52.203125 
Q 14.9375 54.109375 19.578125 55.046875 
Q 24.21875 56 28.609375 56 
Q 40.484375 56 46.34375 49.84375 
Q 52.203125 43.703125 52.203125 31.203125 
z
" id="DejaVuSans-97"/>
      <path d="M 9.421875 54.6875 
L 18.40625 54.6875 
L 18.40625 0 
L 9.421875 0 
z
M 9.421875 75.984375 
L 18.40625 75.984375 
L 18.40625 64.59375 
L 9.421875 64.59375 
z
" id="DejaVuSans-105"/>
     </defs>
     <g transform="translate(327.84195 557.123118)scale(0.18 -0.18)">
      <use xlink:href="#DejaVuSans-77"/>
      <use x="86.279297" xlink:href="#DejaVuSans-111"/>
      <use x="147.460938" xlink:href="#DejaVuSans-116"/>
      <use x="186.669922" xlink:href="#DejaVuSans-111"/>
      <use x="247.851562" xlink:href="#DejaVuSans-114"/>
      <use x="288.964844" xlink:href="#DejaVuSans-32"/>
      <use x="320.751953" xlink:href="#DejaVuSans-114"/>
      <use x="361.865234" xlink:href="#DejaVuSans-97"/>
      <use x="423.144531" xlink:href="#DejaVuSans-116"/>
      <use x="462.353516" xlink:href="#DejaVuSans-105"/>
      <use x="490.136719" xlink:href="#DejaVuSans-111"/>
     </g>
    </g>
   </g>
   <g id="matplotlib.axis_2">
    <g id="ytick_1">
     <g id="line2d_8">
      <defs>
       <path d="M 0 0 
L -6 0 
" id="m58f95ec6d6" style="stroke:#555555;"/>
      </defs>
      <g>
       <use style="fill:#555555;stroke:#555555;" x="61.065" xlink:href="#m58f95ec6d6" y="472.289798"/>
      </g>
     </g>
     <g id="text_9">
      <!-- 0 -->
      <g style="fill:#555555;" transform="translate(40.1125 479.128392)scale(0.18 -0.18)">
       <use xlink:href="#DejaVuSans-48"/>
      </g>
     </g>
    </g>
    <g id="ytick_2">
     <g id="line2d_9">
      <g>
       <use style="fill:#555555;stroke:#555555;" x="61.065" xlink:href="#m58f95ec6d6" y="380.639557"/>
      </g>
     </g>
     <g id="text_10">
      <!-- 2 -->
      <g style="fill:#555555;" transform="translate(40.1125 387.478151)scale(0.18 -0.18)">
       <use xlink:href="#DejaVuSans-50"/>
      </g>
     </g>
    </g>
    <g id="ytick_3">
     <g id="line2d_10">
      <g>
       <use style="fill:#555555;stroke:#555555;" x="61.065" xlink:href="#m58f95ec6d6" y="288.989316"/>
      </g>
     </g>
     <g id="text_11">
      <!-- 4 -->
      <g style="fill:#555555;" transform="translate(40.1125 295.82791)scale(0.18 -0.18)">
       <use xlink:href="#DejaVuSans-52"/>
      </g>
     </g>
    </g>
    <g id="ytick_4">
     <g id="line2d_11">
      <g>
       <use style="fill:#555555;stroke:#555555;" x="61.065" xlink:href="#m58f95ec6d6" y="197.339075"/>
      </g>
     </g>
     <g id="text_12">
      <!-- 6 -->
      <g style="fill:#555555;" transform="translate(40.1125 204.177669)scale(0.18 -0.18)">
       <use xlink:href="#DejaVuSans-54"/>
      </g>
     </g>
    </g>
    <g id="ytick_5">
     <g id="line2d_12">
      <g>
       <use style="fill:#555555;stroke:#555555;" x="61.065" xlink:href="#m58f95ec6d6" y="105.688835"/>
      </g>
     </g>
     <g id="text_13">
      <!-- 8 -->
      <g style="fill:#555555;" transform="translate(40.1125 112.527428)scale(0.18 -0.18)">
       <use xlink:href="#DejaVuSans-56"/>
      </g>
     </g>
    </g>
    <g id="ytick_6">
     <g id="line2d_13">
      <g>
       <use style="fill:#555555;stroke:#555555;" x="61.065" xlink:href="#m58f95ec6d6" y="14.038594"/>
      </g>
     </g>
     <g id="text_14">
      <!-- 10 -->
      <g style="fill:#555555;" transform="translate(28.66 20.877187)scale(0.18 -0.18)">
       <use xlink:href="#DejaVuSans-49"/>
       <use x="63.623047" xlink:href="#DejaVuSans-48"/>
      </g>
     </g>
    </g>
    <g id="text_15">
     <!-- Speed ($\mu m/s$) -->
     <defs>
      <path d="M 53.515625 70.515625 
L 53.515625 60.890625 
Q 47.90625 63.578125 42.921875 64.890625 
Q 37.9375 66.21875 33.296875 66.21875 
Q 25.25 66.21875 20.875 63.09375 
Q 16.5 59.96875 16.5 54.203125 
Q 16.5 49.359375 19.40625 46.890625 
Q 22.3125 44.4375 30.421875 42.921875 
L 36.375 41.703125 
Q 47.40625 39.59375 52.65625 34.296875 
Q 57.90625 29 57.90625 20.125 
Q 57.90625 9.515625 50.796875 4.046875 
Q 43.703125 -1.421875 29.984375 -1.421875 
Q 24.8125 -1.421875 18.96875 -0.25 
Q 13.140625 0.921875 6.890625 3.21875 
L 6.890625 13.375 
Q 12.890625 10.015625 18.65625 8.296875 
Q 24.421875 6.59375 29.984375 6.59375 
Q 38.421875 6.59375 43.015625 9.90625 
Q 47.609375 13.234375 47.609375 19.390625 
Q 47.609375 24.75 44.3125 27.78125 
Q 41.015625 30.8125 33.5 32.328125 
L 27.484375 33.5 
Q 16.453125 35.6875 11.515625 40.375 
Q 6.59375 45.0625 6.59375 53.421875 
Q 6.59375 63.09375 13.40625 68.65625 
Q 20.21875 74.21875 32.171875 74.21875 
Q 37.3125 74.21875 42.625 73.28125 
Q 47.953125 72.359375 53.515625 70.515625 
z
" id="DejaVuSans-83"/>
      <path d="M 18.109375 8.203125 
L 18.109375 -20.796875 
L 9.078125 -20.796875 
L 9.078125 54.6875 
L 18.109375 54.6875 
L 18.109375 46.390625 
Q 20.953125 51.265625 25.265625 53.625 
Q 29.59375 56 35.59375 56 
Q 45.5625 56 51.78125 48.09375 
Q 58.015625 40.1875 58.015625 27.296875 
Q 58.015625 14.40625 51.78125 6.484375 
Q 45.5625 -1.421875 35.59375 -1.421875 
Q 29.59375 -1.421875 25.265625 0.953125 
Q 20.953125 3.328125 18.109375 8.203125 
z
M 48.6875 27.296875 
Q 48.6875 37.203125 44.609375 42.84375 
Q 40.53125 48.484375 33.40625 48.484375 
Q 26.265625 48.484375 22.1875 42.84375 
Q 18.109375 37.203125 18.109375 27.296875 
Q 18.109375 17.390625 22.1875 11.75 
Q 26.265625 6.109375 33.40625 6.109375 
Q 40.53125 6.109375 44.609375 11.75 
Q 48.6875 17.390625 48.6875 27.296875 
z
" id="DejaVuSans-112"/>
      <path d="M 56.203125 29.59375 
L 56.203125 25.203125 
L 14.890625 25.203125 
Q 15.484375 15.921875 20.484375 11.0625 
Q 25.484375 6.203125 34.421875 6.203125 
Q 39.59375 6.203125 44.453125 7.46875 
Q 49.3125 8.734375 54.109375 11.28125 
L 54.109375 2.78125 
Q 49.265625 0.734375 44.1875 -0.34375 
Q 39.109375 -1.421875 33.890625 -1.421875 
Q 20.796875 -1.421875 13.15625 6.1875 
Q 5.515625 13.8125 5.515625 26.8125 
Q 5.515625 40.234375 12.765625 48.109375 
Q 20.015625 56 32.328125 56 
Q 43.359375 56 49.78125 48.890625 
Q 56.203125 41.796875 56.203125 29.59375 
z
M 47.21875 32.234375 
Q 47.125 39.59375 43.09375 43.984375 
Q 39.0625 48.390625 32.421875 48.390625 
Q 24.90625 48.390625 20.390625 44.140625 
Q 15.875 39.890625 15.1875 32.171875 
z
" id="DejaVuSans-101"/>
      <path d="M 45.40625 46.390625 
L 45.40625 75.984375 
L 54.390625 75.984375 
L 54.390625 0 
L 45.40625 0 
L 45.40625 8.203125 
Q 42.578125 3.328125 38.25 0.953125 
Q 33.9375 -1.421875 27.875 -1.421875 
Q 17.96875 -1.421875 11.734375 6.484375 
Q 5.515625 14.40625 5.515625 27.296875 
Q 5.515625 40.1875 11.734375 48.09375 
Q 17.96875 56 27.875 56 
Q 33.9375 56 38.25 53.625 
Q 42.578125 51.265625 45.40625 46.390625 
z
M 14.796875 27.296875 
Q 14.796875 17.390625 18.875 11.75 
Q 22.953125 6.109375 30.078125 6.109375 
Q 37.203125 6.109375 41.296875 11.75 
Q 45.40625 17.390625 45.40625 27.296875 
Q 45.40625 37.203125 41.296875 42.84375 
Q 37.203125 48.484375 30.078125 48.484375 
Q 22.953125 48.484375 18.875 42.84375 
Q 14.796875 37.203125 14.796875 27.296875 
z
" id="DejaVuSans-100"/>
      <path d="M 31 75.875 
Q 24.46875 64.65625 21.28125 53.65625 
Q 18.109375 42.671875 18.109375 31.390625 
Q 18.109375 20.125 21.3125 9.0625 
Q 24.515625 -2 31 -13.1875 
L 23.1875 -13.1875 
Q 15.875 -1.703125 12.234375 9.375 
Q 8.59375 20.453125 8.59375 31.390625 
Q 8.59375 42.28125 12.203125 53.3125 
Q 15.828125 64.359375 23.1875 75.875 
z
" id="DejaVuSans-40"/>
      <path d="M -1.3125 -20.796875 
L 13.375 54.6875 
L 22.40625 54.6875 
L 15.765625 20.65625 
Q 15.578125 19.625 15.421875 18.359375 
Q 15.28125 17.09375 15.28125 15.828125 
Q 15.28125 11.28125 18.140625 8.828125 
Q 21 6.390625 26.3125 6.390625 
Q 33.546875 6.390625 37.984375 10.484375 
Q 42.4375 14.59375 44 22.796875 
L 50.203125 54.6875 
L 59.1875 54.6875 
L 51.03125 12.640625 
Q 50.828125 11.71875 50.75 11.03125 
Q 50.6875 10.359375 50.6875 9.8125 
Q 50.6875 8.296875 51.296875 7.59375 
Q 51.90625 6.890625 53.21875 6.890625 
Q 53.71875 6.890625 54.5625 7.125 
Q 55.421875 7.375 56.984375 8.015625 
L 55.609375 0.78125 
Q 53.46875 -0.296875 51.515625 -0.859375 
Q 49.5625 -1.421875 47.703125 -1.421875 
Q 44.484375 -1.421875 42.65625 0.625 
Q 40.828125 2.6875 40.828125 6.296875 
Q 38.09375 2.390625 34.296875 0.484375 
Q 30.515625 -1.421875 25.390625 -1.421875 
Q 20.84375 -1.421875 17.453125 0.671875 
Q 14.0625 2.78125 12.984375 6.203125 
L 7.71875 -20.796875 
z
" id="DejaVuSans-Oblique-956"/>
      <path d="M 89.796875 33.015625 
L 83.40625 0 
L 74.421875 0 
L 80.71875 32.71875 
Q 81.109375 34.8125 81.296875 36.328125 
Q 81.5 37.84375 81.5 38.921875 
Q 81.5 43.3125 79.046875 45.75 
Q 76.609375 48.1875 72.21875 48.1875 
Q 65.671875 48.1875 60.546875 43.28125 
Q 55.421875 38.375 53.90625 30.515625 
L 47.90625 0 
L 38.921875 0 
L 45.3125 32.71875 
Q 45.703125 34.515625 45.890625 36.046875 
Q 46.09375 37.59375 46.09375 38.8125 
Q 46.09375 43.265625 43.65625 45.71875 
Q 41.21875 48.1875 36.921875 48.1875 
Q 30.28125 48.1875 25.140625 43.28125 
Q 20.015625 38.375 18.5 30.515625 
L 12.5 0 
L 3.515625 0 
L 14.203125 54.6875 
L 23.1875 54.6875 
L 21.484375 46.1875 
Q 25.140625 50.984375 30.046875 53.484375 
Q 34.96875 56 40.578125 56 
Q 46.53125 56 50.359375 52.875 
Q 54.203125 49.75 54.984375 44.1875 
Q 59.078125 49.953125 64.46875 52.96875 
Q 69.875 56 75.875 56 
Q 82.90625 56 86.734375 51.953125 
Q 90.578125 47.90625 90.578125 40.484375 
Q 90.578125 38.875 90.375 36.9375 
Q 90.1875 35.015625 89.796875 33.015625 
z
" id="DejaVuSans-Oblique-109"/>
      <path d="M 25.390625 72.90625 
L 33.6875 72.90625 
L 8.296875 -9.28125 
L 0 -9.28125 
z
" id="DejaVuSans-47"/>
      <path d="M 50 53.078125 
L 48.296875 44.578125 
Q 44.734375 46.53125 40.765625 47.5 
Q 36.8125 48.484375 32.625 48.484375 
Q 25.53125 48.484375 21.453125 46.0625 
Q 17.390625 43.65625 17.390625 39.5 
Q 17.390625 34.671875 26.859375 32.078125 
Q 27.59375 31.890625 27.9375 31.78125 
L 30.8125 30.90625 
Q 39.796875 28.421875 42.796875 25.6875 
Q 45.796875 22.953125 45.796875 18.21875 
Q 45.796875 9.515625 38.890625 4.046875 
Q 31.984375 -1.421875 20.796875 -1.421875 
Q 16.453125 -1.421875 11.671875 -0.578125 
Q 6.890625 0.25 1.125 2 
L 2.875 11.28125 
Q 7.8125 8.734375 12.59375 7.421875 
Q 17.390625 6.109375 21.78125 6.109375 
Q 28.375 6.109375 32.5 8.9375 
Q 36.625 11.765625 36.625 16.109375 
Q 36.625 20.796875 25.78125 23.6875 
L 24.859375 23.921875 
L 21.78125 24.703125 
Q 14.9375 26.515625 11.765625 29.46875 
Q 8.59375 32.421875 8.59375 37.015625 
Q 8.59375 45.75 15.15625 50.875 
Q 21.734375 56 33.015625 56 
Q 37.453125 56 41.671875 55.265625 
Q 45.90625 54.546875 50 53.078125 
z
" id="DejaVuSans-Oblique-115"/>
      <path d="M 8.015625 75.875 
L 15.828125 75.875 
Q 23.140625 64.359375 26.78125 53.3125 
Q 30.421875 42.28125 30.421875 31.390625 
Q 30.421875 20.453125 26.78125 9.375 
Q 23.140625 -1.703125 15.828125 -13.1875 
L 8.015625 -13.1875 
Q 14.5 -2 17.703125 9.0625 
Q 20.90625 20.125 20.90625 31.390625 
Q 20.90625 42.671875 17.703125 53.65625 
Q 14.5 64.65625 8.015625 75.875 
z
" id="DejaVuSans-41"/>
     </defs>
     <g transform="translate(20.88 321.204194)rotate(-90)scale(0.18 -0.18)">
      <use transform="translate(0 0.015625)" xlink:href="#DejaVuSans-83"/>
      <use transform="translate(63.476562 0.015625)" xlink:href="#DejaVuSans-112"/>
      <use transform="translate(126.953125 0.015625)" xlink:href="#DejaVuSans-101"/>
      <use transform="translate(188.476562 0.015625)" xlink:href="#DejaVuSans-101"/>
      <use transform="translate(250 0.015625)" xlink:href="#DejaVuSans-100"/>
      <use transform="translate(313.476562 0.015625)" xlink:href="#DejaVuSans-32"/>
      <use transform="translate(345.263672 0.015625)" xlink:href="#DejaVuSans-40"/>
      <use transform="translate(384.277344 0.015625)" xlink:href="#DejaVuSans-Oblique-956"/>
      <use transform="translate(447.900391 0.015625)" xlink:href="#DejaVuSans-Oblique-109"/>
      <use transform="translate(545.3125 0.015625)" xlink:href="#DejaVuSans-47"/>
      <use transform="translate(579.003906 0.015625)" xlink:href="#DejaVuSans-Oblique-115"/>
      <use transform="translate(631.103516 0.015625)" xlink:href="#DejaVuSans-41"/>
     </g>
    </g>
   </g>
   <g id="LineCollection_1">
    <path clip-path="url(#pb470f8e743)" d="M 118.967367 471.601215 
L 118.967367 469.25596 
" style="fill:none;stroke:#d3d3d3;stroke-width:3;"/>
    <path clip-path="url(#pb470f8e743)" d="M 170.665908 471.669372 
L 170.665908 468.897627 
" style="fill:none;stroke:#d3d3d3;stroke-width:3;"/>
    <path clip-path="url(#pb470f8e743)" d="M 222.36445 472.642154 
L 222.36445 466.869154 
" style="fill:none;stroke:#d3d3d3;stroke-width:3;"/>
    <path clip-path="url(#pb470f8e743)" d="M 274.062992 472.258109 
L 274.062992 467.604712 
" style="fill:none;stroke:#d3d3d3;stroke-width:3;"/>
    <path clip-path="url(#pb470f8e743)" d="M 325.761533 472.30622 
L 325.761533 466.123902 
" style="fill:none;stroke:#d3d3d3;stroke-width:3;"/>
    <path clip-path="url(#pb470f8e743)" d="M 377.460075 473.236968 
L 377.460075 454.450317 
" style="fill:none;stroke:#d3d3d3;stroke-width:3;"/>
    <path clip-path="url(#pb470f8e743)" d="M 429.158617 469.563947 
L 429.158617 432.756206 
" style="fill:none;stroke:#d3d3d3;stroke-width:3;"/>
    <path clip-path="url(#pb470f8e743)" d="M 480.857158 473.586361 
L 480.857158 343.207493 
" style="fill:none;stroke:#d3d3d3;stroke-width:3;"/>
    <path clip-path="url(#pb470f8e743)" d="M 532.5557 324.618339 
L 532.5557 223.132542 
" style="fill:none;stroke:#d3d3d3;stroke-width:3;"/>
    <path clip-path="url(#pb470f8e743)" d="M 584.254242 179.035025 
L 584.254242 99.182947 
" style="fill:none;stroke:#d3d3d3;stroke-width:3;"/>
   </g>
   <g id="LineCollection_2">
    <path clip-path="url(#pb470f8e743)" d="M 118.967367 471.661952 
L 118.967367 468.722906 
" style="fill:none;stroke:#d3d3d3;stroke-width:3;"/>
    <path clip-path="url(#pb470f8e743)" d="M 170.665908 472.670949 
L 170.665908 466.619469 
" style="fill:none;stroke:#d3d3d3;stroke-width:3;"/>
    <path clip-path="url(#pb470f8e743)" d="M 222.36445 471.696876 
L 222.36445 468.832331 
" style="fill:none;stroke:#d3d3d3;stroke-width:3;"/>
    <path clip-path="url(#pb470f8e743)" d="M 274.062992 471.744338 
L 274.062992 467.205233 
" style="fill:none;stroke:#d3d3d3;stroke-width:3;"/>
    <path clip-path="url(#pb470f8e743)" d="M 325.761533 480.647992 
L 325.761533 444.978678 
" style="fill:none;stroke:#d3d3d3;stroke-width:3;"/>
    <path clip-path="url(#pb470f8e743)" d="M 377.460075 471.824096 
L 377.460075 376.762983 
" style="fill:none;stroke:#d3d3d3;stroke-width:3;"/>
    <path clip-path="url(#pb470f8e743)" d="M 429.158617 446.426816 
L 429.158617 306.398354 
" style="fill:none;stroke:#d3d3d3;stroke-width:3;"/>
    <path clip-path="url(#pb470f8e743)" d="M 480.857158 387.010256 
L 480.857158 199.647559 
" style="fill:none;stroke:#d3d3d3;stroke-width:3;"/>
    <path clip-path="url(#pb470f8e743)" d="M 532.5557 269.499082 
L 532.5557 158.759303 
" style="fill:none;stroke:#d3d3d3;stroke-width:3;"/>
    <path clip-path="url(#pb470f8e743)" d="M 584.254242 174.121387 
L 584.254242 83.991379 
" style="fill:none;stroke:#d3d3d3;stroke-width:3;"/>
   </g>
   <g id="LineCollection_3">
    <path clip-path="url(#pb470f8e743)" d="M 118.967367 471.363558 
L 118.967367 468.816219 
" style="fill:none;stroke:#d3d3d3;stroke-width:3;"/>
    <path clip-path="url(#pb470f8e743)" d="M 170.665908 472.853505 
L 170.665908 467.349465 
" style="fill:none;stroke:#d3d3d3;stroke-width:3;"/>
    <path clip-path="url(#pb470f8e743)" d="M 222.36445 471.843866 
L 222.36445 468.187831 
" style="fill:none;stroke:#d3d3d3;stroke-width:3;"/>
    <path clip-path="url(#pb470f8e743)" d="M 274.062992 471.684704 
L 274.062992 467.237098 
" style="fill:none;stroke:#d3d3d3;stroke-width:3;"/>
    <path clip-path="url(#pb470f8e743)" d="M 325.761533 472.080495 
L 325.761533 466.881569 
" style="fill:none;stroke:#d3d3d3;stroke-width:3;"/>
    <path clip-path="url(#pb470f8e743)" d="M 377.460075 472.51352 
L 377.460075 462.510629 
" style="fill:none;stroke:#d3d3d3;stroke-width:3;"/>
    <path clip-path="url(#pb470f8e743)" d="M 429.158617 480.252521 
L 429.158617 417.041844 
" style="fill:none;stroke:#d3d3d3;stroke-width:3;"/>
    <path clip-path="url(#pb470f8e743)" d="M 480.857158 467.217691 
L 480.857158 379.615498 
" style="fill:none;stroke:#d3d3d3;stroke-width:3;"/>
    <path clip-path="url(#pb470f8e743)" d="M 532.5557 365.765479 
L 532.5557 187.176425 
" style="fill:none;stroke:#d3d3d3;stroke-width:3;"/>
    <path clip-path="url(#pb470f8e743)" d="M 584.254242 174.435444 
L 584.254242 119.928216 
" style="fill:none;stroke:#d3d3d3;stroke-width:3;"/>
   </g>
   <g id="LineCollection_4">
    <path clip-path="url(#pb470f8e743)" d="M 118.967367 472.213956 
L 118.967367 468.133488 
" style="fill:none;stroke:#d3d3d3;stroke-width:3;"/>
    <path clip-path="url(#pb470f8e743)" d="M 170.665908 471.557696 
L 170.665908 468.718403 
" style="fill:none;stroke:#d3d3d3;stroke-width:3;"/>
    <path clip-path="url(#pb470f8e743)" d="M 222.36445 472.449558 
L 222.36445 467.517104 
" style="fill:none;stroke:#d3d3d3;stroke-width:3;"/>
    <path clip-path="url(#pb470f8e743)" d="M 274.062992 472.515517 
L 274.062992 467.653528 
" style="fill:none;stroke:#d3d3d3;stroke-width:3;"/>
    <path clip-path="url(#pb470f8e743)" d="M 325.761533 475.783917 
L 325.761533 456.250248 
" style="fill:none;stroke:#d3d3d3;stroke-width:3;"/>
    <path clip-path="url(#pb470f8e743)" d="M 377.460075 482.544636 
L 377.460075 377.572819 
" style="fill:none;stroke:#d3d3d3;stroke-width:3;"/>
    <path clip-path="url(#pb470f8e743)" d="M 429.158617 487.418441 
L 429.158617 239.505841 
" style="fill:none;stroke:#d3d3d3;stroke-width:3;"/>
    <path clip-path="url(#pb470f8e743)" d="M 480.857158 381.871944 
L 480.857158 174.554253 
" style="fill:none;stroke:#d3d3d3;stroke-width:3;"/>
    <path clip-path="url(#pb470f8e743)" d="M 532.5557 269.792732 
L 532.5557 158.882054 
" style="fill:none;stroke:#d3d3d3;stroke-width:3;"/>
    <path clip-path="url(#pb470f8e743)" d="M 584.254242 174.169152 
L 584.254242 91.913651 
" style="fill:none;stroke:#d3d3d3;stroke-width:3;"/>
   </g>
   <g id="LineCollection_5">
    <path clip-path="url(#pb470f8e743)" d="M 118.967367 471.482387 
L 118.967367 469.036089 
" style="fill:none;stroke:#000000;"/>
    <path clip-path="url(#pb470f8e743)" d="M 170.665908 472.261438 
L 170.665908 468.123546 
" style="fill:none;stroke:#000000;"/>
    <path clip-path="url(#pb470f8e743)" d="M 222.36445 472.24301 
L 222.36445 467.528493 
" style="fill:none;stroke:#000000;"/>
    <path clip-path="url(#pb470f8e743)" d="M 274.062992 471.971406 
L 274.062992 467.420905 
" style="fill:none;stroke:#000000;"/>
    <path clip-path="url(#pb470f8e743)" d="M 325.761533 472.193358 
L 325.761533 466.502735 
" style="fill:none;stroke:#000000;"/>
    <path clip-path="url(#pb470f8e743)" d="M 377.460075 472.875244 
L 377.460075 458.480473 
" style="fill:none;stroke:#000000;"/>
    <path clip-path="url(#pb470f8e743)" d="M 429.158617 474.908234 
L 429.158617 424.899025 
" style="fill:none;stroke:#000000;"/>
    <path clip-path="url(#pb470f8e743)" d="M 480.857158 470.402026 
L 480.857158 361.411496 
" style="fill:none;stroke:#000000;"/>
    <path clip-path="url(#pb470f8e743)" d="M 532.5557 345.191909 
L 532.5557 205.154483 
" style="fill:none;stroke:#000000;"/>
    <path clip-path="url(#pb470f8e743)" d="M 584.254242 176.735235 
L 584.254242 109.555581 
" style="fill:none;stroke:#000000;"/>
   </g>
   <g id="LineCollection_6">
    <path clip-path="url(#pb470f8e743)" d="M 118.967367 471.937954 
L 118.967367 468.428197 
" style="fill:none;stroke:#008000;"/>
    <path clip-path="url(#pb470f8e743)" d="M 170.665908 472.114323 
L 170.665908 467.668936 
" style="fill:none;stroke:#008000;"/>
    <path clip-path="url(#pb470f8e743)" d="M 222.36445 472.073217 
L 222.36445 468.174718 
" style="fill:none;stroke:#008000;"/>
    <path clip-path="url(#pb470f8e743)" d="M 274.062992 472.129927 
L 274.062992 467.42938 
" style="fill:none;stroke:#008000;"/>
    <path clip-path="url(#pb470f8e743)" d="M 325.761533 478.215955 
L 325.761533 450.614463 
" style="fill:none;stroke:#008000;"/>
    <path clip-path="url(#pb470f8e743)" d="M 377.460075 477.184366 
L 377.460075 377.167901 
" style="fill:none;stroke:#008000;"/>
    <path clip-path="url(#pb470f8e743)" d="M 429.158617 466.922628 
L 429.158617 272.952098 
" style="fill:none;stroke:#008000;"/>
    <path clip-path="url(#pb470f8e743)" d="M 480.857158 384.4411 
L 480.857158 187.100906 
" style="fill:none;stroke:#008000;"/>
    <path clip-path="url(#pb470f8e743)" d="M 532.5557 269.645907 
L 532.5557 158.820678 
" style="fill:none;stroke:#008000;"/>
    <path clip-path="url(#pb470f8e743)" d="M 584.254242 174.145269 
L 584.254242 87.952515 
" style="fill:none;stroke:#008000;"/>
   </g>
   <g id="line2d_14">
    <defs>
     <path d="M 4 0 
L -4 -0 
" id="mef0d8e2a90" style="stroke:#d3d3d3;"/>
    </defs>
    <g clip-path="url(#pb470f8e743)">
     <use style="fill:#d3d3d3;stroke:#d3d3d3;" x="118.967367" xlink:href="#mef0d8e2a90" y="471.601215"/>
     <use style="fill:#d3d3d3;stroke:#d3d3d3;" x="170.665908" xlink:href="#mef0d8e2a90" y="471.669372"/>
     <use style="fill:#d3d3d3;stroke:#d3d3d3;" x="222.36445" xlink:href="#mef0d8e2a90" y="472.642154"/>
     <use style="fill:#d3d3d3;stroke:#d3d3d3;" x="274.062992" xlink:href="#mef0d8e2a90" y="472.258109"/>
     <use style="fill:#d3d3d3;stroke:#d3d3d3;" x="325.761533" xlink:href="#mef0d8e2a90" y="472.30622"/>
     <use style="fill:#d3d3d3;stroke:#d3d3d3;" x="377.460075" xlink:href="#mef0d8e2a90" y="473.236968"/>
     <use style="fill:#d3d3d3;stroke:#d3d3d3;" x="429.158617" xlink:href="#mef0d8e2a90" y="469.563947"/>
     <use style="fill:#d3d3d3;stroke:#d3d3d3;" x="480.857158" xlink:href="#mef0d8e2a90" y="473.586361"/>
     <use style="fill:#d3d3d3;stroke:#d3d3d3;" x="532.5557" xlink:href="#mef0d8e2a90" y="324.618339"/>
     <use style="fill:#d3d3d3;stroke:#d3d3d3;" x="584.254242" xlink:href="#mef0d8e2a90" y="179.035025"/>
    </g>
   </g>
   <g id="line2d_15">
    <g clip-path="url(#pb470f8e743)">
     <use style="fill:#d3d3d3;stroke:#d3d3d3;" x="118.967367" xlink:href="#mef0d8e2a90" y="469.25596"/>
     <use style="fill:#d3d3d3;stroke:#d3d3d3;" x="170.665908" xlink:href="#mef0d8e2a90" y="468.897627"/>
     <use style="fill:#d3d3d3;stroke:#d3d3d3;" x="222.36445" xlink:href="#mef0d8e2a90" y="466.869154"/>
     <use style="fill:#d3d3d3;stroke:#d3d3d3;" x="274.062992" xlink:href="#mef0d8e2a90" y="467.604712"/>
     <use style="fill:#d3d3d3;stroke:#d3d3d3;" x="325.761533" xlink:href="#mef0d8e2a90" y="466.123902"/>
     <use style="fill:#d3d3d3;stroke:#d3d3d3;" x="377.460075" xlink:href="#mef0d8e2a90" y="454.450317"/>
     <use style="fill:#d3d3d3;stroke:#d3d3d3;" x="429.158617" xlink:href="#mef0d8e2a90" y="432.756206"/>
     <use style="fill:#d3d3d3;stroke:#d3d3d3;" x="480.857158" xlink:href="#mef0d8e2a90" y="343.207493"/>
     <use style="fill:#d3d3d3;stroke:#d3d3d3;" x="532.5557" xlink:href="#mef0d8e2a90" y="223.132542"/>
     <use style="fill:#d3d3d3;stroke:#d3d3d3;" x="584.254242" xlink:href="#mef0d8e2a90" y="99.182947"/>
    </g>
   </g>
   <g id="line2d_16">
    <g clip-path="url(#pb470f8e743)">
     <use style="fill:#d3d3d3;stroke:#d3d3d3;" x="118.967367" xlink:href="#mef0d8e2a90" y="471.661952"/>
     <use style="fill:#d3d3d3;stroke:#d3d3d3;" x="170.665908" xlink:href="#mef0d8e2a90" y="472.670949"/>
     <use style="fill:#d3d3d3;stroke:#d3d3d3;" x="222.36445" xlink:href="#mef0d8e2a90" y="471.696876"/>
     <use style="fill:#d3d3d3;stroke:#d3d3d3;" x="274.062992" xlink:href="#mef0d8e2a90" y="471.744338"/>
     <use style="fill:#d3d3d3;stroke:#d3d3d3;" x="325.761533" xlink:href="#mef0d8e2a90" y="480.647992"/>
     <use style="fill:#d3d3d3;stroke:#d3d3d3;" x="377.460075" xlink:href="#mef0d8e2a90" y="471.824096"/>
     <use style="fill:#d3d3d3;stroke:#d3d3d3;" x="429.158617" xlink:href="#mef0d8e2a90" y="446.426816"/>
     <use style="fill:#d3d3d3;stroke:#d3d3d3;" x="480.857158" xlink:href="#mef0d8e2a90" y="387.010256"/>
     <use style="fill:#d3d3d3;stroke:#d3d3d3;" x="532.5557" xlink:href="#mef0d8e2a90" y="269.499082"/>
     <use style="fill:#d3d3d3;stroke:#d3d3d3;" x="584.254242" xlink:href="#mef0d8e2a90" y="174.121387"/>
    </g>
   </g>
   <g id="line2d_17">
    <g clip-path="url(#pb470f8e743)">
     <use style="fill:#d3d3d3;stroke:#d3d3d3;" x="118.967367" xlink:href="#mef0d8e2a90" y="468.722906"/>
     <use style="fill:#d3d3d3;stroke:#d3d3d3;" x="170.665908" xlink:href="#mef0d8e2a90" y="466.619469"/>
     <use style="fill:#d3d3d3;stroke:#d3d3d3;" x="222.36445" xlink:href="#mef0d8e2a90" y="468.832331"/>
     <use style="fill:#d3d3d3;stroke:#d3d3d3;" x="274.062992" xlink:href="#mef0d8e2a90" y="467.205233"/>
     <use style="fill:#d3d3d3;stroke:#d3d3d3;" x="325.761533" xlink:href="#mef0d8e2a90" y="444.978678"/>
     <use style="fill:#d3d3d3;stroke:#d3d3d3;" x="377.460075" xlink:href="#mef0d8e2a90" y="376.762983"/>
     <use style="fill:#d3d3d3;stroke:#d3d3d3;" x="429.158617" xlink:href="#mef0d8e2a90" y="306.398354"/>
     <use style="fill:#d3d3d3;stroke:#d3d3d3;" x="480.857158" xlink:href="#mef0d8e2a90" y="199.647559"/>
     <use style="fill:#d3d3d3;stroke:#d3d3d3;" x="532.5557" xlink:href="#mef0d8e2a90" y="158.759303"/>
     <use style="fill:#d3d3d3;stroke:#d3d3d3;" x="584.254242" xlink:href="#mef0d8e2a90" y="83.991379"/>
    </g>
   </g>
   <g id="line2d_18">
    <g clip-path="url(#pb470f8e743)">
     <use style="fill:#d3d3d3;stroke:#d3d3d3;" x="118.967367" xlink:href="#mef0d8e2a90" y="471.363558"/>
     <use style="fill:#d3d3d3;stroke:#d3d3d3;" x="170.665908" xlink:href="#mef0d8e2a90" y="472.853505"/>
     <use style="fill:#d3d3d3;stroke:#d3d3d3;" x="222.36445" xlink:href="#mef0d8e2a90" y="471.843866"/>
     <use style="fill:#d3d3d3;stroke:#d3d3d3;" x="274.062992" xlink:href="#mef0d8e2a90" y="471.684704"/>
     <use style="fill:#d3d3d3;stroke:#d3d3d3;" x="325.761533" xlink:href="#mef0d8e2a90" y="472.080495"/>
     <use style="fill:#d3d3d3;stroke:#d3d3d3;" x="377.460075" xlink:href="#mef0d8e2a90" y="472.51352"/>
     <use style="fill:#d3d3d3;stroke:#d3d3d3;" x="429.158617" xlink:href="#mef0d8e2a90" y="480.252521"/>
     <use style="fill:#d3d3d3;stroke:#d3d3d3;" x="480.857158" xlink:href="#mef0d8e2a90" y="467.217691"/>
     <use style="fill:#d3d3d3;stroke:#d3d3d3;" x="532.5557" xlink:href="#mef0d8e2a90" y="365.765479"/>
     <use style="fill:#d3d3d3;stroke:#d3d3d3;" x="584.254242" xlink:href="#mef0d8e2a90" y="174.435444"/>
    </g>
   </g>
   <g id="line2d_19">
    <g clip-path="url(#pb470f8e743)">
     <use style="fill:#d3d3d3;stroke:#d3d3d3;" x="118.967367" xlink:href="#mef0d8e2a90" y="468.816219"/>
     <use style="fill:#d3d3d3;stroke:#d3d3d3;" x="170.665908" xlink:href="#mef0d8e2a90" y="467.349465"/>
     <use style="fill:#d3d3d3;stroke:#d3d3d3;" x="222.36445" xlink:href="#mef0d8e2a90" y="468.187831"/>
     <use style="fill:#d3d3d3;stroke:#d3d3d3;" x="274.062992" xlink:href="#mef0d8e2a90" y="467.237098"/>
     <use style="fill:#d3d3d3;stroke:#d3d3d3;" x="325.761533" xlink:href="#mef0d8e2a90" y="466.881569"/>
     <use style="fill:#d3d3d3;stroke:#d3d3d3;" x="377.460075" xlink:href="#mef0d8e2a90" y="462.510629"/>
     <use style="fill:#d3d3d3;stroke:#d3d3d3;" x="429.158617" xlink:href="#mef0d8e2a90" y="417.041844"/>
     <use style="fill:#d3d3d3;stroke:#d3d3d3;" x="480.857158" xlink:href="#mef0d8e2a90" y="379.615498"/>
     <use style="fill:#d3d3d3;stroke:#d3d3d3;" x="532.5557" xlink:href="#mef0d8e2a90" y="187.176425"/>
     <use style="fill:#d3d3d3;stroke:#d3d3d3;" x="584.254242" xlink:href="#mef0d8e2a90" y="119.928216"/>
    </g>
   </g>
   <g id="line2d_20">
    <g clip-path="url(#pb470f8e743)">
     <use style="fill:#d3d3d3;stroke:#d3d3d3;" x="118.967367" xlink:href="#mef0d8e2a90" y="472.213956"/>
     <use style="fill:#d3d3d3;stroke:#d3d3d3;" x="170.665908" xlink:href="#mef0d8e2a90" y="471.557696"/>
     <use style="fill:#d3d3d3;stroke:#d3d3d3;" x="222.36445" xlink:href="#mef0d8e2a90" y="472.449558"/>
     <use style="fill:#d3d3d3;stroke:#d3d3d3;" x="274.062992" xlink:href="#mef0d8e2a90" y="472.515517"/>
     <use style="fill:#d3d3d3;stroke:#d3d3d3;" x="325.761533" xlink:href="#mef0d8e2a90" y="475.783917"/>
     <use style="fill:#d3d3d3;stroke:#d3d3d3;" x="377.460075" xlink:href="#mef0d8e2a90" y="482.544636"/>
     <use style="fill:#d3d3d3;stroke:#d3d3d3;" x="429.158617" xlink:href="#mef0d8e2a90" y="487.418441"/>
     <use style="fill:#d3d3d3;stroke:#d3d3d3;" x="480.857158" xlink:href="#mef0d8e2a90" y="381.871944"/>
     <use style="fill:#d3d3d3;stroke:#d3d3d3;" x="532.5557" xlink:href="#mef0d8e2a90" y="269.792732"/>
     <use style="fill:#d3d3d3;stroke:#d3d3d3;" x="584.254242" xlink:href="#mef0d8e2a90" y="174.169152"/>
    </g>
   </g>
   <g id="line2d_21">
    <g clip-path="url(#pb470f8e743)">
     <use style="fill:#d3d3d3;stroke:#d3d3d3;" x="118.967367" xlink:href="#mef0d8e2a90" y="468.133488"/>
     <use style="fill:#d3d3d3;stroke:#d3d3d3;" x="170.665908" xlink:href="#mef0d8e2a90" y="468.718403"/>
     <use style="fill:#d3d3d3;stroke:#d3d3d3;" x="222.36445" xlink:href="#mef0d8e2a90" y="467.517104"/>
     <use style="fill:#d3d3d3;stroke:#d3d3d3;" x="274.062992" xlink:href="#mef0d8e2a90" y="467.653528"/>
     <use style="fill:#d3d3d3;stroke:#d3d3d3;" x="325.761533" xlink:href="#mef0d8e2a90" y="456.250248"/>
     <use style="fill:#d3d3d3;stroke:#d3d3d3;" x="377.460075" xlink:href="#mef0d8e2a90" y="377.572819"/>
     <use style="fill:#d3d3d3;stroke:#d3d3d3;" x="429.158617" xlink:href="#mef0d8e2a90" y="239.505841"/>
     <use style="fill:#d3d3d3;stroke:#d3d3d3;" x="480.857158" xlink:href="#mef0d8e2a90" y="174.554253"/>
     <use style="fill:#d3d3d3;stroke:#d3d3d3;" x="532.5557" xlink:href="#mef0d8e2a90" y="158.882054"/>
     <use style="fill:#d3d3d3;stroke:#d3d3d3;" x="584.254242" xlink:href="#mef0d8e2a90" y="91.913651"/>
    </g>
   </g>
   <g id="line2d_22">
    <defs>
     <path d="M 3 0 
L -3 -0 
" id="m9dd27d530e" style="stroke:#000000;"/>
    </defs>
    <g clip-path="url(#pb470f8e743)">
     <use style="stroke:#000000;" x="118.967367" xlink:href="#m9dd27d530e" y="471.482387"/>
     <use style="stroke:#000000;" x="170.665908" xlink:href="#m9dd27d530e" y="472.261438"/>
     <use style="stroke:#000000;" x="222.36445" xlink:href="#m9dd27d530e" y="472.24301"/>
     <use style="stroke:#000000;" x="274.062992" xlink:href="#m9dd27d530e" y="471.971406"/>
     <use style="stroke:#000000;" x="325.761533" xlink:href="#m9dd27d530e" y="472.193358"/>
     <use style="stroke:#000000;" x="377.460075" xlink:href="#m9dd27d530e" y="472.875244"/>
     <use style="stroke:#000000;" x="429.158617" xlink:href="#m9dd27d530e" y="474.908234"/>
     <use style="stroke:#000000;" x="480.857158" xlink:href="#m9dd27d530e" y="470.402026"/>
     <use style="stroke:#000000;" x="532.5557" xlink:href="#m9dd27d530e" y="345.191909"/>
     <use style="stroke:#000000;" x="584.254242" xlink:href="#m9dd27d530e" y="176.735235"/>
    </g>
   </g>
   <g id="line2d_23">
    <g clip-path="url(#pb470f8e743)">
     <use style="stroke:#000000;" x="118.967367" xlink:href="#m9dd27d530e" y="469.036089"/>
     <use style="stroke:#000000;" x="170.665908" xlink:href="#m9dd27d530e" y="468.123546"/>
     <use style="stroke:#000000;" x="222.36445" xlink:href="#m9dd27d530e" y="467.528493"/>
     <use style="stroke:#000000;" x="274.062992" xlink:href="#m9dd27d530e" y="467.420905"/>
     <use style="stroke:#000000;" x="325.761533" xlink:href="#m9dd27d530e" y="466.502735"/>
     <use style="stroke:#000000;" x="377.460075" xlink:href="#m9dd27d530e" y="458.480473"/>
     <use style="stroke:#000000;" x="429.158617" xlink:href="#m9dd27d530e" y="424.899025"/>
     <use style="stroke:#000000;" x="480.857158" xlink:href="#m9dd27d530e" y="361.411496"/>
     <use style="stroke:#000000;" x="532.5557" xlink:href="#m9dd27d530e" y="205.154483"/>
     <use style="stroke:#000000;" x="584.254242" xlink:href="#m9dd27d530e" y="109.555581"/>
    </g>
   </g>
   <g id="line2d_24">
    <defs>
     <path d="M 3 0 
L -3 -0 
" id="mc06337c35c" style="stroke:#008000;"/>
    </defs>
    <g clip-path="url(#pb470f8e743)">
     <use style="fill:#008000;stroke:#008000;" x="118.967367" xlink:href="#mc06337c35c" y="471.937954"/>
     <use style="fill:#008000;stroke:#008000;" x="170.665908" xlink:href="#mc06337c35c" y="472.114323"/>
     <use style="fill:#008000;stroke:#008000;" x="222.36445" xlink:href="#mc06337c35c" y="472.073217"/>
     <use style="fill:#008000;stroke:#008000;" x="274.062992" xlink:href="#mc06337c35c" y="472.129927"/>
     <use style="fill:#008000;stroke:#008000;" x="325.761533" xlink:href="#mc06337c35c" y="478.215955"/>
     <use style="fill:#008000;stroke:#008000;" x="377.460075" xlink:href="#mc06337c35c" y="477.184366"/>
     <use style="fill:#008000;stroke:#008000;" x="429.158617" xlink:href="#mc06337c35c" y="466.922628"/>
     <use style="fill:#008000;stroke:#008000;" x="480.857158" xlink:href="#mc06337c35c" y="384.4411"/>
     <use style="fill:#008000;stroke:#008000;" x="532.5557" xlink:href="#mc06337c35c" y="269.645907"/>
     <use style="fill:#008000;stroke:#008000;" x="584.254242" xlink:href="#mc06337c35c" y="174.145269"/>
    </g>
   </g>
   <g id="line2d_25">
    <g clip-path="url(#pb470f8e743)">
     <use style="fill:#008000;stroke:#008000;" x="118.967367" xlink:href="#mc06337c35c" y="468.428197"/>
     <use style="fill:#008000;stroke:#008000;" x="170.665908" xlink:href="#mc06337c35c" y="467.668936"/>
     <use style="fill:#008000;stroke:#008000;" x="222.36445" xlink:href="#mc06337c35c" y="468.174718"/>
     <use style="fill:#008000;stroke:#008000;" x="274.062992" xlink:href="#mc06337c35c" y="467.42938"/>
     <use style="fill:#008000;stroke:#008000;" x="325.761533" xlink:href="#mc06337c35c" y="450.614463"/>
     <use style="fill:#008000;stroke:#008000;" x="377.460075" xlink:href="#mc06337c35c" y="377.167901"/>
     <use style="fill:#008000;stroke:#008000;" x="429.158617" xlink:href="#mc06337c35c" y="272.952098"/>
     <use style="fill:#008000;stroke:#008000;" x="480.857158" xlink:href="#mc06337c35c" y="187.100906"/>
     <use style="fill:#008000;stroke:#008000;" x="532.5557" xlink:href="#mc06337c35c" y="158.820678"/>
     <use style="fill:#008000;stroke:#008000;" x="584.254242" xlink:href="#mc06337c35c" y="87.952515"/>
    </g>
   </g>
   <g id="line2d_26">
    <path clip-path="url(#pb470f8e743)" d="M 118.967367 470.428587 
L 170.665908 470.2835 
L 222.36445 469.755654 
L 274.062992 469.931411 
L 325.761533 469.215061 
L 377.460075 463.843642 
L 429.158617 451.160077 
L 480.857158 408.396927 
L 532.5557 273.87544 
L 584.254242 139.108986 
" style="fill:none;stroke:#ff0000;stroke-dasharray:5.55,2.4;stroke-dashoffset:0;stroke-width:1.5;"/>
    <defs>
     <path d="M 0 3 
C 0.795609 3 1.55874 2.683901 2.12132 2.12132 
C 2.683901 1.55874 3 0.795609 3 0 
C 3 -0.795609 2.683901 -1.55874 2.12132 -2.12132 
C 1.55874 -2.683901 0.795609 -3 0 -3 
C -0.795609 -3 -1.55874 -2.683901 -2.12132 -2.12132 
C -2.683901 -1.55874 -3 -0.795609 -3 0 
C -3 0.795609 -2.683901 1.55874 -2.12132 2.12132 
C -1.55874 2.683901 -0.795609 3 0 3 
z
" id="mb54898eb0e" style="stroke:#000000;"/>
    </defs>
    <g clip-path="url(#pb470f8e743)">
     <use style="fill:#ff0000;stroke:#000000;" x="118.967367" xlink:href="#mb54898eb0e" y="470.428587"/>
     <use style="fill:#ff0000;stroke:#000000;" x="170.665908" xlink:href="#mb54898eb0e" y="470.2835"/>
     <use style="fill:#ff0000;stroke:#000000;" x="222.36445" xlink:href="#mb54898eb0e" y="469.755654"/>
     <use style="fill:#ff0000;stroke:#000000;" x="274.062992" xlink:href="#mb54898eb0e" y="469.931411"/>
     <use style="fill:#ff0000;stroke:#000000;" x="325.761533" xlink:href="#mb54898eb0e" y="469.215061"/>
     <use style="fill:#ff0000;stroke:#000000;" x="377.460075" xlink:href="#mb54898eb0e" y="463.843642"/>
     <use style="fill:#ff0000;stroke:#000000;" x="429.158617" xlink:href="#mb54898eb0e" y="451.160077"/>
     <use style="fill:#ff0000;stroke:#000000;" x="480.857158" xlink:href="#mb54898eb0e" y="408.396927"/>
     <use style="fill:#ff0000;stroke:#000000;" x="532.5557" xlink:href="#mb54898eb0e" y="273.87544"/>
     <use style="fill:#ff0000;stroke:#000000;" x="584.254242" xlink:href="#mb54898eb0e" y="139.108986"/>
    </g>
   </g>
   <g id="line2d_27">
    <path clip-path="url(#pb470f8e743)" d="M 118.967367 470.192429 
L 170.665908 469.645209 
L 222.36445 470.264604 
L 274.062992 469.474785 
L 325.761533 462.813335 
L 377.460075 424.293539 
L 429.158617 376.412585 
L 480.857158 293.328907 
L 532.5557 214.129192 
L 584.254242 129.056383 
" style="fill:none;stroke:#0000ff;stroke-dasharray:5.55,2.4;stroke-dashoffset:0;stroke-width:1.5;"/>
    <defs>
     <path d="M 0 3 
C 0.795609 3 1.55874 2.683901 2.12132 2.12132 
C 2.683901 1.55874 3 0.795609 3 0 
C 3 -0.795609 2.683901 -1.55874 2.12132 -2.12132 
C 1.55874 -2.683901 0.795609 -3 0 -3 
C -0.795609 -3 -1.55874 -2.683901 -2.12132 -2.12132 
C -2.683901 -1.55874 -3 -0.795609 -3 0 
C -3 0.795609 -2.683901 1.55874 -2.12132 2.12132 
C -1.55874 2.683901 -0.795609 3 0 3 
z
" id="ma9aa024be4" style="stroke:#000000;"/>
    </defs>
    <g clip-path="url(#pb470f8e743)">
     <use style="fill:#0000ff;stroke:#000000;" x="118.967367" xlink:href="#ma9aa024be4" y="470.192429"/>
     <use style="fill:#0000ff;stroke:#000000;" x="170.665908" xlink:href="#ma9aa024be4" y="469.645209"/>
     <use style="fill:#0000ff;stroke:#000000;" x="222.36445" xlink:href="#ma9aa024be4" y="470.264604"/>
     <use style="fill:#0000ff;stroke:#000000;" x="274.062992" xlink:href="#ma9aa024be4" y="469.474785"/>
     <use style="fill:#0000ff;stroke:#000000;" x="325.761533" xlink:href="#ma9aa024be4" y="462.813335"/>
     <use style="fill:#0000ff;stroke:#000000;" x="377.460075" xlink:href="#ma9aa024be4" y="424.293539"/>
     <use style="fill:#0000ff;stroke:#000000;" x="429.158617" xlink:href="#ma9aa024be4" y="376.412585"/>
     <use style="fill:#0000ff;stroke:#000000;" x="480.857158" xlink:href="#ma9aa024be4" y="293.328907"/>
     <use style="fill:#0000ff;stroke:#000000;" x="532.5557" xlink:href="#ma9aa024be4" y="214.129192"/>
     <use style="fill:#0000ff;stroke:#000000;" x="584.254242" xlink:href="#ma9aa024be4" y="129.056383"/>
    </g>
   </g>
   <g id="line2d_28">
    <path clip-path="url(#pb470f8e743)" d="M 118.967367 470.089889 
L 170.665908 470.101485 
L 222.36445 470.015848 
L 274.062992 469.460901 
L 325.761533 469.481032 
L 377.460075 467.512074 
L 429.158617 448.647182 
L 480.857158 423.416595 
L 532.5557 276.470952 
L 584.254242 147.18183 
" style="fill:none;stroke:#ff0000;stroke-dasharray:5.55,2.4;stroke-dashoffset:0;stroke-width:1.5;"/>
    <g clip-path="url(#pb470f8e743)">
     <use style="fill:#ff0000;stroke:#000000;" x="118.967367" xlink:href="#mb54898eb0e" y="470.089889"/>
     <use style="fill:#ff0000;stroke:#000000;" x="170.665908" xlink:href="#mb54898eb0e" y="470.101485"/>
     <use style="fill:#ff0000;stroke:#000000;" x="222.36445" xlink:href="#mb54898eb0e" y="470.015848"/>
     <use style="fill:#ff0000;stroke:#000000;" x="274.062992" xlink:href="#mb54898eb0e" y="469.460901"/>
     <use style="fill:#ff0000;stroke:#000000;" x="325.761533" xlink:href="#mb54898eb0e" y="469.481032"/>
     <use style="fill:#ff0000;stroke:#000000;" x="377.460075" xlink:href="#mb54898eb0e" y="467.512074"/>
     <use style="fill:#ff0000;stroke:#000000;" x="429.158617" xlink:href="#mb54898eb0e" y="448.647182"/>
     <use style="fill:#ff0000;stroke:#000000;" x="480.857158" xlink:href="#mb54898eb0e" y="423.416595"/>
     <use style="fill:#ff0000;stroke:#000000;" x="532.5557" xlink:href="#mb54898eb0e" y="276.470952"/>
     <use style="fill:#ff0000;stroke:#000000;" x="584.254242" xlink:href="#mb54898eb0e" y="147.18183"/>
    </g>
   </g>
   <g id="line2d_29">
    <path clip-path="url(#pb470f8e743)" d="M 118.967367 470.173722 
L 170.665908 470.13805 
L 222.36445 469.983331 
L 274.062992 470.084522 
L 325.761533 466.017083 
L 377.460075 430.058727 
L 429.158617 363.462141 
L 480.857158 278.213099 
L 532.5557 214.337393 
L 584.254242 133.041402 
" style="fill:none;stroke:#0000ff;stroke-dasharray:5.55,2.4;stroke-dashoffset:0;stroke-width:1.5;"/>
    <g clip-path="url(#pb470f8e743)">
     <use style="fill:#0000ff;stroke:#000000;" x="118.967367" xlink:href="#ma9aa024be4" y="470.173722"/>
     <use style="fill:#0000ff;stroke:#000000;" x="170.665908" xlink:href="#ma9aa024be4" y="470.13805"/>
     <use style="fill:#0000ff;stroke:#000000;" x="222.36445" xlink:href="#ma9aa024be4" y="469.983331"/>
     <use style="fill:#0000ff;stroke:#000000;" x="274.062992" xlink:href="#ma9aa024be4" y="470.084522"/>
     <use style="fill:#0000ff;stroke:#000000;" x="325.761533" xlink:href="#ma9aa024be4" y="466.017083"/>
     <use style="fill:#0000ff;stroke:#000000;" x="377.460075" xlink:href="#ma9aa024be4" y="430.058727"/>
     <use style="fill:#0000ff;stroke:#000000;" x="429.158617" xlink:href="#ma9aa024be4" y="363.462141"/>
     <use style="fill:#0000ff;stroke:#000000;" x="480.857158" xlink:href="#ma9aa024be4" y="278.213099"/>
     <use style="fill:#0000ff;stroke:#000000;" x="532.5557" xlink:href="#ma9aa024be4" y="214.337393"/>
     <use style="fill:#0000ff;stroke:#000000;" x="584.254242" xlink:href="#ma9aa024be4" y="133.041402"/>
    </g>
   </g>
   <g id="line2d_30">
    <path clip-path="url(#pb470f8e743)" d="M 118.967367 470.259238 
L 170.665908 470.192492 
L 222.36445 469.885751 
L 274.062992 469.696156 
L 325.761533 469.348047 
L 377.460075 465.677858 
L 429.158617 449.90363 
L 480.857158 415.906761 
L 532.5557 275.173196 
L 584.254242 143.145408 
" style="fill:none;stroke:#000000;stroke-linecap:square;"/>
    <defs>
     <path d="M 0 2.5 
C 0.663008 2.5 1.29895 2.236584 1.767767 1.767767 
C 2.236584 1.29895 2.5 0.663008 2.5 0 
C 2.5 -0.663008 2.236584 -1.29895 1.767767 -1.767767 
C 1.29895 -2.236584 0.663008 -2.5 0 -2.5 
C -0.663008 -2.5 -1.29895 -2.236584 -1.767767 -1.767767 
C -2.236584 -1.29895 -2.5 -0.663008 -2.5 0 
C -2.5 0.663008 -2.236584 1.29895 -1.767767 1.767767 
C -1.29895 2.236584 -0.663008 2.5 0 2.5 
z
" id="md96118cc12" style="stroke:#000000;"/>
    </defs>
    <g clip-path="url(#pb470f8e743)">
     <use style="fill:#ffffff;stroke:#000000;" x="118.967367" xlink:href="#md96118cc12" y="470.259238"/>
     <use style="fill:#ffffff;stroke:#000000;" x="170.665908" xlink:href="#md96118cc12" y="470.192492"/>
     <use style="fill:#ffffff;stroke:#000000;" x="222.36445" xlink:href="#md96118cc12" y="469.885751"/>
     <use style="fill:#ffffff;stroke:#000000;" x="274.062992" xlink:href="#md96118cc12" y="469.696156"/>
     <use style="fill:#ffffff;stroke:#000000;" x="325.761533" xlink:href="#md96118cc12" y="469.348047"/>
     <use style="fill:#ffffff;stroke:#000000;" x="377.460075" xlink:href="#md96118cc12" y="465.677858"/>
     <use style="fill:#ffffff;stroke:#000000;" x="429.158617" xlink:href="#md96118cc12" y="449.90363"/>
     <use style="fill:#ffffff;stroke:#000000;" x="480.857158" xlink:href="#md96118cc12" y="415.906761"/>
     <use style="fill:#ffffff;stroke:#000000;" x="532.5557" xlink:href="#md96118cc12" y="275.173196"/>
     <use style="fill:#ffffff;stroke:#000000;" x="584.254242" xlink:href="#md96118cc12" y="143.145408"/>
    </g>
   </g>
   <g id="line2d_31">
    <path clip-path="url(#pb470f8e743)" d="M 118.967367 470.183076 
L 170.665908 469.891629 
L 222.36445 470.123967 
L 274.062992 469.779654 
L 325.761533 464.415209 
L 377.460075 427.176133 
L 429.158617 369.937363 
L 480.857158 285.771003 
L 532.5557 214.233292 
L 584.254242 131.048892 
" style="fill:none;stroke:#008000;stroke-linecap:square;"/>
    <g clip-path="url(#pb470f8e743)">
     <use style="fill:#ffffff;stroke:#000000;" x="118.967367" xlink:href="#md96118cc12" y="470.183076"/>
     <use style="fill:#ffffff;stroke:#000000;" x="170.665908" xlink:href="#md96118cc12" y="469.891629"/>
     <use style="fill:#ffffff;stroke:#000000;" x="222.36445" xlink:href="#md96118cc12" y="470.123967"/>
     <use style="fill:#ffffff;stroke:#000000;" x="274.062992" xlink:href="#md96118cc12" y="469.779654"/>
     <use style="fill:#ffffff;stroke:#000000;" x="325.761533" xlink:href="#md96118cc12" y="464.415209"/>
     <use style="fill:#ffffff;stroke:#000000;" x="377.460075" xlink:href="#md96118cc12" y="427.176133"/>
     <use style="fill:#ffffff;stroke:#000000;" x="429.158617" xlink:href="#md96118cc12" y="369.937363"/>
     <use style="fill:#ffffff;stroke:#000000;" x="480.857158" xlink:href="#md96118cc12" y="285.771003"/>
     <use style="fill:#ffffff;stroke:#000000;" x="532.5557" xlink:href="#md96118cc12" y="214.233292"/>
     <use style="fill:#ffffff;stroke:#000000;" x="584.254242" xlink:href="#md96118cc12" y="131.048892"/>
    </g>
   </g>
   <g id="patch_3">
    <path d="M 61.065 472.289798 
L 61.065 14.038594 
" style="fill:none;stroke:#000000;stroke-linecap:square;stroke-linejoin:miter;stroke-width:0.8;"/>
   </g>
   <g id="patch_4">
    <path d="M 67.268825 512.525306 
L 687.651325 512.525306 
" style="fill:none;stroke:#000000;stroke-linecap:square;stroke-linejoin:miter;stroke-width:0.8;"/>
   </g>
   <g id="legend_1">
    <g id="patch_5">
     <path d="M 74.268825 80.751094 
L 162.843825 80.751094 
Q 164.843825 80.751094 164.843825 78.751094 
L 164.843825 21.038594 
Q 164.843825 19.038594 162.843825 19.038594 
L 74.268825 19.038594 
Q 72.268825 19.038594 72.268825 21.038594 
L 72.268825 78.751094 
Q 72.268825 80.751094 74.268825 80.751094 
z
" style="fill:#e5e5e5;opacity:0.8;stroke:#cccccc;stroke-linejoin:miter;stroke-width:0.5;"/>
    </g>
    <g id="LineCollection_7">
     <path d="M 86.268825 32.137031 
L 86.268825 22.137031 
" style="fill:none;stroke:#d3d3d3;stroke-width:3;"/>
    </g>
    <g id="line2d_32">
     <g>
      <use style="fill:#d3d3d3;stroke:#d3d3d3;" x="86.268825" xlink:href="#mef0d8e2a90" y="32.137031"/>
     </g>
    </g>
    <g id="line2d_33">
     <g>
      <use style="fill:#d3d3d3;stroke:#d3d3d3;" x="86.268825" xlink:href="#mef0d8e2a90" y="22.137031"/>
     </g>
    </g>
    <g id="line2d_34">
     <path d="M 76.268825 27.137031 
L 96.268825 27.137031 
" style="fill:none;stroke:#ff0000;stroke-dasharray:5.55,2.4;stroke-dashoffset:0;stroke-width:1.5;"/>
    </g>
    <g id="line2d_35">
     <g>
      <use style="fill:#ff0000;stroke:#000000;" x="86.268825" xlink:href="#mb54898eb0e" y="27.137031"/>
     </g>
    </g>
    <g id="text_16">
     <!-- Head -->
     <defs>
      <path d="M 9.8125 72.90625 
L 19.671875 72.90625 
L 19.671875 43.015625 
L 55.515625 43.015625 
L 55.515625 72.90625 
L 65.375 72.90625 
L 65.375 0 
L 55.515625 0 
L 55.515625 34.71875 
L 19.671875 34.71875 
L 19.671875 0 
L 9.8125 0 
z
" id="DejaVuSans-72"/>
     </defs>
     <g transform="translate(104.268825 30.637031)scale(0.1 -0.1)">
      <use xlink:href="#DejaVuSans-72"/>
      <use x="75.195312" xlink:href="#DejaVuSans-101"/>
      <use x="136.71875" xlink:href="#DejaVuSans-97"/>
      <use x="197.998047" xlink:href="#DejaVuSans-100"/>
     </g>
    </g>
    <g id="LineCollection_8">
     <path d="M 86.268825 46.815156 
L 86.268825 36.815156 
" style="fill:none;stroke:#d3d3d3;stroke-width:3;"/>
    </g>
    <g id="line2d_36">
     <g>
      <use style="fill:#d3d3d3;stroke:#d3d3d3;" x="86.268825" xlink:href="#mef0d8e2a90" y="46.815156"/>
     </g>
    </g>
    <g id="line2d_37">
     <g>
      <use style="fill:#d3d3d3;stroke:#d3d3d3;" x="86.268825" xlink:href="#mef0d8e2a90" y="36.815156"/>
     </g>
    </g>
    <g id="line2d_38">
     <path d="M 76.268825 41.815156 
L 96.268825 41.815156 
" style="fill:none;stroke:#0000ff;stroke-dasharray:5.55,2.4;stroke-dashoffset:0;stroke-width:1.5;"/>
    </g>
    <g id="line2d_39">
     <g>
      <use style="fill:#0000ff;stroke:#000000;" x="86.268825" xlink:href="#ma9aa024be4" y="41.815156"/>
     </g>
    </g>
    <g id="text_17">
     <!-- Tail -->
     <defs>
      <path d="M -0.296875 72.90625 
L 61.375 72.90625 
L 61.375 64.59375 
L 35.5 64.59375 
L 35.5 0 
L 25.59375 0 
L 25.59375 64.59375 
L -0.296875 64.59375 
z
" id="DejaVuSans-84"/>
      <path d="M 9.421875 75.984375 
L 18.40625 75.984375 
L 18.40625 0 
L 9.421875 0 
z
" id="DejaVuSans-108"/>
     </defs>
     <g transform="translate(104.268825 45.315156)scale(0.1 -0.1)">
      <use xlink:href="#DejaVuSans-84"/>
      <use x="60.833984" xlink:href="#DejaVuSans-97"/>
      <use x="122.113281" xlink:href="#DejaVuSans-105"/>
      <use x="149.896484" xlink:href="#DejaVuSans-108"/>
     </g>
    </g>
    <g id="LineCollection_9">
     <path d="M 86.268825 61.493281 
L 86.268825 51.493281 
" style="fill:none;stroke:#000000;"/>
    </g>
    <g id="line2d_40">
     <g>
      <use style="stroke:#000000;" x="86.268825" xlink:href="#m9dd27d530e" y="61.493281"/>
     </g>
    </g>
    <g id="line2d_41">
     <g>
      <use style="stroke:#000000;" x="86.268825" xlink:href="#m9dd27d530e" y="51.493281"/>
     </g>
    </g>
    <g id="line2d_42">
     <path d="M 76.268825 56.493281 
L 96.268825 56.493281 
" style="fill:none;stroke:#000000;stroke-linecap:square;"/>
    </g>
    <g id="line2d_43">
     <g>
      <use style="fill:#ffffff;stroke:#000000;" x="86.268825" xlink:href="#md96118cc12" y="56.493281"/>
     </g>
    </g>
    <g id="text_18">
     <!-- Head Mean -->
     <defs>
      <path d="M 54.890625 33.015625 
L 54.890625 0 
L 45.90625 0 
L 45.90625 32.71875 
Q 45.90625 40.484375 42.875 44.328125 
Q 39.84375 48.1875 33.796875 48.1875 
Q 26.515625 48.1875 22.3125 43.546875 
Q 18.109375 38.921875 18.109375 30.90625 
L 18.109375 0 
L 9.078125 0 
L 9.078125 54.6875 
L 18.109375 54.6875 
L 18.109375 46.1875 
Q 21.34375 51.125 25.703125 53.5625 
Q 30.078125 56 35.796875 56 
Q 45.21875 56 50.046875 50.171875 
Q 54.890625 44.34375 54.890625 33.015625 
z
" id="DejaVuSans-110"/>
     </defs>
     <g transform="translate(104.268825 59.993281)scale(0.1 -0.1)">
      <use xlink:href="#DejaVuSans-72"/>
      <use x="75.195312" xlink:href="#DejaVuSans-101"/>
      <use x="136.71875" xlink:href="#DejaVuSans-97"/>
      <use x="197.998047" xlink:href="#DejaVuSans-100"/>
      <use x="261.474609" xlink:href="#DejaVuSans-32"/>
      <use x="293.261719" xlink:href="#DejaVuSans-77"/>
      <use x="379.541016" xlink:href="#DejaVuSans-101"/>
      <use x="441.064453" xlink:href="#DejaVuSans-97"/>
      <use x="502.34375" xlink:href="#DejaVuSans-110"/>
     </g>
    </g>
    <g id="LineCollection_10">
     <path d="M 86.268825 76.171406 
L 86.268825 66.171406 
" style="fill:none;stroke:#008000;"/>
    </g>
    <g id="line2d_44">
     <g>
      <use style="fill:#008000;stroke:#008000;" x="86.268825" xlink:href="#mc06337c35c" y="76.171406"/>
     </g>
    </g>
    <g id="line2d_45">
     <g>
      <use style="fill:#008000;stroke:#008000;" x="86.268825" xlink:href="#mc06337c35c" y="66.171406"/>
     </g>
    </g>
    <g id="line2d_46">
     <path d="M 76.268825 71.171406 
L 96.268825 71.171406 
" style="fill:none;stroke:#008000;stroke-linecap:square;"/>
    </g>
    <g id="line2d_47">
     <g>
      <use style="fill:#ffffff;stroke:#000000;" x="86.268825" xlink:href="#md96118cc12" y="71.171406"/>
     </g>
    </g>
    <g id="text_19">
     <!-- Tail Mean -->
     <g transform="translate(104.268825 74.671406)scale(0.1 -0.1)">
      <use xlink:href="#DejaVuSans-84"/>
      <use x="60.833984" xlink:href="#DejaVuSans-97"/>
      <use x="122.113281" xlink:href="#DejaVuSans-105"/>
      <use x="149.896484" xlink:href="#DejaVuSans-108"/>
      <use x="177.679688" xlink:href="#DejaVuSans-32"/>
      <use x="209.466797" xlink:href="#DejaVuSans-77"/>
      <use x="295.746094" xlink:href="#DejaVuSans-101"/>
      <use x="357.269531" xlink:href="#DejaVuSans-97"/>
      <use x="418.548828" xlink:href="#DejaVuSans-110"/>
     </g>
    </g>
   </g>
  </g>
 </g>
 <defs>
  <clipPath id="pb470f8e743">
   <rect height="493.5512" width="620.3825" x="67.268825" y="14.038594"/>
  </clipPath>
 </defs>
</svg>
