<?xml version="1.0" encoding="utf-8" standalone="no"?>
<!DOCTYPE svg PUBLIC "-//W3C//DTD SVG 1.1//EN"
  "http://www.w3.org/Graphics/SVG/1.1/DTD/svg11.dtd">
<!-- Created with matplotlib (https://matplotlib.org/) -->
<svg height="567.256087pt" version="1.1" viewBox="0 0 708.911637 567.256087" width="708.911637pt" xmlns="http://www.w3.org/2000/svg" xmlns:xlink="http://www.w3.org/1999/xlink">
 <defs>
  <style type="text/css">
*{stroke-linecap:butt;stroke-linejoin:round;}
  </style>
 </defs>
 <g id="figure_1">
  <g id="patch_1">
   <path d="M -0 567.256087 
L 708.911637 567.256087 
L 708.911637 0 
L -0 0 
z
" style="fill:#ffffff;"/>
  </g>
  <g id="axes_1">
   <g id="patch_2">
    <path d="M 67.266325 506.869325 
L 687.398825 506.869325 
L 687.398825 22.318125 
L 67.266325 22.318125 
z
" style="fill:#ffffff;"/>
   </g>
   <g id="matplotlib.axis_1">
    <g id="xtick_1">
     <g id="line2d_1">
      <defs>
       <path d="M 0 0 
L 0 6 
" id="mbed5102aec" style="stroke:#000000;"/>
      </defs>
      <g>
       <use style="stroke:#000000;" x="67.266325" xlink:href="#mbed5102aec" y="511.714837"/>
      </g>
     </g>
     <g id="text_1">
      <!-- 0.0 -->
      <defs>
       <path d="M 31.78125 66.40625 
Q 24.171875 66.40625 20.328125 58.90625 
Q 16.5 51.421875 16.5 36.375 
Q 16.5 21.390625 20.328125 13.890625 
Q 24.171875 6.390625 31.78125 6.390625 
Q 39.453125 6.390625 43.28125 13.890625 
Q 47.125 21.390625 47.125 36.375 
Q 47.125 51.421875 43.28125 58.90625 
Q 39.453125 66.40625 31.78125 66.40625 
z
M 31.78125 74.21875 
Q 44.046875 74.21875 50.515625 64.515625 
Q 56.984375 54.828125 56.984375 36.375 
Q 56.984375 17.96875 50.515625 8.265625 
Q 44.046875 -1.421875 31.78125 -1.421875 
Q 19.53125 -1.421875 13.0625 8.265625 
Q 6.59375 17.96875 6.59375 36.375 
Q 6.59375 54.828125 13.0625 64.515625 
Q 19.53125 74.21875 31.78125 74.21875 
z
" id="DejaVuSans-48"/>
       <path d="M 10.6875 12.40625 
L 21 12.40625 
L 21 0 
L 10.6875 0 
z
" id="DejaVuSans-46"/>
      </defs>
      <g transform="translate(52.953513 534.892024)scale(0.18 -0.18)">
       <use xlink:href="#DejaVuSans-48"/>
       <use x="63.623047" xlink:href="#DejaVuSans-46"/>
       <use x="95.410156" xlink:href="#DejaVuSans-48"/>
      </g>
     </g>
    </g>
    <g id="xtick_2">
     <g id="line2d_2">
      <g>
       <use style="stroke:#000000;" x="170.621742" xlink:href="#mbed5102aec" y="511.714837"/>
      </g>
     </g>
     <g id="text_2">
      <!-- 0.2 -->
      <defs>
       <path d="M 19.1875 8.296875 
L 53.609375 8.296875 
L 53.609375 0 
L 7.328125 0 
L 7.328125 8.296875 
Q 12.9375 14.109375 22.625 23.890625 
Q 32.328125 33.6875 34.8125 36.53125 
Q 39.546875 41.84375 41.421875 45.53125 
Q 43.3125 49.21875 43.3125 52.78125 
Q 43.3125 58.59375 39.234375 62.25 
Q 35.15625 65.921875 28.609375 65.921875 
Q 23.96875 65.921875 18.8125 64.3125 
Q 13.671875 62.703125 7.8125 59.421875 
L 7.8125 69.390625 
Q 13.765625 71.78125 18.9375 73 
Q 24.125 74.21875 28.421875 74.21875 
Q 39.75 74.21875 46.484375 68.546875 
Q 53.21875 62.890625 53.21875 53.421875 
Q 53.21875 48.921875 51.53125 44.890625 
Q 49.859375 40.875 45.40625 35.40625 
Q 44.1875 33.984375 37.640625 27.21875 
Q 31.109375 20.453125 19.1875 8.296875 
z
" id="DejaVuSans-50"/>
      </defs>
      <g transform="translate(156.308929 534.892024)scale(0.18 -0.18)">
       <use xlink:href="#DejaVuSans-48"/>
       <use x="63.623047" xlink:href="#DejaVuSans-46"/>
       <use x="95.410156" xlink:href="#DejaVuSans-50"/>
      </g>
     </g>
    </g>
    <g id="xtick_3">
     <g id="line2d_3">
      <g>
       <use style="stroke:#000000;" x="273.977158" xlink:href="#mbed5102aec" y="511.714837"/>
      </g>
     </g>
     <g id="text_3">
      <!-- 0.4 -->
      <defs>
       <path d="M 37.796875 64.3125 
L 12.890625 25.390625 
L 37.796875 25.390625 
z
M 35.203125 72.90625 
L 47.609375 72.90625 
L 47.609375 25.390625 
L 58.015625 25.390625 
L 58.015625 17.1875 
L 47.609375 17.1875 
L 47.609375 0 
L 37.796875 0 
L 37.796875 17.1875 
L 4.890625 17.1875 
L 4.890625 26.703125 
z
" id="DejaVuSans-52"/>
      </defs>
      <g transform="translate(259.664346 534.892024)scale(0.18 -0.18)">
       <use xlink:href="#DejaVuSans-48"/>
       <use x="63.623047" xlink:href="#DejaVuSans-46"/>
       <use x="95.410156" xlink:href="#DejaVuSans-52"/>
      </g>
     </g>
    </g>
    <g id="xtick_4">
     <g id="line2d_4">
      <g>
       <use style="stroke:#000000;" x="377.332575" xlink:href="#mbed5102aec" y="511.714837"/>
      </g>
     </g>
     <g id="text_4">
      <!-- 0.6 -->
      <defs>
       <path d="M 33.015625 40.375 
Q 26.375 40.375 22.484375 35.828125 
Q 18.609375 31.296875 18.609375 23.390625 
Q 18.609375 15.53125 22.484375 10.953125 
Q 26.375 6.390625 33.015625 6.390625 
Q 39.65625 6.390625 43.53125 10.953125 
Q 47.40625 15.53125 47.40625 23.390625 
Q 47.40625 31.296875 43.53125 35.828125 
Q 39.65625 40.375 33.015625 40.375 
z
M 52.59375 71.296875 
L 52.59375 62.3125 
Q 48.875 64.0625 45.09375 64.984375 
Q 41.3125 65.921875 37.59375 65.921875 
Q 27.828125 65.921875 22.671875 59.328125 
Q 17.53125 52.734375 16.796875 39.40625 
Q 19.671875 43.65625 24.015625 45.921875 
Q 28.375 48.1875 33.59375 48.1875 
Q 44.578125 48.1875 50.953125 41.515625 
Q 57.328125 34.859375 57.328125 23.390625 
Q 57.328125 12.15625 50.6875 5.359375 
Q 44.046875 -1.421875 33.015625 -1.421875 
Q 20.359375 -1.421875 13.671875 8.265625 
Q 6.984375 17.96875 6.984375 36.375 
Q 6.984375 53.65625 15.1875 63.9375 
Q 23.390625 74.21875 37.203125 74.21875 
Q 40.921875 74.21875 44.703125 73.484375 
Q 48.484375 72.75 52.59375 71.296875 
z
" id="DejaVuSans-54"/>
      </defs>
      <g transform="translate(363.019763 534.892024)scale(0.18 -0.18)">
       <use xlink:href="#DejaVuSans-48"/>
       <use x="63.623047" xlink:href="#DejaVuSans-46"/>
       <use x="95.410156" xlink:href="#DejaVuSans-54"/>
      </g>
     </g>
    </g>
    <g id="xtick_5">
     <g id="line2d_5">
      <g>
       <use style="stroke:#000000;" x="480.687992" xlink:href="#mbed5102aec" y="511.714837"/>
      </g>
     </g>
     <g id="text_5">
      <!-- 0.8 -->
      <defs>
       <path d="M 31.78125 34.625 
Q 24.75 34.625 20.71875 30.859375 
Q 16.703125 27.09375 16.703125 20.515625 
Q 16.703125 13.921875 20.71875 10.15625 
Q 24.75 6.390625 31.78125 6.390625 
Q 38.8125 6.390625 42.859375 10.171875 
Q 46.921875 13.96875 46.921875 20.515625 
Q 46.921875 27.09375 42.890625 30.859375 
Q 38.875 34.625 31.78125 34.625 
z
M 21.921875 38.8125 
Q 15.578125 40.375 12.03125 44.71875 
Q 8.5 49.078125 8.5 55.328125 
Q 8.5 64.0625 14.71875 69.140625 
Q 20.953125 74.21875 31.78125 74.21875 
Q 42.671875 74.21875 48.875 69.140625 
Q 55.078125 64.0625 55.078125 55.328125 
Q 55.078125 49.078125 51.53125 44.71875 
Q 48 40.375 41.703125 38.8125 
Q 48.828125 37.15625 52.796875 32.3125 
Q 56.78125 27.484375 56.78125 20.515625 
Q 56.78125 9.90625 50.3125 4.234375 
Q 43.84375 -1.421875 31.78125 -1.421875 
Q 19.734375 -1.421875 13.25 4.234375 
Q 6.78125 9.90625 6.78125 20.515625 
Q 6.78125 27.484375 10.78125 32.3125 
Q 14.796875 37.15625 21.921875 38.8125 
z
M 18.3125 54.390625 
Q 18.3125 48.734375 21.84375 45.5625 
Q 25.390625 42.390625 31.78125 42.390625 
Q 38.140625 42.390625 41.71875 45.5625 
Q 45.3125 48.734375 45.3125 54.390625 
Q 45.3125 60.0625 41.71875 63.234375 
Q 38.140625 66.40625 31.78125 66.40625 
Q 25.390625 66.40625 21.84375 63.234375 
Q 18.3125 60.0625 18.3125 54.390625 
z
" id="DejaVuSans-56"/>
      </defs>
      <g transform="translate(466.375179 534.892024)scale(0.18 -0.18)">
       <use xlink:href="#DejaVuSans-48"/>
       <use x="63.623047" xlink:href="#DejaVuSans-46"/>
       <use x="95.410156" xlink:href="#DejaVuSans-56"/>
      </g>
     </g>
    </g>
    <g id="xtick_6">
     <g id="line2d_6">
      <g>
       <use style="stroke:#000000;" x="584.043408" xlink:href="#mbed5102aec" y="511.714837"/>
      </g>
     </g>
     <g id="text_6">
      <!-- 1.0 -->
      <defs>
       <path d="M 12.40625 8.296875 
L 28.515625 8.296875 
L 28.515625 63.921875 
L 10.984375 60.40625 
L 10.984375 69.390625 
L 28.421875 72.90625 
L 38.28125 72.90625 
L 38.28125 8.296875 
L 54.390625 8.296875 
L 54.390625 0 
L 12.40625 0 
z
" id="DejaVuSans-49"/>
      </defs>
      <g transform="translate(569.730596 534.892024)scale(0.18 -0.18)">
       <use xlink:href="#DejaVuSans-49"/>
       <use x="63.623047" xlink:href="#DejaVuSans-46"/>
       <use x="95.410156" xlink:href="#DejaVuSans-48"/>
      </g>
     </g>
    </g>
    <g id="xtick_7">
     <g id="line2d_7">
      <g>
       <use style="stroke:#000000;" x="687.398825" xlink:href="#mbed5102aec" y="511.714837"/>
      </g>
     </g>
     <g id="text_7">
      <!-- 1.2 -->
      <g transform="translate(673.086013 534.892024)scale(0.18 -0.18)">
       <use xlink:href="#DejaVuSans-49"/>
       <use x="63.623047" xlink:href="#DejaVuSans-46"/>
       <use x="95.410156" xlink:href="#DejaVuSans-50"/>
      </g>
     </g>
    </g>
    <g id="text_8">
     <!-- Motor ratio -->
     <defs>
      <path d="M 9.8125 72.90625 
L 24.515625 72.90625 
L 43.109375 23.296875 
L 61.8125 72.90625 
L 76.515625 72.90625 
L 76.515625 0 
L 66.890625 0 
L 66.890625 64.015625 
L 48.09375 14.015625 
L 38.1875 14.015625 
L 19.390625 64.015625 
L 19.390625 0 
L 9.8125 0 
z
" id="DejaVuSans-77"/>
      <path d="M 30.609375 48.390625 
Q 23.390625 48.390625 19.1875 42.75 
Q 14.984375 37.109375 14.984375 27.296875 
Q 14.984375 17.484375 19.15625 11.84375 
Q 23.34375 6.203125 30.609375 6.203125 
Q 37.796875 6.203125 41.984375 11.859375 
Q 46.1875 17.53125 46.1875 27.296875 
Q 46.1875 37.015625 41.984375 42.703125 
Q 37.796875 48.390625 30.609375 48.390625 
z
M 30.609375 56 
Q 42.328125 56 49.015625 48.375 
Q 55.71875 40.765625 55.71875 27.296875 
Q 55.71875 13.875 49.015625 6.21875 
Q 42.328125 -1.421875 30.609375 -1.421875 
Q 18.84375 -1.421875 12.171875 6.21875 
Q 5.515625 13.875 5.515625 27.296875 
Q 5.515625 40.765625 12.171875 48.375 
Q 18.84375 56 30.609375 56 
z
" id="DejaVuSans-111"/>
      <path d="M 18.3125 70.21875 
L 18.3125 54.6875 
L 36.8125 54.6875 
L 36.8125 47.703125 
L 18.3125 47.703125 
L 18.3125 18.015625 
Q 18.3125 11.328125 20.140625 9.421875 
Q 21.96875 7.515625 27.59375 7.515625 
L 36.8125 7.515625 
L 36.8125 0 
L 27.59375 0 
Q 17.1875 0 13.234375 3.875 
Q 9.28125 7.765625 9.28125 18.015625 
L 9.28125 47.703125 
L 2.6875 47.703125 
L 2.6875 54.6875 
L 9.28125 54.6875 
L 9.28125 70.21875 
z
" id="DejaVuSans-116"/>
      <path d="M 41.109375 46.296875 
Q 39.59375 47.171875 37.8125 47.578125 
Q 36.03125 48 33.890625 48 
Q 26.265625 48 22.1875 43.046875 
Q 18.109375 38.09375 18.109375 28.8125 
L 18.109375 0 
L 9.078125 0 
L 9.078125 54.6875 
L 18.109375 54.6875 
L 18.109375 46.1875 
Q 20.953125 51.171875 25.484375 53.578125 
Q 30.03125 56 36.53125 56 
Q 37.453125 56 38.578125 55.875 
Q 39.703125 55.765625 41.0625 55.515625 
z
" id="DejaVuSans-114"/>
      <path id="DejaVuSans-32"/>
      <path d="M 34.28125 27.484375 
Q 23.390625 27.484375 19.1875 25 
Q 14.984375 22.515625 14.984375 16.5 
Q 14.984375 11.71875 18.140625 8.90625 
Q 21.296875 6.109375 26.703125 6.109375 
Q 34.1875 6.109375 38.703125 11.40625 
Q 43.21875 16.703125 43.21875 25.484375 
L 43.21875 27.484375 
z
M 52.203125 31.203125 
L 52.203125 0 
L 43.21875 0 
L 43.21875 8.296875 
Q 40.140625 3.328125 35.546875 0.953125 
Q 30.953125 -1.421875 24.3125 -1.421875 
Q 15.921875 -1.421875 10.953125 3.296875 
Q 6 8.015625 6 15.921875 
Q 6 25.140625 12.171875 29.828125 
Q 18.359375 34.515625 30.609375 34.515625 
L 43.21875 34.515625 
L 43.21875 35.40625 
Q 43.21875 41.609375 39.140625 45 
Q 35.0625 48.390625 27.6875 48.390625 
Q 23 48.390625 18.546875 47.265625 
Q 14.109375 46.140625 10.015625 43.890625 
L 10.015625 52.203125 
Q 14.9375 54.109375 19.578125 55.046875 
Q 24.21875 56 28.609375 56 
Q 40.484375 56 46.34375 49.84375 
Q 52.203125 43.703125 52.203125 31.203125 
z
" id="DejaVuSans-97"/>
      <path d="M 9.421875 54.6875 
L 18.40625 54.6875 
L 18.40625 0 
L 9.421875 0 
z
M 9.421875 75.984375 
L 18.40625 75.984375 
L 18.40625 64.59375 
L 9.421875 64.59375 
z
" id="DejaVuSans-105"/>
     </defs>
     <g transform="translate(327.71445 556.31265)scale(0.18 -0.18)">
      <use xlink:href="#DejaVuSans-77"/>
      <use x="86.279297" xlink:href="#DejaVuSans-111"/>
      <use x="147.460938" xlink:href="#DejaVuSans-116"/>
      <use x="186.669922" xlink:href="#DejaVuSans-111"/>
      <use x="247.851562" xlink:href="#DejaVuSans-114"/>
      <use x="288.964844" xlink:href="#DejaVuSans-32"/>
      <use x="320.751953" xlink:href="#DejaVuSans-114"/>
      <use x="361.865234" xlink:href="#DejaVuSans-97"/>
      <use x="423.144531" xlink:href="#DejaVuSans-116"/>
      <use x="462.353516" xlink:href="#DejaVuSans-105"/>
      <use x="490.136719" xlink:href="#DejaVuSans-111"/>
     </g>
    </g>
   </g>
   <g id="matplotlib.axis_2">
    <g id="ytick_1">
     <g id="line2d_8">
      <defs>
       <path d="M 0 0 
L -6 0 
" id="ma303d2edf0" style="stroke:#000000;"/>
      </defs>
      <g>
       <use style="stroke:#000000;" x="61.065" xlink:href="#ma303d2edf0" y="491.894035"/>
      </g>
     </g>
     <g id="text_9">
      <!-- 0 -->
      <g transform="translate(40.1125 498.732628)scale(0.18 -0.18)">
       <use xlink:href="#DejaVuSans-48"/>
      </g>
     </g>
    </g>
    <g id="ytick_2">
     <g id="line2d_9">
      <g>
       <use style="stroke:#000000;" x="61.065" xlink:href="#ma303d2edf0" y="424.811762"/>
      </g>
     </g>
     <g id="text_10">
      <!-- 2 -->
      <g transform="translate(40.1125 431.650356)scale(0.18 -0.18)">
       <use xlink:href="#DejaVuSans-50"/>
      </g>
     </g>
    </g>
    <g id="ytick_3">
     <g id="line2d_10">
      <g>
       <use style="stroke:#000000;" x="61.065" xlink:href="#ma303d2edf0" y="357.729489"/>
      </g>
     </g>
     <g id="text_11">
      <!-- 4 -->
      <g transform="translate(40.1125 364.568083)scale(0.18 -0.18)">
       <use xlink:href="#DejaVuSans-52"/>
      </g>
     </g>
    </g>
    <g id="ytick_4">
     <g id="line2d_11">
      <g>
       <use style="stroke:#000000;" x="61.065" xlink:href="#ma303d2edf0" y="290.647216"/>
      </g>
     </g>
     <g id="text_12">
      <!-- 6 -->
      <g transform="translate(40.1125 297.48581)scale(0.18 -0.18)">
       <use xlink:href="#DejaVuSans-54"/>
      </g>
     </g>
    </g>
    <g id="ytick_5">
     <g id="line2d_12">
      <g>
       <use style="stroke:#000000;" x="61.065" xlink:href="#ma303d2edf0" y="223.564943"/>
      </g>
     </g>
     <g id="text_13">
      <!-- 8 -->
      <g transform="translate(40.1125 230.403537)scale(0.18 -0.18)">
       <use xlink:href="#DejaVuSans-56"/>
      </g>
     </g>
    </g>
    <g id="ytick_6">
     <g id="line2d_13">
      <g>
       <use style="stroke:#000000;" x="61.065" xlink:href="#ma303d2edf0" y="156.482671"/>
      </g>
     </g>
     <g id="text_14">
      <!-- 10 -->
      <g transform="translate(28.66 163.321264)scale(0.18 -0.18)">
       <use xlink:href="#DejaVuSans-49"/>
       <use x="63.623047" xlink:href="#DejaVuSans-48"/>
      </g>
     </g>
    </g>
    <g id="ytick_7">
     <g id="line2d_14">
      <g>
       <use style="stroke:#000000;" x="61.065" xlink:href="#ma303d2edf0" y="89.400398"/>
      </g>
     </g>
     <g id="text_15">
      <!-- 12 -->
      <g transform="translate(28.66 96.238992)scale(0.18 -0.18)">
       <use xlink:href="#DejaVuSans-49"/>
       <use x="63.623047" xlink:href="#DejaVuSans-50"/>
      </g>
     </g>
    </g>
    <g id="ytick_8">
     <g id="line2d_15">
      <g>
       <use style="stroke:#000000;" x="61.065" xlink:href="#ma303d2edf0" y="22.318125"/>
      </g>
     </g>
     <g id="text_16">
      <!-- 14 -->
      <g transform="translate(28.66 29.156719)scale(0.18 -0.18)">
       <use xlink:href="#DejaVuSans-49"/>
       <use x="63.623047" xlink:href="#DejaVuSans-52"/>
      </g>
     </g>
    </g>
    <g id="text_17">
     <!-- Speed ($\mu m/s$) -->
     <defs>
      <path d="M 53.515625 70.515625 
L 53.515625 60.890625 
Q 47.90625 63.578125 42.921875 64.890625 
Q 37.9375 66.21875 33.296875 66.21875 
Q 25.25 66.21875 20.875 63.09375 
Q 16.5 59.96875 16.5 54.203125 
Q 16.5 49.359375 19.40625 46.890625 
Q 22.3125 44.4375 30.421875 42.921875 
L 36.375 41.703125 
Q 47.40625 39.59375 52.65625 34.296875 
Q 57.90625 29 57.90625 20.125 
Q 57.90625 9.515625 50.796875 4.046875 
Q 43.703125 -1.421875 29.984375 -1.421875 
Q 24.8125 -1.421875 18.96875 -0.25 
Q 13.140625 0.921875 6.890625 3.21875 
L 6.890625 13.375 
Q 12.890625 10.015625 18.65625 8.296875 
Q 24.421875 6.59375 29.984375 6.59375 
Q 38.421875 6.59375 43.015625 9.90625 
Q 47.609375 13.234375 47.609375 19.390625 
Q 47.609375 24.75 44.3125 27.78125 
Q 41.015625 30.8125 33.5 32.328125 
L 27.484375 33.5 
Q 16.453125 35.6875 11.515625 40.375 
Q 6.59375 45.0625 6.59375 53.421875 
Q 6.59375 63.09375 13.40625 68.65625 
Q 20.21875 74.21875 32.171875 74.21875 
Q 37.3125 74.21875 42.625 73.28125 
Q 47.953125 72.359375 53.515625 70.515625 
z
" id="DejaVuSans-83"/>
      <path d="M 18.109375 8.203125 
L 18.109375 -20.796875 
L 9.078125 -20.796875 
L 9.078125 54.6875 
L 18.109375 54.6875 
L 18.109375 46.390625 
Q 20.953125 51.265625 25.265625 53.625 
Q 29.59375 56 35.59375 56 
Q 45.5625 56 51.78125 48.09375 
Q 58.015625 40.1875 58.015625 27.296875 
Q 58.015625 14.40625 51.78125 6.484375 
Q 45.5625 -1.421875 35.59375 -1.421875 
Q 29.59375 -1.421875 25.265625 0.953125 
Q 20.953125 3.328125 18.109375 8.203125 
z
M 48.6875 27.296875 
Q 48.6875 37.203125 44.609375 42.84375 
Q 40.53125 48.484375 33.40625 48.484375 
Q 26.265625 48.484375 22.1875 42.84375 
Q 18.109375 37.203125 18.109375 27.296875 
Q 18.109375 17.390625 22.1875 11.75 
Q 26.265625 6.109375 33.40625 6.109375 
Q 40.53125 6.109375 44.609375 11.75 
Q 48.6875 17.390625 48.6875 27.296875 
z
" id="DejaVuSans-112"/>
      <path d="M 56.203125 29.59375 
L 56.203125 25.203125 
L 14.890625 25.203125 
Q 15.484375 15.921875 20.484375 11.0625 
Q 25.484375 6.203125 34.421875 6.203125 
Q 39.59375 6.203125 44.453125 7.46875 
Q 49.3125 8.734375 54.109375 11.28125 
L 54.109375 2.78125 
Q 49.265625 0.734375 44.1875 -0.34375 
Q 39.109375 -1.421875 33.890625 -1.421875 
Q 20.796875 -1.421875 13.15625 6.1875 
Q 5.515625 13.8125 5.515625 26.8125 
Q 5.515625 40.234375 12.765625 48.109375 
Q 20.015625 56 32.328125 56 
Q 43.359375 56 49.78125 48.890625 
Q 56.203125 41.796875 56.203125 29.59375 
z
M 47.21875 32.234375 
Q 47.125 39.59375 43.09375 43.984375 
Q 39.0625 48.390625 32.421875 48.390625 
Q 24.90625 48.390625 20.390625 44.140625 
Q 15.875 39.890625 15.1875 32.171875 
z
" id="DejaVuSans-101"/>
      <path d="M 45.40625 46.390625 
L 45.40625 75.984375 
L 54.390625 75.984375 
L 54.390625 0 
L 45.40625 0 
L 45.40625 8.203125 
Q 42.578125 3.328125 38.25 0.953125 
Q 33.9375 -1.421875 27.875 -1.421875 
Q 17.96875 -1.421875 11.734375 6.484375 
Q 5.515625 14.40625 5.515625 27.296875 
Q 5.515625 40.1875 11.734375 48.09375 
Q 17.96875 56 27.875 56 
Q 33.9375 56 38.25 53.625 
Q 42.578125 51.265625 45.40625 46.390625 
z
M 14.796875 27.296875 
Q 14.796875 17.390625 18.875 11.75 
Q 22.953125 6.109375 30.078125 6.109375 
Q 37.203125 6.109375 41.296875 11.75 
Q 45.40625 17.390625 45.40625 27.296875 
Q 45.40625 37.203125 41.296875 42.84375 
Q 37.203125 48.484375 30.078125 48.484375 
Q 22.953125 48.484375 18.875 42.84375 
Q 14.796875 37.203125 14.796875 27.296875 
z
" id="DejaVuSans-100"/>
      <path d="M 31 75.875 
Q 24.46875 64.65625 21.28125 53.65625 
Q 18.109375 42.671875 18.109375 31.390625 
Q 18.109375 20.125 21.3125 9.0625 
Q 24.515625 -2 31 -13.1875 
L 23.1875 -13.1875 
Q 15.875 -1.703125 12.234375 9.375 
Q 8.59375 20.453125 8.59375 31.390625 
Q 8.59375 42.28125 12.203125 53.3125 
Q 15.828125 64.359375 23.1875 75.875 
z
" id="DejaVuSans-40"/>
      <path d="M -1.3125 -20.796875 
L 13.375 54.6875 
L 22.40625 54.6875 
L 15.765625 20.65625 
Q 15.578125 19.625 15.421875 18.359375 
Q 15.28125 17.09375 15.28125 15.828125 
Q 15.28125 11.28125 18.140625 8.828125 
Q 21 6.390625 26.3125 6.390625 
Q 33.546875 6.390625 37.984375 10.484375 
Q 42.4375 14.59375 44 22.796875 
L 50.203125 54.6875 
L 59.1875 54.6875 
L 51.03125 12.640625 
Q 50.828125 11.71875 50.75 11.03125 
Q 50.6875 10.359375 50.6875 9.8125 
Q 50.6875 8.296875 51.296875 7.59375 
Q 51.90625 6.890625 53.21875 6.890625 
Q 53.71875 6.890625 54.5625 7.125 
Q 55.421875 7.375 56.984375 8.015625 
L 55.609375 0.78125 
Q 53.46875 -0.296875 51.515625 -0.859375 
Q 49.5625 -1.421875 47.703125 -1.421875 
Q 44.484375 -1.421875 42.65625 0.625 
Q 40.828125 2.6875 40.828125 6.296875 
Q 38.09375 2.390625 34.296875 0.484375 
Q 30.515625 -1.421875 25.390625 -1.421875 
Q 20.84375 -1.421875 17.453125 0.671875 
Q 14.0625 2.78125 12.984375 6.203125 
L 7.71875 -20.796875 
z
" id="DejaVuSans-Oblique-956"/>
      <path d="M 89.796875 33.015625 
L 83.40625 0 
L 74.421875 0 
L 80.71875 32.71875 
Q 81.109375 34.8125 81.296875 36.328125 
Q 81.5 37.84375 81.5 38.921875 
Q 81.5 43.3125 79.046875 45.75 
Q 76.609375 48.1875 72.21875 48.1875 
Q 65.671875 48.1875 60.546875 43.28125 
Q 55.421875 38.375 53.90625 30.515625 
L 47.90625 0 
L 38.921875 0 
L 45.3125 32.71875 
Q 45.703125 34.515625 45.890625 36.046875 
Q 46.09375 37.59375 46.09375 38.8125 
Q 46.09375 43.265625 43.65625 45.71875 
Q 41.21875 48.1875 36.921875 48.1875 
Q 30.28125 48.1875 25.140625 43.28125 
Q 20.015625 38.375 18.5 30.515625 
L 12.5 0 
L 3.515625 0 
L 14.203125 54.6875 
L 23.1875 54.6875 
L 21.484375 46.1875 
Q 25.140625 50.984375 30.046875 53.484375 
Q 34.96875 56 40.578125 56 
Q 46.53125 56 50.359375 52.875 
Q 54.203125 49.75 54.984375 44.1875 
Q 59.078125 49.953125 64.46875 52.96875 
Q 69.875 56 75.875 56 
Q 82.90625 56 86.734375 51.953125 
Q 90.578125 47.90625 90.578125 40.484375 
Q 90.578125 38.875 90.375 36.9375 
Q 90.1875 35.015625 89.796875 33.015625 
z
" id="DejaVuSans-Oblique-109"/>
      <path d="M 25.390625 72.90625 
L 33.6875 72.90625 
L 8.296875 -9.28125 
L 0 -9.28125 
z
" id="DejaVuSans-47"/>
      <path d="M 50 53.078125 
L 48.296875 44.578125 
Q 44.734375 46.53125 40.765625 47.5 
Q 36.8125 48.484375 32.625 48.484375 
Q 25.53125 48.484375 21.453125 46.0625 
Q 17.390625 43.65625 17.390625 39.5 
Q 17.390625 34.671875 26.859375 32.078125 
Q 27.59375 31.890625 27.9375 31.78125 
L 30.8125 30.90625 
Q 39.796875 28.421875 42.796875 25.6875 
Q 45.796875 22.953125 45.796875 18.21875 
Q 45.796875 9.515625 38.890625 4.046875 
Q 31.984375 -1.421875 20.796875 -1.421875 
Q 16.453125 -1.421875 11.671875 -0.578125 
Q 6.890625 0.25 1.125 2 
L 2.875 11.28125 
Q 7.8125 8.734375 12.59375 7.421875 
Q 17.390625 6.109375 21.78125 6.109375 
Q 28.375 6.109375 32.5 8.9375 
Q 36.625 11.765625 36.625 16.109375 
Q 36.625 20.796875 25.78125 23.6875 
L 24.859375 23.921875 
L 21.78125 24.703125 
Q 14.9375 26.515625 11.765625 29.46875 
Q 8.59375 32.421875 8.59375 37.015625 
Q 8.59375 45.75 15.15625 50.875 
Q 21.734375 56 33.015625 56 
Q 37.453125 56 41.671875 55.265625 
Q 45.90625 54.546875 50 53.078125 
z
" id="DejaVuSans-Oblique-115"/>
      <path d="M 8.015625 75.875 
L 15.828125 75.875 
Q 23.140625 64.359375 26.78125 53.3125 
Q 30.421875 42.28125 30.421875 31.390625 
Q 30.421875 20.453125 26.78125 9.375 
Q 23.140625 -1.703125 15.828125 -13.1875 
L 8.015625 -13.1875 
Q 14.5 -2 17.703125 9.0625 
Q 20.90625 20.125 20.90625 31.390625 
Q 20.90625 42.671875 17.703125 53.65625 
Q 14.5 64.65625 8.015625 75.875 
z
" id="DejaVuSans-41"/>
     </defs>
     <g transform="translate(20.88 324.983725)rotate(-90)scale(0.18 -0.18)">
      <use transform="translate(0 0.015625)" xlink:href="#DejaVuSans-83"/>
      <use transform="translate(63.476562 0.015625)" xlink:href="#DejaVuSans-112"/>
      <use transform="translate(126.953125 0.015625)" xlink:href="#DejaVuSans-101"/>
      <use transform="translate(188.476562 0.015625)" xlink:href="#DejaVuSans-101"/>
      <use transform="translate(250 0.015625)" xlink:href="#DejaVuSans-100"/>
      <use transform="translate(313.476562 0.015625)" xlink:href="#DejaVuSans-32"/>
      <use transform="translate(345.263672 0.015625)" xlink:href="#DejaVuSans-40"/>
      <use transform="translate(384.277344 0.015625)" xlink:href="#DejaVuSans-Oblique-956"/>
      <use transform="translate(447.900391 0.015625)" xlink:href="#DejaVuSans-Oblique-109"/>
      <use transform="translate(545.3125 0.015625)" xlink:href="#DejaVuSans-47"/>
      <use transform="translate(579.003906 0.015625)" xlink:href="#DejaVuSans-Oblique-115"/>
      <use transform="translate(631.103516 0.015625)" xlink:href="#DejaVuSans-41"/>
     </g>
    </g>
   </g>
   <g id="LineCollection_1">
    <path clip-path="url(#pb3d1d92eb6)" d="M 325.654867 491.558615 
L 325.654867 490.002364 
" style="fill:none;stroke:#000000;"/>
    <path clip-path="url(#pb3d1d92eb6)" d="M 377.332575 492.728834 
L 377.332575 487.736628 
" style="fill:none;stroke:#000000;"/>
    <path clip-path="url(#pb3d1d92eb6)" d="M 429.010283 491.583453 
L 429.010283 488.052351 
" style="fill:none;stroke:#000000;"/>
    <path clip-path="url(#pb3d1d92eb6)" d="M 480.687992 492.591257 
L 480.687992 486.323781 
" style="fill:none;stroke:#000000;"/>
    <path clip-path="url(#pb3d1d92eb6)" d="M 532.3657 484.398813 
L 532.3657 459.787451 
" style="fill:none;stroke:#000000;"/>
    <path clip-path="url(#pb3d1d92eb6)" d="M 584.043408 280.421896 
L 584.043408 239.652536 
" style="fill:none;stroke:#000000;"/>
   </g>
   <g id="LineCollection_2">
    <path clip-path="url(#pb3d1d92eb6)" d="M 325.654867 492.030073 
L 325.654867 488.484228 
" style="fill:none;stroke:#000000;"/>
    <path clip-path="url(#pb3d1d92eb6)" d="M 377.332575 492.512594 
L 377.332575 486.616932 
" style="fill:none;stroke:#000000;"/>
    <path clip-path="url(#pb3d1d92eb6)" d="M 429.010283 491.464474 
L 429.010283 487.852908 
" style="fill:none;stroke:#000000;"/>
    <path clip-path="url(#pb3d1d92eb6)" d="M 480.687992 492.792544 
L 480.687992 483.186014 
" style="fill:none;stroke:#000000;"/>
    <path clip-path="url(#pb3d1d92eb6)" d="M 532.3657 492.963322 
L 532.3657 420.60333 
" style="fill:none;stroke:#000000;"/>
    <path clip-path="url(#pb3d1d92eb6)" d="M 584.043408 269.131988 
L 584.043408 241.304891 
" style="fill:none;stroke:#000000;"/>
   </g>
   <g id="LineCollection_3">
    <path clip-path="url(#pb3d1d92eb6)" d="M 325.654867 491.116362 
L 325.654867 485.074356 
" style="fill:none;stroke:#000000;"/>
    <path clip-path="url(#pb3d1d92eb6)" d="M 377.332575 490.457265 
L 377.332575 486.635655 
" style="fill:none;stroke:#000000;"/>
    <path clip-path="url(#pb3d1d92eb6)" d="M 429.010283 489.666821 
L 429.010283 484.850986 
" style="fill:none;stroke:#000000;"/>
    <path clip-path="url(#pb3d1d92eb6)" d="M 480.687992 486.428061 
L 480.687992 477.035411 
" style="fill:none;stroke:#000000;"/>
    <path clip-path="url(#pb3d1d92eb6)" d="M 532.3657 487.72551 
L 532.3657 419.910562 
" style="fill:none;stroke:#000000;"/>
    <path clip-path="url(#pb3d1d92eb6)" d="M 584.043408 280.295715 
L 584.043408 248.325792 
" style="fill:none;stroke:#000000;"/>
   </g>
   <g id="LineCollection_4">
    <path clip-path="url(#pb3d1d92eb6)" d="M 325.654867 489.843437 
L 325.654867 475.064195 
" style="fill:none;stroke:#000000;"/>
    <path clip-path="url(#pb3d1d92eb6)" d="M 377.332575 484.007238 
L 377.332575 472.948412 
" style="fill:none;stroke:#000000;"/>
    <path clip-path="url(#pb3d1d92eb6)" d="M 429.010283 481.929847 
L 429.010283 467.660431 
" style="fill:none;stroke:#000000;"/>
    <path clip-path="url(#pb3d1d92eb6)" d="M 480.687992 475.487425 
L 480.687992 455.091845 
" style="fill:none;stroke:#000000;"/>
    <path clip-path="url(#pb3d1d92eb6)" d="M 532.3657 446.305204 
L 532.3657 368.238376 
" style="fill:none;stroke:#000000;"/>
    <path clip-path="url(#pb3d1d92eb6)" d="M 584.043408 276.987657 
L 584.043408 225.208143 
" style="fill:none;stroke:#000000;"/>
   </g>
   <g id="LineCollection_5">
    <path clip-path="url(#pb3d1d92eb6)" d="M 325.654867 476.258539 
L 325.654867 464.141447 
" style="fill:none;stroke:#000000;"/>
    <path clip-path="url(#pb3d1d92eb6)" d="M 377.332575 478.847968 
L 377.332575 462.721929 
" style="fill:none;stroke:#000000;"/>
    <path clip-path="url(#pb3d1d92eb6)" d="M 429.010283 470.49381 
L 429.010283 451.942174 
" style="fill:none;stroke:#000000;"/>
    <path clip-path="url(#pb3d1d92eb6)" d="M 480.687992 455.480734 
L 480.687992 414.204114 
" style="fill:none;stroke:#000000;"/>
    <path clip-path="url(#pb3d1d92eb6)" d="M 532.3657 426.536896 
L 532.3657 365.072028 
" style="fill:none;stroke:#000000;"/>
    <path clip-path="url(#pb3d1d92eb6)" d="M 584.043408 265.157563 
L 584.043408 214.843267 
" style="fill:none;stroke:#000000;"/>
   </g>
   <g id="line2d_16">
    <defs>
     <path d="M 3 0 
L -3 -0 
" id="mde0c20da58" style="stroke:#000000;"/>
    </defs>
    <g clip-path="url(#pb3d1d92eb6)">
     <use style="stroke:#000000;" x="325.654867" xlink:href="#mde0c20da58" y="491.558615"/>
     <use style="stroke:#000000;" x="377.332575" xlink:href="#mde0c20da58" y="492.728834"/>
     <use style="stroke:#000000;" x="429.010283" xlink:href="#mde0c20da58" y="491.583453"/>
     <use style="stroke:#000000;" x="480.687992" xlink:href="#mde0c20da58" y="492.591257"/>
     <use style="stroke:#000000;" x="532.3657" xlink:href="#mde0c20da58" y="484.398813"/>
     <use style="stroke:#000000;" x="584.043408" xlink:href="#mde0c20da58" y="280.421896"/>
    </g>
   </g>
   <g id="line2d_17">
    <g clip-path="url(#pb3d1d92eb6)">
     <use style="stroke:#000000;" x="325.654867" xlink:href="#mde0c20da58" y="490.002364"/>
     <use style="stroke:#000000;" x="377.332575" xlink:href="#mde0c20da58" y="487.736628"/>
     <use style="stroke:#000000;" x="429.010283" xlink:href="#mde0c20da58" y="488.052351"/>
     <use style="stroke:#000000;" x="480.687992" xlink:href="#mde0c20da58" y="486.323781"/>
     <use style="stroke:#000000;" x="532.3657" xlink:href="#mde0c20da58" y="459.787451"/>
     <use style="stroke:#000000;" x="584.043408" xlink:href="#mde0c20da58" y="239.652536"/>
    </g>
   </g>
   <g id="line2d_18">
    <g clip-path="url(#pb3d1d92eb6)">
     <use style="stroke:#000000;" x="325.654867" xlink:href="#mde0c20da58" y="492.030073"/>
     <use style="stroke:#000000;" x="377.332575" xlink:href="#mde0c20da58" y="492.512594"/>
     <use style="stroke:#000000;" x="429.010283" xlink:href="#mde0c20da58" y="491.464474"/>
     <use style="stroke:#000000;" x="480.687992" xlink:href="#mde0c20da58" y="492.792544"/>
     <use style="stroke:#000000;" x="532.3657" xlink:href="#mde0c20da58" y="492.963322"/>
     <use style="stroke:#000000;" x="584.043408" xlink:href="#mde0c20da58" y="269.131988"/>
    </g>
   </g>
   <g id="line2d_19">
    <g clip-path="url(#pb3d1d92eb6)">
     <use style="stroke:#000000;" x="325.654867" xlink:href="#mde0c20da58" y="488.484228"/>
     <use style="stroke:#000000;" x="377.332575" xlink:href="#mde0c20da58" y="486.616932"/>
     <use style="stroke:#000000;" x="429.010283" xlink:href="#mde0c20da58" y="487.852908"/>
     <use style="stroke:#000000;" x="480.687992" xlink:href="#mde0c20da58" y="483.186014"/>
     <use style="stroke:#000000;" x="532.3657" xlink:href="#mde0c20da58" y="420.60333"/>
     <use style="stroke:#000000;" x="584.043408" xlink:href="#mde0c20da58" y="241.304891"/>
    </g>
   </g>
   <g id="line2d_20">
    <g clip-path="url(#pb3d1d92eb6)">
     <use style="stroke:#000000;" x="325.654867" xlink:href="#mde0c20da58" y="491.116362"/>
     <use style="stroke:#000000;" x="377.332575" xlink:href="#mde0c20da58" y="490.457265"/>
     <use style="stroke:#000000;" x="429.010283" xlink:href="#mde0c20da58" y="489.666821"/>
     <use style="stroke:#000000;" x="480.687992" xlink:href="#mde0c20da58" y="486.428061"/>
     <use style="stroke:#000000;" x="532.3657" xlink:href="#mde0c20da58" y="487.72551"/>
     <use style="stroke:#000000;" x="584.043408" xlink:href="#mde0c20da58" y="280.295715"/>
    </g>
   </g>
   <g id="line2d_21">
    <g clip-path="url(#pb3d1d92eb6)">
     <use style="stroke:#000000;" x="325.654867" xlink:href="#mde0c20da58" y="485.074356"/>
     <use style="stroke:#000000;" x="377.332575" xlink:href="#mde0c20da58" y="486.635655"/>
     <use style="stroke:#000000;" x="429.010283" xlink:href="#mde0c20da58" y="484.850986"/>
     <use style="stroke:#000000;" x="480.687992" xlink:href="#mde0c20da58" y="477.035411"/>
     <use style="stroke:#000000;" x="532.3657" xlink:href="#mde0c20da58" y="419.910562"/>
     <use style="stroke:#000000;" x="584.043408" xlink:href="#mde0c20da58" y="248.325792"/>
    </g>
   </g>
   <g id="line2d_22">
    <g clip-path="url(#pb3d1d92eb6)">
     <use style="stroke:#000000;" x="325.654867" xlink:href="#mde0c20da58" y="489.843437"/>
     <use style="stroke:#000000;" x="377.332575" xlink:href="#mde0c20da58" y="484.007238"/>
     <use style="stroke:#000000;" x="429.010283" xlink:href="#mde0c20da58" y="481.929847"/>
     <use style="stroke:#000000;" x="480.687992" xlink:href="#mde0c20da58" y="475.487425"/>
     <use style="stroke:#000000;" x="532.3657" xlink:href="#mde0c20da58" y="446.305204"/>
     <use style="stroke:#000000;" x="584.043408" xlink:href="#mde0c20da58" y="276.987657"/>
    </g>
   </g>
   <g id="line2d_23">
    <g clip-path="url(#pb3d1d92eb6)">
     <use style="stroke:#000000;" x="325.654867" xlink:href="#mde0c20da58" y="475.064195"/>
     <use style="stroke:#000000;" x="377.332575" xlink:href="#mde0c20da58" y="472.948412"/>
     <use style="stroke:#000000;" x="429.010283" xlink:href="#mde0c20da58" y="467.660431"/>
     <use style="stroke:#000000;" x="480.687992" xlink:href="#mde0c20da58" y="455.091845"/>
     <use style="stroke:#000000;" x="532.3657" xlink:href="#mde0c20da58" y="368.238376"/>
     <use style="stroke:#000000;" x="584.043408" xlink:href="#mde0c20da58" y="225.208143"/>
    </g>
   </g>
   <g id="line2d_24">
    <g clip-path="url(#pb3d1d92eb6)">
     <use style="stroke:#000000;" x="325.654867" xlink:href="#mde0c20da58" y="476.258539"/>
     <use style="stroke:#000000;" x="377.332575" xlink:href="#mde0c20da58" y="478.847968"/>
     <use style="stroke:#000000;" x="429.010283" xlink:href="#mde0c20da58" y="470.49381"/>
     <use style="stroke:#000000;" x="480.687992" xlink:href="#mde0c20da58" y="455.480734"/>
     <use style="stroke:#000000;" x="532.3657" xlink:href="#mde0c20da58" y="426.536896"/>
     <use style="stroke:#000000;" x="584.043408" xlink:href="#mde0c20da58" y="265.157563"/>
    </g>
   </g>
   <g id="line2d_25">
    <g clip-path="url(#pb3d1d92eb6)">
     <use style="stroke:#000000;" x="325.654867" xlink:href="#mde0c20da58" y="464.141447"/>
     <use style="stroke:#000000;" x="377.332575" xlink:href="#mde0c20da58" y="462.721929"/>
     <use style="stroke:#000000;" x="429.010283" xlink:href="#mde0c20da58" y="451.942174"/>
     <use style="stroke:#000000;" x="480.687992" xlink:href="#mde0c20da58" y="414.204114"/>
     <use style="stroke:#000000;" x="532.3657" xlink:href="#mde0c20da58" y="365.072028"/>
     <use style="stroke:#000000;" x="584.043408" xlink:href="#mde0c20da58" y="214.843267"/>
    </g>
   </g>
   <g id="line2d_26">
    <path clip-path="url(#pb3d1d92eb6)" d="M 325.654867 490.780489 
L 377.332575 490.232731 
L 429.010283 489.817902 
L 480.687992 489.457519 
L 532.3657 472.093132 
L 584.043408 260.037216 
" style="fill:none;stroke:#000000;stroke-dasharray:7.4,3.2;stroke-dashoffset:0;stroke-width:2;"/>
    <defs>
     <path d="M 0 4 
C 1.060812 4 2.078319 3.578535 2.828427 2.828427 
C 3.578535 2.078319 4 1.060812 4 0 
C 4 -1.060812 3.578535 -2.078319 2.828427 -2.828427 
C 2.078319 -3.578535 1.060812 -4 0 -4 
C -1.060812 -4 -2.078319 -3.578535 -2.828427 -2.828427 
C -3.578535 -2.078319 -4 -1.060812 -4 0 
C -4 1.060812 -3.578535 2.078319 -2.828427 2.828427 
C -2.078319 3.578535 -1.060812 4 0 4 
z
" id="mbf778d2eaf" style="stroke:#000000;"/>
    </defs>
    <g clip-path="url(#pb3d1d92eb6)">
     <use style="fill-opacity:0;stroke:#000000;" x="325.654867" xlink:href="#mbf778d2eaf" y="490.780489"/>
     <use style="fill-opacity:0;stroke:#000000;" x="377.332575" xlink:href="#mbf778d2eaf" y="490.232731"/>
     <use style="fill-opacity:0;stroke:#000000;" x="429.010283" xlink:href="#mbf778d2eaf" y="489.817902"/>
     <use style="fill-opacity:0;stroke:#000000;" x="480.687992" xlink:href="#mbf778d2eaf" y="489.457519"/>
     <use style="fill-opacity:0;stroke:#000000;" x="532.3657" xlink:href="#mbf778d2eaf" y="472.093132"/>
     <use style="fill-opacity:0;stroke:#000000;" x="584.043408" xlink:href="#mbf778d2eaf" y="260.037216"/>
    </g>
   </g>
   <g id="line2d_27">
    <path clip-path="url(#pb3d1d92eb6)" d="M 325.654867 490.257151 
L 377.332575 489.564763 
L 429.010283 489.658691 
L 480.687992 487.989279 
L 532.3657 456.783326 
L 584.043408 255.21844 
" style="fill:none;stroke:#ff00ff;stroke-dasharray:7.4,3.2;stroke-dashoffset:0;stroke-width:2;"/>
    <g clip-path="url(#pb3d1d92eb6)">
     <use style="fill-opacity:0;stroke:#000000;" x="325.654867" xlink:href="#mbf778d2eaf" y="490.257151"/>
     <use style="fill-opacity:0;stroke:#000000;" x="377.332575" xlink:href="#mbf778d2eaf" y="489.564763"/>
     <use style="fill-opacity:0;stroke:#000000;" x="429.010283" xlink:href="#mbf778d2eaf" y="489.658691"/>
     <use style="fill-opacity:0;stroke:#000000;" x="480.687992" xlink:href="#mbf778d2eaf" y="487.989279"/>
     <use style="fill-opacity:0;stroke:#000000;" x="532.3657" xlink:href="#mbf778d2eaf" y="456.783326"/>
     <use style="fill-opacity:0;stroke:#000000;" x="584.043408" xlink:href="#mbf778d2eaf" y="255.21844"/>
    </g>
   </g>
   <g id="line2d_28">
    <path clip-path="url(#pb3d1d92eb6)" d="M 325.654867 488.095359 
L 377.332575 488.54646 
L 429.010283 487.258903 
L 480.687992 481.731736 
L 532.3657 453.818036 
L 584.043408 264.310754 
" style="fill:none;stroke:#ff0000;stroke-dasharray:7.4,3.2;stroke-dashoffset:0;stroke-width:2;"/>
    <g clip-path="url(#pb3d1d92eb6)">
     <use style="fill-opacity:0;stroke:#000000;" x="325.654867" xlink:href="#mbf778d2eaf" y="488.095359"/>
     <use style="fill-opacity:0;stroke:#000000;" x="377.332575" xlink:href="#mbf778d2eaf" y="488.54646"/>
     <use style="fill-opacity:0;stroke:#000000;" x="429.010283" xlink:href="#mbf778d2eaf" y="487.258903"/>
     <use style="fill-opacity:0;stroke:#000000;" x="480.687992" xlink:href="#mbf778d2eaf" y="481.731736"/>
     <use style="fill-opacity:0;stroke:#000000;" x="532.3657" xlink:href="#mbf778d2eaf" y="453.818036"/>
     <use style="fill-opacity:0;stroke:#000000;" x="584.043408" xlink:href="#mbf778d2eaf" y="264.310754"/>
    </g>
   </g>
   <g id="line2d_29">
    <path clip-path="url(#pb3d1d92eb6)" d="M 325.654867 482.453816 
L 377.332575 478.477825 
L 429.010283 474.795139 
L 480.687992 465.289635 
L 532.3657 407.27179 
L 584.043408 251.0979 
" style="fill:none;stroke:#008000;stroke-dasharray:7.4,3.2;stroke-dashoffset:0;stroke-width:2;"/>
    <g clip-path="url(#pb3d1d92eb6)">
     <use style="fill-opacity:0;stroke:#000000;" x="325.654867" xlink:href="#mbf778d2eaf" y="482.453816"/>
     <use style="fill-opacity:0;stroke:#000000;" x="377.332575" xlink:href="#mbf778d2eaf" y="478.477825"/>
     <use style="fill-opacity:0;stroke:#000000;" x="429.010283" xlink:href="#mbf778d2eaf" y="474.795139"/>
     <use style="fill-opacity:0;stroke:#000000;" x="480.687992" xlink:href="#mbf778d2eaf" y="465.289635"/>
     <use style="fill-opacity:0;stroke:#000000;" x="532.3657" xlink:href="#mbf778d2eaf" y="407.27179"/>
     <use style="fill-opacity:0;stroke:#000000;" x="584.043408" xlink:href="#mbf778d2eaf" y="251.0979"/>
    </g>
   </g>
   <g id="line2d_30">
    <path clip-path="url(#pb3d1d92eb6)" d="M 325.654867 470.199993 
L 377.332575 470.784949 
L 429.010283 461.217992 
L 480.687992 434.842424 
L 532.3657 395.804462 
L 584.043408 240.000415 
" style="fill:none;stroke:#0000ff;stroke-dasharray:7.4,3.2;stroke-dashoffset:0;stroke-width:2;"/>
    <g clip-path="url(#pb3d1d92eb6)">
     <use style="fill-opacity:0;stroke:#000000;" x="325.654867" xlink:href="#mbf778d2eaf" y="470.199993"/>
     <use style="fill-opacity:0;stroke:#000000;" x="377.332575" xlink:href="#mbf778d2eaf" y="470.784949"/>
     <use style="fill-opacity:0;stroke:#000000;" x="429.010283" xlink:href="#mbf778d2eaf" y="461.217992"/>
     <use style="fill-opacity:0;stroke:#000000;" x="480.687992" xlink:href="#mbf778d2eaf" y="434.842424"/>
     <use style="fill-opacity:0;stroke:#000000;" x="532.3657" xlink:href="#mbf778d2eaf" y="395.804462"/>
     <use style="fill-opacity:0;stroke:#000000;" x="584.043408" xlink:href="#mbf778d2eaf" y="240.000415"/>
    </g>
   </g>
   <g id="patch_3">
    <path d="M 61.065 491.894035 
L 61.065 22.318125 
" style="fill:none;stroke:#000000;stroke-linecap:square;stroke-linejoin:miter;stroke-width:0.8;"/>
   </g>
   <g id="patch_4">
    <path d="M 67.266325 511.714837 
L 687.398825 511.714837 
" style="fill:none;stroke:#000000;stroke-linecap:square;stroke-linejoin:miter;stroke-width:0.8;"/>
   </g>
   <g id="text_18">
    <!-- V11A -->
    <defs>
     <path d="M 28.609375 0 
L 0.78125 72.90625 
L 11.078125 72.90625 
L 34.1875 11.53125 
L 57.328125 72.90625 
L 67.578125 72.90625 
L 39.796875 0 
z
" id="DejaVuSans-86"/>
     <path d="M 34.1875 63.1875 
L 20.796875 26.90625 
L 47.609375 26.90625 
z
M 28.609375 72.90625 
L 39.796875 72.90625 
L 67.578125 0 
L 57.328125 0 
L 50.6875 18.703125 
L 17.828125 18.703125 
L 11.1875 0 
L 0.78125 0 
z
" id="DejaVuSans-65"/>
    </defs>
    <g transform="translate(361.488825 16.318125)scale(0.12 -0.12)">
     <use xlink:href="#DejaVuSans-86"/>
     <use x="68.408203" xlink:href="#DejaVuSans-49"/>
     <use x="132.03125" xlink:href="#DejaVuSans-49"/>
     <use x="195.654297" xlink:href="#DejaVuSans-65"/>
    </g>
   </g>
   <g id="legend_1">
    <g id="patch_5">
     <path d="M 74.266325 103.70875 
L 169.660075 103.70875 
Q 171.660075 103.70875 171.660075 101.70875 
L 171.660075 29.318125 
Q 171.660075 27.318125 169.660075 27.318125 
L 74.266325 27.318125 
Q 72.266325 27.318125 72.266325 29.318125 
L 72.266325 101.70875 
Q 72.266325 103.70875 74.266325 103.70875 
z
" style="fill:#ffffff;opacity:0.8;stroke:#cccccc;stroke-linejoin:miter;"/>
    </g>
    <g id="LineCollection_6">
     <path d="M 86.266325 40.416562 
L 86.266325 30.416562 
" style="fill:none;stroke:#000000;"/>
    </g>
    <g id="line2d_31">
     <g>
      <use style="stroke:#000000;" x="86.266325" xlink:href="#mde0c20da58" y="40.416562"/>
     </g>
    </g>
    <g id="line2d_32">
     <g>
      <use style="stroke:#000000;" x="86.266325" xlink:href="#mde0c20da58" y="30.416562"/>
     </g>
    </g>
    <g id="line2d_33">
     <path d="M 76.266325 35.416562 
L 96.266325 35.416562 
" style="fill:none;stroke:#000000;stroke-dasharray:7.4,3.2;stroke-dashoffset:0;stroke-width:2;"/>
    </g>
    <g id="line2d_34">
     <g>
      <use style="fill-opacity:0;stroke:#000000;" x="86.266325" xlink:href="#mbf778d2eaf" y="35.416562"/>
     </g>
    </g>
    <g id="text_19">
     <!-- dt = 1.25e-7 -->
     <defs>
      <path d="M 10.59375 45.40625 
L 73.1875 45.40625 
L 73.1875 37.203125 
L 10.59375 37.203125 
z
M 10.59375 25.484375 
L 73.1875 25.484375 
L 73.1875 17.1875 
L 10.59375 17.1875 
z
" id="DejaVuSans-61"/>
      <path d="M 10.796875 72.90625 
L 49.515625 72.90625 
L 49.515625 64.59375 
L 19.828125 64.59375 
L 19.828125 46.734375 
Q 21.96875 47.46875 24.109375 47.828125 
Q 26.265625 48.1875 28.421875 48.1875 
Q 40.625 48.1875 47.75 41.5 
Q 54.890625 34.8125 54.890625 23.390625 
Q 54.890625 11.625 47.5625 5.09375 
Q 40.234375 -1.421875 26.90625 -1.421875 
Q 22.3125 -1.421875 17.546875 -0.640625 
Q 12.796875 0.140625 7.71875 1.703125 
L 7.71875 11.625 
Q 12.109375 9.234375 16.796875 8.0625 
Q 21.484375 6.890625 26.703125 6.890625 
Q 35.15625 6.890625 40.078125 11.328125 
Q 45.015625 15.765625 45.015625 23.390625 
Q 45.015625 31 40.078125 35.4375 
Q 35.15625 39.890625 26.703125 39.890625 
Q 22.75 39.890625 18.8125 39.015625 
Q 14.890625 38.140625 10.796875 36.28125 
z
" id="DejaVuSans-53"/>
      <path d="M 4.890625 31.390625 
L 31.203125 31.390625 
L 31.203125 23.390625 
L 4.890625 23.390625 
z
" id="DejaVuSans-45"/>
      <path d="M 8.203125 72.90625 
L 55.078125 72.90625 
L 55.078125 68.703125 
L 28.609375 0 
L 18.3125 0 
L 43.21875 64.59375 
L 8.203125 64.59375 
z
" id="DejaVuSans-55"/>
     </defs>
     <g transform="translate(104.266325 38.916562)scale(0.1 -0.1)">
      <use xlink:href="#DejaVuSans-100"/>
      <use x="63.476562" xlink:href="#DejaVuSans-116"/>
      <use x="102.685547" xlink:href="#DejaVuSans-32"/>
      <use x="134.472656" xlink:href="#DejaVuSans-61"/>
      <use x="218.261719" xlink:href="#DejaVuSans-32"/>
      <use x="250.048828" xlink:href="#DejaVuSans-49"/>
      <use x="313.671875" xlink:href="#DejaVuSans-46"/>
      <use x="345.458984" xlink:href="#DejaVuSans-50"/>
      <use x="409.082031" xlink:href="#DejaVuSans-53"/>
      <use x="472.705078" xlink:href="#DejaVuSans-101"/>
      <use x="534.228516" xlink:href="#DejaVuSans-45"/>
      <use x="570.3125" xlink:href="#DejaVuSans-55"/>
     </g>
    </g>
    <g id="LineCollection_7">
     <path d="M 86.266325 55.094687 
L 86.266325 45.094687 
" style="fill:none;stroke:#000000;"/>
    </g>
    <g id="line2d_35">
     <g>
      <use style="stroke:#000000;" x="86.266325" xlink:href="#mde0c20da58" y="55.094687"/>
     </g>
    </g>
    <g id="line2d_36">
     <g>
      <use style="stroke:#000000;" x="86.266325" xlink:href="#mde0c20da58" y="45.094687"/>
     </g>
    </g>
    <g id="line2d_37">
     <path d="M 76.266325 50.094687 
L 96.266325 50.094687 
" style="fill:none;stroke:#ff00ff;stroke-dasharray:7.4,3.2;stroke-dashoffset:0;stroke-width:2;"/>
    </g>
    <g id="line2d_38">
     <g>
      <use style="fill-opacity:0;stroke:#000000;" x="86.266325" xlink:href="#mbf778d2eaf" y="50.094687"/>
     </g>
    </g>
    <g id="text_20">
     <!-- dt = 2.5e-7 -->
     <g transform="translate(104.266325 53.594687)scale(0.1 -0.1)">
      <use xlink:href="#DejaVuSans-100"/>
      <use x="63.476562" xlink:href="#DejaVuSans-116"/>
      <use x="102.685547" xlink:href="#DejaVuSans-32"/>
      <use x="134.472656" xlink:href="#DejaVuSans-61"/>
      <use x="218.261719" xlink:href="#DejaVuSans-32"/>
      <use x="250.048828" xlink:href="#DejaVuSans-50"/>
      <use x="313.671875" xlink:href="#DejaVuSans-46"/>
      <use x="345.458984" xlink:href="#DejaVuSans-53"/>
      <use x="409.082031" xlink:href="#DejaVuSans-101"/>
      <use x="470.605469" xlink:href="#DejaVuSans-45"/>
      <use x="506.689453" xlink:href="#DejaVuSans-55"/>
     </g>
    </g>
    <g id="LineCollection_8">
     <path d="M 86.266325 69.772812 
L 86.266325 59.772812 
" style="fill:none;stroke:#000000;"/>
    </g>
    <g id="line2d_39">
     <g>
      <use style="stroke:#000000;" x="86.266325" xlink:href="#mde0c20da58" y="69.772812"/>
     </g>
    </g>
    <g id="line2d_40">
     <g>
      <use style="stroke:#000000;" x="86.266325" xlink:href="#mde0c20da58" y="59.772812"/>
     </g>
    </g>
    <g id="line2d_41">
     <path d="M 76.266325 64.772812 
L 96.266325 64.772812 
" style="fill:none;stroke:#ff0000;stroke-dasharray:7.4,3.2;stroke-dashoffset:0;stroke-width:2;"/>
    </g>
    <g id="line2d_42">
     <g>
      <use style="fill-opacity:0;stroke:#000000;" x="86.266325" xlink:href="#mbf778d2eaf" y="64.772812"/>
     </g>
    </g>
    <g id="text_21">
     <!-- dt = 5.0e-7 -->
     <g transform="translate(104.266325 68.272812)scale(0.1 -0.1)">
      <use xlink:href="#DejaVuSans-100"/>
      <use x="63.476562" xlink:href="#DejaVuSans-116"/>
      <use x="102.685547" xlink:href="#DejaVuSans-32"/>
      <use x="134.472656" xlink:href="#DejaVuSans-61"/>
      <use x="218.261719" xlink:href="#DejaVuSans-32"/>
      <use x="250.048828" xlink:href="#DejaVuSans-53"/>
      <use x="313.671875" xlink:href="#DejaVuSans-46"/>
      <use x="345.458984" xlink:href="#DejaVuSans-48"/>
      <use x="409.082031" xlink:href="#DejaVuSans-101"/>
      <use x="470.605469" xlink:href="#DejaVuSans-45"/>
      <use x="506.689453" xlink:href="#DejaVuSans-55"/>
     </g>
    </g>
    <g id="LineCollection_9">
     <path d="M 86.266325 84.450937 
L 86.266325 74.450937 
" style="fill:none;stroke:#000000;"/>
    </g>
    <g id="line2d_43">
     <g>
      <use style="stroke:#000000;" x="86.266325" xlink:href="#mde0c20da58" y="84.450937"/>
     </g>
    </g>
    <g id="line2d_44">
     <g>
      <use style="stroke:#000000;" x="86.266325" xlink:href="#mde0c20da58" y="74.450937"/>
     </g>
    </g>
    <g id="line2d_45">
     <path d="M 76.266325 79.450937 
L 96.266325 79.450937 
" style="fill:none;stroke:#008000;stroke-dasharray:7.4,3.2;stroke-dashoffset:0;stroke-width:2;"/>
    </g>
    <g id="line2d_46">
     <g>
      <use style="fill-opacity:0;stroke:#000000;" x="86.266325" xlink:href="#mbf778d2eaf" y="79.450937"/>
     </g>
    </g>
    <g id="text_22">
     <!-- dt = 7.5e-7 -->
     <g transform="translate(104.266325 82.950937)scale(0.1 -0.1)">
      <use xlink:href="#DejaVuSans-100"/>
      <use x="63.476562" xlink:href="#DejaVuSans-116"/>
      <use x="102.685547" xlink:href="#DejaVuSans-32"/>
      <use x="134.472656" xlink:href="#DejaVuSans-61"/>
      <use x="218.261719" xlink:href="#DejaVuSans-32"/>
      <use x="250.048828" xlink:href="#DejaVuSans-55"/>
      <use x="313.671875" xlink:href="#DejaVuSans-46"/>
      <use x="345.458984" xlink:href="#DejaVuSans-53"/>
      <use x="409.082031" xlink:href="#DejaVuSans-101"/>
      <use x="470.605469" xlink:href="#DejaVuSans-45"/>
      <use x="506.689453" xlink:href="#DejaVuSans-55"/>
     </g>
    </g>
    <g id="LineCollection_10">
     <path d="M 86.266325 99.129062 
L 86.266325 89.129062 
" style="fill:none;stroke:#000000;"/>
    </g>
    <g id="line2d_47">
     <g>
      <use style="stroke:#000000;" x="86.266325" xlink:href="#mde0c20da58" y="99.129062"/>
     </g>
    </g>
    <g id="line2d_48">
     <g>
      <use style="stroke:#000000;" x="86.266325" xlink:href="#mde0c20da58" y="89.129062"/>
     </g>
    </g>
    <g id="line2d_49">
     <path d="M 76.266325 94.129062 
L 96.266325 94.129062 
" style="fill:none;stroke:#0000ff;stroke-dasharray:7.4,3.2;stroke-dashoffset:0;stroke-width:2;"/>
    </g>
    <g id="line2d_50">
     <g>
      <use style="fill-opacity:0;stroke:#000000;" x="86.266325" xlink:href="#mbf778d2eaf" y="94.129062"/>
     </g>
    </g>
    <g id="text_23">
     <!-- dt = 10.0e-7 -->
     <g transform="translate(104.266325 97.629062)scale(0.1 -0.1)">
      <use xlink:href="#DejaVuSans-100"/>
      <use x="63.476562" xlink:href="#DejaVuSans-116"/>
      <use x="102.685547" xlink:href="#DejaVuSans-32"/>
      <use x="134.472656" xlink:href="#DejaVuSans-61"/>
      <use x="218.261719" xlink:href="#DejaVuSans-32"/>
      <use x="250.048828" xlink:href="#DejaVuSans-49"/>
      <use x="313.671875" xlink:href="#DejaVuSans-48"/>
      <use x="377.294922" xlink:href="#DejaVuSans-46"/>
      <use x="409.082031" xlink:href="#DejaVuSans-48"/>
      <use x="472.705078" xlink:href="#DejaVuSans-101"/>
      <use x="534.228516" xlink:href="#DejaVuSans-45"/>
      <use x="570.3125" xlink:href="#DejaVuSans-55"/>
     </g>
    </g>
   </g>
  </g>
 </g>
 <defs>
  <clipPath id="pb3d1d92eb6">
   <rect height="484.5512" width="620.1325" x="67.266325" y="22.318125"/>
  </clipPath>
 </defs>
</svg>
